<?xml version="1.0" encoding="utf-8" ?>
<svg baseProfile="full" height="200mm" version="1.1" viewBox="0,0,200,200" width="200mm" xmlns="http://www.w3.org/2000/svg" xmlns:ev="http://www.w3.org/2001/xml-events" xmlns:xlink="http://www.w3.org/1999/xlink"><defs /><rect fill="#1a1a1a" height="200" width="200" x="0" y="0" /><text alignment-baseline="middle" fill="#e1ed5e" style="dominant-baseline: central; font-size:9.0px; font-family:Arial;" text-anchor="middle" x="100.0" y="100.0">2025</text><line stroke="#e1ed5e" stroke-width="0.3" x1="100.0" x2="100.0" y1="15.0" y2="10.0" /><path d="M 100.0 14.0 a86.0,86.0 0 0,1 42.46469731375804,11.215312516191453" fill="none" id="id97" stroke="none" /><text fill="#e1ed5e" style="font-size:6.75px; font-family:Arial;" text-anchor="middle"><textPath startOffset="22.20632615414155" xlink:href="#id97">January</textPath></text><path d="M 101.44485096284872 79.0497635885617 l 0.5684628493450997 -8.242670968235114 a29.262249978164032,29.262249978164032 0 0,0 0.5022096177839017,0.03898113194832136 l -0.7102626564913426 8.231664574098328" fill="#ff0000" stroke="none" /><path d="M 101.80526077348638 79.07773832637324 l 2.3764707315221063 -27.542360214584235 a48.644696043322554,48.644696043322554 0 0,0 0.8336192288725907,0.07916219045262919 l -2.850215087484941 27.497372479616427" fill="#dcff1b" stroke="none" /><path d="M 103.95276090670814 79.375362276772 l 4.096384676224294 -21.374034988741407 a42.76303607301948,42.76303607301948 0 0,0 0.7217455436879587,0.14477536623425322 l -4.4636966293793785 21.300355666429944" fill="#ffd013" stroke="none" /><path d="M 104.307194497241 79.44645832069477 l 7.52479933052583 -35.90766025714413 a57.68763647480129,57.68763647480129 0 0,0 0.9701337403553524,0.2120336601241418 l -8.14177579503471 35.77281309892412" fill="#6bff28" stroke="none" /><path d="M 104.66035177308747 79.52364482259891 l 6.150064621507153 -27.021760091410496 a48.71279151017556,48.71279151017556 0 0,0 0.8160002950101355,0.19312090591674783 l -6.614288603479812 26.911893273352877" fill="#dcff1b" stroke="none" /><path d="M 105.01212808612495 79.60689891045804 l 6.600826909126738 -26.857120991188197 a48.65638920429732,48.65638920429732 0 0,0 0.811614316521298,0.2068985606278664 l -7.062150114333061 26.739519434391465" fill="#dcff1b" stroke="none" /><path d="M 105.36241919743992 79.69619591428918 l 7.052489891086735 -26.70294279370077 a48.61855838937899,48.61855838937899 0 0,0 0.8073044730131769,0.22066680857764445 l -7.511092253323623 26.577589444296834" fill="#ddff1b" stroke="none" /><path d="M 105.71112130821622 79.79150937346287 l 3.0795983305473253 -10.896990387305022 a32.32379465455498,32.32379465455498 0 0,0 0.5341272831157035,0.1559264006759571 l -3.2667158313864557 10.842365657710362" fill="#ff3204" stroke="none" /><path d="M 106.0581310904928 79.89281104454417 l 12.447768786644913 -41.314662117444364 a64.14913966285265,64.14913966285265 0 0,0 1.0545343495066553,0.32764895560190116 l -13.157088508862286 41.09427302695994" fill="#31ff40" stroke="none" /><path d="M 106.40334571778207 80.00007090966166 l 13.381085360986642 -41.79389496780024 a64.88374530526684,64.88374530526684 0 0,0 1.0607478247879052,0.34971188034359146 l -14.098516008016965 41.55736936319742" fill="#32ff4a" stroke="none" /><path d="M 106.74666289553966 80.11325718540242 l 11.639010002229677 -34.3076276545393 a57.22816403179317,57.22816403179317 0 0,0 0.9301429646890423,0.3245086165441378 l -12.227834970981993 34.10219818482296" fill="#70ff27" stroke="none" /><path d="M 107.08798089147638 80.2323363322302 l 9.336986270418716 -26.039912789011005 a48.66326753428247,48.66326753428247 0 0,0 0.786068592061247,0.2895156963618963 l -9.783837188252539 25.875333824842784" fill="#dcff1b" stroke="none" /><path d="M 107.4271985657038 80.35727306442388 l 10.216614709708136 -27.019901403399526 a49.88692243864092,49.88692243864092 0 0,0 0.8006063194370407,0.3106228137761284 l -10.680204194144844 26.840035885732853" fill="#ccff1d" stroke="none" /><path d="M 107.76421540070413 80.48803036053334 l 4.478376928325613 -11.254447506911342 a33.112739103851865,33.112739103851865 0 0,0 0.5277794238176468,0.2152944787273464 l -4.671440221731647 11.175692142000416" fill="#ff3f05" stroke="none" /><line stroke="#e1ed5e" stroke-width="0.3" x1="143.23703022742887" x2="145.7803849466894" y1="26.81831364943548" y2="22.513508569990506" /><path d="M 143.74570117128098 25.957352633546492 a86.0,86.0 0 0,1 28.547481713284135,27.462654790039103" fill="none" id="id98" stroke="none" /><text fill="#e1ed5e" style="font-size:6.75px; font-family:Arial;" text-anchor="middle"><textPath startOffset="19.985693538727396" xlink:href="#id98">February</textPath></text><path d="M 111.90073688211348 82.69761687909136 l 14.215866257664802 -20.668330610300174 a46.085269455847666,46.085269455847666 0 0,0 0.6497339623701522,0.4551801624024305 l -14.569531359618605 20.42056560513381" fill="#ffff18" stroke="none" /><path d="M 113.06298171725822 83.55741782278167 l 18.734465372691997 -23.581368565322787 a51.11745567298455,51.11745567298455 0 0,0 0.6842353839860109,0.5532707618019292 l -19.1376041552425 23.255391706256727" fill="#bcff1f" stroke="none" /><path d="M 113.6212207817346 84.01681056812373 l 19.838453247465207 -23.2785123573394 a51.585182111974845,51.585182111974845 0 0,0 0.6708682444150639,0.5817703307112866 l -20.236215290527035 22.933577033208444" fill="#b6ff1f" stroke="none" /><path d="M 114.16331599549186 84.49514656593476 l 27.125428407122886 -29.694726286029216 a61.2189710891781,61.2189710891781 0 0,0 0.771919090790741,0.7174146681083762 l -27.632555381708475 29.2234070318462" fill="#42ff2d" stroke="none" /><path d="M 114.42810811169701 84.74124197986012 l 15.755736017686418 -16.662819647724586 a43.932352170495236,43.932352170495236 0 0,0 0.5450054232349694,0.5242947853448096 l -16.040224684533808 16.389141775617475" fill="#ffe115" stroke="none" /><path d="M 114.68862486808459 84.99185889309783 l 19.4079983135601 -19.830173342183834 a48.747183160101315,48.747183160101315 0 0,0 0.5946325318240154,0.5920789907587667 l -19.74646664555144 19.493158500774946" fill="#dbff1b" stroke="none" /><path d="M 114.94478906791727 85.2469230424477 l 20.409740376456803 -20.14792374045145 a49.67919687308935,49.67919687308935 0 0,0 0.5955252001659691,0.6137410669140086 l -20.75352984032588 19.793618477987327" fill="#cfff1d" stroke="none" /><path d="M 115.19652480421416 85.50635884689758 l 16.689929465786474 -15.917971487837702 a44.06372827321163,44.06372827321163 0 0,0 0.5187615973786639,0.5533787024771927 l -16.9614583851356 15.628323368482453" fill="#ffe315" stroke="none" /><path d="M 115.4437574822437 85.77008943001954 l 16.937683712620576 -15.606417335309613 a44.031400122281426,44.031400122281426 0 0,0 0.5087856786786407,0.5618138540659308 l -17.203813031915253 15.312550693974133" fill="#ffe215" stroke="none" /><path d="M 116.38621287248628 86.86637796730983 l 22.33961497919567 -17.905300131015686 a49.62967289719626,49.62967289719626 0 0,0 0.5285463726149657,0.6712002184964992 l -22.6445154324046 17.51810751856615" fill="#cfff1d" stroke="none" /><path d="M 116.60985879189232 87.15038557335679 l 23.68145285676524 -18.320296522972054 a50.94068259236614,50.94068259236614 0 0,0 0.5305691859217692,0.6981668560521425 l -23.993297982911123 17.90994489103888" fill="#beff1e" stroke="none" /><path d="M 116.82858285166822 87.43820079747576 l 17.46375198126705 -13.035925107004179 a42.79261289195563,42.79261289195563 0 0,0 0.43554196586868127,0.5940787519729752 l -17.685556559649353 12.73338391135971" fill="#ffd113" stroke="none" /><path d="M 117.04232023915458 87.72973835380427 l 51.126960717463746 -36.81078493858721 a84.0,84.0 0 0,0 0.8347495207844684,1.1806939986728273 l -51.75302285805209 35.92526443958259" fill="#4dd2ff" stroke="none" /><path d="M 117.45458315368197 88.32363383020206 l 34.75804520027085 -23.251638812075463 a62.81818281072583,62.81818281072583 0 0,0 0.5934923252547128,0.9039295285309301 l -35.15313416088348 22.649891219566857" fill="#30ff2f" stroke="none" /><path d="M 117.65298651832404 88.62581576622439 l 23.380878761512005 -15.064783644680245 a48.813902960957286,48.813902960957286 0 0,0 0.4490237605516562,0.7102477559033797 l -23.636730118309615 14.66008824106266" fill="#daff1c" stroke="none" /><line stroke="#e1ed5e" stroke-width="0.3" x1="172.23445277983987" x2="176.4835382374775" y1="55.19839476539836" y2="52.563006222186495" /><path d="M 173.08426987136738 54.67131705675599 a86.0,86.0 0 0,1 12.851231095245387,41.99856678651699" fill="none" id="id99" stroke="none" /><text fill="#e1ed5e" style="font-size:6.75px; font-family:Arial;" text-anchor="middle"><textPath startOffset="22.20632615414155" xlink:href="#id99">March</textPath></text><path d="M 117.84615892207809 88.93136811851018 l 24.10961669905776 -14.95338426665852 a49.37035985675605,49.37035985675605 0 0,0 0.44171003095278416,0.7260551510537946 l -24.36344252829677 14.536161342397644" fill="#d3ff1c" stroke="none" /><path d="M 118.03404312379186 89.2402003453031 l 24.968895871445294 -14.897397956274325 a50.075388680234084,50.075388680234084 0 0,0 0.43527513098641984,0.7440262953625589 l -25.22163067690204 14.46539224855787" fill="#caff1d" stroke="none" /><path d="M 118.3937258080291 89.86733742301442 l 39.68572057908418 -21.861912042684775 a66.30893527819023,66.30893527819023 0 0,0 0.5421289112720131,1.0044825374747388 l -40.05615758957466 21.175548521877577" fill="#34ff5d" stroke="none" /><path d="M 119.04729006885535 91.15688171328212 l 11.823036753042114 -5.489101711446105 a34.035123154860685,34.035123154860685 0 0,0 0.2421318352953965,0.5335054032823826 l -11.915770905300858 5.2847742993216595" fill="#ff4d07" stroke="none" /><path d="M 119.196687751892 91.48605970444005 l 25.267646541101804 -11.20647670268272 a48.64125687832998,48.64125687832998 0 0,0 0.3328666903973631,0.7683022149964213 l -25.45680394134185 10.769875343099695" fill="#dcff1b" stroke="none" /><line stroke="#e1ed5e" stroke-width="0.3" x1="184.98032266829074" x2="189.97916517819016" y1="98.17113171792111" y2="98.06355123074" /><path d="M 185.9800911702706 98.14961562048488 a86.0,86.0 0 0,1 -9.607161424134198,41.387399972396054" fill="none" id="id100" stroke="none" /><text fill="#e1ed5e" style="font-size:6.75px; font-family:Arial;" text-anchor="middle"><textPath startOffset="21.466115282336823" xlink:href="#id100">April</textPath></text><line stroke="#e1ed5e" stroke-width="0.3" x1="174.80103733775053" x2="179.2010983576182" y1="140.37084112569926" y2="142.7455964860345" /><path d="M 175.68104954172406 140.8457921977663 a86.0,86.0 0 0,1 -30.038265399797805,32.042727171017184" fill="none" id="id101" stroke="none" /><text fill="#e1ed5e" style="font-size:6.75px; font-family:Arial;" text-anchor="middle"><textPath startOffset="22.206326154141568" xlink:href="#id101">May</textPath></text><line stroke="#e1ed5e" stroke-width="0.3" x1="143.8653032363475" x2="146.44561519142675" y1="172.8068346515853" y2="177.08958963109032" /><path d="M 144.38136562736335 173.6633856474863 a86.0,86.0 0 0,1 -40.68145358897372,12.25698825130547" fill="none" id="id102" stroke="none" /><text fill="#e1ed5e" style="font-size:6.75px; font-family:Arial;" text-anchor="middle"><textPath startOffset="21.466115282336833" xlink:href="#id102">June</textPath></text><line stroke="#e1ed5e" stroke-width="0.3" x1="102.19456741930631" x2="102.32365962044197" y1="184.97166512339345" y2="189.96999836594603" /><path d="M 102.22038585953345 185.97133177190398 a86.0,86.0 0 0,1 -42.740103519485714,-10.115201625700543" fill="none" id="id103" stroke="none" /><text fill="#e1ed5e" style="font-size:6.75px; font-family:Arial;" text-anchor="middle"><textPath startOffset="22.20632615414155" xlink:href="#id103">July</textPath></text><line stroke="#e1ed5e" stroke-width="0.3" x1="58.666819895761336" x2="56.23545636021788" y1="174.27360380694188" y2="178.64263932499728" /><path d="M 58.180547188652646 175.14741091055294 a86.0,86.0 0 0,1 -31.652253787137756,-30.449443065178592" fill="none" id="id104" stroke="none" /><text fill="#e1ed5e" style="font-size:6.75px; font-family:Arial;" text-anchor="middle"><textPath startOffset="22.20632615414155" xlink:href="#id104">August</textPath></text><line stroke="#e1ed5e" stroke-width="0.3" x1="26.63291911575756" x2="22.317208475507996" y1="142.92168965132927" y2="145.44649492493687" /><path d="M 25.769776987707644 143.4266507060508 a86.0,86.0 0 0,1 -11.730757126820373,-40.83630448921669" fill="none" id="id105" stroke="none" /><text fill="#e1ed5e" style="font-size:6.75px; font-family:Arial;" text-anchor="middle"><textPath startOffset="21.46611528233685" xlink:href="#id105">September</textPath></text><line stroke="#e1ed5e" stroke-width="0.3" x1="15.007084014347285" x2="10.007500721073583" y1="101.09737516637583" y2="101.16192664675087" /><path d="M 14.007167355692545 101.11028546245083 a86.0,86.0 0 0,1 10.666146001902534,-42.60595125391555" fill="none" id="id106" stroke="none" /><text fill="#e1ed5e" style="font-size:6.75px; font-family:Arial;" text-anchor="middle"><textPath startOffset="22.20632615414155" xlink:href="#id106">October</textPath></text><line stroke="#e1ed5e" stroke-width="0.3" x1="26.266209847984243" x2="21.928928074336255" y1="57.711370442889674" y2="55.22380399835377" /><path d="M 25.398753493254645 57.213857153982495 a86.0,86.0 0 0,1 29.58750427330803,-30.492523968695096" fill="none" id="id107" stroke="none" /><text fill="#e1ed5e" style="font-size:6.75px; font-family:Arial;" text-anchor="middle"><textPath startOffset="21.46611528233685" xlink:href="#id107">November</textPath></text><line stroke="#e1ed5e" stroke-width="0.3" x1="56.762969772571076" x2="54.21961505331055" y1="26.818313649435495" y2="22.513508569990535" /><path d="M 56.25429882871897 25.957352633546506 a86.0,86.0 0 0,1 42.265352541879196,-11.944610805530505" fill="none" id="id108" stroke="none" /><text fill="#e1ed5e" style="font-size:6.75px; font-family:Arial;" text-anchor="middle"><textPath startOffset="22.20632615414155" xlink:href="#id108">December</textPath></text></svg>