<?xml version="1.0" encoding="utf-8" ?>
<svg baseProfile="full" height="200mm" version="1.1" viewBox="0,0,200,200" width="200mm" xmlns="http://www.w3.org/2000/svg" xmlns:ev="http://www.w3.org/2001/xml-events" xmlns:xlink="http://www.w3.org/1999/xlink"><defs /><rect fill="#1a1a1a" height="200" width="200" x="0" y="0" /><text alignment-baseline="middle" fill="#e1ed5e" style="dominant-baseline: central; font-size:9.0px; font-family:Arial;" text-anchor="middle" x="100.0" y="100.0">2023</text><line stroke="#e1ed5e" stroke-width="0.3" x1="100.0" x2="100.0" y1="15.0" y2="10.0" /><path d="M 100.0 14.0 a86.0,86.0 0 0,1 42.46469731375804,11.215312516191453" fill="none" id="id73" stroke="none" /><text fill="#e1ed5e" style="font-size:6.75px; font-family:Arial;" text-anchor="middle"><textPath startOffset="22.20632615414155" xlink:href="#id73">January</textPath></text><path d="M 103.95276090670814 79.375362276772 l 7.071920470751943 -36.89972683883075 a58.5712909004331,58.5712909004331 0 0,0 0.9885539493326663,0.19829462240341905 l -7.706040829551734 36.77252826035013" fill="#ffcf13" stroke="none" /><path d="M 104.66035177308747 79.52364482259891 l 13.981055319262426 -61.429065532203275 a84.0,84.0 0 0,0 1.407105252149906,0.3330163514365254 l -15.036384258374856 61.17930326862588" fill="#4dd2ff" stroke="none" /><line stroke="#e1ed5e" stroke-width="0.3" x1="143.23703022742887" x2="145.7803849466894" y1="26.81831364943548" y2="22.513508569990506" /><path d="M 143.74570117128098 25.957352633546492 a86.0,86.0 0 0,1 28.547481713284135,27.462654790039103" fill="none" id="id74" stroke="none" /><text fill="#e1ed5e" style="font-size:6.75px; font-family:Arial;" text-anchor="middle"><textPath startOffset="19.985693538727396" xlink:href="#id74">February</textPath></text><path d="M 112.48926042617603 83.11751280151076 l 22.14711962015987 -29.93759844154675 a58.239155574703524,58.239155574703524 0 0,0 0.8007990559075979,0.6031452466040983 l -22.65916482982585 29.551936605436804" fill="#ffc712" stroke="none" /><path d="M 114.94478906791727 85.2469230424477 l 28.791957406350303 -28.42261349049944 a61.45765402145076,61.45765402145076 0 0,0 0.7367184660080708,0.7592531386027538 l -29.27694013606148 27.92279615634657" fill="#eeff19" stroke="none" /><path d="M 115.19652480421416 85.50635884689758 l 27.476141092347664 -26.205289327337862 a58.96913902179089,58.96913902179089 0 0,0 0.6942427695930208,0.7405697819245697 l -27.923151183911145 25.728450128535236" fill="#ffd814" stroke="none" /><path d="M 115.4437574822437 85.77008943001954 l 26.69450731809286 -24.596375090899432 a57.29846261989523,57.29846261989523 0 0,0 0.6620874446496164,0.73109349298766 l -27.113938403358514 24.133228810642223" fill="#ffb110" stroke="none" /><path d="M 116.15771136456269 86.58626213691792 l 22.5697225795286 -18.736833174793805 a50.33362055282193,50.33362055282193 0 0,0 0.5476813426463653,0.6713925675135465 l -22.888902414251376 18.34555643767216" fill="#ff0000" stroke="none" /><path d="M 116.82858285166822 87.43820079747576 l 32.43492695877522 -24.21125077470711 a61.474796489875516,61.474796489875516 0 0,0 0.6256886856191659,0.8534386640214545 l -32.84687825690801 23.64934966701416" fill="#edff19" stroke="none" /><path d="M 117.45458315368197 88.32363383020206 l 31.101105904807273 -20.805303548804034 a58.41843722364572,58.41843722364572 0 0,0 0.551924500109674,0.8406188790304752 l -31.45462704027487 20.266866605795883" fill="#ffcb12" stroke="none" /><line stroke="#e1ed5e" stroke-width="0.3" x1="172.23445277983987" x2="176.4835382374775" y1="55.19839476539836" y2="52.563006222186495" /><path d="M 173.08426987136738 54.67131705675599 a86.0,86.0 0 0,1 12.851231095245387,41.99856678651699" fill="none" id="id75" stroke="none" /><text fill="#e1ed5e" style="font-size:6.75px; font-family:Arial;" text-anchor="middle"><textPath startOffset="22.20632615414155" xlink:href="#id75">March</textPath></text><path d="M 117.84615892207809 88.93136811851018 l 30.564799654055 -18.95704937849045 a56.96632729416566,56.96632729416566 0 0,0 0.5096701394395242,0.8377637004986378 l -30.886585591780747 18.428117904784727" fill="#ffa90f" stroke="none" /><path d="M 118.3937258080291 89.86733742301442 l 31.718447588759908 -17.47293235949045 a57.21275027777147,57.21275027777147 0 0,0 0.4677602782918994,0.8666887552004885 l -32.014515966270274 16.924362620957503" fill="#ffaf10" stroke="none" /><path d="M 118.89224826269711 90.83032412892265 l 28.37114391832167 -13.770420026523436 a52.53642774540259,52.53642774540259 0 0,0 0.38787345936901385,0.816960425495903 l -28.60397557153244 13.280017185386992" fill="#ff3a05" stroke="none" /><path d="M 119.34039704204932 91.81776055985345 l 29.01914724540137 -12.276977075212287 a52.50928550373007,52.50928550373007 0 0,0 0.34500679221979635,0.8354613130535216 l -29.226175724507364 11.775641191705462" fill="#ff3a05" stroke="none" /><path d="M 119.61058180528143 92.48833698450437 l 33.452626106447 -12.813737847763742 a56.82275912110836,56.82275912110836 0 0,0 0.34200647721835803,0.9164073240226105 l -33.66823717216698 12.2360073867118" fill="#ffa50f" stroke="none" /><path d="M 119.85752413597 93.16781622104841 l 34.36151812036485 -11.82243088889691 a57.33846171288633,57.33846171288633 0 0,0 0.3130753900458712,0.9360555672493581 l -34.559930804182486 11.229202218725238" fill="#ffb210" stroke="none" /><path d="M 119.97218684219823 93.5106431181261 l 34.058599522934585 -11.066309811110116 a56.81133080882519,56.81133080882519 0 0,0 0.2941866992995285,0.9326522305445777 l -34.24404170600232 10.478407414139118" fill="#ffa50f" stroke="none" /><line stroke="#e1ed5e" stroke-width="0.3" x1="184.98032266829074" x2="189.97916517819016" y1="98.17113171792111" y2="98.06355123074" /><path d="M 185.9800911702706 98.14961562048488 a86.0,86.0 0 0,1 -9.607161424134198,41.387399972396054" fill="none" id="id76" stroke="none" /><text fill="#e1ed5e" style="font-size:6.75px; font-family:Arial;" text-anchor="middle"><textPath startOffset="21.466115282336823" xlink:href="#id76">April</textPath></text><line stroke="#e1ed5e" stroke-width="0.3" x1="174.80103733775053" x2="179.2010983576182" y1="140.37084112569926" y2="142.7455964860345" /><path d="M 175.68104954172406 140.8457921977663 a86.0,86.0 0 0,1 -30.038265399797805,32.042727171017184" fill="none" id="id77" stroke="none" /><text fill="#e1ed5e" style="font-size:6.75px; font-family:Arial;" text-anchor="middle"><textPath startOffset="22.206326154141568" xlink:href="#id77">May</textPath></text><line stroke="#e1ed5e" stroke-width="0.3" x1="143.8653032363475" x2="146.44561519142675" y1="172.8068346515853" y2="177.08958963109032" /><path d="M 144.38136562736335 173.6633856474863 a86.0,86.0 0 0,1 -40.68145358897372,12.25698825130547" fill="none" id="id78" stroke="none" /><text fill="#e1ed5e" style="font-size:6.75px; font-family:Arial;" text-anchor="middle"><textPath startOffset="21.466115282336833" xlink:href="#id78">June</textPath></text><line stroke="#e1ed5e" stroke-width="0.3" x1="102.19456741930631" x2="102.32365962044197" y1="184.97166512339345" y2="189.96999836594603" /><path d="M 102.22038585953345 185.97133177190398 a86.0,86.0 0 0,1 -42.740103519485714,-10.115201625700543" fill="none" id="id79" stroke="none" /><text fill="#e1ed5e" style="font-size:6.75px; font-family:Arial;" text-anchor="middle"><textPath startOffset="22.20632615414155" xlink:href="#id79">July</textPath></text><line stroke="#e1ed5e" stroke-width="0.3" x1="58.666819895761336" x2="56.23545636021788" y1="174.27360380694188" y2="178.64263932499728" /><path d="M 58.180547188652646 175.14741091055294 a86.0,86.0 0 0,1 -31.652253787137756,-30.449443065178592" fill="none" id="id80" stroke="none" /><text fill="#e1ed5e" style="font-size:6.75px; font-family:Arial;" text-anchor="middle"><textPath startOffset="22.20632615414155" xlink:href="#id80">August</textPath></text><line stroke="#e1ed5e" stroke-width="0.3" x1="26.63291911575756" x2="22.317208475507996" y1="142.92168965132927" y2="145.44649492493687" /><path d="M 25.769776987707644 143.4266507060508 a86.0,86.0 0 0,1 -11.730757126820373,-40.83630448921669" fill="none" id="id81" stroke="none" /><text fill="#e1ed5e" style="font-size:6.75px; font-family:Arial;" text-anchor="middle"><textPath startOffset="21.46611528233685" xlink:href="#id81">September</textPath></text><line stroke="#e1ed5e" stroke-width="0.3" x1="15.007084014347285" x2="10.007500721073583" y1="101.09737516637583" y2="101.16192664675087" /><path d="M 14.007167355692545 101.11028546245083 a86.0,86.0 0 0,1 10.666146001902534,-42.60595125391555" fill="none" id="id82" stroke="none" /><text fill="#e1ed5e" style="font-size:6.75px; font-family:Arial;" text-anchor="middle"><textPath startOffset="22.20632615414155" xlink:href="#id82">October</textPath></text><line stroke="#e1ed5e" stroke-width="0.3" x1="26.266209847984243" x2="21.928928074336255" y1="57.711370442889674" y2="55.22380399835377" /><path d="M 25.398753493254645 57.213857153982495 a86.0,86.0 0 0,1 29.58750427330803,-30.492523968695096" fill="none" id="id83" stroke="none" /><text fill="#e1ed5e" style="font-size:6.75px; font-family:Arial;" text-anchor="middle"><textPath startOffset="21.46611528233685" xlink:href="#id83">November</textPath></text><line stroke="#e1ed5e" stroke-width="0.3" x1="56.762969772571076" x2="54.21961505331055" y1="26.818313649435495" y2="22.513508569990535" /><path d="M 56.25429882871897 25.957352633546506 a86.0,86.0 0 0,1 42.265352541879196,-11.944610805530505" fill="none" id="id84" stroke="none" /><text fill="#e1ed5e" style="font-size:6.75px; font-family:Arial;" text-anchor="middle"><textPath startOffset="22.20632615414155" xlink:href="#id84">December</textPath></text></svg>