<?xml version="1.0" encoding="utf-8" ?>
<svg baseProfile="full" height="200mm" version="1.1" viewBox="0,0,200,200" width="200mm" xmlns="http://www.w3.org/2000/svg" xmlns:ev="http://www.w3.org/2001/xml-events" xmlns:xlink="http://www.w3.org/1999/xlink"><defs /><rect fill="#1a1a1a" height="200" width="200" x="0" y="0" /><text alignment-baseline="middle" fill="#e1ed5e" style="dominant-baseline: central; font-size:9.0px; font-family:Arial;" text-anchor="middle" x="100.0" y="100.0">2018</text><line stroke="#e1ed5e" stroke-width="0.3" x1="100.0" x2="100.0" y1="15.0" y2="10.0" /><path d="M 100.0 14.0 a86.0,86.0 0 0,1 42.46469731375804,11.215312516191453" fill="none" id="id1" stroke="none" /><text fill="#e1ed5e" style="font-size:6.75px; font-family:Arial;" text-anchor="middle"><textPath startOffset="22.20632615414155" xlink:href="#id1">January</textPath></text><line stroke="#e1ed5e" stroke-width="0.3" x1="143.23703022742887" x2="145.7803849466894" y1="26.81831364943548" y2="22.513508569990506" /><path d="M 143.74570117128098 25.957352633546492 a86.0,86.0 0 0,1 28.547481713284135,27.462654790039103" fill="none" id="id2" stroke="none" /><text fill="#e1ed5e" style="font-size:6.75px; font-family:Arial;" text-anchor="middle"><textPath startOffset="19.985693538727396" xlink:href="#id2">February</textPath></text><path d="M 116.60985879189232 87.15038557335679 l 18.7432632529664 -14.50004535952168 a44.69728323665367,44.69728323665367 0 0,0 0.46554148811778884,0.6125980282031618 l -18.990080681308303 14.175262555437484" fill="#e3ff1b" stroke="none" /><path d="M 117.2510076193507 88.02491185347247 l 20.426815525961434 -14.179630655420937 a45.865975107681024,45.865975107681024 0 0,0 0.4446281138176542,0.652436892799848 l -20.667868105447823 13.825915739350682" fill="#d5ff1c" stroke="none" /><line stroke="#e1ed5e" stroke-width="0.3" x1="172.23445277983987" x2="176.4835382374775" y1="55.19839476539836" y2="52.563006222186495" /><path d="M 173.08426987136738 54.67131705675599 a86.0,86.0 0 0,1 12.851231095245387,41.99856678651699" fill="none" id="id3" stroke="none" /><text fill="#e1ed5e" style="font-size:6.75px; font-family:Arial;" text-anchor="middle"><textPath startOffset="22.20632615414155" xlink:href="#id3">March</textPath></text><path d="M 117.84615892207809 88.93136811851018 l 18.674625451806257 -11.582467440375936 a42.97487628571817,42.97487628571817 0 0,0 0.3844904916519259,0.6320012733080252 l -18.871231741744406 11.25929839386083" fill="#f9ff18" stroke="none" /><path d="M 118.21658344932153 89.55222093294921 l 20.495292474574796 -11.7546898014469 a44.626886082313135,44.626886082313135 0 0,0 0.37644342201880204,0.6696508430856338 l -20.694593537886032 11.400155448426473" fill="#e4ff1a" stroke="none" /><path d="M 118.56541770881063 90.18545643968196 l 19.093805737160903 -10.093874055453268 a42.59767837004226,42.59767837004226 0 0,0 0.3371110625895416,0.6511912726268599 l -19.26472623291056 9.763710060566064" fill="#fdff18" stroke="none" /><path d="M 118.89224826269711 90.83032412892265 l 19.33049184601606 -9.382384890974613 a42.48713711156705,42.48713711156705 0 0,0 0.3136801179176336,0.6606903267382136 l -19.48913015777545 9.048252148595859" fill="#ffff18" stroke="none" /><path d="M 119.196687751892 91.48605970444005 l 16.146067572798948 -7.160956989016928 a38.66280847045396,38.66280847045396 0 0,0 0.2645811790846347,0.610689840111139 l -16.266939461726267 6.8819680043191855" fill="#ffce13" stroke="none" /><path d="M 119.61058180528143 92.48833698450437 l 20.047449302424152 -7.67900131547791 a42.46781974808756,42.46781974808756 0 0,0 0.2556065501189682,0.6848984747374297 l -20.176660441044746 7.3327797037111475" fill="#ffff18" stroke="none" /><path d="M 119.85752413597 93.16781622104841 l 16.752255468718523 -5.763784411920132 a38.71607388888134,38.71607388888134 0 0,0 0.21139475269672595,0.6320434037312195 l -16.84898751518702 5.474567905266598" fill="#ffcf13" stroke="none" /><path d="M 120.08093135843002 93.85539295169968 l 20.54201624896415 -6.28569539812187 a42.482187928855794,42.482187928855794 0 0,0 0.20794849508946675,0.7010989487072723 l -20.647170641165317 5.9311670626680675" fill="#ffff18" stroke="none" /><path d="M 120.37134235888165 94.90015583598534 l 14.840773547065142 -3.715299219369564 a36.29875837330326,36.29875837330326 0 0,0 0.14652114768162144,0.6074247507050266 l -14.902527495007583 3.4592892370051316" fill="#ffaf10" stroke="none" /><path d="M 120.53481517161879 95.60439243477599 l 21.148499142829806 -4.526970515606941 a42.62758604290936,42.62758604290936 0 0,0 0.14741168151810136,0.71883171127538 l -21.223290120262902 4.162263148168148" fill="#fdff18" stroke="none" /><path d="M 120.67395015179393 96.31383870115 l 20.22827072067131 -3.606696742795853 a41.547291737434946,41.547291737434946 0 0,0 0.11947445747142454,0.7051450110576085 l -20.287357039662957 3.257965943422407" fill="#fff316" stroke="none" /><path d="M 120.78858239683441 97.02765380044208 l 27.65847489348119 -3.9546016734515472 a48.93975854994089,48.93975854994089 0 0,0 0.112058066486887,0.8349627539156115 l -27.722448959025915 3.477920577471272" fill="#b1ff20" stroke="none" /><path d="M 120.87857604477298 97.74499172005257 l 23.651539851243935 -2.5545045832478643 a44.78909058793157,44.78909058793157 0 0,0 0.07619024066095019,0.7672253258083176 l -23.69200721758711 2.147003726735112" fill="#e2ff1b" stroke="none" /><path d="M 120.94382443527127 98.46500227214037 l 20.453055907935425 -1.499028720542285 a41.50791513241029,41.50791513241029 0 0,0 0.04609238331079457,0.7130287688462518 l -20.47582888225064 1.146740887442998" fill="#fff316" stroke="none" /><path d="M 120.98425023603335 99.18683210126433 l 20.587693041656802 -0.7978007744947477 a41.603145168960694,41.603145168960694 0 0,0 0.02157084553360943,0.7158313481217585 l -20.59837558164606 0.4432992789479901" fill="#fff417" stroke="none" /><line stroke="#e1ed5e" stroke-width="0.3" x1="184.98032266829074" x2="189.97916517819016" y1="98.17113171792111" y2="98.06355123074" /><path d="M 185.9800911702706 98.14961562048488 a86.0,86.0 0 0,1 -9.607161424134198,41.387399972396054" fill="none" id="id4" stroke="none" /><text fill="#e1ed5e" style="font-size:6.75px; font-family:Arial;" text-anchor="middle"><textPath startOffset="21.466115282336823" xlink:href="#id4">April</textPath></text><path d="M 120.99980553446 99.90962569577887 l 18.32949865924475 -0.07888242990312899 a39.32966839680965,39.32966839680965 0 0,0 -0.0029135843679935452,0.6770143976589892 l -18.328140777587254 -0.23664144595954487" fill="#ffd714" stroke="none" /><path d="M 120.9904718944345 100.63252640178507 l 21.085982434646855 0.6354045142275584 a42.09555389485985,42.09555389485985 0 0,0 -0.02805942718929829,0.7240891364938833 l -21.071920874606352 -0.9982708977354479" fill="#fffa17" stroke="none" /><path d="M 120.92983693683757 101.71520430193887 l 21.010899281357876 1.721847377203435 a42.08133408970474,42.08133408970474 0 0,0 -0.06537716732742331,0.7214315936666287 l -20.978147517753374 -2.083260359418634" fill="#fffa17" stroke="none" /><path d="M 120.8583938346157 102.4346265915055 l 20.852307526646648 2.4339161874665862 a41.993872372515185,41.993872372515185 0 0,0 -0.08998385131636498,0.717259830892489 l -20.807322166083434 -2.7924937726464703" fill="#fff917" stroke="none" /><path d="M 120.76222939487914 103.15116336523771 l 17.380731186799057 2.6379403837236346 a38.57977662132967,38.57977662132967 0 0,0 -0.10530119586038077,0.6557106471404319 l -17.332748236577388 -2.9367302605572716" fill="#ffcd13" stroke="none" /><path d="M 120.64145759157962 103.86396538481128 l 18.20348849216594 3.407591208347267 a39.51968334307105,39.51968334307105 0 0,0 -0.1309231913789516,0.6675745322179067 l -18.142135367811324 -3.7204294676331187" fill="#ffd914" stroke="none" /><path d="M 120.5718875245553 104.21870165774334 l 2.9765820643880545 0.6104112553820908 a24.038526400532632,24.038526400532632 0 0,0 -0.08661420036876927,0.4046327087708508 l -2.965633825294842 -0.6615577835691107" fill="#ff0000" stroke="none" /><path d="M 120.49622156327973 104.57218783832717 l 20.652210851185824 4.606985097074179 a42.159823362365316,42.159823362365316 0 0,0 -0.16410095724321896,0.7069426288827162 l -20.56984932801205 -4.96179638330546" fill="#fffb17" stroke="none" /><path d="M 120.32669344350535 105.2749913415812 l 17.38531619892042 4.511672922841194 a38.96119182847127,38.96119182847127 0 0,0 -0.17404877873552,0.6477002534098124 l -17.305079343843122 -4.810264109426555" fill="#ffd213" stroke="none" /><path d="M 120.23288151984713 105.62410040840565 l 17.605510019252602 4.893774324351236 a39.27301316629754,39.27301316629754 0 0,0 -0.18665408979360273,0.6497673732876289 l -17.5186632925729 -5.1960991731434465" fill="#ffd614" stroke="none" /><path d="M 120.02730092923936 106.31721596034902 l 17.790922166887817 5.611794512854481 a39.65500332894004,39.65500332894004 0 0,0 -0.2109414837056726,0.6492111317082752 l -17.691688432165897 -5.917204544540551" fill="#ffdb14" stroke="none" /><path d="M 118.97047184881838 109.00673069616215 l 22.39508575392271 10.632656262348226 a45.7909912088808,45.7909912088808 0 0,0 -0.344188516128861,0.7091302884964295 l -22.208743981179136 -11.016575506809932" fill="#d6ff1c" stroke="none" /><line stroke="#e1ed5e" stroke-width="0.3" x1="174.80103733775053" x2="179.2010983576182" y1="140.37084112569926" y2="142.7455964860345" /><path d="M 175.68104954172406 140.8457921977663 a86.0,86.0 0 0,1 -30.038265399797805,32.042727171017184" fill="none" id="id5" stroke="none" /><text fill="#e1ed5e" style="font-size:6.75px; font-family:Arial;" text-anchor="middle"><textPath startOffset="22.206326154141568" xlink:href="#id5">May</textPath></text><path d="M 118.48025628344425 109.97397251340804 l 18.022178346398427 9.72674343373415 a41.47946410859139,41.47946410859139 0 0,0 -0.3445236697070357,0.625410534182864 l -17.852078267239882 -10.03552448631482" fill="#fff216" stroke="none" /><path d="M 117.75023020441432 111.22182372390056 l 15.077398432307861 9.532040174909719 a38.83781750614835,38.83781750614835 0 0,0 -0.3621074183215953,0.5619987545862355 l -14.911086150609217 -9.790160529417408" fill="#ffd013" stroke="none" /><path d="M 117.55443506779139 111.5257021239791 l 11.410890843939994 7.492039950508068 a34.65060776933842,34.65060776933842 0 0,0 -0.3316506932032459,0.4957727873818888 l -11.280237045326025 -7.687349652095763" fill="#ff990e" stroke="none" /><path d="M 116.93607887273984 112.41649034213515 l 12.645401519335273 9.270829866644737 a36.679747000557086,36.679747000557086 0 0,0 -0.37769438234976005,0.505983347091344 l -12.483945870290421 -9.487126093245397" fill="#ffb410" stroke="none" /><path d="M 116.27256486870786 113.27417163493432 l 16.297002348932786 13.294106249388054 a42.03153695123443,42.03153695123443 0 0,0 -0.4621547625077319,0.5566951832948785 l -16.06575158653151 -13.572662689796703" fill="#fff917" stroke="none" /><path d="M 115.32070863581623 114.36230785411682 l 12.930841918645022 12.121941410355923 a38.724224560783725,38.724224560783725 0 0,0 -0.4600685871831112,0.4823800743315196 l -12.720266780082946 -12.34272860126995" fill="#ffcf13" stroke="none" /><path d="M 114.81725581225074 114.88116024355365 l 11.23872253732308 11.28719333255124 a36.92826473905186,36.92826473905186 0 0,0 -0.4543056644768251,0.4446337113579656 l -11.042766920470461 -11.478977146831777" fill="#ffb711" stroke="none" /><path d="M 114.29624159901734 115.38237550388516 l 13.204754817523117 14.20796477403115 a40.39669592510565,40.39669592510565 0 0,0 -0.5134236353552761,0.46900031774014594 l -12.958231632700977 -14.433157858357879" fill="#ffe515" stroke="none" /><path d="M 113.75828350139079 115.86535959552629 l 10.460717546145052 12.062772618404454 a36.966749663709116,36.966749663709116 0 0,0 -0.48432519291524795,0.41275243661304145 l -10.251526876652756 -12.241049445240442" fill="#ffb811" stroke="none" /><path d="M 113.20401910651253 116.32954008644616 l 12.23431301536319 15.130295041451943 a40.457755343288454,40.457755343288454 0 0,0 -0.5452983100663024,0.4332179567706417 l -11.972057212579537 -15.33864691222771" fill="#ffe515" stroke="none" /><path d="M 112.34349029814194 116.9893568818739 l 13.051729438098024 17.964164429479503 a43.204928393820396,43.204928393820396 0 0,0 -0.6054299870736727,0.4319582206139148 l -12.740572123175467 -18.186166911937637" fill="#f6ff19" stroke="none" /><path d="M 111.7513745106137 117.40417183066458 l 10.574414404552286 15.661055235645911 a39.89674286995394,39.89674286995394 0 0,0 -0.5724713364087171,0.3794027858638397 l -10.303268369403606 -15.840756042601068" fill="#ffde14" stroke="none" /><path d="M 111.1453310114006 117.79835938074945 l 10.139269419925965 16.19174529760397 a40.10438170034105,40.10438170034105 0 0,0 -0.588237320836149,0.36134340706768886 l -9.859052899157506 -16.363877171500036" fill="#ffe115" stroke="none" /><line stroke="#e1ed5e" stroke-width="0.3" x1="143.8653032363475" x2="146.44561519142675" y1="172.8068346515853" y2="177.08958963109032" /><path d="M 144.38136562736335 173.6633856474863 a86.0,86.0 0 0,1 -40.68145358897372,12.25698825130547" fill="none" id="id6" stroke="none" /><text fill="#e1ed5e" style="font-size:6.75px; font-family:Arial;" text-anchor="middle"><textPath startOffset="21.466115282336833" xlink:href="#id6">June</textPath></text><path d="M 110.5260780823613 118.17145234162733 l 10.394198539600389 17.943785131925445 a41.73689437069446,41.73689437069446 0 0,0 -0.6247640100146413,0.35475731022537876 l -10.083785762664549 -18.12004560794545" fill="#fff617" stroke="none" /><path d="M 110.21172684928248 118.3499491758327 l 10.103936707544387 18.156255821932522 a41.778333967417154,41.778333967417154 0 0,0 -0.6314042933043513,0.34429196414113594 l -9.789909602371386 -18.327488437833427" fill="#fff617" stroke="none" /><path d="M 109.57404056367764 118.69057910512821 l 9.387763897854981 18.326927130307197 a41.591414935391384,41.591414935391384 0 0,0 -0.6400049147769808,0.32091175055326504 l -9.07090507539524 -18.485806721769766" fill="#fff417" stroke="none" /><path d="M 108.2653958097858 119.30500536409082 l 2.0048875862278925 4.682699594459177 a26.0938442973219,26.0938442973219 0 0,0 -0.41443056212315577,0.1732320085787929 l -1.9239855646072757 -4.7165166460579435" fill="#ff1f03" stroke="none" /><path d="M 107.93186726928326 119.44442032107085 l 8.337845621290562 20.439647983068635 a43.074847208445995,43.074847208445995 0 0,0 -0.6889492061920887,0.2741471074350115 l -7.984775339056606 -20.580141934909715" fill="#f7ff18" stroke="none" /><path d="M 106.57524785965236 119.94407469862006 l 6.507097461948364 19.73736057140218 a41.78234153566042,41.78234153566042 0 0,0 -0.6849889687070525,0.21931183654132155 l -6.1663871481503705 -19.84644525460321" fill="#fff617" stroke="none" /><path d="M 106.2309692047433 120.05430185196036 l 5.645551288708354 18.17014110393847 a40.026988124515945,40.026988124515945 0 0,0 -0.6597305851275266,0.19877141344641194 l -5.331945729140582 -18.264627886490604" fill="#ffe015" stroke="none" /><path d="M 105.53697534728816 120.25689768951611 l 6.852521026591966 25.06979147359157 a46.9894495699553,46.9894495699553 0 0,0 -0.782060081510788,0.20654917556046953 l -6.41997050226968 -25.184031998455623" fill="#c8ff1d" stroke="none" /><path d="M 104.48393922423573 120.51570834832081 l 3.5699493491391583 16.33386092062838 a37.719436322132694,37.719436322132694 0 0,0 -0.6354980305162573,0.13317479112629566 l -3.288259857193523 -16.392891692481214" fill="#ffc212" stroke="none" /><path d="M 103.7750983002368 120.6578951692458 l 3.811306867028081 20.856033791743602 a42.20141989483267,42.20141989483267 0 0,0 -0.7157180524230737,0.12443675753904422 l -3.451739843132957 -20.918549127803654" fill="#fffc17" stroke="none" /><path d="M 103.06178313531738 120.77559828337769 l 3.5009901163579484 23.755818435517284 a45.01241015258774,45.01241015258774 0 0,0 -0.7675074817815861,0.10636954343082637 l -3.091554043389532 -23.812562544440713" fill="#e0ff1b" stroke="none" /><path d="M 102.34483914955558 120.86867818915974 l 2.1633563351157563 19.253511344079705 a40.374669279997825,40.374669279997825 0 0,0 -0.6913054759960171,0.07165663916454329 l -1.8316182625141364 -19.287897351700007" fill="#ffe415" stroke="none" /><path d="M 101.26447882468166 120.96189622390904 l 1.303040300270393 21.601149039973595 a42.640414826691305,42.640414826691305 0 0,0 -0.7330332628683015,0.037889446685996725 l -0.9310189689886118 -21.620378293421794" fill="#fdff18" stroke="none" /><path d="M 100.90346689309514 120.98055641714683 l 1.0294997697161696 23.907326505316856 a44.929482451730365,44.929482451730365 0 0,0 -0.772957505695287,0.02662221936943633 l -0.6178219123462304 -23.921505523112387" fill="#e1ff1b" stroke="none" /><line stroke="#e1ed5e" stroke-width="0.3" x1="102.19456741930631" x2="102.32365962044197" y1="184.97166512339345" y2="189.96999836594603" /><path d="M 102.22038585953345 185.97133177190398 a86.0,86.0 0 0,1 -42.740103519485714,-10.115201625700543" fill="none" id="id7" stroke="none" /><text fill="#e1ed5e" style="font-size:6.75px; font-family:Arial;" text-anchor="middle"><textPath startOffset="22.20632615414155" xlink:href="#id7">July</textPath></text><path d="M 100.54218724476979 120.99299961872073 l 0.682749566079663 26.435445537782233 a47.44426077149884,47.44426077149884 0 0,0 -0.8165842060030319,0.014058237648767884 l -0.2276056701839631 -26.443281252710158" fill="#c2ff1e" stroke="none" /><path d="M 99.45781275523022 120.99299961872073 l -0.5450927059633718 21.105496447662507 a42.11253434243244,42.11253434243244 0 0,0 -0.7244953141582624,-0.024953083505282612 l 0.9083083717962772 -21.09298656573113" fill="#fffa17" stroke="none" /><path d="M 98.73552117531835 120.96189622390904 l -1.2616148180281122 20.914418156989942 a41.95243562916967,41.95243562916967 0 0,0 -0.7204576459001619,-0.04968697741292531 l 1.6214352247072041 -20.88960283506073" fill="#fff817" stroke="none" /><path d="M 98.01472825383883 120.90594882070398 l -2.6202126720585834 27.592208536356992 a48.71633969990677,48.71633969990677 0 0,0 -0.8341337032750155,-0.08646136891139146 l 3.094778971939192 -27.54301779898984" fill="#b3ff20" stroke="none" /><path d="M 97.2962882734958 120.8252237178851 l -2.503278452659427 19.281395014770236 a40.4432146706031,40.4432146706031 0 0,0 -0.689598040668394,-0.09557200480497784 l 2.8348050845146524 -19.235448444472652" fill="#ffe515" stroke="none" /><path d="M 96.58105272829116 120.7198165907248 l -2.9224473334029772 17.710882307318325 a38.95037744784759,38.95037744784759 0 0,0 -0.6605817614096567,-0.11485060660543174 l 3.2268780662846837 -17.657953122191888" fill="#ffd213" stroke="none" /><path d="M 95.86986931433489 120.58985236759428 l -7.488138165245089 37.33045539349952 a59.074074027714154,59.074074027714154 0 0,0 -0.9952815142456078,-0.20857091825107482 l 8.129611140920083 -37.196028494521904" fill="#42ff2d" stroke="none" /><path d="M 94.81253420990036 120.34920634021253 l -0.9041898462005403 3.5469237765723003 a24.660358937971257,24.660358937971257 0 0,0 -0.410430053929527,-0.10839830758349939 l 0.9651103429415566 -3.5308341196852195" fill="#ff0901" stroke="none" /><path d="M 94.46302465271185 120.25689768951611 l -4.8259228096311855 17.655528240717235 a39.30320213578166,39.30320213578166 0 0,0 -0.651064715082029,-0.18399739179184282 l 5.129118692817828 -17.56984205558687" fill="#ffd714" stroke="none" /><path d="M 94.11515582081647 120.15858648285463 l -5.035776513995951 17.2500975853875 a38.97011162470353,38.97011162470353 0 0,0 -0.6423109943889038,-0.19352303365194667 l 5.331962482825101 -17.160859182629828" fill="#ffd213" stroke="none" /><path d="M 93.42475214034765 119.94407469862007 l -7.480434054332576 22.689689992248944 a44.89098000471267,44.89098000471267 0 0,0 -0.7317876749391878,-0.2482621110934958 l 7.869891462208989 -22.557564894257325" fill="#e1ff1b" stroke="none" /><path d="M 91.7346041902142 119.30500536409082 l -9.276177593888999 21.6658297230326 a44.56810659218961,44.56810659218961 0 0,0 -0.7026466029678057,-0.30801962186085274 l 9.647744871514547 -21.502945547877296" fill="#e5ff1a" stroke="none" /><path d="M 91.07499286063937 119.00905698771935 l -10.116347979641132 21.546451700247477 a44.80315267598573,44.80315267598573 0 0,0 -0.6952752328930859,-0.3337743635950074 l 10.48573588053446 -21.36912306015291" fill="#e2ff1b" stroke="none" /><path d="M 90.7491055286396 118.85261126421891 l -9.070793049796661 18.485578422217966 a41.59116063159651,41.59116063159651 0 0,0 -0.6400010015732868,-0.32090978839169604 l 9.387647959052709 -18.32670079291697" fill="#fff417" stroke="none" /><line stroke="#e1ed5e" stroke-width="0.3" x1="58.666819895761336" x2="56.23545636021788" y1="174.27360380694188" y2="178.64263932499728" /><path d="M 58.180547188652646 175.14741091055294 a86.0,86.0 0 0,1 -31.652253787137756,-30.449443065178592" fill="none" id="id8" stroke="none" /><text fill="#e1ed5e" style="font-size:6.75px; font-family:Arial;" text-anchor="middle"><textPath startOffset="22.20632615414155" xlink:href="#id8">August</textPath></text><path d="M 89.7882731507175 118.34994917583269 l -12.890304681132736 23.1632160995771 a47.50838612303926,47.50838612303926 0 0,0 -0.7111580837790856,-0.403814120055652 l 13.28711153183303 -22.937898813726814" fill="#c2ff1e" stroke="none" /><path d="M 88.8546689885994 117.79835938074946 l -14.010893636665736 22.374474112590296 a47.39928469320587,47.39928469320587 0 0,0 -0.6877821245704066,-0.4389750931857742 l 14.393957563283067 -22.12998459058072" fill="#c3ff1e" stroke="none" /><path d="M 88.54995079064634 117.60387380957326 l -12.983667292965814 19.96173434993959 a44.812737235185466,44.812737235185466 0 0,0 -0.6430100736990091,-0.4261520145800618 l 13.325352065404786 -19.73528431426821" fill="#e2ff1b" stroke="none" /><path d="M 86.79598089348748 116.32954008644616 l -17.10050998089897 21.148368612556247 a48.19707588288453,48.19707588288453 0 0,0 -0.6406306474148304,-0.5271954089099731 l 17.46201075685849 -20.85087808478909" fill="#b9ff1f" stroke="none" /><path d="M 86.51685102203217 116.09983520530335 l -17.168073009864543 20.499895588418727 a47.73926794076661,47.73926794076661 0 0,0 -0.6254628920687154,-0.5330330457486264 l 17.518401378510315 -20.20133815244715" fill="#bfff1e" stroke="none" /><path d="M 85.97065885151581 115.62618273729859 l -14.024901855674493 15.621238157226395 a41.99335498737845,41.99335498737845 0 0,0 -0.5337164459776008,-0.4875373191057406 l 14.291717851118948 -15.377508071534079" fill="#fff917" stroke="none" /><path d="M 85.18274418774928 114.88116024355367 l -18.778208822442796 18.85919620437716 a47.61372593333114,47.61372593333114 0 0,0 -0.575807241752663,-0.5832896958737517 l 19.10005668925099 -18.533166014522745" fill="#c0ff1e" stroke="none" /><path d="M 84.9287848128048 114.62390073753433 l -17.82728860737136 17.29817375542983 a45.84027041647401,45.84027041647401 0 0,0 -0.544611769139393,-0.5710232626134931 l 18.122406927889713 -16.988743376233835" fill="#d6ff1c" stroke="none" /><path d="M 84.19399662182784 113.82643327865904 l -15.789069984577926 13.811620651386324 a41.97750213909418,41.97750213909418 0 0,0 -0.47106251469458094,-0.5479521264915029 l 16.024475008843286 -13.53779142573329" fill="#fff917" stroke="none" /><path d="M 83.50135304334701 112.99209946851258 l -16.341897505664612 12.868664833889133 a41.800484337933625,41.800484337933625 0 0,0 -0.44028486535875333,-0.5691275394733117 l 16.560989188241432 -12.585459300302569" fill="#fff717" stroke="none" /><path d="M 83.06392112726016 112.41649034213515 l -19.66395751933009 14.416403021121454 a45.38245068465059,45.38245068465059 0 0,0 -0.4564614598150311,-0.6339850444355938 l 19.909198771520728 -14.075784371234722" fill="#dbff1b" stroke="none" /><path d="M 82.6465618267979 111.8261652097733 l -13.367296428854441 9.10965621900592 a37.17623102719969,37.17623102719969 0 0,0 -0.35582414233335197,-0.5319088139347488 l 13.522123676598524 -8.878210490865351" fill="#ffbb11" stroke="none" /><line stroke="#e1ed5e" stroke-width="0.3" x1="26.63291911575756" x2="22.317208475507996" y1="142.92168965132927" y2="145.44649492493687" /><path d="M 25.769776987707644 143.4266507060508 a86.0,86.0 0 0,1 -11.730757126820373,-40.83630448921669" fill="none" id="id9" stroke="none" /><text fill="#e1ed5e" style="font-size:6.75px; font-family:Arial;" text-anchor="middle"><textPath startOffset="21.46611528233685" xlink:href="#id9">September</textPath></text><path d="M 81.87401531095188 110.60418214915194 l -21.251060021762978 12.432434165603912 a45.62058023952011,45.62058023952011 0 0,0 -0.3907033471641903,-0.6812242182639139 l 21.461915365079545 -12.064790101481691" fill="#d8ff1c" stroke="none" /><path d="M 81.69416730710424 110.29060199501025 l -21.114971378716557 11.869755953725642 a45.22257465103627,45.22257465103627 0 0,0 -0.375613516403837,-0.6818476365939707 l 21.31616130457191 -11.504537798733848" fill="#ddff1b" stroke="none" /><path d="M 81.35079622478065 109.6543875284942 l -16.22647521844796 8.400180611923282 a39.27187818282066,39.27187818282066 0 0,0 -0.3056125034584877,-0.6030024627893207 l 16.368666391692713 -8.119623937431278" fill="#ffd614" stroke="none" /><path d="M 80.58989483394504 108.01547362559985 l -23.166756786864486 9.566796595236584 a46.0643614942883,46.0643614942883 0 0,0 -0.29634165779909516,-0.7354956918548763 l 23.328001058920968 -9.166601535538902" fill="#d3ff1c" stroke="none" /><path d="M 80.32549172779594 107.34259656027581 l -19.90372797132264 7.428142168379948 a42.24466246448918,42.24466246448918 0 0,0 -0.2483900436375076,-0.6834627208115805 l 20.02864227596537 -7.08443165056225" fill="#fffc17" stroke="none" /><path d="M 80.20201598880116 107.00284435728193 l -19.866863348798386 7.027208013721366 a42.07306128183417,42.07306128183417 0 0,0 -0.23562751319195926,-0.6848438481298923 l 19.984881692933573 -6.684191462502177" fill="#fffa17" stroke="none" /><path d="M 79.97269907076064 106.31721596034903 l -20.29005547398955 6.400096684497273 a42.275516179601524,42.275516179601524 0 0,0 -0.21293418048979804,-0.6958812221298926 l 20.397216426985477 -6.0498884898153324" fill="#fffd17" stroke="none" /><path d="M 79.86692584326677 105.97154293290107 l -23.961350541765608 7.107023615794541 a45.99312114284313,45.99312114284313 0 0,0 -0.2185929591735785,-0.7609507675853504 l 24.080136137825292 -6.693515372704595" fill="#d4ff1c" stroke="none" /><path d="M 79.58551787078972 104.9243191809786 l -20.90721193630853 5.0431739638125 a42.50686203468554,42.50686203468554 0 0,0 -0.16545175460872222,-0.712761828579654 l 20.99092425684781 -4.682543477884272" fill="#ffff18" stroke="none" /><path d="M 79.4281124754447 104.21870165774334 l -20.853274021342187 4.276405924259699 a42.28724230703048,42.28724230703048 0 0,0 -0.14009172769401637,-0.7143247013604901 l 20.92379568201187 -3.916817495831254" fill="#fffd17" stroke="none" /><line stroke="#e1ed5e" stroke-width="0.3" x1="15.007084014347285" x2="10.007500721073583" y1="101.09737516637583" y2="101.16192664675087" /><path d="M 14.007167355692545 101.11028546245083 a86.0,86.0 0 0,1 10.666146001902534,-42.60595125391555" fill="none" id="id10" stroke="none" /><text fill="#e1ed5e" style="font-size:6.75px; font-family:Arial;" text-anchor="middle"><textPath startOffset="22.20632615414155" xlink:href="#id10">October</textPath></text><line stroke="#e1ed5e" stroke-width="0.3" x1="26.266209847984243" x2="21.928928074336255" y1="57.711370442889674" y2="55.22380399835377" /><path d="M 25.398753493254645 57.213857153982495 a86.0,86.0 0 0,1 29.58750427330803,-30.492523968695096" fill="none" id="id11" stroke="none" /><text fill="#e1ed5e" style="font-size:6.75px; font-family:Arial;" text-anchor="middle"><textPath startOffset="21.46611528233685" xlink:href="#id11">November</textPath></text><line stroke="#e1ed5e" stroke-width="0.3" x1="56.762969772571076" x2="54.21961505331055" y1="26.818313649435495" y2="22.513508569990535" /><path d="M 56.25429882871897 25.957352633546506 a86.0,86.0 0 0,1 42.265352541879196,-11.944610805530505" fill="none" id="id12" stroke="none" /><text fill="#e1ed5e" style="font-size:6.75px; font-family:Arial;" text-anchor="middle"><textPath startOffset="22.20632615414155" xlink:href="#id12">December</textPath></text><path d="M 89.63071344664047 81.73862282372117 l -17.490843577097607 -30.803169538138512 a56.422660298653476,56.422660298653476 0 0,0 0.8486932961340807,-0.47229690043788375 l 16.95802619189148 31.099681836136583" fill="#5dff2a" stroke="none" /><path d="M 89.94658935756843 81.56283822128135 l -9.200429353195487 -16.872861405123047 a40.21825570335747,40.21825570335747 0 0,0 0.6106566690955603,-0.3261916442511487 l 8.908627637571621 17.028731775875944" fill="#ffe215" stroke="none" /><path d="M 90.26544431104013 81.39251694778311 l -7.656142008788171 -14.634620955064209 a37.51631438781472,37.51631438781472 0 0,0 0.5747847951715311,-0.2944270968494224 l 7.403096726027877 14.764240577226136" fill="#ffbf11" stroke="none" /><path d="M 90.58718382345135 81.22770947309562 l -7.424234859288462 -14.806397055300442 a37.56347357908611,37.56347357908611 0 0,0 0.5804964993956263,-0.2848471111848154 l 7.1682670928824095 14.931999326620087" fill="#ffc011" stroke="none" /><path d="M 90.91171255644093 81.06846463323043 l -7.1194717433180905 -14.830355216907705 a37.450723806676905,37.450723806676905 0 0,0 0.5835568015307215,-0.2739877429610994 l 6.863136730487761 14.950707942508812" fill="#ffbe11" stroke="none" /><path d="M 91.23893434514133 80.91482961587045 l -6.909513941087054 -15.051736401956243 a37.561888528065,37.561888528065 0 0,0 0.5899325000339795,-0.26468551664562107 l 6.6493993225863 15.168442249118392" fill="#ffc011" stroke="none" /><path d="M 91.90106846888425 80.62456947434976 l -9.148358147055703 -21.886020028820347 a44.72109460983464,44.72109460983464 0 0,0 0.7128034159797992,-0.29077041080605875 l 8.770270861487523 22.040251325809983" fill="#e3ff1b" stroke="none" /><path d="M 92.57280143429618 80.3572730644239 l -5.997129058373678 -15.86061924276558 a37.95655624549914,37.95655624549914 0 0,0 0.6131207014895652,-0.22581752869705654 l 5.723226031111543 15.961500039268959" fill="#ffc512" stroke="none" /><path d="M 93.25333710446033 80.11325718540243 l -6.005449889012541 -17.701912675628478 a39.69286336399581,39.69286336399581 0 0,0 0.6489162774878433,-0.21393749417418015 l 5.699850789282289 17.80266389406189" fill="#ffdc14" stroke="none" /><path d="M 93.59665428221793 80.00007090966166 l -5.1227322577624825 -16.000117191786657 a37.800182616139246,37.800182616139246 0 0,0 0.6213893311093762,-0.19306868994395285 l 4.846557553942378 16.085926016613136" fill="#ffc312" stroke="none" /><path d="M 94.28887869178378 79.79150937346287 l -17.133363924648684 -60.625471879611354 a84.0,84.0 0 0,0 1.39480844310511,-0.38125383669481616 l 16.08725759231985 60.91141225713247" fill="#4dd2ff" stroke="none" /><path d="M 94.63758080256005 79.69619591428918 l -4.7291973250350505 -17.906227102875544 a39.52021264453714,39.52021264453714 0 0,0 0.6592180574600025,-0.1680493609488845 l 4.420270378890049 17.98497945999329" fill="#ffd914" stroke="none" /><path d="M 95.33964822691252 79.52364482259891 l -3.6860731208781132 -16.195632026929115 a37.60980529097654,37.60980529097654 0 0,0 0.6324845896037032,-0.13823663370028508 l 3.4067458071208887 16.25668215872527" fill="#ffc011" stroke="none" /><path d="M 95.692805502759 79.44645832069477 l -3.4223468557112113 -16.331128948311264 a37.68586919303776,37.68586919303776 0 0,0 0.6360541871638192,-0.1275864862579384 l 3.140726259080256 16.387619390646414" fill="#ffc112" stroke="none" /><path d="M 96.40284397218896 79.31037775812273 l -7.513914801193986 -43.21749114923868 a64.8658233351903,64.8658233351903 0 0,0 1.1017021287341486,-0.1817902909892332 l 6.768883466320951 43.34042770316754" fill="#34ff60" stroke="none" /><path d="M 96.75951476605007 79.25152402106235 l -5.253013911341146 -33.63447912510114 a55.04221410498453,55.04221410498453 0 0,0 0.9373715785633441,-0.13814420415836193 l 4.6732733523491525 33.719917813420466" fill="#6cff28" stroke="none" /><path d="M 97.47563105711357 79.15227682838746 l -2.529694343678205 -20.89170346292366 a42.04430153402992,42.04430153402992 0 0,0 0.7192244304143328,-0.08081324492456052 l 2.169703209754154 20.93215266131882" fill="#fffa17" stroke="none" /><path d="M 97.83486435360386 79.11191278185805 l -1.5609658072580395 -15.05937513929674 a36.140059241545174,36.140059241545174 0 0,0 0.6193285345953523,-0.05881270694137731 l 1.3015121455724508 15.084013390753299" fill="#ffad10" stroke="none" /><path d="M 99.63851952072746 79.00311137660856 l -0.5668899185338483 -32.928263526519125 a53.93314292702148,53.93314292702148 0 0,0 0.928370397806376,-0.007990777110914135 l 8.06629361428783e-15 32.93314292702148" fill="#78ff26" stroke="none" /></svg>