<?xml version="1.0" encoding="utf-8" ?>
<svg baseProfile="full" height="200mm" version="1.1" viewBox="0,0,200,200" width="200mm" xmlns="http://www.w3.org/2000/svg" xmlns:ev="http://www.w3.org/2001/xml-events" xmlns:xlink="http://www.w3.org/1999/xlink"><defs /><rect fill="#1a1a1a" height="200" width="200" x="0" y="0" /><text alignment-baseline="middle" fill="#e1ed5e" style="dominant-baseline: central; font-size:9.0px; font-family:Arial;" text-anchor="middle" x="100.0" y="100.0">2025</text><line stroke="#e1ed5e" stroke-width="0.3" x1="100.0" x2="100.0" y1="15.0" y2="10.0" /><path d="M 100.0 14.0 a86.0,86.0 0 0,1 42.46469731375804,11.215312516191453" fill="none" id="id97" stroke="none" /><text fill="#e1ed5e" style="font-size:6.75px; font-family:Arial;" text-anchor="middle"><textPath startOffset="22.20632615414155" xlink:href="#id97">January</textPath></text><path d="M 101.44485096284872 79.0497635885617 l 0.39306857285271524 -5.699466407895023 a26.713004484304932,26.713004484304932 0 0,0 0.45845851846434627,0.035585204600323904 l -0.49111728067940263 5.691855941106234" fill="#ff0d01" stroke="none" /><path d="M 101.80526077348638 79.07773832637324 l 1.6432313209944949 -19.044404106643412 a40.11516510395434,40.11516510395434 0 0,0 0.6874495211209256,0.06528161543387447 l -1.9708059692056648 19.013296946694357" fill="#ffcf13" stroke="none" /><path d="M 103.95276090670814 79.375362276772 l 2.832480751194573 -14.779262072811845 a36.04824025003397,36.04824025003397 0 0,0 0.6084146297243443,0.12204225105503629 l -3.0864617903860427 14.728315865679601" fill="#ff970d" stroke="none" /><path d="M 104.307194497241 79.44645832069477 l 5.20308783108757 -24.82866345270602 a46.36798478054083,46.36798478054083 0 0,0 0.7797710091231655,0.17042774026446955 l -5.629701564364264 24.735422214345682" fill="#deff1b" stroke="none" /><path d="M 104.66035177308747 79.52364482259891 l 4.2525155804161425 -18.68443063136952 a40.16225030574806,40.16225030574806 0 0,0 0.6727680159925864,0.15922245312262734 l -4.573507283371252 18.608462266106024" fill="#ffd013" stroke="none" /><path d="M 105.01212808612495 79.60689891045804 l 4.564199077929792 -18.57058949604346 a40.12325044163609,40.12325044163609 0 0,0 0.6692770469890365,0.17061362135258346 l -4.883185013603853 18.48927287852201" fill="#ffcf13" stroke="none" /><path d="M 105.36241919743992 79.69619591428918 l 4.876505368365388 -18.46398164274011 a40.09709199619513,40.09709199619513 0 0,0 0.6658066959554425,0.1819901209982711 l -5.1936099535445415 18.377304980915543" fill="#ffcf13" stroke="none" /><path d="M 105.71112130821622 79.79150937346287 l 2.1294150042388806 -7.534818616312917 a28.829936132626713,28.829936132626713 0 0,0 0.47639380287763317,0.139072414638197 l -2.258799024839941 7.497047872756016" fill="#ff2d04" stroke="none" /><path d="M 106.0581310904928 79.89281104454417 l 8.607117805154541 -28.567381835250597 a50.83584726185623,50.83584726185623 0 0,0 0.8356799078779311,0.2596498152590231 l -9.09758308574319 28.41499188510905" fill="#a7ff21" stroke="none" /><path d="M 106.40334571778207 80.00007090966166 l 9.252467653995017 -28.898751550563624 a51.34379671150971,51.34379671150971 0 0,0 0.8393908277311696,0.2767339586746028 l -9.748541303968604 28.735203867629785" fill="#a1ff22" stroke="none" /><path d="M 106.74666289553966 80.11325718540242 l 8.047894521630509 -23.722307017367726 a46.05027857045794,46.05027857045794 0 0,0 0.7484661330474609,0.2611251373024909 l -8.455042658741243 23.580261026893027" fill="#e2ff1b" stroke="none" /><path d="M 107.08798089147638 80.2323363322302 l 6.456140224971622 -18.00552378924594 a40.128006522625356,40.128006522625356 0 0,0 0.6481966211422788,0.23873628592301427 l -6.765119171886478 17.8917242355166" fill="#ffcf13" stroke="none" /><path d="M 107.4271985657038 80.35727306442388 l 7.064366946683483 -18.6831454254063 a40.974113330615566,40.974113330615566 0 0,0 0.6575698091251909,0.25512686998064726 l -7.384919920808341 18.558775851535106" fill="#ffda14" stroke="none" /><path d="M 107.76421540070413 80.48803036053334 l 3.0966126105539664 -7.7819854452826 a29.375458622095394,29.375458622095394 0 0,0 0.4682114209073433,0.19099519467675427 l -3.2301079010496974 7.727529364422266" fill="#ff3505" stroke="none" /><line stroke="#e1ed5e" stroke-width="0.3" x1="143.23703022742887" x2="145.7803849466894" y1="26.81831364943548" y2="22.513508569990506" /><path d="M 143.74570117128098 25.957352633546492 a86.0,86.0 0 0,1 28.547481713284135,27.462654790039103" fill="none" id="id98" stroke="none" /><text fill="#e1ed5e" style="font-size:6.75px; font-family:Arial;" text-anchor="middle"><textPath startOffset="19.985693538727396" xlink:href="#id98">February</textPath></text><path d="M 111.90073688211348 82.69761687909136 l 9.829684152979985 -14.2912966530674 a38.34542736784889,38.34542736784889 0 0,0 0.5406136658560431,0.37873442127554596 l -10.07422895841968 14.119977389027918" fill="#ffb711" stroke="none" /><path d="M 113.06298171725822 83.55741782278167 l 12.954108743757494 -16.305542039490906 a41.82497621959506,41.82497621959506 0 0,0 0.5598504128785309,0.4526934322279395 l -13.232862555200517 16.080142509998836" fill="#ffe615" stroke="none" /><path d="M 113.6212207817346 84.01681056812373 l 13.717470745133195 -16.096129484934778 a42.14838972686506,42.14838972686506 0 0,0 0.548142219593327,0.475343531348207 l -13.992506763373287 15.857620960166898" fill="#ffea16" stroke="none" /><path d="M 114.16331599549186 84.49514656593476 l 18.75611298836798 -20.532676314641087 a48.80975676042941,48.80975676042941 0 0,0 0.6154494659072802,0.5719932044549518 l -19.106770338070106 20.206778524111495" fill="#bfff1e" stroke="none" /><path d="M 114.42810811169701 84.74124197986012 l 10.894440468450837 -11.52165132018534 a36.856774018208995,36.856774018208995 0 0,0 0.4572289151492336,0.439853854111568 l -11.091152627212487 11.33241437931147" fill="#ffa20f" stroke="none" /><path d="M 114.68862486808459 84.99185889309783 l 13.419828943663816 -13.71174553273619 a40.18603071069438,40.18603071069438 0 0,0 0.49020106673602043,0.48809598757006994 l -13.65386581056716 13.478713694516001" fill="#ffd013" stroke="none" /><path d="M 114.94478906791727 85.2469230424477 l 14.112492190669256 -13.931456804483014 a40.83047968473977,40.83047968473977 0 0,0 0.4894519460377721,0.5044232544326275 l -14.350208400410137 13.686469354500272" fill="#ffd814" stroke="none" /><path d="M 115.19652480421416 85.50635884689758 l 11.540396639264957 -11.0066195928948 a36.947615165103954,36.947615165103954 0 0,0 0.4349837068606375,0.46401029011705197 l -11.728147668096058 10.806339885899693" fill="#ffa30f" stroke="none" /><path d="M 115.4437574822437 85.77008943001954 l 11.711708464362186 -10.791192769063414 a36.92526158445441,36.92526158445441 0 0,0 0.4266737878754411,0.4711438533760645 l -11.895725892853662 10.587996128417801" fill="#ffa30f" stroke="none" /><path d="M 116.38621287248628 86.86637796730983 l 15.44692074085013 -12.380775238181434 a40.79623590161707,40.79623590161707 0 0,0 0.4344719850725086,0.5517352997212082 l -15.657746806516602 12.113047544507186" fill="#ffd814" stroke="none" /><path d="M 116.60985879189232 87.15038557335679 l 16.374746191789658 -12.667728096601714 a41.70274493817094,41.70274493817094 0 0,0 0.43435207984166896,0.5715564228931315 l -16.59037421185544 12.383986897827548" fill="#ffe415" stroke="none" /><path d="M 116.82858285166822 87.43820079747576 l 12.075462936300308 -9.01380359952837 a36.06869139828781,36.06869139828781 0 0,0 0.36710608902487013,0.5007322928678021 l -12.228831637838805 8.804608862989074" fill="#ff970d" stroke="none" /><path d="M 117.04232023915458 87.72973835380427 l 35.35218089741918 -25.453136855060926 a64.56189699687458,64.56189699687458 0 0,0 0.6415834830842532,0.9074743372278934 l -35.78507700030732 24.84083601750124" fill="#33ff55" stroke="none" /><path d="M 117.45458315368197 88.32363383020206 l 24.03375214010967 -16.077547538732734 a49.91554559043348,49.91554559043348 0 0,0 0.47159105681366176,0.7182655335298984 l -24.306939832281255 15.661463941225161" fill="#b2ff20" stroke="none" /><path d="M 117.65298651832404 88.62581576622439 l 16.16691162389521 -10.416675450948597 a40.232164696290255,40.232164696290255 0 0,0 0.3700830458386185,0.5853825028809979 l -16.343822265979785 10.136845300353393" fill="#ffd013" stroke="none" /><line stroke="#e1ed5e" stroke-width="0.3" x1="172.23445277983987" x2="176.4835382374775" y1="55.19839476539836" y2="52.563006222186495" /><path d="M 173.08426987136738 54.67131705675599 a86.0,86.0 0 0,1 12.851231095245387,41.99856678651699" fill="none" id="id99" stroke="none" /><text fill="#e1ed5e" style="font-size:6.75px; font-family:Arial;" text-anchor="middle"><textPath startOffset="22.20632615414155" xlink:href="#id99">March</textPath></text><path d="M 117.84615892207809 88.93136811851018 l 16.670803798071127 -10.33964738379148 a40.61693164832178,40.61693164832178 0 0,0 0.3633942751813307,0.5973246403069992 l -16.846313871538683 10.051154970277398" fill="#ffd614" stroke="none" /><path d="M 118.03404312379186 89.2402003453031 l 17.26495984250138 -10.300935163375748 a41.104429949721435,41.104429949721435 0 0,0 0.35729600113017995,0.6107346851319156 l -17.439715518101888 10.002221065889936" fill="#ffdc14" stroke="none" /><path d="M 118.3937258080291 89.86733742301442 l 27.44103606528271 -15.116608897748664 a52.32925669248539,52.32925669248539 0 0,0 0.4278337880008422,0.7927110324741335 l -27.697177952502017 14.642016881942073" fill="#95ff23" stroke="none" /><path d="M 119.04729006885535 91.15688171328212 l 8.175141416290204 -3.795487037450526 a30.013249082755806,30.013249082755806 0 0,0 0.21351951777931757,0.4704619543421123 l -8.239263251032868 3.6542030742663507" fill="#ff3f05" stroke="none" /><path d="M 119.196687751892 91.48605970444005 l 30.158459919497506 -13.375605754452748 a53.991506998233454,53.991506998233454 0 0,0 0.3694800545352412,0.8528109074463076 l -30.384230683875426 12.854495702419838" fill="#82ff25" stroke="none" /><path d="M 120.08093135843002 93.85539295169968 l 10.53937363093394 -3.2249654331954405 a32.02174208452235,32.02174208452235 0 0,0 0.1567450595475678,0.5284664186513031 l -10.593324587593209 3.0430696277976077" fill="#ff5d08" stroke="none" /><path d="M 120.18372546131832 94.20196356495316 l 18.36072647731375 -5.2743563765478 a40.10327490148118,40.10327490148118 0 0,0 0.18488226447987188,0.6651198735270638 l -18.448795512359986 4.957525199601784" fill="#ffcf13" stroke="none" /><path d="M 120.6074358757038 95.95851677861258 l 13.187097446845376 -2.5862234094374648 a34.43830683516782,34.43830683516782 0 0,0 0.10907804994815869,0.5826993044574283 l -13.229661220703395 2.358846027517474" fill="#ff800b" stroke="none" /><path d="M 120.67395015179393 96.31383870115 l 10.928809858518417 -1.9486046762797855 a32.101168637043074,32.101168637043074 0 0,0 0.09231094366744907,0.5448244149481931 l -10.96073266370609 1.7601944730157546" fill="#ff5e08" stroke="none" /><path d="M 120.73433829027371 96.67025291283417 l 18.89307044509178 -3.034056134391966 a40.135140644109256,40.135140644109256 0 0,0 0.1036711831394166,0.6830635662130128 l -18.942497521670496 2.708393455786871" fill="#ffcf13" stroke="none" /><path d="M 120.78858239683441 97.02765380044208 l 18.933551943341463 -2.7071144192830063 a40.126104090229646,40.126104090229646 0 0,0 0.09187731556571263,0.6845927190444443 l -18.97734525796501 2.3808033581738974" fill="#ffcf13" stroke="none" /><path d="M 120.83666639777658 97.38593545837742 l 8.015844893614007 -1.005628036055648 a29.078679168365266,29.078679168365266 0 0,0 0.05803224662228957,0.49718484936401014 l -8.031967493239886 0.8674994483667852" fill="#ff3104" stroke="none" /><path d="M 120.87857604477298 97.74499172005257 l 23.48544268731576 -2.536565118452439 a44.62202744938171,44.62202744938171 0 0,0 0.07590605135135262,0.7643635782438558 l -23.525625864349344 2.131926009504148" fill="#f4ff19" stroke="none" /><path d="M 120.98425023603335 99.18683210126433 l 5.0210310219615994 -0.1945717001889373 a26.02479956515831,26.02479956515831 0 0,0 0.01349361759028758,0.44778747572250477 l -5.023636334007532 0.10811407704143343" fill="#ff0200" stroke="none" /><line stroke="#e1ed5e" stroke-width="0.3" x1="184.98032266829074" x2="189.97916517819016" y1="98.17113171792111" y2="98.06355123074" /><path d="M 185.9800911702706 98.14961562048488 a86.0,86.0 0 0,1 -9.607161424134198,41.387399972396054" fill="none" id="id100" stroke="none" /><text fill="#e1ed5e" style="font-size:6.75px; font-family:Arial;" text-anchor="middle"><textPath startOffset="21.466115282336823" xlink:href="#id100">April</textPath></text><path d="M 120.99513854157772 99.54816195383933 l 4.890021396964831 -0.10523853935580701 a25.891153689359967,25.891153689359967 0 0,0 0.005753991903922653,0.4456530140803671 l -4.891108395986469 0.02104926721497716" fill="#ff0000" stroke="none" /><path d="M 120.99980553446 99.90962569577887 l 15.702531583225323 -0.06757707179790799 a36.70267699415681,36.70267699415681 0 0,0 -0.0027189740039192927,0.6317938027590172 l -15.701368311931901 -0.20272620916479397" fill="#ffa00e" stroke="none" /><path d="M 120.92983693683757 101.71520430193887 l 23.022157003857576 1.8866703477956035 a44.099334148661505,44.099334148661505 0 0,0 -0.0685123133577257,0.7560276688635105 l -22.986270094222775 -2.2826794052076846" fill="#fbff18" stroke="none" /><path d="M 120.89721153311464 102.0752229133903 l 22.790805394236898 2.2632685463221884 a43.90290800380487,43.90290800380487 0 0,0 -0.08115284981517874,0.751374600786719 l -22.748470242920668 -2.655239468993699" fill="#fdff18" stroke="none" /><path d="M 120.8583938346157 102.4346265915055 l 11.155749658115903 1.3021177460343925 a32.23148525614893,32.23148525614893 0 0,0 -0.06906515196472232,0.5505172149680104 l -11.131682996904333 -1.4939527152897978" fill="#ff6008" stroke="none" /><path d="M 120.81339534386255 102.79330883721812 l 37.54556640709001 5.038887731223055 a58.8821850794945,58.8821850794945 0 0,0 -0.14346489894325967,1.0033931690659375 l -37.453267457130146 -5.684426372269402" fill="#4cff2c" stroke="none" /><path d="M 120.5718875245553 104.21870165774334 l 60.93060050728739 12.495111353324734 a83.19860035330888,83.19860035330888 0 0,0 -0.29977628916733357,1.400455022324368 l -60.706490179395615 -13.542080195065271" fill="#4cdaff" stroke="none" /><path d="M 120.49622156327973 104.57218783832717 l 61.488664689839204 13.716563514981502 a84.0,84.0 0 0,0 -0.3269577362777887,1.4085253706057403 l -61.24344638763086 -14.772957542935806" fill="#4dd2ff" stroke="none" /><path d="M 120.41448212921028 104.9243191809786 l 28.158799193672667 6.792379748116154 a49.96643565701861,49.96643565701861 0 0,0 -0.20888036741381288,0.8343732356884624 l -28.03770751196379 -7.276080823202013" fill="#b1ff20" stroke="none" /><line stroke="#e1ed5e" stroke-width="0.3" x1="174.80103733775053" x2="179.2010983576182" y1="140.37084112569926" y2="142.7455964860345" /><path d="M 175.68104954172406 140.8457921977663 a86.0,86.0 0 0,1 -30.038265399797805,32.042727171017184" fill="none" id="id101" stroke="none" /><text fill="#e1ed5e" style="font-size:6.75px; font-family:Arial;" text-anchor="middle"><textPath startOffset="22.206326154141568" xlink:href="#id101">May</textPath></text><line stroke="#e1ed5e" stroke-width="0.3" x1="143.8653032363475" x2="146.44561519142675" y1="172.8068346515853" y2="177.08958963109032" /><path d="M 144.38136562736335 173.6633856474863 a86.0,86.0 0 0,1 -40.68145358897372,12.25698825130547" fill="none" id="id102" stroke="none" /><text fill="#e1ed5e" style="font-size:6.75px; font-family:Arial;" text-anchor="middle"><textPath startOffset="21.466115282336833" xlink:href="#id102">June</textPath></text><line stroke="#e1ed5e" stroke-width="0.3" x1="102.19456741930631" x2="102.32365962044197" y1="184.97166512339345" y2="189.96999836594603" /><path d="M 102.22038585953345 185.97133177190398 a86.0,86.0 0 0,1 -42.740103519485714,-10.115201625700543" fill="none" id="id103" stroke="none" /><text fill="#e1ed5e" style="font-size:6.75px; font-family:Arial;" text-anchor="middle"><textPath startOffset="22.20632615414155" xlink:href="#id103">July</textPath></text><line stroke="#e1ed5e" stroke-width="0.3" x1="58.666819895761336" x2="56.23545636021788" y1="174.27360380694188" y2="178.64263932499728" /><path d="M 58.180547188652646 175.14741091055294 a86.0,86.0 0 0,1 -31.652253787137756,-30.449443065178592" fill="none" id="id104" stroke="none" /><text fill="#e1ed5e" style="font-size:6.75px; font-family:Arial;" text-anchor="middle"><textPath startOffset="22.20632615414155" xlink:href="#id104">August</textPath></text><line stroke="#e1ed5e" stroke-width="0.3" x1="26.63291911575756" x2="22.317208475507996" y1="142.92168965132927" y2="145.44649492493687" /><path d="M 25.769776987707644 143.4266507060508 a86.0,86.0 0 0,1 -11.730757126820373,-40.83630448921669" fill="none" id="id105" stroke="none" /><text fill="#e1ed5e" style="font-size:6.75px; font-family:Arial;" text-anchor="middle"><textPath startOffset="21.46611528233685" xlink:href="#id105">September</textPath></text><line stroke="#e1ed5e" stroke-width="0.3" x1="15.007084014347285" x2="10.007500721073583" y1="101.09737516637583" y2="101.16192664675087" /><path d="M 14.007167355692545 101.11028546245083 a86.0,86.0 0 0,1 10.666146001902534,-42.60595125391555" fill="none" id="id106" stroke="none" /><text fill="#e1ed5e" style="font-size:6.75px; font-family:Arial;" text-anchor="middle"><textPath startOffset="22.20632615414155" xlink:href="#id106">October</textPath></text><line stroke="#e1ed5e" stroke-width="0.3" x1="26.266209847984243" x2="21.928928074336255" y1="57.711370442889674" y2="55.22380399835377" /><path d="M 25.398753493254645 57.213857153982495 a86.0,86.0 0 0,1 29.58750427330803,-30.492523968695096" fill="none" id="id107" stroke="none" /><text fill="#e1ed5e" style="font-size:6.75px; font-family:Arial;" text-anchor="middle"><textPath startOffset="21.46611528233685" xlink:href="#id107">November</textPath></text><line stroke="#e1ed5e" stroke-width="0.3" x1="56.762969772571076" x2="54.21961505331055" y1="26.818313649435495" y2="22.513508569990535" /><path d="M 56.25429882871897 25.957352633546506 a86.0,86.0 0 0,1 42.265352541879196,-11.944610805530505" fill="none" id="id108" stroke="none" /><text fill="#e1ed5e" style="font-size:6.75px; font-family:Arial;" text-anchor="middle"><textPath startOffset="22.20632615414155" xlink:href="#id108">December</textPath></text></svg>