<?xml version="1.0" encoding="utf-8" ?>
<svg baseProfile="full" height="200mm" version="1.1" viewBox="0,0,200,200" width="200mm" xmlns="http://www.w3.org/2000/svg" xmlns:ev="http://www.w3.org/2001/xml-events" xmlns:xlink="http://www.w3.org/1999/xlink"><defs /><rect fill="#1a1a1a" height="200" width="200" x="0" y="0" /><text alignment-baseline="middle" fill="#e1ed5e" style="dominant-baseline: central; font-size:9.0px; font-family:Arial;" text-anchor="middle" x="100.0" y="100.0">2021</text><line stroke="#e1ed5e" stroke-width="0.3" x1="100.0" x2="100.0" y1="15.0" y2="10.0" /><path d="M 100.0 14.0 a86.0,86.0 0 0,1 42.46469731375804,11.215312516191453" fill="none" id="id49" stroke="none" /><text fill="#e1ed5e" style="font-size:6.75px; font-family:Arial;" text-anchor="middle"><textPath startOffset="22.20632615414155" xlink:href="#id49">January</textPath></text><path d="M 100.0 79.0 l 0.0 -31.911457896377883 a52.91145789637788,52.91145789637788 0 0,0 0.910783769494804,0.007839403448739886 l -0.5493032902222755 31.906729869537703" fill="#8cff24" stroke="none" /><path d="M 102.16513564639614 79.11191278185805 l 1.037728763442183 -10.011460000501534 a31.065098724211175,31.065098724211175 0 0,0 0.5314103724044861,0.05971014715925899 l -1.2099058393563944 9.992113899871674" fill="#ff5407" stroke="none" /><path d="M 102.88285421437855 79.19881850522331 l 2.612005554285196 -18.846877975674296 a40.027017171526744,40.027017171526744 0 0,0 0.6816620457834672,0.10045926607252717 l -2.9360365804973187 18.7991242254408" fill="#ffd113" stroke="none" /><path d="M 103.95276090670814 79.375362276772 l 3.159579703046231 -16.485992517888622 a37.786032681958574,37.786032681958574 0 0,0 0.6377447254980535,0.12792559234402706 l -3.44289083801141 16.429162969467388" fill="#ffb310" stroke="none" /><path d="M 104.66035177308747 79.52364482259891 l 3.6546043968034803 -16.057366762308376 a37.46800414854275,37.46800414854275 0 0,0 0.6276360169641543,0.1485411671090036 l -3.930464100730158 15.992079683058504" fill="#ffaf10" stroke="none" /><path d="M 105.36241919743992 79.69619591428918 l 4.459762656614018 -16.886062785223846 a38.46506797409763,38.46506797409763 0 0,0 0.6387071616057755,0.1745827945696664 l -4.749767707443504 16.806793449827886" fill="#ffbc11" stroke="none" /><path d="M 105.71112130821622 79.79150937346287 l 4.530876500474523 -16.032258876748465 a37.660197074273526,37.660197074273526 0 0,0 0.6223074660588801,0.1816686141368982 l -4.806174184256831 15.951891933692862" fill="#ffb110" stroke="none" /><path d="M 106.40334571778207 80.00007090966166 l 4.931704013717479 -15.403467955038103 a37.17369869636512,37.17369869636512 0 0,0 0.6077318725355618,0.2003596433786121 l -5.196118708495458 15.316294587400256" fill="#ffab0f" stroke="none" /><path d="M 107.4271985657038 80.35727306442388 l 5.783781073742982 -15.296377400126902 a37.353326422355195,37.353326422355195 0 0,0 0.5994618975045932,0.23258190303242668 l -6.046226136247242 15.194552793203929" fill="#ffad10" stroke="none" /><path d="M 107.76421540070413 80.48803036053334 l 5.207642673330738 -13.087138943363836 a35.08519605600169,35.08519605600169 0 0,0 0.5592181456475074,0.22811912274104046 l -5.432144688566632 12.995558934439217" fill="#ff8d0d" stroke="none" /><path d="M 108.09893153111575 80.62456947434976 l 6.719518831837694 -16.075400784890153 a38.42327304860566,38.42327304860566 0 0,0 0.6080322720432996,0.26032768697953285 l -6.9952348616713085 15.957353569947827" fill="#ffbc11" stroke="none" /><path d="M 109.08828744355905 81.06846463323043 l 7.075720811126101 -14.739218979716108 a37.349629999759216,37.349629999759216 0 0,0 0.5771918143548107,0.2832255165873777 l -7.328383892491344 14.615238302993898" fill="#ffad10" stroke="none" /><path d="M 109.73455568895987 81.39251694778311 l 7.9031223357780425 -15.106720801789335 a38.04911598991245,38.04911598991245 0 0,0 0.5777213861239251,0.308598756708779 l -8.161988768430279 14.968443318578803" fill="#ffb710" stroke="none" /><path d="M 110.05341064243156 81.56283822128135 l 8.134205533613027 -14.917491058367743 a37.991081164526946,37.991081164526946 0 0,0 0.5714508271420571,0.3180117666078717 l -8.38978044982712 14.775263894199691" fill="#ffb610" stroke="none" /><path d="M 110.36928655335952 81.73862282372117 l 8.30103244820175 -14.618969560642403 a37.81134767712236,37.81134767712236 0 0,0 0.5632149096806378,0.32625042869399906 l -8.551444090347715 14.473914974558355" fill="#ffb310" stroke="none" /><line stroke="#e1ed5e" stroke-width="0.3" x1="143.23703022742887" x2="145.7803849466894" y1="26.81831364943548" y2="22.513508569990506" /><path d="M 143.74570117128098 25.957352633546492 a86.0,86.0 0 0,1 28.547481713284135,27.462654790039103" fill="none" id="id50" stroke="none" /><text fill="#e1ed5e" style="font-size:6.75px; font-family:Arial;" text-anchor="middle"><textPath startOffset="19.985693538727396" xlink:href="#id50">February</textPath></text><path d="M 110.68208982089419 81.91981866633111 l 8.29459939756771 -14.039187435479839 a37.30641478114259,37.30641478114259 0 0,0 0.5500705328409895,0.3314113412554956 l -8.535031996626337 13.894329484765729" fill="#ffac10" stroke="none" /><path d="M 111.2981086023043 82.29822771554956 l 9.003448756181674 -14.1065204156509 a37.73487399840121,37.73487399840121 0 0,0 0.5445195761614738,0.35417067913283484 l -9.244935358127428 13.949450812358537" fill="#ffb210" stroke="none" /><path d="M 115.9244219780498 86.31012108654704 l 4.08240511472126 -3.50955480665047 a26.383586765492474,26.383586765492474 0 0,0 0.29309575097767393,0.346932921998795 l -4.1422114791860505 3.4387629350225684" fill="#ff0d01" stroke="none" /><path d="M 116.15771136456269 86.58626213691792 l 25.330851974877298 -21.029055450560403 a53.922230102407845,53.922230102407845 0 0,0 0.5867290899525263,0.7192604886532873 l -25.689079556906233 20.589910792299012" fill="#81ff25" stroke="none" /><path d="M 116.38621287248628 86.86637796730983 l 27.015743717113242 -21.653237979615813 a55.62243670787226,55.62243670787226 0 0,0 0.5923681427207683,0.7522473853286401 l -27.384465940427976 21.184998200334135" fill="#6eff28" stroke="none" /><line stroke="#e1ed5e" stroke-width="0.3" x1="172.23445277983987" x2="176.4835382374775" y1="55.19839476539836" y2="52.563006222186495" /><path d="M 173.08426987136738 54.67131705675599 a86.0,86.0 0 0,1 12.851231095245387,41.99856678651699" fill="none" id="id51" stroke="none" /><text fill="#e1ed5e" style="font-size:6.75px; font-family:Arial;" text-anchor="middle"><textPath startOffset="22.20632615414155" xlink:href="#id51">March</textPath></text><path d="M 118.89224826269711 90.83032412892265 l 42.84860647462181 -20.79730413427964 a68.62909757774891,68.62909757774891 0 0,0 0.506684725879264,1.0672072534171109 l -43.200249394342826 20.056654465221985" fill="#39ff88" stroke="none" /><path d="M 119.196687751892 91.48605970444005 l 22.723292527096312 -10.078027959545977 a45.85788950867273,45.85788950867273 0 0,0 0.3138192737811493,0.7243381513085618 l -22.893402510720144 9.685390663650812" fill="#e1ff1b" stroke="none" /><path d="M 119.34039704204932 91.81776055985345 l 15.204534341516029 -6.432501891648485 a37.50923817528845,37.50923817528845 0 0,0 0.24645054331476893,0.5967995389184578 l -15.313006571716995 6.169827782276724" fill="#ffaf10" stroke="none" /><path d="M 119.61058180528143 92.48833698450437 l 12.583918689110748 -4.820160745130987 a34.47549476579812,34.47549476579812 0 0,0 0.2075021117872913,0.5560024960305785 l -12.665025389399664 4.602835112071076" fill="#ff850c" stroke="none" /><path d="M 119.7369772167798 92.82701384747503 l 15.781437838452456 -5.735429181420631 a37.7913349125086,37.7913349125086 0 0,0 0.2169347140851237,0.6133036494614134 l -15.87782563334739 5.462927905532603" fill="#ffb310" stroke="none" /><path d="M 119.85752413597 93.16781622104841 l 30.881052282055574 -10.62494110714622 a53.657751967601435,53.657751967601435 0 0,0 0.2929782405108719,0.8759676481531857 l -31.059367816338217 10.091800356070722" fill="#84ff25" stroke="none" /><path d="M 119.97218684219823 93.5106431181261 l 15.491836408078445 -5.033602779802727 a37.28908076717353,37.28908076717353 0 0,0 0.1930944308930749,0.6121621137426138 l -15.576186322739726 4.766190499633694" fill="#ffac0f" stroke="none" /><path d="M 120.18372546131832 94.20196356495316 l 15.687074589841298 -4.506315259068959 a37.3214946129747,37.3214946129747 0 0,0 0.17205782956057922,0.6189835577718842 l -15.76231918996824 4.235620397878123" fill="#ffad10" stroke="none" /><path d="M 120.37134235888165 94.90015583598534 l 16.46736691484748 -4.122507175908227 a37.975548253992514,37.975548253992514 0 0,0 0.15328956590719398,0.6354842139182774 l -16.535889281015496 3.8384377303305435" fill="#ffb610" stroke="none" /><path d="M 120.45610955862082 95.25157060432595 l 31.77879362836466 -7.376737858758313 a53.623733475968514,53.623733475968514 0 0,0 0.20097565783168855,0.9009344666931471 l -31.901063673198387 6.828625222515202" fill="#84ff25" stroke="none" /><path d="M 120.53481517161879 95.60439243477599 l 16.13851004837882 -3.4545505409828126 a37.50410330862688,37.50410330862688 0 0,0 0.129694018492818,0.6324340940641481 l -16.195583362786635 3.1762407907552523" fill="#ffaf10" stroke="none" /><path d="M 120.6074358757038 95.95851677861258 l 16.029300392780193 -3.143629754751699 a37.33465270879499,37.33465270879499 0 0,0 0.11825178085725285,0.6317057417979322 l -16.081037897547308 2.867245935491204" fill="#ffad10" stroke="none" /><path d="M 120.67395015179393 96.31383870115 l 16.411833737830456 -2.9262267695997988 a37.67066554596164,37.67066554596164 0 0,0 0.10832673179118547,0.6393505030562688 l -16.459772331141867 2.643290478227692" fill="#ffb110" stroke="none" /><path d="M 120.87857604477298 97.74499172005257 l 43.01621621536051 -4.646002846632423 a64.26638649041033,64.26638649041033 0 0,0 0.1093228594025831,1.100866274943168 l -43.08981620044532 3.904861040984821" fill="#33ff53" stroke="none" /><path d="M 120.91429891909075 98.10471618934814 l 17.51354793721369 -1.5871028716232733 a38.58531367005425,38.58531367005425 0 0,0 0.05425006205214558,0.6619881674044464 l -17.538272483085333 1.285400787011058" fill="#ffbe11" stroke="none" /><path d="M 120.96714384426684 98.82574320788733 l 32.47976722900994 -1.8190168178453203 a53.53066401772752,53.53066401772752 0 0,0 0.04360554810515812,0.9204442015189159 l -32.50626638534859 1.2596615097034045" fill="#85ff25" stroke="none" /><line stroke="#e1ed5e" stroke-width="0.3" x1="184.98032266829074" x2="189.97916517819016" y1="98.17113171792111" y2="98.06355123074" /><path d="M 185.9800911702706 98.14961562048488 a86.0,86.0 0 0,1 -9.607161424134198,41.387399972396054" fill="none" id="id52" stroke="none" /><text fill="#e1ed5e" style="font-size:6.75px; font-family:Arial;" text-anchor="middle"><textPath startOffset="21.466115282336823" xlink:href="#id52">April</textPath></text><path d="M 120.99513854157772 99.54816195383933 l 16.337609221343246 -0.35160298727676353 a37.3413922212883,37.3413922212883 0 0,0 0.008298667224349732,0.6427409219780381 l -16.341240895685313 0.07032580723826273" fill="#ffad10" stroke="none" /><path d="M 120.99824983174949 100.27111621757518 l 16.442398179554992 0.21229392154225327 a37.44376862535341,37.44376862535341 0 0,0 -0.013868346914527778,0.6444075864952997 l -16.436307769955455 -0.4952913238276678" fill="#ffae10" stroke="none" /><path d="M 120.9764740272857 100.99374915477107 l 32.83979448770845 1.5557675695431707 a53.87662565905097,53.87662565905097 0 0,0 -0.051859200306475804,0.9259808585123885 l -32.80814893651445 -2.1208201443909824" fill="#81ff25" stroke="none" /><path d="M 120.92983693683757 101.71520430193887 l 16.266003325222556 1.3330022093802907 a37.32053182547566,37.32053182547566 0 0,0 -0.05798082942668581,0.6398136212588871 l -16.240647899518795 -1.6127972191877484" fill="#ffad10" stroke="none" /><path d="M 120.81339534386255 102.79330883721812 l 39.41996961497018 5.2904462568062245 a60.773393443875605,60.773393443875605 0 0,0 -0.148072778499874,1.0356206679527138 l -39.3230627854537 -5.9682123967393474" fill="#37ff2e" stroke="none" /><path d="M 120.76222939487914 103.15116336523771 l 16.805237528392748 2.550595498990598 a37.997692366470545,37.997692366470545 0 0,0 -0.10371243165550259,0.6458174109200616 l -16.758843342375958 -2.839492139603865" fill="#ffb610" stroke="none" /><path d="M 120.70491114924044 103.5080841355445 l 16.1601776146406 2.7380587295870504 a37.390494383739586,37.390494383739586 0 0,0 -0.11297904244499335,0.6336464691422775 l -16.110652129856415 -3.0158239494625465" fill="#ffae10" stroke="none" /><path d="M 120.49622156327973 104.57218783832717 l 16.358136699330952 3.6490859275433327 a37.760204783372814,37.760204783372814 0 0,0 -0.1469760842542536,0.6331691242458195 l -16.292900049146148 -3.9301237091377175" fill="#ffb310" stroke="none" /><path d="M 120.41448212921028 104.9243191809786 l 4.402365054256686 1.0619250853944988 a25.52863146634064,25.52863146634064 0 0,0 -0.10672023829884754,0.4262943025490141 l -4.383433501662777 -1.1375472273409089" fill="#ff0000" stroke="none" /><path d="M 120.32669344350535 105.2749913415812 l 25.996795612440973 6.746442659039473 a47.85792007335523,47.85792007335523 0 0,0 -0.213792549731568,0.7956016103318211 l -25.876814986367627 -7.192935202546842" fill="#c8ff1d" stroke="none" /><path d="M 120.23288151984713 105.62410040840565 l 30.55757238603824 8.494037548117944 a52.716145793535574,52.716145793535574 0 0,0 -0.25054569072289185,0.8721824179130719 l -30.40683405842925 -9.018777441535597" fill="#8fff24" stroke="none" /><path d="M 120.02730092923936 106.31721596034902 l 15.534280716184664 4.899981601092907 a37.28875983800718,37.28875983800718 0 0,0 -0.19835444875712177,0.6104722214652704 l -15.447634016411294 -5.166652722535973" fill="#ffac0f" stroke="none" /><path d="M 119.54520255179757 107.68017299344265 l 30.25436656325318 11.888276337736972 a53.50627340108504,53.50627340108504 0 0,0 -0.3442170313007527,0.8543184426551936 l -30.04524691769503 -12.40729414823498" fill="#86ff25" stroke="none" /><path d="M 119.41010516605496 108.01547362559984 l 15.102714058600473 6.236720778998851 a37.339787575456555,37.339787575456555 0 0,0 -0.25044154488050807,0.5919698328611224 l -14.993121532527656 -6.495765137526138" fill="#ffad10" stroke="none" /><path d="M 119.12269723197855 108.67885076344098 l 14.738518980673552 6.689088111142647 a37.185420646443035,37.185420646443035 0 0,0 -0.2695507098036589,0.5805882485601964 l -14.621193654030062 -6.941796426981674" fill="#ffab0f" stroke="none" /><path d="M 118.64920377521936 109.65438752849418 l 14.815051740558612 7.66950978079292 a37.68253992511653,37.68253992511653 0 0,0 -0.3031605049554173,0.5734654263564051 l -14.680838727378301 -7.923390222235459" fill="#ffb210" stroke="none" /><line stroke="#e1ed5e" stroke-width="0.3" x1="174.80103733775053" x2="179.2010983576182" y1="140.37084112569926" y2="142.7455964860345" /><path d="M 175.68104954172406 140.8457921977663 a86.0,86.0 0 0,1 -30.038265399797805,32.042727171017184" fill="none" id="id53" stroke="none" /><text fill="#e1ed5e" style="font-size:6.75px; font-family:Arial;" text-anchor="middle"><textPath startOffset="22.206326154141568" xlink:href="#id53">May</textPath></text><path d="M 118.12598468904814 110.60418214915192 l 36.4843786568326 21.344329895050834 a63.269259570566206,63.269259570566206 0 0,0 -0.558032231089611,0.9352941172601495 l -36.11156555004476 -21.969186106197085" fill="#32ff46" stroke="none" /><path d="M 117.94076556474637 110.91462005526583 l 21.83380339242014 13.283026720883907 a46.556873232979285,46.556873232979285 0 0,0 -0.42241574368469914,0.6810686789206255 l -21.601923009067477 -13.656891731169805" fill="#d8ff1c" stroke="none" /><path d="M 117.75023020441432 111.22182372390056 l 13.90043625528851 8.787956186808833 a37.44537327118515,37.44537327118515 0 0,0 -0.34912485597757353,0.5418495295234158 l -13.747106535933886 -9.025927316253702" fill="#ffae10" stroke="none" /><path d="M 117.14729908036423 112.12312394758627 l 13.279690199381648 9.388728190844073 a37.26340643386567,37.26340643386567 0 0,0 -0.3747992592263526,0.5205633901958234 l -13.116111147779693 -9.615925186491028" fill="#ffac0f" stroke="none" /><path d="M 116.93607887273984 112.41649034213515 l 13.145875785517372 9.637746786389332 a37.30031328799572,37.30031328799572 0 0,0 -0.38408440463202004,0.5145438261809484 l -12.97803011419026 -9.862603492079595" fill="#ffac10" stroke="none" /><path d="M 116.27256486870786 113.27417163493432 l 12.602005420979147 10.279951823951963 a37.26308550469932,37.26308550469932 0 0,0 -0.40972359520685686,0.4935384646828167 l -12.423185825878747 -10.495351545748552" fill="#ffac0f" stroke="none" /><path d="M 116.0416608686014 113.55231037782055 l 12.317769547533842 10.406293801995774 a37.12508596316955,37.12508596316955 0 0,0 -0.41660974238331644,0.4846112503857941 l -12.136817295579748 -10.616782151543095" fill="#ffaa0f" stroke="none" /><path d="M 115.56566222782051 114.09645910891815 l 12.17896805593268 11.029426353761625 a37.430931458699476,37.430931458699476 0 0,0 -0.43661148156544605,0.4738555314244047 l -11.987310166371511 -11.237433139987365" fill="#ffae10" stroke="none" /><path d="M 115.32070863581623 114.36230785411682 l 11.962959991417355 11.214606212244895 a37.39755482539925,37.39755482539925 0 0,0 -0.4443069011134812,0.46585400950190303 l -11.76814653892491 -11.418867338329306" fill="#ffae10" stroke="none" /><path d="M 114.81725581225074 114.88116024355365 l 11.515499764288208 11.565164254996215 a37.32053182547566,37.32053182547566 0 0,0 -0.45913148449868213,0.4493567919498284 l -11.314718327413733 -11.761671149868615" fill="#ffad10" stroke="none" /><path d="M 114.0293411484842 115.62618273729858 l 10.856203699144153 12.091873812227604 a37.25024833804539,37.25024833804539 0 0,0 -0.48080784134075594,0.42425701741408167 l -10.646453504896808 -12.276953971413976" fill="#ffac0f" stroke="none" /><path d="M 113.75828350139079 115.86535959552629 l 10.639094447472667 12.268467877032629 a37.2390158172232,37.2390158172232 0 0,0 -0.4878923271243573,0.41579242577336845 l -10.426336643771263 -12.449784693028944" fill="#ffab0f" stroke="none" /><path d="M 112.92097659922987 116.55440617244103 l 10.15452313922819 13.010015090055477 a37.50378237946053,37.50378237946053 0 0,0 -0.5123217970237689,0.39282650743567465 l -9.929072613710925 -13.182880939318522" fill="#ffaf10" stroke="none" /><path d="M 111.7513745106137 117.40417183066458 l 35.25412353184112 52.21251549199374 a84.0,84.0 0 0,0 -1.2053012050401435,0.7988079156347263 l -34.35014762806101 -52.81162142871979" fill="#4dd2ff" stroke="none" /><path d="M 111.45004920935366 117.60387380957326 l 8.919087006188828 13.712646931271625 a37.35808053793841,37.35808053793841 0 0,0 -0.5420803324050587,0.3459813157841477 l -8.681724871736838 -13.864142675879583" fill="#ffad10" stroke="none" /><line stroke="#e1ed5e" stroke-width="0.3" x1="143.8653032363475" x2="146.44561519142675" y1="172.8068346515853" y2="177.08958963109032" /><path d="M 144.38136562736335 173.6633856474863 a86.0,86.0 0 0,1 -40.68145358897372,12.25698825130547" fill="none" id="id54" stroke="none" /><text fill="#e1ed5e" style="font-size:6.75px; font-family:Arial;" text-anchor="middle"><textPath startOffset="21.466115282336833" xlink:href="#id54">June</textPath></text><path d="M 110.21172684928248 118.3499491758327 l 7.952615397151161 14.290441813269016 a37.354229387942226,37.354229387942226 0 0,0 -0.5645419184742186,0.30783326628063373 l -7.705450666808294 -14.42521573130942" fill="#ffad10" stroke="none" /><path d="M 109.57404056367764 118.69057910512821 l 14.508033012494586 28.322789826961074 a52.82237334759685,52.82237334759685 0 0,0 -0.8128258825808679,0.407567771514574 l -14.018353222230958 -28.56832543938495" fill="#8dff24" stroke="none" /><path d="M 109.2508944713604 118.85261126421891 l 7.041198122504845 14.349420096499165 a36.983877129976314,36.983877129976314 0 0,0 -0.5739322402331043,0.2755223531166914 l -6.793153214271508 -14.468496726115415" fill="#ffa80f" stroke="none" /><path d="M 108.59647513512805 119.15986991738527 l 6.542044353999715 14.580943566532198 a36.981309696645525,36.981309696645525 0 0,0 -0.5830355745065747,0.2555856620275604 l -6.2900881048353865 -14.691393781854213" fill="#ffa80f" stroke="none" /><path d="M 107.93186726928326 119.44442032107085 l 6.242943808399579 15.304142055104919 a37.528493925269345,37.528493925269345 0 0,0 -0.6002395313042298,0.2388476970380915 l -5.978583201053483 -15.409336596549078" fill="#ffaf10" stroke="none" /><path d="M 107.2578585660854 119.70592522655815 l 6.743536106072597 18.309480276981464 a40.511851455643004,40.511851455643004 0 0,0 -0.6564471720490057,0.23537860062508922 l -6.427369373393856 -18.422846418646515" fill="#ffd814" stroke="none" /><path d="M 106.57524785965236 119.94407469862006 l 4.965877190741349 15.062523535280883 a36.85999847176587,36.85999847176587 0 0,0 -0.6042909854195022,0.1934748906509675 l -4.705864860230906 -15.145771272591558" fill="#ffa60f" stroke="none" /><path d="M 105.88484417918355 120.15858648285463 l 4.496260177860192 15.401979540159202 a37.04485367158249,37.04485367158249 0 0,0 -0.6136547606890098,0.1734249650024413 l -4.230474249066576 -15.477093298500161" fill="#ffa90f" stroke="none" /><path d="M 104.83641907484287 120.43548508189849 l 4.3875526724355804 18.53887469139847 a40.05099717276687,40.05099717276687 0 0,0 -0.6722461666725604,0.1530010388890612 l -4.067786356370158 -18.611652463865212" fill="#ffd213" stroke="none" /><path d="M 104.48393922423573 120.51570834832081 l 3.489982802633539 15.967983895162819 a37.34492244211813,37.34492244211813 0 0,0 -0.6291882110609066,0.1318525071102015 l -3.2146031301432543 -16.025692382999562" fill="#ffad10" stroke="none" /><path d="M 103.7750983002368 120.6578951692458 l 2.8940208762096606 15.836509442574728 a37.098769771529,37.098769771529 0 0,0 -0.6291792862500798,0.10939088377976203 l -2.6209926184875307 -15.883978904875496" fill="#ffaa0f" stroke="none" /><path d="M 103.06178313531738 120.77559828337769 l 2.8079407954519118 19.053161962030956 a40.25895927256056,40.25895927256056 0 0,0 -0.6864562982894179,0.09513658793887783 l -2.4795559059756633 -19.098673115462436" fill="#ffd413" stroke="none" /><line stroke="#e1ed5e" stroke-width="0.3" x1="102.19456741930631" x2="102.32365962044197" y1="184.97166512339345" y2="189.96999836594603" /><path d="M 102.22038585953345 185.97133177190398 a86.0,86.0 0 0,1 -42.740103519485714,-10.115201625700543" fill="none" id="id55" stroke="none" /><text fill="#e1ed5e" style="font-size:6.75px; font-family:Arial;" text-anchor="middle"><textPath startOffset="22.20632615414155" xlink:href="#id55">July</textPath></text><path d="M 100.54218724476979 120.99299961872073 l 0.4123556265486912 15.966036815546058 a36.97136089248873,36.97136089248873 0 0,0 -0.6363304831462484,0.010955006341614244 l -0.13746545350977488 -15.970769299166832" fill="#ffa80f" stroke="none" /><path d="M 99.81925306533755 120.99922214144158 l -0.30568012191465066 35.513989746473456 a56.51530526476656,56.51530526476656 0 0,0 -0.9727099743194172,-0.016746084337392268 l 0.9169497861267357 -35.503466184856904" fill="#64ff29" stroke="none" /><path d="M 99.45781275523022 120.99299961872073 l -0.41497396794620806 16.067416625731973 a37.07277450905478,37.07277450905478 0 0,0 -0.6377923303369795,-0.021966857434292414 l 0.6914866499578306 -16.057892969871585" fill="#ffa90f" stroke="none" /><path d="M 98.37488393609728 120.93702456842531 l -1.246944713630743 16.064890800511932 a37.11321158401467,37.11321158401467 0 0,0 -0.6365016208973011,-0.05492003811016317 l 1.523290652269586 -16.041046510123106" fill="#ffaa0f" stroke="none" /><path d="M 97.2962882734958 120.8252237178851 l -4.167728138111081 32.101747394390095 a53.371162222052426,53.371162222052426 0 0,0 -0.9100327260403092,-0.12612224359209628 l 4.719689455338221 -32.02525058530539" fill="#87ff25" stroke="none" /><path d="M 96.93821686468263 120.77559828337769 l -2.355890870025122 15.985796561011435 a37.158462596469775,37.158462596469775 0 0,0 -0.6319842953763498,-0.09870294952430206 l 2.630711029009989 -15.942875304140028" fill="#ffaa0f" stroke="none" /><path d="M 96.22490169976321 120.6578951692458 l -3.464771200718592 18.959739470989934 a40.27372201421258,40.27372201421258 0 0,0 -0.6808797903229682,-0.13049223232295235 l 3.790618605613255 -18.897290040318513" fill="#ffd513" stroke="none" /><path d="M 95.51606077576429 120.51570834832081 l -4.102117426154542 18.768730019951533 a40.21178268510735,40.21178268510735 0 0,0 -0.6749449120711101,-0.1536152645554062 l 4.4245824876185145 -18.69533802181844" fill="#ffd413" stroke="none" /><path d="M 94.81253420990036 120.34920634021253 l -7.933528715189599 31.121364335453944 a53.11666539313823,53.11666539313823 0 0,0 -0.8840372476612397,-0.2334822719968443 l 8.468056405662328 -30.98019071415352" fill="#8aff24" stroke="none" /><path d="M 92.7421414339146 119.70592522655815 l -4.501236590950985 12.221377818356885 a34.023947428746084,34.023947428746084 0 0,0 -0.5478338015688405,-0.2071438674783383 l 4.7109406132801075 -12.142085700771913" fill="#ff7e0b" stroke="none" /><path d="M 92.40401165467489 119.57807347666478 l -7.048882162525127 18.16794953236095 a40.48746083900053,40.48746083900053 0 0,0 -0.6475659419238528,-0.25767985252943926 l 7.360569180490837 -18.043922835425445" fill="#ffd814" stroke="none" /><path d="M 92.06813273071674 119.44442032107085 l -6.023055259053206 14.765100587046202 a36.94632841751356,36.94632841751356 0 0,0 -0.5867930949533682,-0.2452795612808379 l 6.276319813504036 -14.659235982745392" fill="#ffa70f" stroke="none" /><path d="M 90.10565033884886 118.52300852407294 l -15.246537337564453 28.542729005743066 a53.35960877206388,53.35960877206388 0 0,0 -0.8064344091365265,-0.4397323388784408 l 15.735594558569622 -28.27605601510486" fill="#87ff25" stroke="none" /><line stroke="#e1ed5e" stroke-width="0.3" x1="58.666819895761336" x2="56.23545636021788" y1="174.27360380694188" y2="178.64263932499728" /><path d="M 58.180547188652646 175.14741091055294 a86.0,86.0 0 0,1 -31.652253787137756,-30.449443065178592" fill="none" id="id56" stroke="none" /><text fill="#e1ed5e" style="font-size:6.75px; font-family:Arial;" text-anchor="middle"><textPath startOffset="22.20632615414155" xlink:href="#id56">August</textPath></text><path d="M 87.95078237400918 117.19931262002967 l -11.002748553346121 15.705560138641603 a40.1761595476427,40.1761595476427 0 0,0 -0.5629878965168701,-0.40167691590903526 l 11.271463777711878 -15.51383896088835" fill="#ffd313" stroke="none" /><path d="M 87.07902340077011 116.55440617244103 l -9.804026715851819 12.560957690252883 a36.93413310919233,36.93413310919233 0 0,0 -0.49780617331126836,-0.3954873310417902 l 10.018790381880445 -12.390336445205962" fill="#ffa70f" stroke="none" /><path d="M 86.79598089348748 116.32954008644616 l -10.093048485818652 12.482172171526923 a37.0522350424085,37.0522350424085 0 0,0 -0.4924945525961648,-0.40528948792820224 l 10.306413166959505 -12.30658756474154" fill="#ffa90f" stroke="none" /><path d="M 85.70375840098266 115.38237550388516 l -16.02944377835568 17.247254924261426 a44.54593107664094,44.54593107664094 0 0,0 -0.5571723722633366,-0.5268412549209837 l 16.323951985009835 -16.96877903259451" fill="#f2ff19" stroke="none" /><path d="M 85.44109423537348 115.13401014063109 l -11.018578592215164 11.453833333758288 a36.8933751050661,36.8933751050661 0 0,0 -0.4538764388291197,-0.44421362372166634 l 11.214104983420079 -11.262469607114053" fill="#ffa70f" stroke="none" /><path d="M 84.9287848128048 114.62390073753433 l -11.472411224485253 11.131909463384806 a36.985481775808054,36.985481775808054 0 0,0 -0.4394112093884319,-0.46072089630090585 l 11.662328985252643 -10.9327814505014" fill="#ffa80f" stroke="none" /><path d="M 84.67929136418377 114.36230785411682 l -11.890377739150173 11.14656440839717 a37.29806678383128,37.29806678383128 0 0,0 -0.43506168731022193,-0.4721735358484387 l 12.080485834456123 -10.940239617747386" fill="#ffac0f" stroke="none" /><path d="M 83.95833913139862 113.55231037782056 l -19.942553475634096 16.84786111873721 a47.1066248949339,47.1066248949339 0 0,0 -0.5179575295121409,-0.6239132109471676 l 20.229607005039774 -16.50208665067628" fill="#d2ff1c" stroke="none" /><path d="M 83.50135304334701 112.99209946851258 l -12.82348415325765 10.098039074945847 a37.3221364713074,37.3221364713074 0 0,0 -0.3931143883004806,-0.5081533392311972 l 12.9954053587762 -9.875807741601397" fill="#ffad10" stroke="none" /><path d="M 83.06392112726016 112.41649034213515 l -13.153381650686002 9.64324962462456 a37.30962023381982,37.30962023381982 0 0,0 -0.3752640824845076,-0.5212089890468088 l 13.317425525546117 -9.415407030126612" fill="#ffac10" stroke="none" /><path d="M 82.85270091963577 112.12312394758628 l -13.353588546453745 9.44097425110571 a37.35390845877589,37.35390845877589 0 0,0 -0.36667146684003604,-0.5282175956333316 l 13.514120920455914 -9.209715393285364" fill="#ffad10" stroke="none" /><path d="M 82.24976979558568 111.22182372390057 l -28.04582487360269 17.730773026520296 a54.18054557958279,54.18054557958279 0 0,0 -0.49158617976154984,-0.7925934462228262 l 28.346875693032196 -17.245383248932203" fill="#7eff26" stroke="none" /><line stroke="#e1ed5e" stroke-width="0.3" x1="26.63291911575756" x2="22.317208475507996" y1="142.92168965132927" y2="145.44649492493687" /><path d="M 25.769776987707644 143.4266507060508 a86.0,86.0 0 0,1 -11.730757126820373,-40.83630448921669" fill="none" id="id57" stroke="none" /><text fill="#e1ed5e" style="font-size:6.75px; font-family:Arial;" text-anchor="middle"><textPath startOffset="21.46611528233685" xlink:href="#id57">September</textPath></text><path d="M 81.69416730710424 110.29060199501025 l -20.23530970188028 11.37525519222253 a44.21344846030412,44.21344846030412 0 0,0 -0.36723183004650295,-0.6666324412300326 l 20.428117941378297 -11.025252232594676" fill="#f6ff19" stroke="none" /><path d="M 81.18737489456691 109.33194174019688 l -21.458496410473213 10.644417629782453 a44.95351111790326,44.95351111790326 0 0,0 -0.3378935873188121,-0.6961608706514046 l 21.63854325440674 -10.273467803165763" fill="#edff1a" stroke="none" /><path d="M 80.87730276802145 108.67885076344099 l -15.3294274211574 6.957272358772787 a37.83433942079927,37.83433942079927 0 0,0 -0.2640457021629008,-0.5953533523477663 l 15.446914208051579 -6.692370669932325" fill="#ffb410" stroke="none" /><path d="M 80.58989483394504 108.01547362559985 l -17.75519606967808 7.332072886588286 a40.20953618094292,40.20953618094292 0 0,0 -0.2586763438080175,-0.6420134714389405 l 17.878775027743487 -7.025360047306539" fill="#ffd413" stroke="none" /><path d="M 80.32549172779594 107.34259656027581 l -30.886888313141803 11.527096725772033 a53.96776954229388,53.96776954229388 0 0,0 -0.31731953457783235,-0.8731270758409772 l 31.080732108724863 -10.993721852924939" fill="#80ff25" stroke="none" /><path d="M 79.97269907076064 106.31721596034903 l -15.682721779081904 4.9468043983844145 a37.4444104836861,37.4444104836861 0 0,0 -0.18860076897451272,-0.6163582253761721 l 15.765549320562547 -4.676119200456195" fill="#ffae10" stroke="none" /><path d="M 79.76711848015287 105.62410040840567 l -15.54470318097768 4.320935276713966 a37.13407197982731,37.13407197982731 0 0,0 -0.16588660598526647,-0.6173257722033276 l 15.61677786330472 -4.0527185713351" fill="#ffaa0f" stroke="none" /><path d="M 79.58551787078972 104.9243191809786 l -16.79238176212644 4.050607166136979 a38.27401237869641,38.27401237869641 0 0,0 -0.1489760053048367,-0.641784731788936 l 16.85961833336183 -3.760953776999469" fill="#ffba11" stroke="none" /><path d="M 79.50377843672027 104.57218783832718 l -17.208870064744993 3.8388629913302537 a38.63184839917476,38.63184839917476 0 0,0 -0.13919599737977298,-0.6502773590246701 l 17.272400100849207 -3.5420718128894197" fill="#ffbf11" stroke="none" /><path d="M 79.4281124754447 104.21870165774334 l -32.12968229899139 6.588872499702818 a53.79831894246198,53.79831894246198 0 0,0 -0.17822631688683588,-0.9087721500789718 l 32.23833854885389 -6.034836622555892" fill="#82ff25" stroke="none" /><path d="M 79.23777060512086 103.15116336523772 l -12.907262620222948 1.9589848633683093 a34.055077557881866,34.055077557881866 0 0,0 -0.08297430290249273,-0.5803220812450794 l 12.93907097414204 -1.7365173101428293" fill="#ff7f0b" stroke="none" /><path d="M 79.1416061653843 102.43462659150553 l -22.49461505495775 2.625609067156146 a43.647329410865744,43.647329410865744 0 0,0 -0.08068042254072653,-0.747000510960556 l 22.536477778999533 -2.2380122343108075" fill="#fdff18" stroke="none" /><path d="M 79.07016306316243 101.71520430193888 l -20.036476585884913 1.6419932434026954 a41.10364483838924,41.10364483838924 0 0,0 -0.05171903562234159,-0.7056651501016946 l 20.06177218017159 -1.29685495680424" fill="#ffe015" stroke="none" /><line stroke="#e1ed5e" stroke-width="0.3" x1="15.007084014347285" x2="10.007500721073583" y1="101.09737516637583" y2="101.16192664675087" /><path d="M 14.007167355692545 101.11028546245083 a86.0,86.0 0 0,1 10.666146001902534,-42.60595125391555" fill="none" id="id58" stroke="none" /><text fill="#e1ed5e" style="font-size:6.75px; font-family:Arial;" text-anchor="middle"><textPath startOffset="22.20632615414155" xlink:href="#id58">October</textPath></text><line stroke="#e1ed5e" stroke-width="0.3" x1="26.266209847984243" x2="21.928928074336255" y1="57.711370442889674" y2="55.22380399835377" /><path d="M 25.398753493254645 57.213857153982495 a86.0,86.0 0 0,1 29.58750427330803,-30.492523968695096" fill="none" id="id59" stroke="none" /><text fill="#e1ed5e" style="font-size:6.75px; font-family:Arial;" text-anchor="middle"><textPath startOffset="21.46611528233685" xlink:href="#id59">November</textPath></text><line stroke="#e1ed5e" stroke-width="0.3" x1="56.762969772571076" x2="54.21961505331055" y1="26.818313649435495" y2="22.513508569990535" /><path d="M 56.25429882871897 25.957352633546506 a86.0,86.0 0 0,1 42.265352541879196,-11.944610805530505" fill="none" id="id60" stroke="none" /><text fill="#e1ed5e" style="font-size:6.75px; font-family:Arial;" text-anchor="middle"><textPath startOffset="22.20632615414155" xlink:href="#id60">December</textPath></text></svg>