<?xml version="1.0" encoding="utf-8" ?>
<svg baseProfile="full" height="200mm" version="1.1" viewBox="0,0,200,200" width="200mm" xmlns="http://www.w3.org/2000/svg" xmlns:ev="http://www.w3.org/2001/xml-events" xmlns:xlink="http://www.w3.org/1999/xlink"><defs /><rect fill="#1a1a1a" height="200" width="200" x="0" y="0" /><text alignment-baseline="middle" fill="#e1ed5e" style="dominant-baseline: central; font-size:9.0px; font-family:Arial;" text-anchor="middle" x="100.0" y="100.0">2021</text><line stroke="#e1ed5e" stroke-width="0.3" x1="100.0" x2="100.0" y1="15.0" y2="10.0" /><path d="M 100.0 14.0 a86.0,86.0 0 0,1 42.46469731375804,11.215312516191453" fill="none" id="id49" stroke="none" /><text fill="#e1ed5e" style="font-size:6.75px; font-family:Arial;" text-anchor="middle"><textPath startOffset="22.20632615414155" xlink:href="#id49">January</textPath></text><path d="M 100.0 79.0 l 0.0 -29.15373075545883 a50.15373075545883,50.15373075545883 0 0,0 0.8633140300375526,0.007430816414499721 l -0.5018335507650242 29.14941131565289" fill="#aaff21" stroke="none" /><path d="M 102.16513564639614 79.11191278185805 l 0.9480502290063837 -9.14628878039434 a30.19529214821837,30.19529214821837 0 0,0 0.5165311588995902,0.05803829415426133 l -1.1053480914156992 9.128614532769477" fill="#ff4c07" stroke="none" /><path d="M 102.88285421437855 79.19881850522331 l 2.3862810313670124 -17.21816683737792 a38.38273874855291,38.38273874855291 0 0,0 0.6536599044088341,0.09633247833605935 l -2.6823099162045025 17.174539874880892" fill="#ffbf11" stroke="none" /><path d="M 103.95276090670814 79.375362276772 l 2.8865348697678184 -15.061304584194112 a36.33541585129833,36.33541585129833 0 0,0 0.613261519222895,0.12301449149127651 l -3.145362798457839 15.009386136625626" fill="#ffa30f" stroke="none" /><path d="M 104.66035177308747 79.52364482259891 l 3.338780476532793 -14.669719846398106 a36.04487073531318,36.04487073531318 0 0,0 0.6037967491038526,0.14289918262232362 l -3.5908009125991693 14.610074751634913" fill="#ff9f0e" stroke="none" /><path d="M 105.36241919743992 79.69619591428918 l 4.074358499895822 -15.426801544409129 a36.95577021256753,36.95577021256753 0 0,0 0.6136454799278956,0.16773249025659187 l -4.3393018690474285 15.354382513326243" fill="#ffac0f" stroke="none" /><path d="M 105.71112130821622 79.79150937346287 l 4.139326821419302 -14.646781736273846 a36.22045471609066,36.22045471609066 0 0,0 0.5985167669042422,0.17472345666973385 l -4.390833806046971 14.573359950685408" fill="#ffa20e" stroke="none" /><path d="M 106.40334571778207 80.00007090966166 l 4.505515587799406 -14.072329723064469 a35.77599859727075,35.77599859727075 0 0,0 0.5848816604702012,0.19282628772056504 l -4.747080070512025 13.992689711084667" fill="#ff9c0e" stroke="none" /><path d="M 107.4271985657038 80.35727306442388 l 5.283957778424174 -13.974493729031485 a35.94010323883037,35.94010323883037 0 0,0 0.5767818972921822,0.22378241530495524 l -5.523722840716023 13.881468609835984" fill="#ff9e0e" stroke="none" /><path d="M 107.76421540070413 80.48803036053334 l 4.757608156352982 -11.956173433161009 a33.8679803595289,33.8679803595289 0 0,0 0.5398171109903813,0.2202049535734294 l -4.9627091369317515 11.872507593404" fill="#ff810b" stroke="none" /><path d="M 108.09893153111575 80.62456947434976 l 6.138830869644063 -14.686195403249629 a36.917587124577814,36.917587124577814 0 0,0 0.5842054202232543,0.25012627250284414 l -6.3907200476576325 14.578349602783994" fill="#ffab0f" stroke="none" /><path d="M 109.08828744355905 81.06846463323043 l 6.464250555339918 -13.465483873401022 a35.93672625400343,35.93672625400343 0 0,0 0.5553571542383183,0.27251134369510266 l -6.695078976588667 13.352217369571086" fill="#ff9e0e" stroke="none" /><path d="M 109.73455568895987 81.39251694778311 l 7.220149623150817 -13.801226891086197 a36.575764003089084,36.575764003089084 0 0,0 0.5553506442569734,0.29664908115130634 l -7.456645313936102 13.674899083433138" fill="#ffa70f" stroke="none" /><path d="M 110.05341064243156 81.56283822128135 l 7.4312630531190615 -13.62835002007167 a36.52274443628574,36.52274443628574 0 0,0 0.54936453182862,0.30572076717826857 l -7.664751674019717 13.49841385533322" fill="#ffa60f" stroke="none" /><path d="M 110.36928655335952 81.73862282372117 l 7.583673104909129 -13.35562617907195 a36.358543173010716,36.358543173010716 0 0,0 0.5415748146341991,0.31371508887161614 l -7.812444652008656 13.223106932810284" fill="#ffa40f" stroke="none" /><line stroke="#e1ed5e" stroke-width="0.3" x1="143.23703022742887" x2="145.7803849466894" y1="26.81831364943548" y2="22.513508569990506" /><path d="M 143.74570117128098 25.957352633546492 a86.0,86.0 0 0,1 28.547481713284135,27.462654790039103" fill="none" id="id50" stroke="none" /><text fill="#e1ed5e" style="font-size:6.75px; font-family:Arial;" text-anchor="middle"><textPath startOffset="19.985693538727396" xlink:href="#id50">February</textPath></text><path d="M 110.68208982089419 81.91981866633111 l 7.577795986203675 -12.825947715972472 a35.8972456119037,35.8972456119037 0 0,0 0.52929280760704,0.3188929942855955 l -7.797450860028353 12.693608112228262" fill="#ff9d0e" stroke="none" /><path d="M 111.2981086023043 82.29822771554956 l 8.225387939360946 -12.887461908813304 a36.28867820330124,36.28867820330124 0 0,0 0.5236507660144543,0.3405970245094933 l -8.44600573115968 12.743965960144283" fill="#ffa30f" stroke="none" /><path d="M 115.9244219780498 86.31012108654704 l 3.729611474842729 -3.206265794463361 a25.918347496672467,25.918347496672467 0 0,0 0.2879273993774491,0.34081522388614055 l -3.7842494877072954 3.1415916209481143" fill="#ff0c01" stroke="none" /><path d="M 116.15771136456269 86.58626213691792 l 23.141808208197773 -19.211764709654307 a51.077153961173394,51.077153961173394 0 0,0 0.5557717476463594,0.6813104474232841 l -23.46907844792054 18.81057009262292" fill="#9fff22" stroke="none" /><path d="M 116.38621287248628 86.86637796730983 l 24.681094829471757 -19.78200657868556 a52.63043196449483,52.63043196449483 0 0,0 0.5605038735922033,0.7117829994025555 l -25.017952783657922 19.35423118532997" fill="#8dff24" stroke="none" /><line stroke="#e1ed5e" stroke-width="0.3" x1="172.23445277983987" x2="176.4835382374775" y1="55.19839476539836" y2="52.563006222186495" /><path d="M 173.08426987136738 54.67131705675599 a86.0,86.0 0 0,1 12.851231095245387,41.99856678651699" fill="none" id="id51" stroke="none" /><text fill="#e1ed5e" style="font-size:6.75px; font-family:Arial;" text-anchor="middle"><textPath startOffset="22.20632615414155" xlink:href="#id51">March</textPath></text><path d="M 118.89224826269711 90.83032412892265 l 39.14571187766149 -19.00004089875818 a64.51308208531512,64.51308208531512 0 0,0 0.4762964174924904,1.0032017259697161 l -39.46696648899574 18.323396757147922" fill="#34ff57" stroke="none" /><path d="M 119.196687751892 91.48605970444005 l 20.75958905931682 -9.207104063770737 a43.70971825348809,43.70971825348809 0 0,0 0.2991186944373902,0.6904071873600277 l -20.91499846359689 8.848397731824106" fill="#f9ff18" stroke="none" /><path d="M 119.34039704204932 91.81776055985345 l 13.89058757183886 -5.876617384327818 a36.08254139635321,36.08254139635321 0 0,0 0.23707658070132223,0.5740997449139518 l -13.98968583942638 5.636643068960564" fill="#ffa00e" stroke="none" /><path d="M 119.61058180528143 92.48833698450437 l 11.49644051055914 -4.403611675088368 a33.31096828839226,33.31096828839226 0 0,0 0.20049302591526913,0.5372216305918119 l -11.570538124976034 4.205066907467224" fill="#ff790b" stroke="none" /><path d="M 119.7369772167798 92.82701384747503 l 14.417636172256342 -5.239784364133291 a36.340259873228035,36.340259873228035 0 0,0 0.20860506525183525,0.5897546105271319 l -14.505694318317987 4.990832127179545" fill="#ffa30f" stroke="none" /><path d="M 119.85752413597 93.16781622104841 l 28.212370823035453 -9.706754023466493 a50.835531520798234,50.835531520798234 0 0,0 0.277568553177391,0.8298946444081028 l -28.37527666998461 9.219686276136075" fill="#a2ff22" stroke="none" /><path d="M 119.97218684219823 93.5106431181261 l 14.153061543452628 -4.598608457464257 a35.881409570259784,35.881409570259784 0 0,0 0.1858050726396551,0.5890528560825025 l -14.23012209986049 4.354305434955335" fill="#ff9d0e" stroke="none" /><path d="M 120.18372546131832 94.20196356495316 l 14.331427615061834 -4.116888115507377 a35.911022273518434,35.911022273518434 0 0,0 0.1655553351696469,0.5955906257398439 l -14.400169720797845 3.869586186348582" fill="#ff9e0e" stroke="none" /><path d="M 120.37134235888165 94.90015583598534 l 15.044288570134752 -3.7662479926220223 a36.50855385016335,36.50855385016335 0 0,0 0.14736799411454413,0.6109354758907263 l -15.106889364510115 3.50672728507189" fill="#ffa60f" stroke="none" /><path d="M 120.45610955862082 95.25157060432595 l 29.032531079684485 -6.739254285597841 a50.80445284213073,50.80445284213073 0 0,0 0.19040931447457013,0.8535676212749097 l -29.144234781161092 6.238508494772967" fill="#a2ff22" stroke="none" /><path d="M 120.53481517161879 95.60439243477599 l 14.743850884923276 -3.1560148922048783 a36.07785027504491,36.07785027504491 0 0,0 0.12476185184986113,0.6083830978897596 l -14.795992032688133 2.9017561381517067" fill="#ffa00e" stroke="none" /><path d="M 120.6074358757038 95.95851677861258 l 14.644078918830179 -2.871963285490717 a35.92304327187096,35.92304327187096 0 0,0 0.11378072467539509,0.607821180893178 l -14.691345367415433 2.619464027134976" fill="#ff9e0e" stroke="none" /><path d="M 120.67395015179393 96.31383870115 l 14.993554464033844 -2.673347850397389 a36.23001852248294,36.23001852248294 0 0,0 0.10418397026955166,0.6148996900473024 l -15.037350295823618 2.4148623720342486" fill="#ffa20f" stroke="none" /><path d="M 120.87857604477298 97.74499172005257 l 39.298837105263296 -4.244504168992888 a60.527388143749356,60.527388143749356 0 0,0 0.10296248949724383,1.0368182179931864 l -39.36607672044276 3.567410420295267" fill="#38ff2e" stroke="none" /><path d="M 120.91429891909075 98.10471618934814 l 16.00006063001915 -1.4499484777777059 a37.06562450552417,37.06562450552417 0 0,0 0.05211341409897075,0.6359156504449065 l -16.022648527937616 1.1743189101250306" fill="#ffad10" stroke="none" /><path d="M 120.96714384426684 98.82574320788733 l 29.67292788280943 -1.6618208644467245 a50.71942626841776,50.71942626841776 0 0,0 0.04131554171046877,0.8721057859037774 l -29.697137032753396 1.1508039719199474" fill="#a3ff21" stroke="none" /><line stroke="#e1ed5e" stroke-width="0.3" x1="184.98032266829074" x2="189.97916517819016" y1="98.17113171792111" y2="98.06355123074" /><path d="M 185.9800911702706 98.14961562048488 a86.0,86.0 0 0,1 -9.607161424134198,41.387399972396054" fill="none" id="id52" stroke="none" /><text fill="#e1ed5e" style="font-size:6.75px; font-family:Arial;" text-anchor="middle"><textPath startOffset="21.466115282336823" xlink:href="#id52">April</textPath></text><path d="M 120.99513854157772 99.54816195383933 l 14.925744288260958 -0.32121812977542674 a35.9292003685881,35.9292003685881 0 0,0 0.007984824875541545,0.6184334861964408 l -14.929062120254216 0.06424838551852323" fill="#ff9e0e" stroke="none" /><path d="M 120.99824983174949 100.27111621757518 l 15.02147758517802 0.19394788698656898 a36.02272959967237,36.02272959967237 0 0,0 -0.013342025368627532,0.6199514923981178 l -15.015913497124386 -0.4524891951748016" fill="#ff9f0e" stroke="none" /><path d="M 120.9764740272857 100.99374915477107 l 30.001842274587 1.421321112555135 a51.03549056656459,51.03549056656459 0 0,0 -0.04912445231406405,0.8771500960080881 l -29.972931471385404 -1.9375429248986464" fill="#a0ff22" stroke="none" /><path d="M 120.92983693683757 101.71520430193887 l 14.860326436692263 1.217806708640403 a35.910142688273126,35.910142688273126 0 0,0 -0.055789662045368664,0.6156342717930854 l -14.83716217836982 -1.473422368982059" fill="#ff9e0e" stroke="none" /><path d="M 120.81339534386255 102.79330883721812 l 36.013371256023156 4.833256012557805 a57.33625287377719,57.33625287377719 0 0,0 -0.139698275687568,0.9770494147884493 l -35.92483892931899 -5.452450899326664" fill="#59ff2a" stroke="none" /><path d="M 120.76222939487914 103.15116336523771 l 15.352961051644858 2.3301779155660958 a36.5287843108054,36.5287843108054 0 0,0 -0.0997031348576313,0.6208515159325444 l -15.310576162425939 -2.594108661191845" fill="#ffa60f" stroke="none" /><path d="M 120.70491114924044 103.5080841355445 l 14.763645981561394 2.50144093241428 a35.97405921609874,35.97405921609874 0 0,0 -0.10869914479819814,0.6096425302391618 l -14.718400394424007 -2.7552022133866605" fill="#ff9e0e" stroke="none" /><path d="M 120.49622156327973 104.57218783832717 l 14.944497820872524 3.3337389028286064 a36.31181995029645,36.31181995029645 0 0,0 -0.14133845775089968,0.6088823768197646 l -14.88489879719107 -3.590489936996936" fill="#ffa30f" stroke="none" /><path d="M 120.41448212921028 104.9243191809786 l 4.021921088525643 0.9701555511060768 a25.13727579884025,25.13727579884025 0 0,0 -0.10508420974203617,0.4197591817163267 l -4.004625564488546 -1.0392425722197993" fill="#ff0000" stroke="none" /><path d="M 120.32669344350535 105.2749913415812 l 23.75020227063407 6.163427991207608 a45.53691000307156,45.53691000307156 0 0,0 -0.2034240535637862,0.757016578916255 l -23.64059014072851 -6.571335503299411" fill="#e2ff1b" stroke="none" /><path d="M 120.23288151984713 105.62410040840565 l 27.91684544077569 7.759999073332708 a49.97529715088842,49.97529715088842 0 0,0 -0.23751917283160964,0.8268354002149212 l -27.779133631057977 -8.239391949052212" fill="#acff20" stroke="none" /><path d="M 120.02730092923936 106.31721596034902 l 14.191837895653409 4.476534565385031 a35.88111637517801,35.88111637517801 0 0,0 -0.19086660672834357,0.5874270133243307 l -14.112679037908817 -4.720160478687157" fill="#ff9d0e" stroke="none" /><path d="M 119.54520255179757 107.68017299344265 l 27.639842085126233 10.860914240342973 a50.69714344220333,50.69714344220333 0 0,0 -0.32614531160284044,0.8094659164159208 l -27.448794159266 -11.335079524601708" fill="#a4ff21" stroke="none" /><path d="M 119.41010516605496 108.01547362559984 l 13.797566402978335 5.697755300880376 a35.92773439317926,35.92773439317926 0 0,0 -0.24097076844107784,0.5695837149804427 l -13.697444653344947 -5.934413541526982" fill="#ff9e0e" stroke="none" /><path d="M 119.12269723197855 108.67885076344098 l 13.464844366936537 6.111029913613827 a35.78670755884844,35.78670755884844 0 0,0 -0.2594116795326956,0.5587496793670186 l -13.35765807056401 -6.341899660259676" fill="#ff9c0e" stroke="none" /><path d="M 118.64920377521936 109.65438752849418 l 13.534763312128769 7.006725418238379 a36.24086674050839,36.24086674050839 0 0,0 -0.2915620731221327,0.55152556431099 l -13.412148730781745 -7.238665997635504" fill="#ffa20f" stroke="none" /><line stroke="#e1ed5e" stroke-width="0.3" x1="174.80103733775053" x2="179.2010983576182" y1="140.37084112569926" y2="142.7455964860345" /><path d="M 175.68104954172406 140.8457921977663 a86.0,86.0 0 0,1 -30.038265399797805,32.042727171017184" fill="none" id="id53" stroke="none" /><text fill="#e1ed5e" style="font-size:6.75px; font-family:Arial;" text-anchor="middle"><textPath startOffset="22.206326154141568" xlink:href="#id53">May</textPath></text><path d="M 118.12598468904814 110.60418214915192 l 33.331468452346606 19.499793739810094 a59.61643102469354,59.61643102469354 0 0,0 -0.5258144356376561,0.8812952389185411 l -32.990873141010724 -20.070651072614737" fill="#41ff2d" stroke="none" /><path d="M 117.94076556474637 110.91462005526583 l 19.94696787395886 12.13513296370485 a44.348297141580645,44.348297141580645 0 0,0 -0.40237708457063426,0.648759979980787 l -19.735126149720262 -12.47668927505091" fill="#f1ff19" stroke="none" /><path d="M 117.75023020441432 111.22182372390056 l 12.699187147325457 8.028517825569905 a36.02419557508121,36.02419557508121 0 0,0 -0.3358743949692802,0.5212845197843977 l -12.559107888979126 -8.245923945275754" fill="#ff9f0e" stroke="none" /><path d="M 117.14729908036423 112.12312394758627 l 12.132084778007645 8.577372262366065 a35.85795396371827,35.85795396371827 0 0,0 -0.36066307053345953,0.5009294604873976 l -11.982641915098581 -8.784935328304593" fill="#ff9d0e" stroke="none" /><path d="M 116.93607887273984 112.41649034213515 l 12.009834349786328 8.804871147287049 a35.89167139812169,35.89167139812169 0 0,0 -0.36957950282503943,0.4951121398533214 l -11.856493580266195 -9.010296166649686" fill="#ff9d0e" stroke="none" /><path d="M 116.27256486870786 113.27417163493432 l 11.512964221661589 9.39157805411958 a35.85766076863651,35.85766076863651 0 0,0 -0.39427034790183474,0.47492403281092516 l -11.34959787386621 -9.588363344044277" fill="#ff9d0e" stroke="none" /><path d="M 116.0416608686014 113.55231037782055 l 11.253291468621759 9.507001800128359 a35.7315868834759,35.7315868834759 0 0,0 -0.400972194953029,0.46642124990763384 l -11.087976764097952 -9.699300149197521" fill="#ff9b0e" stroke="none" /><path d="M 115.56566222782051 114.09645910891815 l 11.126484936380692 10.076284428898685 a36.011001796401615,36.011001796401615 0 0,0 -0.42004877341433733,0.45587998290096415 l -10.951389754970632 -10.266315666600983" fill="#ff9f0e" stroke="none" /><path d="M 115.32070863581623 114.36230785411682 l 10.92914387555118 10.245461398283341 a35.98050950789765,35.98050950789765 0 0,0 -0.42747149525082584,0.4482021537619745 l -10.75116582892139 -10.432070668627823" fill="#ff9e0e" stroke="none" /><path d="M 114.81725581225074 114.88116024355365 l 10.520352305204895 10.565724885640105 a35.910142688273126,35.910142688273126 0 0,0 -0.4417803368432089,0.43237504203645777 l -10.336922015985893 -10.745250030599134" fill="#ff9e0e" stroke="none" /><path d="M 114.0293411484842 115.62618273729858 l 9.918031344697324 11.046917210594765 a35.84593296536575,35.84593296536575 0 0,0 -0.4626816308314392,0.4082627441379677 l -9.726407360959296 -11.216003096505023" fill="#ff9d0e" stroke="none" /><path d="M 113.75828350139079 115.86535959552629 l 9.71968425919898 11.208250354165184 a35.83567113750384,35.83567113750384 0 0,0 -0.469506204759942,0.40012337341600746 l -9.52531257786199 -11.373898117804139" fill="#ff9c0e" stroke="none" /><path d="M 112.92097659922987 116.55440617244103 l 9.27698867636936 11.88571447570828 a36.07755707996314,36.07755707996314 0 0,0 -0.4928387939227421,0.3778877714556794 l -9.071021153953124 -12.04364158899133" fill="#ffa00e" stroke="none" /><path d="M 111.7513745106137 117.40417183066458 l 32.207529621629746 47.70040979204479 a78.55566052663421,78.55566052663421 0 0,0 -1.1271813368509125,0.7470343267451169 l -31.381673586038872 -48.247742139881225" fill="#46fff6" stroke="none" /><path d="M 111.45004920935366 117.60387380957326 l 8.148316570408232 12.527626217426386 a35.94444651284009,35.94444651284009 0 0,0 -0.5215679508482441,0.33288934336484555 l -7.931466817513057 -12.66602998961504" fill="#ff9e0e" stroke="none" /><line stroke="#e1ed5e" stroke-width="0.3" x1="143.8653032363475" x2="146.44561519142675" y1="172.8068346515853" y2="177.08958963109032" /><path d="M 144.38136562736335 173.6633856474863 a86.0,86.0 0 0,1 -40.68145358897372,12.25698825130547" fill="none" id="id54" stroke="none" /><text fill="#e1ed5e" style="font-size:6.75px; font-family:Arial;" text-anchor="middle"><textPath startOffset="21.466115282336833" xlink:href="#id54">June</textPath></text><path d="M 110.21172684928248 118.3499491758327 l 7.265365588846298 13.055489171113189 a35.94092817185886,35.94092817185886 0 0,0 -0.5431824153340682,0.2961863621224189 l -7.039560361643581 -13.178616184995379" fill="#ff9e0e" stroke="none" /><path d="M 109.57404056367764 118.69057910512821 l 13.25427655518001 25.875188515044133 a50.072344722953915,50.072344722953915 0 0,0 -0.7705086919230622,0.3863490536282827 l -12.806913955574187 -26.09950540958172" fill="#abff21" stroke="none" /><path d="M 109.2508944713604 118.85261126421891 l 6.432711251423221 13.109370663939181 a35.6025810474976,35.6025810474976 0 0,0 -0.5524966738035463,0.26523197859327685 l -6.206101909619442 -13.218156919032019" fill="#ff990e" stroke="none" /><path d="M 108.59647513512805 119.15986991738527 l 5.976693396650661 13.320886318624419 a35.60023548684345,35.60023548684345 0 0,0 -0.5612619974766296,0.2460407657240779 l -5.746510724516278 -13.42179163764295" fill="#ff990e" stroke="none" /><path d="M 107.93186726928326 119.44442032107085 l 5.7034405479857 13.981587377381029 a36.10013310125934,36.10013310125934 0 0,0 -0.5773939933712567,0.22975698601639222 l -5.461925478572577 -14.07769120780349" fill="#ffa00e" stroke="none" /><path d="M 107.2578585660854 119.70592522655815 l 6.1607726169875425 16.727210019699204 a38.82567458138258,38.82567458138258 0 0,0 -0.629124647876181,0.22558171554556214 l -5.871928408481627 -16.830779276284726" fill="#ffc512" stroke="none" /><path d="M 106.57524785965236 119.94407469862006 l 4.536735584242304 13.760849067794682 a35.48940774593483,35.48940774593483 0 0,0 -0.5818212172518858,0.18628078045558835 l -4.299193021899478 -13.836902694909977" fill="#ff980e" stroke="none" /><path d="M 105.88484417918355 120.15858648285463 l 4.107701975180082 14.070969934151883 a35.658288113033684,35.658288113033684 0 0,0 -0.5906860492033548,0.16693377770833737 l -3.8648847578721215 -14.13959250519874" fill="#ff9a0e" stroke="none" /><path d="M 104.83641907484287 120.43548508189849 l 4.008388764403634 16.936780607681595 a38.404646443962505,38.404646443962505 0 0,0 -0.6446125733898979,0.14671172302518282 l -3.7162560416208743 -17.003269064284463" fill="#ffc011" stroke="none" /><path d="M 104.48393922423573 120.51570834832081 l 3.1883851655899593 14.58806127563101 a35.93242551448756,35.93242551448756 0 0,0 -0.6053904265989797,0.12686544999468044 l -2.936803277561602 -14.640782706352232" fill="#ff9e0e" stroke="none" /><path d="M 103.7750983002368 120.6578951692458 l 2.64392512870025 14.467948593709021 a35.707544886770854,35.707544886770854 0 0,0 -0.6055847065538754,0.10528866366256327 l -2.3944914506743245 -14.511315835892592" fill="#ff9b0e" stroke="none" /><path d="M 103.06178313531738 120.77559828337769 l 2.5652839238399596 17.406624156279896 a38.594636856948725,38.594636856948725 0 0,0 -0.658077904380967,0.09120360112768075 l -2.265277428272162 -17.44820232290018" fill="#ffc212" stroke="none" /><line stroke="#e1ed5e" stroke-width="0.3" x1="102.19456741930631" x2="102.32365962044197" y1="184.97166512339345" y2="189.96999836594603" /><path d="M 102.22038585953345 185.97133177190398 a86.0,86.0 0 0,1 -42.740103519485714,-10.115201625700543" fill="none" id="id55" stroke="none" /><text fill="#e1ed5e" style="font-size:6.75px; font-family:Arial;" text-anchor="middle"><textPath startOffset="22.20632615414155" xlink:href="#id55">July</textPath></text><path d="M 100.54218724476979 120.99299961872073 l 0.3767206421886352 14.586282458909723 a35.591146439308616,35.591146439308616 0 0,0 -0.6125750002904369,0.010546034160921602 l -0.12558595200553044 -14.590605970349806" fill="#ff990e" stroke="none" /><path d="M 99.81925306533755 120.99922214144158 l -0.27926383058190146 32.44493869514912 a53.44614052886808,53.44614052886808 0 0,0 -0.9198852193711489,-0.015836658275338446 l 0.8377087398457183 -32.43532455959462" fill="#84ff25" stroke="none" /><path d="M 99.45781275523022 120.99299961872073 l -0.37911271153178333 14.678901219851245 a35.68379608514758,35.68379608514758 0 0,0 -0.6138966333598032,-0.02114384131474556 l 0.6317296965662295 -14.670200580110404" fill="#ff9a0e" stroke="none" /><path d="M 98.37488393609728 120.93702456842531 l -1.1391861370351135 14.676593671614501 a35.72073866545045,35.72073866545045 0 0,0 -0.6126203335633998,-0.05285946015177769 l 1.391650788340055 -14.65480995918406" fill="#ff9b0e" stroke="none" /><path d="M 97.2962882734958 120.8252237178851 l -3.8075610457844853 29.327575799099684 a50.57370831277865,50.57370831277865 0 0,0 -0.862333284974425,-0.1195115356986619 l 4.311822921945741 -29.25768969790842" fill="#a5ff21" stroke="none" /><path d="M 96.93821686468263 120.77559828337769 l -2.1522992881422676 14.604334604974778 a35.762079171979856,35.762079171979856 0 0,0 -0.6082348630011439,-0.0949937766190405 l 2.403370014751929 -14.56512252100863" fill="#ff9b0e" stroke="none" /><path d="M 96.22490169976321 120.6578951692458 l -3.1653523020796515 17.321275058186092 a38.60812383071009,38.60812383071009 0 0,0 -0.6527206809775424,-0.12509547199765655 l 3.463040597628889 -17.26422238783997" fill="#ffc212" stroke="none" /><path d="M 95.51606077576429 120.51570834832081 l -3.74762028603399 17.14677227848221 a38.5515371799287,38.5515371799287 0 0,0 -0.6470780983741319,-0.14727286848453025 l 4.042218533800985 -17.079722676419994" fill="#ffc212" stroke="none" /><path d="M 94.81253420990036 120.34920634021253 l -7.247928341424716 28.431915568525216 a50.341204612935954,50.341204612935954 0 0,0 -0.8378443872668314,-0.22128231772630616 l 7.736263171503037 -28.302941901495327" fill="#a8ff21" stroke="none" /><path d="M 92.7421414339146 119.70592522655815 l -4.112248336172048 11.165229728271207 a32.89844280834349,32.89844280834349 0 0,0 -0.5297115811483638,-0.20029159437207442 l 4.303830138080695 -11.092789883792499" fill="#ff730a" stroke="none" /><path d="M 92.40401165467489 119.57807347666478 l -6.439731251405451 16.597910091263326 a38.80339175516814,38.80339175516814 0 0,0 -0.620630546126291,-0.2469617026583734 l 6.7244828735736 -16.48460154419889" fill="#ffc512" stroke="none" /><path d="M 92.06813273071674 119.44442032107085 l -5.5025543464004 13.489128841740298 a35.56827722293065,35.56827722293065 0 0,0 -0.5649064566835101,-0.23613094470897827 l 5.733932262581372 -13.392412854011345" fill="#ff990e" stroke="none" /><path d="M 90.10565033884886 118.52300852407294 l -13.928960749325604 26.076120970766087 a50.56315328983497,50.56315328983497 0 0,0 -0.7641710197229867,-0.41668696920523296 l 14.375754580917231 -25.83249334980109" fill="#a5ff21" stroke="none" /><line stroke="#e1ed5e" stroke-width="0.3" x1="58.666819895761336" x2="56.23545636021788" y1="174.27360380694188" y2="178.64263932499728" /><path d="M 58.180547188652646 175.14741091055294 a86.0,86.0 0 0,1 -31.652253787137756,-30.449443065178592" fill="none" id="id56" stroke="none" /><text fill="#e1ed5e" style="font-size:6.75px; font-family:Arial;" text-anchor="middle"><textPath startOffset="22.20632615414155" xlink:href="#id56">August</textPath></text><path d="M 87.95078237400918 117.19931262002967 l -10.05191207295722 14.348315678099906 a38.518992525852354,38.518992525852354 0 0,0 -0.5397660409119679,-0.38510873851344435 l 10.297405441718075 -14.173162677742242" fill="#ffc112" stroke="none" /><path d="M 87.07902340077011 116.55440617244103 l -8.956781483359041 11.475463757295397 a35.55713580982343,35.55713580982343 0 0,0 -0.47924670816199216,-0.3807425694639525 l 9.152985684238391 -11.319587273826315" fill="#ff990e" stroke="none" /><path d="M 86.79598089348748 116.32954008644616 l -9.220826544899014 11.403486732371498 a35.66503159991437,35.66503159991437 0 0,0 -0.4740559850444624,-0.39011580212443925 l 9.415752658488165 -11.243075811389877" fill="#ff9a0e" stroke="none" /><path d="M 85.70375840098266 115.38237550388516 l -14.644209913298543 15.756780149795407 a42.511136759217024,42.511136759217024 0 0,0 -0.5317215364741719,-0.5027759011212548 l 14.913267284163531 -15.502369611928222" fill="#fff617" stroke="none" /><path d="M 85.44109423537348 115.13401014063109 l -10.066374110151987 10.46401496962602 a35.51990003443879,35.51990003443879 0 0,0 -0.43697942216687097,-0.42767633656706966 l 10.245003484694651 -10.289188530136379" fill="#ff980e" stroke="none" /><path d="M 84.9287848128048 114.62390073753433 l -10.48098739457811 10.169911144250833 a35.60404702290644,35.60404702290644 0 0,0 -0.4229988798386043,-0.4435126343835404 l 10.654492825795671 -9.987991393284792" fill="#ff990e" stroke="none" /><path d="M 84.67929136418377 114.36230785411682 l -10.86283404266628 10.183299636951917 a35.889619032549305,35.889619032549305 0 0,0 -0.4186329094137049,-0.454343342164811 l 11.036513360075716 -9.994805039985762" fill="#ff9d0e" stroke="none" /><path d="M 83.95833913139862 113.55231037782056 l -18.219156156791193 15.391901192855851 a44.85054031665069,44.85054031665069 0 0,0 -0.4931509126690886,-0.5940320429257998 l 18.48140306935382 -15.076007892816289" fill="#ebff1a" stroke="none" /><path d="M 83.50135304334701 112.99209946851258 l -11.715303185612232 9.225385856861434 a35.91160866368197,35.91160866368197 0 0,0 -0.37825728662566677,-0.4889485325590401 l 11.872367289455967 -9.022359330189142" fill="#ff9e0e" stroke="none" /><path d="M 83.06392112726016 112.41649034213515 l -12.016691572446712 8.809898440769585 a35.90017405549298,35.90017405549298 0 0,0 -0.3610877246549075,-0.5015192679207889 l 12.166559089477229 -8.601745567397657" fill="#ff9d0e" stroke="none" /><path d="M 82.85270091963577 112.12312394758628 l -12.19959697130226 8.625103318052933 a35.94063497677709,35.94063497677709 0 0,0 -0.3527985661966529,-0.5082326475667159 l 12.346256444661046 -8.413829408299204" fill="#ff9e0e" stroke="none" /><path d="M 82.24976979558568 111.22182372390057 l -25.622158343087467 16.19851354268579 a51.31314630899969,51.31314630899969 0 0,0 -0.46556994389315026,-0.7506469902531265 l 25.89719292664857 -15.755070221067399" fill="#9cff22" stroke="none" /><line stroke="#e1ed5e" stroke-width="0.3" x1="26.63291911575756" x2="22.317208475507996" y1="142.92168965132927" y2="145.44649492493687" /><path d="M 25.769776987707644 143.4266507060508 a86.0,86.0 0 0,1 -11.730757126820373,-40.83630448921669" fill="none" id="id57" stroke="none" /><text fill="#e1ed5e" style="font-size:6.75px; font-family:Arial;" text-anchor="middle"><textPath startOffset="21.46611528233685" xlink:href="#id57">September</textPath></text><path d="M 81.69416730710424 110.29060199501025 l -18.486612950043313 10.39222740075227 a42.2073866545045,42.2073866545045 0 0,0 -0.3505697108546103,-0.6363858550570677 l 18.662759070349438 -10.072471027297379" fill="#fff216" stroke="none" /><path d="M 81.18737489456691 109.33194174019688 l -19.604094203384047 9.724547422277448 a42.88349451306347,42.88349451306347 0 0,0 -0.32233428351750654,-0.6641040963071596 l 19.768581743516272 -9.385654370005003" fill="#fffb17" stroke="none" /><path d="M 80.87730276802145 108.67885076344099 l -14.004687630473219 6.356038191632732 a36.379548014185055,36.379548014185055 0 0,0 -0.2538927188059658,-0.5724610551872045 l 14.112021434010465 -6.114028799952831" fill="#ffa40f" stroke="none" /><path d="M 80.58989483394504 108.01547362559985 l -16.22082599317812 6.698449174873243 a38.54948481435632,38.54948481435632 0 0,0 -0.247996886673527,-0.6155079346470405 l 16.333725494109036 -6.418241872383398" fill="#ffc212" stroke="none" /><path d="M 80.32549172779594 107.34259656027581 l -28.21770251548024 10.53094707946368 a51.11875796978694,51.11875796978694 0 0,0 -0.3005679246102151,-0.8270338397402962 l 28.39479470109568 -10.043665442717266" fill="#9fff22" stroke="none" /><path d="M 79.97269907076064 106.31721596034903 l -14.327450965880809 4.519311026112291 a36.0233159898359,36.0233159898359 0 0,0 -0.18144297129887926,-0.5929661284248 l 14.403120709685819 -4.272017925135443" fill="#ff9f0e" stroke="none" /><path d="M 79.76711848015287 105.62410040840567 l -14.20135967097845 3.947528316573132 a35.73979634576543,35.73979634576543 0 0,0 -0.15965804982616472,-0.5941469976555454 l 14.267205797146389 -3.7024903857420477" fill="#ff9b0e" stroke="none" /><path d="M 79.58551787078972 104.9243191809786 l -15.341216256104651 3.7005614441417753 a36.78122527620838,36.78122527620838 0 0,0 -0.1431655494503825,-0.6167534400417055 l 15.40264237148559 -3.435939346751496" fill="#ffaa0f" stroke="none" /><path d="M 79.50377843672027 104.57218783832718 l -15.721712436403493 3.5071157958295793 a37.108137792380646,37.108137792380646 0 0,0 -0.13370585320030431,-0.624629233181302 l 15.77975232832824 -3.235972743232114" fill="#ffae10" stroke="none" /><path d="M 79.4281124754447 104.21870165774334 l -29.353096622688195 6.019474743590018 a50.963950966612984,50.963950966612984 0 0,0 -0.16883645164629113,-0.8608934295137043 l 29.452363007310154 -5.513317587008359" fill="#a0ff22" stroke="none" /><path d="M 79.23777060512086 103.15116336523772 l -11.79184167774075 1.7896931392514495 a32.92688273127507,32.92688273127507 0 0,0 -0.08022548581004035,-0.5610968609027209 l 11.820901214567389 -1.586450806368328" fill="#ff740a" stroke="none" /><path d="M 79.1416061653843 102.43462659150553 l -20.550673456832754 2.398708954680823 a41.690190530264246,41.690190530264246 0 0,0 -0.07706272601749997,-0.7135051341857713 l 20.588918484351307 -2.0446074986102696" fill="#ffeb16" stroke="none" /><path d="M 79.07016306316243 101.71520430193888 l -18.304962611540418 1.5000953286398817 a39.36632631216433,39.36632631216433 0 0,0 -0.049533038757624104,-0.6758389596652215 l 18.32807220896238 -1.1847832324778997" fill="#ffcc13" stroke="none" /><line stroke="#e1ed5e" stroke-width="0.3" x1="15.007084014347285" x2="10.007500721073583" y1="101.09737516637583" y2="101.16192664675087" /><path d="M 14.007167355692545 101.11028546245083 a86.0,86.0 0 0,1 10.666146001902534,-42.60595125391555" fill="none" id="id58" stroke="none" /><text fill="#e1ed5e" style="font-size:6.75px; font-family:Arial;" text-anchor="middle"><textPath startOffset="22.20632615414155" xlink:href="#id58">October</textPath></text><path d="M 79.08570108090925 98.10471618934814 l -19.52740313226628 -1.7696013222261806 a40.60742109329188,40.60742109329188 0 0,0 0.06907684762307058,-0.6955944286783878 l 19.49404915896098 2.105471281608999" fill="#ffdd14" stroke="none" /><path d="M 79.16333360222342 97.38593545837743 l -16.44278816611684 -2.0628304302574834 a37.5716792166572,37.5716792166572 0 0,0 0.08602841232630995,-0.6410115962456534 l 16.404843754732696 2.345560368567796" fill="#ffb410" stroke="none" /><path d="M 79.26566170972629 96.67025291283419 l -16.6761305446379 -2.678035649309927 a37.88979588037641,37.88979588037641 0 0,0 0.10895686859974542,-0.643069606170407 l 16.627561814517932 2.964691043796162" fill="#ffb911" stroke="none" /><path d="M 79.3925641242962 95.95851677861259 l -14.951933145777181 -2.932338952815059 a36.23676200936363,36.23676200936363 0 0,0 0.12531138908956013,-0.6110628366347067 l 14.899242460772626 3.1892774456131683" fill="#ffa20f" stroke="none" /><path d="M 79.71946130924805 94.55025226153421 l -51.63328841844091 -13.874798942903075 a74.4650027457952,74.4650027457952 0 0,0 0.3432951140764403,-1.2350151784398988 l 51.38680653379811 14.761525424761915" fill="#41ffcb" stroke="none" /><path d="M 79.91906864156998 93.8553929516997 l -14.293764579895724 -4.373779533263604 a35.94796485382131,35.94796485382131 0 0,0 0.186149716549829,-0.5901454714601904 l 14.216359379577693 4.619175171150209" fill="#ff9e0e" stroke="none" /><path d="M 80.38941819471856 92.48833698450439 l -58.83174541584431 -22.534989046486853 a84.0,84.0 0 0,0 0.5288258004732356,-1.3458039804169464 l 58.435126065489385 23.544342031799562" fill="#4dd2ff" stroke="none" /><path d="M 80.65960295795068 91.81776055985345 l -13.886807232310744 -5.87501805608668 a36.07843666520845,36.07843666520845 0 0,0 0.24689554872109082,-0.569868966848945 l 13.783620973746972 6.113186167522224" fill="#ffa00e" stroke="none" /><path d="M 81.26839172434947 90.50648371742162 l -13.555078630293695 -6.869957869853775 a36.196594283161296,36.196594283161296 0 0,0 0.28645392959961674,-0.5533378155319225 l 13.434815267533963 7.102268407646033" fill="#ffa10e" stroke="none" /><path d="M 81.43458229118936 90.18545643968196 l -39.951150415485124 -21.120036844175935 a66.19015795303294,66.19015795303294 0 0,0 0.5411578110469433,-1.002683236242245 l 39.581684505219705 21.804601063750653" fill="#36ff6c" stroke="none" /><line stroke="#e1ed5e" stroke-width="0.3" x1="26.266209847984243" x2="21.928928074336255" y1="57.711370442889674" y2="55.22380399835377" /><path d="M 25.398753493254645 57.213857153982495 a86.0,86.0 0 0,1 29.58750427330803,-30.492523968695096" fill="none" id="id59" stroke="none" /><text fill="#e1ed5e" style="font-size:6.75px; font-family:Arial;" text-anchor="middle"><textPath startOffset="21.46611528233685" xlink:href="#id59">November</textPath></text><path d="M 81.96595687620814 89.24020034530311 l -13.507026118224836 -8.058808219834155 a36.72845016148999,36.72845016148999 0 0,0 0.3286045494655244,-0.5401394785726638 l 13.366305770473096 8.290115471613895" fill="#ffa90f" stroke="none" /><path d="M 82.54541684631803 88.32363383020206 l -12.334385803872859 -8.251174139051063 a35.8397758686486,35.8397758686486 0 0,0 0.3474334058463202,-0.5098156520489505 l 12.190527932357798 8.46226781437043" fill="#ff9d0e" stroke="none" /><path d="M 82.7489923806493 88.02491185347247 l -14.154683211299943 -9.825720495964273 a38.230781760473576,38.230781760473576 0 0,0 0.3799181756401384,-0.5373673165376525 l 13.983452415855927 10.067914312833711" fill="#ffbd11" stroke="none" /><path d="M 83.84228863543731 86.58626213691792 l -12.276082779258157 -10.191304490536787 a36.95508995969731,36.95508995969731 0 0,0 0.41053477453456766,-0.48594368371530133 l 12.098837391236465 10.401107123881204" fill="#ffac0f" stroke="none" /><path d="M 84.07557802195018 86.31012108654704 l -11.5763582874582 -9.951943212287231 a36.26608151754051,36.26608151754051 0 0,0 0.4110296417773252,-0.46987793420946355 l 11.40333678210303 10.149736702699638" fill="#ffa20f" stroke="none" /><path d="M 84.5562425177563 85.77008943001954 l -37.419455188729465 -34.47836457709335 a71.88195407541163,71.88195407541163 0 0,0 0.8462651432409865,-0.9027366506787394 l 36.82042272351802 35.117370644650144" fill="#3dffae" stroke="none" /><path d="M 84.80347519578584 85.50635884689758 l -11.269137519444383 -10.747906999532958 a36.57276357307073,36.57276357307073 0 0,0 0.43841293173708246,-0.4518230637397495 l 11.082460324004183 10.940294258822831" fill="#ffa70f" stroke="none" /><path d="M 85.05521093208273 85.24692304244772 l -10.675375937738186 -10.538431960766513 a36.000739968539705,36.000739968539705 0 0,0 0.43914765463931427,-0.437261815049628 l 10.49239248293156 10.72062962646625" fill="#ff9f0e" stroke="none" /><path d="M 85.57189188830299 84.74124197986013 l -9.879447502676944 -10.448223540396786 a35.37945959027151,35.37945959027151 0 0,0 0.44610485595725546,-0.4146058453487214 l 9.698134762924832 10.616733971820155" fill="#ff960d" stroke="none" /><path d="M 86.65592168130627 83.78471172551755 l -10.60805600567917 -12.890563293754793 a37.69423476083658,37.69423476083658 0 0,0 0.5045581564277635,-0.40798427283011796 l 10.384594450686906 13.071253663849046" fill="#ffb610" stroke="none" /><path d="M 86.93701828274178 83.55741782278169 l -9.26732815509148 -11.664932865367525 a35.8981216899206,35.8981216899206 0 0,0 0.48713314345488923,-0.38021514524442573 l 9.065162456477164 11.822726399835172" fill="#ff9d0e" stroke="none" /><path d="M 87.22198572758235 83.33499621200491 l -9.080326662660637 -11.842503459721152 a35.92304327187096,35.92304327187096 0 0,0 0.493948424450311,-0.3720317126712033 l 8.875132084451936 11.99705176189821" fill="#ff9e0e" stroke="none" /><path d="M 87.51073957382395 83.11751280151077 l -8.910006272374648 -12.044193306799373 a35.981682288224725,35.981682288224725 0 0,0 0.5010957862219761,-0.36406739929454945 l 8.70136516979889 12.195779940910592" fill="#ff9e0e" stroke="none" /><path d="M 88.09926311788651 82.69761687909137 l -16.515724276767973 -24.012075200605715 a50.14359112782375,50.14359112782375 0 0,0 0.7153706908330424,-0.48302148379643195 l 16.099948891528392 24.292808596700812" fill="#aaff21" stroke="none" /><path d="M 88.39885842347998 82.49532879139004 l -18.262751884974854 -27.556207723378332 a54.058625054683205,54.058625054683205 0 0,0 0.7800736158253668,-0.5073815788921131 l 17.7857112433652 27.86648822642998" fill="#7dff26" stroke="none" /><path d="M 89.00827224532344 82.1063720568725 l -7.199557636794991 -11.720287163508143 a34.75495406610385,34.75495406610385 0 0,0 0.512450103129948,-0.3087454532924581 l 6.996745467447394 11.84247922625922" fill="#ff8d0d" stroke="none" /><line stroke="#e1ed5e" stroke-width="0.3" x1="56.762969772571076" x2="54.21961505331055" y1="26.818313649435495" y2="22.513508569990535" /><path d="M 56.25429882871897 25.957352633546506 a86.0,86.0 0 0,1 42.265352541879196,-11.944610805530505" fill="none" id="id60" stroke="none" /><text fill="#e1ed5e" style="font-size:6.75px; font-family:Arial;" text-anchor="middle"><textPath startOffset="22.20632615414155" xlink:href="#id60">December</textPath></text><path d="M 89.63071344664047 81.73862282372117 l -7.36371163449387 -12.968251468687406 a35.91307463909081,35.91307463909081 0 0,0 0.5401940555164966,-0.3006174070392379 l 7.139393489905328 13.093084273286829" fill="#ff9e0e" stroke="none" /><path d="M 90.26544431104013 81.39251694778311 l -7.952132692103869 -15.200403493003487 a38.154844234295446,38.154844234295446 0 0,0 0.584567665717566,-0.2994382631118549 l 7.68930453879754 15.335034281427847" fill="#ffbc11" stroke="none" /><path d="M 90.58718382345135 81.22770947309562 l -27.893211766299117 -55.62835448863812 a83.22977652019323,83.22977652019323 0 0,0 1.2862120914811288,-0.6311386873320041 l 26.931528407807566 56.100248336104954" fill="#4cd9ff" stroke="none" /><path d="M 91.56875222667455 80.76684994638697 l -6.633671877723439 -15.132565198041288 a37.5227156380018,37.5227156380018 0 0,0 0.5937813265868378,-0.25422617586157337 l 6.372206793346294 15.244510901865647" fill="#ffb410" stroke="none" /><path d="M 92.23578459929587 80.48803036053334 l -5.473187573855634 -13.754470253683623 a35.803419678509265,35.803419678509265 0 0,0 0.5745883420114046,-0.22293134993493774 l 5.235616066844553 13.846644307509113" fill="#ff9c0e" stroke="none" /><path d="M 93.25333710446033 80.11325718540243 l -5.139732972278478 -15.150089657359892 a36.99818963671733,36.99818963671733 0 0,0 0.6048625737246635,-0.19941368067288776 l 4.878187576311405 15.236317062292013" fill="#ffac10" stroke="none" /><path d="M 93.59665428221793 80.00007090966166 l -4.680252869192311 -14.618096481774938 a36.3490557256811,36.3490557256811 0 0,0 0.5975345583170453,-0.18565689591829182 l 4.427932938164537 14.696493512575755" fill="#ffa40f" stroke="none" /><path d="M 94.28887869178378 79.79150937346287 l -4.10245806343799 -14.516323651097872 a36.08488695700736,36.08488695700736 0 0,0 0.5991845832872301,-0.16377978094116413 l 3.851975590927038 14.584789972865334" fill="#ffa00e" stroke="none" /><path d="M 94.63758080256005 79.69619591428918 l -4.088933856141498 -15.481988423091154 a37.01284939080577,37.01284939080577 0 0,0 0.6173939117161951,-0.1573874549453368 l 3.821831055740304 15.550078874205354" fill="#ffad10" stroke="none" /><path d="M 94.98787191387505 79.60689891045804 l -9.378408827067942 -38.15841015693495 a60.29400485866135,60.29400485866135 0 0,0 1.0100001298782357,-0.23903439894674974 l 8.720185010227173 38.31419046802257" fill="#3aff2e" stroke="none" /></svg>