<?xml version="1.0" encoding="utf-8" ?>
<svg baseProfile="full" height="200mm" version="1.1" viewBox="0,0,200,200" width="200mm" xmlns="http://www.w3.org/2000/svg" xmlns:ev="http://www.w3.org/2001/xml-events" xmlns:xlink="http://www.w3.org/1999/xlink"><defs /><rect fill="#1a1a1a" height="200" width="200" x="0" y="0" /><text alignment-baseline="middle" fill="#e1ed5e" style="dominant-baseline: central; font-size:9.0px; font-family:Arial;" text-anchor="middle" x="100.0" y="100.0">2019</text><line stroke="#e1ed5e" stroke-width="0.3" x1="100.0" x2="100.0" y1="15.0" y2="10.0" /><path d="M 100.0 14.0 a86.0,86.0 0 0,1 42.46469731375804,11.215312516191453" fill="none" id="id13" stroke="none" /><text fill="#e1ed5e" style="font-size:6.75px; font-family:Arial;" text-anchor="middle"><textPath startOffset="22.20632615414155" xlink:href="#id13">January</textPath></text><path d="M 101.08401301168833 79.027996857942 l 1.082358665784402 -20.939997117110774 a41.96795124817888,41.96795124817888 0 0,0 0.7211252163234246,0.04350024235617336 l -1.4426459309474386 20.9182636053743" fill="#fff817" stroke="none" /><path d="M 101.80526077348638 79.07773832637324 l 2.8171492568424457 -32.64965083769691 a53.77096321072742,53.77096321072742 0 0,0 0.921467550080747,0.0875044470771902 l -3.3787419340134366 32.59632084610454" fill="#7bff26" stroke="none" /><path d="M 102.88285421437855 79.19881850522331 l 2.560293229991829 -18.473748652041486 a39.65032146324418,39.65032146324418 0 0,0 0.6752468995824558,0.09951384028112804 l -2.8779091100029404 18.42694032759939" fill="#ffda14" stroke="none" /><path d="M 103.59715602781102 79.31037775812273 l 3.1107991425597565 -17.892262285070444 a39.160675124650645,39.160675124650645 0 0,0 0.6631298635823826,0.12118274395026331 l -3.41832412724504 17.83606405976944" fill="#ffd313" stroke="none" /><path d="M 103.95276090670814 79.375362276772 l 9.766402021687982 -50.95893941241859 a72.88637696436108,72.88637696436108 0 0,0 1.2301609661148143,0.24675871704911267 l -10.642129397269922 50.78327673929227" fill="#3fffbb" stroke="none" /><path d="M 105.36241919743992 79.69619591428918 l 4.941234946177388 -18.709068163964158 a40.3505822743705,40.3505822743705 0 0,0 0.6700158671488244,0.18314064648778539 l -5.262548702549923 18.62124097665008" fill="#ffe315" stroke="none" /><path d="M 106.0581310904928 79.89281104454417 l 5.591207684535728 -18.557450758796907 a40.381449430751644,40.381449430751644 0 0,0 0.6638222387922813,0.20625280091384465 l -5.909815296038728 18.45845782300054" fill="#ffe315" stroke="none" /><path d="M 106.40334571778207 80.00007090966166 l 7.628787255512583 -23.82741942728903 a46.01887910266609,46.01887910266609 0 0,0 0.7523367474807007,0.2480335971140589 l -8.037806825235702 23.692572105915737" fill="#d4ff1c" stroke="none" /><path d="M 106.74666289553966 80.11325718540242 l 12.439987060564016 -36.66862078642066 a59.72132524133596,59.72132524133596 0 0,0 0.9706649069551534,0.3386459265315903 l -13.069333971582443 36.449054006716864" fill="#3cff2e" stroke="none" /><path d="M 108.09893153111575 80.62456947434976 l 12.358766900461253 -29.566422254912442 a53.0454746299024,53.0454746299024 0 0,0 0.8394225140589683,0.3593969128466818 l -12.865873172310536 29.34930581410297" fill="#83ff25" stroke="none" /><path d="M 108.76106565485865 80.91482961587045 l 7.593223209629622 -16.541133742119698 a39.2007182326948,39.2007182326948 0 0,0 0.6108251970687073,0.2867906202954485 l -7.876826617997928 16.407978139184248" fill="#ffd413" stroke="none" /><path d="M 109.08828744355905 81.06846463323043 l 13.904230631563733 -28.963480257847884 a53.12803788130329,53.12803788130329 0 0,0 0.8210273723733876,0.4028745659408916 l -14.400729270947553 28.719850531772163" fill="#82ff25" stroke="none" /><path d="M 109.73455568895987 81.39251694778311 l 8.856781536388828 -16.92962859336744 a40.10641001058761,40.10641001058761 0 0,0 0.608958452278209,0.3252845156402895 l -9.146885035195348 16.774665351225394" fill="#ffe015" stroke="none" /><line stroke="#e1ed5e" stroke-width="0.3" x1="143.23703022742887" x2="145.7803849466894" y1="26.81831364943548" y2="22.513508569990506" /><path d="M 143.74570117128098 25.957352633546492 a86.0,86.0 0 0,1 28.547481713284135,27.462654790039103" fill="none" id="id14" stroke="none" /><text fill="#e1ed5e" style="font-size:6.75px; font-family:Arial;" text-anchor="middle"><textPath startOffset="19.985693538727396" xlink:href="#id14">February</textPath></text><path d="M 113.89432698308785 84.25364557470407 l 11.177249241046807 -12.667107105196328 a37.89338636896098,37.89338636896098 0 0,0 0.4853764083823994,0.43577573186628904 l -11.393636637025198 12.472832364560741" fill="#ffc312" stroke="none" /><path d="M 114.42810811169701 84.74124197986012 l 13.056442461270034 -13.808123322758114 a40.003551232360536,40.003551232360536 0 0,0 0.49626644814471504,0.4774079299238243 l -13.292192153027168 13.581332306071987" fill="#ffde14" stroke="none" /><path d="M 114.94478906791727 85.2469230424477 l 22.66478785113068 -22.37404341237226 a52.84792657231361,52.84792657231361 0 0,0 0.6335100813069235,0.6528878258950795 l -23.046562196140712 21.980591390927067" fill="#85ff25" stroke="none" /><path d="M 116.60985879189232 87.15038557335679 l 26.910277927243047 -20.8181598538133 a55.02291636265751,55.02291636265751 0 0,0 0.5730874117880717,0.7541158573617818 l -27.264641279255233 20.351859220570486" fill="#6dff28" stroke="none" /><path d="M 116.82858285166822 87.43820079747576 l 26.403828748437984 -19.70930041104654 a53.9487282800068,53.9487282800068 0 0,0 0.5490885828943284,0.748956209989703 l -26.73917994384594 19.251881757385345" fill="#79ff26" stroke="none" /><path d="M 117.45458315368197 88.32363383020206 l 15.679871930307646 -10.489160614253212 a39.86480517107056,39.86480517107056 0 0,0 0.37663387984481866,0.5736392383689016 l -15.85810244551039 10.217703311906636" fill="#ffdd14" stroke="none" /><line stroke="#e1ed5e" stroke-width="0.3" x1="172.23445277983987" x2="176.4835382374775" y1="55.19839476539836" y2="52.563006222186495" /><path d="M 173.08426987136738 54.67131705675599 a86.0,86.0 0 0,1 12.851231095245387,41.99856678651699" fill="none" id="id15" stroke="none" /><text fill="#e1ed5e" style="font-size:6.75px; font-family:Arial;" text-anchor="middle"><textPath startOffset="22.20632615414155" xlink:href="#id15">March</textPath></text><path d="M 118.03404312379186 89.2402003453031 l 28.680870409306056 -17.112103891962477 a54.39785063510413,54.39785063510413 0 0,0 0.4728476839545914,0.8082499677071533 l -28.971177767730975 16.615874511901428" fill="#74ff27" stroke="none" /><path d="M 118.21658344932153 89.55222093294921 l 18.757580379310124 -10.758057688516669 a42.62365896225088,42.62365896225088 0 0,0 0.3595454993009547,0.6395913240914696 l -18.93998351990351 10.433582854490405" fill="#feff18" stroke="none" /><path d="M 119.47837535516314 92.15188598940014 l 18.07851790571191 -7.284091567169086 a40.49078755787077,40.49078755787077 0 0,0 0.2549115850247765,0.6487221793523339 l -18.201223040618387 6.971820382920968" fill="#ffe515" stroke="none" /><path d="M 119.61058180528143 92.48833698450437 l 17.59707227478729 -6.740405679954092 a39.843832449224465,39.843832449224465 0 0,0 0.23981321895676297,0.6425801991729618 l -17.710490082245677 6.436502343751797" fill="#ffdc14" stroke="none" /><path d="M 120.08093135843002 93.85539295169968 l 20.369314380301415 -6.23284998470462 a42.30158180172042,42.30158180172042 0 0,0 0.20706443581256145,0.698118340314956 l -20.47358471322568 5.881302257643133" fill="#fffc17" stroke="none" /><path d="M 120.37134235888165 94.90015583598534 l 14.774527239390224 -3.6987148510136834 a36.23046771102558,36.23046771102558 0 0,0 0.14624549014783036,0.6062819722638773 l -14.836005529798873 3.4438476470904" fill="#ffad10" stroke="none" /><path d="M 120.45610955862082 95.25157060432595 l 19.08948005180748 -4.431196849350834 a40.59703432068364,40.59703432068364 0 0,0 0.15215307010041546,0.6820723790412638 l -19.162927508909934 4.101946300759606" fill="#ffe615" stroke="none" /><path d="M 120.6074358757038 95.95851677861258 l 38.012920028564395 -7.455006989613566 a59.737052266702214,59.737052266702214 0 0,0 0.18920794225136175,1.010756393244 l -38.13561369472561 6.799572518907004" fill="#3cff2e" stroke="none" /><path d="M 120.67395015179393 96.31383870115 l 22.333298397323496 -3.9820227689162215 a43.685517905396374,43.685517905396374 0 0,0 0.12562319546818346,0.7414352107745809 l -22.398533454311902 3.597001769825803" fill="#f1ff19" stroke="none" /><path d="M 120.83666639777658 97.38593545837742 l 19.479262744913566 -2.4437714299568456 a40.63195598729915,40.63195598729915 0 0,0 0.0810890920095914,0.6947218200642262 l -19.51844218992675 2.1081058715677665" fill="#ffe615" stroke="none" /><path d="M 120.94382443527127 98.46500227214037 l 25.003783113516043 -1.8325569136506699 a46.07084830693846,46.07084830693846 0 0,0 0.05115928354490615,0.7914114728048308 l -25.031622988065365 1.4018863765928038" fill="#d4ff1c" stroke="none" /><path d="M 120.96714384426684 98.82574320788733 l 38.82423581115808 -2.1743363301388365 a59.88507457620432,59.88507457620432 0 0,0 0.04878178793651577,1.0297064432628928 l -38.85591120732809 1.505718780252944" fill="#3aff2e" stroke="none" /><path d="M 120.98425023603335 99.18683210126433 l 37.53281830269646 -1.454447152008448 a58.56098862198933,58.56098862198933 0 0,0 0.030363330337891088,1.007611113591891 l -37.55229332749 0.8081658909915579" fill="#48ff2c" stroke="none" /><line stroke="#e1ed5e" stroke-width="0.3" x1="184.98032266829074" x2="189.97916517819016" y1="98.17113171792111" y2="98.06355123074" /><path d="M 185.9800911702706 98.14961562048488 a86.0,86.0 0 0,1 -9.607161424134198,41.387399972396054" fill="none" id="id16" stroke="none" /><text fill="#e1ed5e" style="font-size:6.75px; font-family:Arial;" text-anchor="middle"><textPath startOffset="21.466115282336823" xlink:href="#id16">April</textPath></text><path d="M 120.99980553446 99.90962569577887 l 15.47907314830828 -0.06661540096029803 a36.47921648993655,36.47921648993655 0 0,0 -0.0027024198081047933,0.6279471906508529 l -15.477926431210673 -0.19984126789423962" fill="#ffb010" stroke="none" /><path d="M 120.9904718944345 100.63252640178507 l 19.302067202303387 0.5816480532638117 a40.310828898317695,40.310828898317695 0 0,0 -0.02686979178935858,0.6933899328475083 l -19.289195277662827 -0.9138152331253262" fill="#ffe215" stroke="none" /><path d="M 120.9764740272857 100.99374915477107 l 3.8298897777752043 0.1814389646505775 a24.834185155649173,24.834185155649173 0 0,0 -0.023904262130020046,0.42682665830651256 l -3.826199164757655 -0.2473373392925134" fill="#ff0a01" stroke="none" /><path d="M 120.92983693683757 101.71520430193887 l 3.3591509920381846 0.27528309225693764 a24.370411869222167,24.370411869222167 0 0,0 -0.03786164410130134,0.41780008769794286 l -3.353914751659808 -0.33306456850345106" fill="#ff0300" stroke="none" /><path d="M 120.8583938346157 102.4346265915055 l 18.6780739009927 2.1801360046234683 a39.80487802804369,39.80487802804369 0 0,0 -0.08529330647025059,0.6798715734007162 l -18.637779085275604 -2.5013253323115796" fill="#ffdc14" stroke="none" /><path d="M 120.81339534386255 102.79330883721812 l 16.390924041688315 2.199781065001481 a37.53787857236638,37.53787857236638 0 0,0 -0.09146005618946247,0.6396714199700417 l -16.350629934482253 -2.4815979569519317" fill="#ffbe11" stroke="none" /><path d="M 120.70491114924044 103.5080841355445 l 18.626350934543225 3.155908554524401 a39.8918158984593,39.8918158984593 0 0,0 -0.12053703049082645,0.6760356798792456 l -18.56926746171321 -3.476062985136865" fill="#ffdd14" stroke="none" /><path d="M 120.64145759157962 103.86396538481128 l 18.80193139609464 3.5196163720406366 a40.12852120865034,40.12852120865034 0 0,0 -0.1329401861939661,0.6778591453253118 l -18.73856127692501 -3.842739244433893" fill="#ffe015" stroke="none" /><path d="M 120.5718875245553 104.21870165774334 l 16.329148844308037 3.348638145954921 a37.66896755687379,37.66896755687379 0 0,0 -0.13572660192612485,0.6340694984864551 l -16.269088203657468 -3.629221463857545" fill="#ffc011" stroke="none" /><path d="M 120.41448212921028 104.9243191809786 l 15.900845351441061 3.8355534694577456 a37.35690537074523,37.35690537074523 0 0,0 -0.15616731545245266,0.6238107961802978 l -15.832466721693548 -4.1086921050354395" fill="#ffbc11" stroke="none" /><path d="M 120.32669344350535 105.2749913415812 l 19.11708891236644 4.961086207613938 a40.75032822113853,40.75032822113853 0 0,0 -0.18204127048233185,0.6774432884796092 l -19.02885956554233 -5.289420429269096" fill="#ffe815" stroke="none" /><path d="M 120.23288151984713 105.62410040840565 l 18.194214263783337 5.057415463595175 a39.88403780572017,39.88403780572017 0 0,0 -0.18955812589162152,0.6598767039185766 l -18.104463501005615 -5.369849643018334" fill="#ffdd14" stroke="none" /><path d="M 119.9155931802556 106.66101706037122 l 4.386346119668478 1.4670678433405249 a25.625183276205878,25.625183276205878 0 0,0 -0.14351221485914248,0.4171136729593677 l -4.360443073866105 -1.5423542193891928" fill="#ff1602" stroke="none" /><path d="M 119.67450827220406 107.3425965602758 l 18.047517352006103 6.735397754137234 a40.26339703887656,40.26339703887656 0 0,0 -0.24791845524402858,0.6472368552173765 l -17.928904617168566 -7.045058176187755" fill="#ffe215" stroke="none" /><path d="M 119.26925614724726 108.34839909993367 l 15.178214537422072 6.575956623053995 a37.541505434884044,37.541505434884044 0 0,0 -0.26200201495674424,0.5907453772155352 l -15.062771437734055 -6.836250336762218" fill="#ffbe11" stroke="none" /><path d="M 118.81262510543309 109.33194174019688 l 28.29909301430989 14.037673415055957 a52.589475151390715,52.589475151390715 0 0,0 -0.4092496183086772,0.807488322444369 l -28.053264726214945 -14.52271594920302" fill="#88ff25" stroke="none" /><path d="M 118.64920377521936 109.65438752849418 l 18.005188408636034 9.320991315002086 a41.27480428326808,41.27480428326808 0 0,0 -0.33206069796031346,0.6281337001995708 l -17.84207520245083 -9.629540030287792" fill="#ffef16" stroke="none" /><line stroke="#e1ed5e" stroke-width="0.3" x1="174.80103733775053" x2="179.2010983576182" y1="140.37084112569926" y2="142.7455964860345" /><path d="M 175.68104954172406 140.8457921977663 a86.0,86.0 0 0,1 -30.038265399797805,32.042727171017184" fill="none" id="id17" stroke="none" /><text fill="#e1ed5e" style="font-size:6.75px; font-family:Arial;" text-anchor="middle"><textPath startOffset="22.206326154141568" xlink:href="#id17">May</textPath></text><path d="M 118.48025628344425 109.97397251340804 l 26.22127454042298 14.151874710038516 a50.79648966460415,50.79648966460415 0 0,0 -0.42190981497902574,0.7658888661768984 l -25.973788315992444 -14.601134094613219" fill="#9cff22" stroke="none" /><path d="M 118.12598468904814 110.60418214915192 l 54.37795406714442 31.812546447455787 a84.0,84.0 0 0,0 -0.7408764972070911,1.2417516244555835 l -53.8222966942391 -32.74386016579747" fill="#4dd2ff" stroke="none" /><path d="M 117.35343817320211 111.8261652097733 l 2.615257928255871 1.7822676991747022 a24.164814715402258,24.164814715402258 0 0,0 -0.2372053801918135,0.3417120417795424 l -2.5841916409019214 -1.8270210031412641" fill="#ff0000" stroke="none" /><path d="M 116.93607887273984 112.41649034213515 l 3.4111058536917755 2.5008128036376314 a25.229622657392525,25.229622657392525 0 0,0 -0.259791506914065,0.3480331780326945 l -3.3675530800826183 -2.559158861179641" fill="#ff1001" stroke="none" /><path d="M 116.498646956653 112.99209946851258 l 23.49982406160368 18.505278190572135 a50.91131979429848,50.91131979429848 0 0,0 -0.5481017847208592,0.6838412509413467 l -23.177804364827967 -18.907047275091735" fill="#9bff22" stroke="none" /><path d="M 116.27256486870786 113.27417163493432 l 23.22808610345772 18.94806406832989 a50.97620916605667,50.97620916605667 0 0,0 -0.5605052669859955,0.6751647016453568 l -22.89848483657818 -19.345090027089018" fill="#9aff23" stroke="none" /><path d="M 115.80600337817218 113.82643327865902 l 12.122126670377558 10.60393140462624 a37.10556786476955,37.10556786476955 0 0,0 -0.42466642214620787,0.4771172271390962 l -11.937801398583012 -10.811022801506203" fill="#ffb811" stroke="none" /><path d="M 115.07121518719521 114.62390073753431 l 10.7592254909823 10.439891119500091 a35.99173971735169,35.99173971735169 0 0,0 -0.43525903437059477,0.4409151038315423 l -10.57792583155617 -10.623546717312298" fill="#ffa90f" stroke="none" /><path d="M 113.48314897796784 116.09983520530334 l 9.585960552457218 11.446316096580023 a35.93013033754538,35.93013033754538 0 0,0 -0.477579650594835,0.3930155389824738 l -9.387510773317691 -11.609626754419676" fill="#ffa90f" stroke="none" /><path d="M 112.92097659922987 116.55440617244103 l 9.188807915359735 11.772736936964398 a35.93424005071378,35.93424005071378 0 0,0 -0.49088100637944215,0.3763866234518206 l -8.9847981804868 -11.92916290224359" fill="#ffa90f" stroke="none" /><path d="M 112.63410532772338 116.77436683061366 l 10.773993162909655 14.30468631194612 a38.90818190541973,38.90818190541973 0 0,0 -0.5384429731144493,0.398327239156599 l -10.52616521937664 -14.488023499842487" fill="#ffd013" stroke="none" /><path d="M 111.45004920935366 117.60387380957326 l 13.172868421974435 20.252621553898134 a45.1597421813245,45.1597421813245 0 0,0 -0.6552854884532583,0.41823420249068705 l -12.822301131474246 -20.47637018521263" fill="#dfff1b" stroke="none" /><line stroke="#e1ed5e" stroke-width="0.3" x1="143.8653032363475" x2="146.44561519142675" y1="172.8068346515853" y2="177.08958963109032" /><path d="M 144.38136562736335 173.6633856474863 a86.0,86.0 0 0,1 -40.68145358897372,12.25698825130547" fill="none" id="id18" stroke="none" /><text fill="#e1ed5e" style="font-size:6.75px; font-family:Arial;" text-anchor="middle"><textPath startOffset="21.466115282336833" xlink:href="#id18">June</textPath></text><path d="M 110.5260780823613 118.17145234162733 l 9.393185738230306 16.215709748945304 a39.73982873387409,39.73982873387409 0 0,0 -0.5948697221349374,0.33778255337429447 l -9.11266724917417 -16.37499546811423" fill="#ffdb14" stroke="none" /><path d="M 109.89434966115114 118.52300852407294 l 8.468627993276861 15.853944309506018 a38.97401486194531,38.97401486194531 0 0,0 -0.5944634059689833,0.31099515792730564 l -8.194473684781382 -15.997368886378041" fill="#ffd113" stroke="none" /><path d="M 109.2508944713604 118.85261126421891 l 7.104574553266223 14.478576386861887 a37.12774484461831,37.12774484461831 0 0,0 -0.5761648433609893,0.27659413829314483 l -6.854297041905 -14.598724801654592" fill="#ffb911" stroke="none" /><path d="M 108.92500713936063 119.00905698771935 l 7.265343166326809 15.4741974014754 a38.09491142253506,38.09491142253506 0 0,0 -0.595971314319432,0.2735811998569737 l -6.997903856239957 -15.59696567166645" fill="#ffc512" stroke="none" /><path d="M 108.2653958097858 119.30500536409082 l 11.801672454713072 27.564481518687607 a50.984664649156976,50.984664649156976 0 0,0 -0.8097543232592721,0.3384773727953959 l -11.325446671956339 -27.763543934502977" fill="#9aff23" stroke="none" /><path d="M 107.2578585660854 119.70592522655815 l 5.96025001803845 16.18276797730526 a38.24547939852134,38.24547939852134 0 0,0 -0.6197232635073937,0.2222107135961493 l -5.680807193901322 -16.28296623194137" fill="#ffc712" stroke="none" /><path d="M 106.57524785965236 119.94407469862006 l 4.739417264611134 14.375624154544266 a36.13673167631674,36.13673167631674 0 0,0 -0.5924335892539017,0.18967852684297162 l -4.491262330266292 -14.455075528046944" fill="#ffab0f" stroke="none" /><path d="M 106.2309692047433 120.05430185196036 l 4.496758056106761 14.472763457689812 a36.15525371339598,36.15525371339598 0 0,0 -0.5959161007461229,0.1795446327804926 l -4.246966980920392 -14.54802345957603" fill="#ffac0f" stroke="none" /><path d="M 105.18746579009965 120.34920634021253 l 3.8363844371507625 15.04923245199102 a36.530526164418006,36.530526164418006 0 0,0 -0.6106629150771964,0.15008608717106625 l -3.576768237330355 -15.113039797476118" fill="#ffb110" stroke="none" /><path d="M 104.48393922423573 120.51570834832081 l 3.82807767476495 17.514895091733088 a38.92834986155864,38.92834986155864 0 0,0 -0.6558658368325684,0.13744306297235007 l -3.526020376503004 -17.57819413543198" fill="#ffd013" stroke="none" /><path d="M 103.7750983002368 120.6578951692458 l 2.686899195755039 14.703109032354632 a35.9465996971036,35.9465996971036 0 0,0 -0.6096389740098069,0.10599355002766779 l -2.4334112502731826 -14.747181160903306" fill="#ffa90f" stroke="none" /><path d="M 103.41894727170886 120.7198165907248 l 4.914153117658917 29.781199651476143 a51.183915477367734,51.183915477367734 0 0,0 -0.8705266175527953,0.13595835437763062 l -4.400790636497605 -29.86137631320088" fill="#98ff23" stroke="none" /><path d="M 102.34483914955558 120.86867818915974 l 1.9968368647916677 17.771515771342294 a38.88334784864565,38.88334784864565 0 0,0 -0.6657706867246972,0.06900985385111671 l -1.6906335814613678 -17.80325499364917" fill="#ffd013" stroke="none" /><path d="M 101.62511606390274 120.93702456842531 l 1.2170008883405743 15.67911244307724 a36.726272863106544,36.726272863106544 0 0,0 -0.6307076977252587,0.04349729551676625 l -0.9469304298363853 -15.697738083110293" fill="#ffb310" stroke="none" /><path d="M 101.26447882468166 120.96189622390904 l 2.513988789326983 41.67564618823082 a62.7514026691255,62.7514026691255 0 0,0 -1.0787621470164062,0.05575968094041722 l -1.7962385738970976 -41.71274567593344" fill="#32ff46" stroke="none" /><line stroke="#e1ed5e" stroke-width="0.3" x1="102.19456741930631" x2="102.32365962044197" y1="184.97166512339345" y2="189.96999836594603" /><path d="M 102.22038585953345 185.97133177190398 a86.0,86.0 0 0,1 -42.740103519485714,-10.115201625700543" fill="none" id="id19" stroke="none" /><text fill="#e1ed5e" style="font-size:6.75px; font-family:Arial;" text-anchor="middle"><textPath startOffset="22.20632615414155" xlink:href="#id19">July</textPath></text><path d="M 99.45781275523022 120.99299961872073 l -0.4011689211689855 15.532897703484526 a36.538077344711176,36.538077344711176 0 0,0 -0.6285935111229498,-0.021650031501105577 l 0.6684827839665783 -15.523690873557326" fill="#ffb110" stroke="none" /><path d="M 98.37488393609728 120.93702456842531 l -1.2115767899073444 15.609231599068387 a36.656181827993606,36.656181827993606 0 0,0 -0.6286634369167209,-0.05424372661496057 l 1.480084544565607 -15.586063620174762" fill="#ffb210" stroke="none" /><path d="M 96.93821686468263 120.77559828337769 l -2.1877117895723948 14.844624616189302 a36.00496460741602,36.00496460741602 0 0,0 -0.6123658138006499,-0.0956389461766293 l 2.4429134669815618 -14.804767362665567" fill="#ffaa0f" stroke="none" /><path d="M 96.22490169976321 120.6578951692458 l -5.528858136769445 30.25472788029141 a51.75576094664224,51.75576094664224 0 0,0 -0.8749986318354048,-0.16769557030554655 l 6.0488243831765445 -30.155075111637395" fill="#91ff24" stroke="none" /><path d="M 95.86986931433489 120.58985236759428 l -3.640115183280028 18.146988540800756 a39.50847458996823,39.50847458996823 0 0,0 -0.6656397931348033,-0.1394912905458839 l 3.9519464378442177 -18.08164126952833" fill="#ffd814" stroke="none" /><path d="M 95.16358092515715 120.4354850818985 l -3.647223713248438 15.410737702637295 a36.83644775048901,36.83644775048901 0 0,0 -0.6157768564065484,-0.15134296952824636 l 3.911953854398197 -15.345673474795019" fill="#ffb510" stroke="none" /><path d="M 94.81253420990036 120.34920634021253 l -3.722307405349759 14.601735128109336 a36.068717303453,36.068717303453 0 0,0 -0.6003029244327349,-0.15854545841106207 l 3.973100772593983 -14.535498320394693" fill="#ffaa0f" stroke="none" /><path d="M 94.11515582081647 120.15858648285463 l -4.18274471425563 14.328029509478622 a35.92607728001981,35.92607728001981 0 0,0 -0.5921387817527886,-0.17840655755362117 l 4.428758470448664 -14.253907582819275" fill="#ffa80f" stroke="none" /><path d="M 93.76903079525671 120.05430185196036 l -4.4267688021757525 14.247503858644249 a35.919371576242725,35.919371576242725 0 0,0 -0.5888701395927407,-0.18853762279149924 l 4.671360286859433 -14.169193389193044" fill="#ffa80f" stroke="none" /><path d="M 93.42475214034765 119.94407469862007 l -4.861598869179661 14.74622600869871 a36.52695479044205,36.52695479044205 0 0,0 -0.5954420089715193,-0.20200625843186837 l 5.114710611088407 -14.660356763368718" fill="#ffb110" stroke="none" /><path d="M 92.40401165467489 119.57807347666478 l -5.40459272336934 13.929920457907695 a35.9416299803312,35.9416299803312 0 0,0 -0.5748588572902541,-0.22874820305051372 l 5.643572656701452 -13.834825410451115" fill="#ffa90f" stroke="none" /><path d="M 91.40352486487194 119.15986991738527 l -10.085423961359538 22.478447052293 a45.63729608465801,45.63729608465801 0 0,0 -0.7139672547832571,-0.3277473487885025 l 10.470859211910215 -22.301512633170425" fill="#d9ff1c" stroke="none" /><path d="M 91.07499286063937 119.00905698771935 l -6.618906616307058 14.09737506101165 a36.5738854627298,36.5738854627298 0 0,0 -0.5675698073482737,-0.2724679986875667 l 6.860589091655574 -13.981352785824521" fill="#ffb110" stroke="none" /><line stroke="#e1ed5e" stroke-width="0.3" x1="58.666819895761336" x2="56.23545636021788" y1="174.27360380694188" y2="178.64263932499728" /><path d="M 58.180547188652646 175.14741091055294 a86.0,86.0 0 0,1 -31.652253787137756,-30.449443065178592" fill="none" id="id20" stroke="none" /><text fill="#e1ed5e" style="font-size:6.75px; font-family:Arial;" text-anchor="middle"><textPath startOffset="22.20632615414155" xlink:href="#id20">August</textPath></text><path d="M 88.8546689885994 117.79835938074946 l -8.013985547260036 12.797806964760724 a36.09992806138396,36.09992806138396 0 0,0 -0.5238240488143153,-0.3343292918303733 l 8.233091398121275 -12.657963244106547" fill="#ffab0f" stroke="none" /><path d="M 88.54995079064634 117.60387380957326 l -8.117342602055249 12.480005301542265 a35.887638605422424,35.887638605422424 0 0,0 -0.5149454054423948,-0.3412777356124979 l 8.330962706237607 -12.33842954483845" fill="#ffa80f" stroke="none" /><path d="M 87.95078237400918 117.19931262002967 l -8.567720024186075 12.229747997828786 a35.93226581946746,35.93226581946746 0 0,0 -0.5035182799589902,-0.35924692351123905 l 8.776965631993953 -12.080456812473328" fill="#ffa90f" stroke="none" /><path d="M 87.36589467227662 116.77436683061367 l -9.549225278580028 12.678555672602958 a36.872412462016115,36.872412462016115 0 0,0 -0.503696945071008,-0.38621333874085084 l 9.766050952144523 -12.51230299203474" fill="#ffb510" stroke="none" /><path d="M 83.28015986056508 112.70617746262583 l -12.099639916754702 9.195074279062604 a36.19706146307905,36.19706146307905 0 0,0 -0.3727241295303031,-0.4993248812125698 l 12.25612531298009 -8.985436518340727" fill="#ffac0f" stroke="none" /><line stroke="#e1ed5e" stroke-width="0.3" x1="26.63291911575756" x2="22.317208475507996" y1="142.92168965132927" y2="145.44649492493687" /><path d="M 25.769776987707644 143.4266507060508 a86.0,86.0 0 0,1 -11.730757126820373,-40.83630448921669" fill="none" id="id21" stroke="none" /><text fill="#e1ed5e" style="font-size:6.75px; font-family:Arial;" text-anchor="middle"><textPath startOffset="21.46611528233685" xlink:href="#id21">September</textPath></text><path d="M 81.87401531095188 110.60418214915194 l -16.35744504535135 9.569539516407788 a39.95104469330859,39.95104469330859 0 0,0 -0.3421483637961292,-0.5965645120499703 l 16.519745405299854 -9.28655515849951" fill="#ffde14" stroke="none" /><path d="M 80.20201598880116 107.00284435728193 l -14.121072602003853 4.994835511220475 a35.97842025098819,35.97842025098819 0 0,0 -0.20149486236638298,-0.5856383876910759 l 14.204958295313466 -4.751024420440102" fill="#ffa90f" stroke="none" /><path d="M 79.97269907076064 106.31721596034903 l -14.37484892743375 4.5342617756051045 a36.0730160066344,36.0730160066344 0 0,0 -0.18169330135522577,-0.5937842215329405 l 14.450769001295106 -4.286150581520116" fill="#ffaa0f" stroke="none" /><path d="M 79.29508885075956 103.50808413554451 l -18.792639266828537 3.184083196579692 a40.06047419178985,40.06047419178985 0 0,0 -0.10934267143467537,-0.680876919399465 l 18.844663692624504 -2.8601270474870133" fill="#ffdf14" stroke="none" /><path d="M 79.0095281055655 100.63252640178507 l -29.779296536634188 0.8973686432939265 a50.792814111774675,50.792814111774675 0 0,0 -0.018812539248259624,-0.8741447764130585 l 29.790331138567456 -0.3846340510907391" fill="#9cff22" stroke="none" /><line stroke="#e1ed5e" stroke-width="0.3" x1="15.007084014347285" x2="10.007500721073583" y1="101.09737516637583" y2="101.16192664675087" /><path d="M 14.007167355692545 101.11028546245083 a86.0,86.0 0 0,1 10.666146001902534,-42.60595125391555" fill="none" id="id22" stroke="none" /><text fill="#e1ed5e" style="font-size:6.75px; font-family:Arial;" text-anchor="middle"><textPath startOffset="22.20632615414155" xlink:href="#id22">October</textPath></text><path d="M 79.03285615573316 98.82574320788736 l -15.862837140559613 -0.8883920667893989 a36.88769469156088,36.88769469156088 0 0,0 0.04096186854365929,-0.6336619762182325 l 15.84519468101154 1.161313107260643" fill="#ffb510" stroke="none" /><path d="M 79.12142395522702 97.74499172005258 l -15.033974959176525 -1.623757192098007 a36.121408350151675,36.121408350151675 0 0,0 0.07208740347467012,-0.6176008499355516 l 15.003797202698268 1.8823017803584203" fill="#ffab0f" stroke="none" /><path d="M 79.26566170972629 96.67025291283419 l -15.176464502491864 -2.43720285466513 a36.37091515005478,36.37091515005478 0 0,0 0.10458913622465363,-0.6172910024494611 l 15.132263504746987 2.6980796454304192" fill="#ffae10" stroke="none" /><path d="M 79.3925641242962 95.95851677861259 l -15.455647117707276 -3.031126185647555 a36.75007154842198,36.75007154842198 0 0,0 0.1270864795724157,-0.6197188082396641 l 15.401181342219866 3.2967206500506214" fill="#ffb410" stroke="none" /><path d="M 79.62865764111835 94.90015583598534 l -14.835736024113977 -3.7140381055180107 a36.29356539288445,36.29356539288445 0 0,0 0.15693280319898945,-0.6047261076450631 l 14.76960688904468 3.9688606387119374" fill="#ffad10" stroke="none" /><path d="M 79.91906864156998 93.8553929516997 l -34.26596680347799 -10.485116321513912 a56.83425937915744,56.83425937915744 0 0,0 0.29430543055137615,-0.9330286410591675 l 34.080405889158406 11.073395128999493" fill="#5aff2a" stroke="none" /><path d="M 80.52162464483688 92.15188598940014 l -14.28487727358789 -5.755579889306721 a36.40079279075138,36.40079279075138 0 0,0 0.23916761834632655,-0.5791633584309436 l 14.183687968355363 6.0006178181909755" fill="#ffaf10" stroke="none" /><path d="M 80.803312248108 91.48605970444005 l -19.809884423853205 -8.785899704494911 a42.670799581553645,42.670799581553645 0 0,0 0.30356755194310947,-0.6688708613027823 l 19.655714554946744 9.125592574639764" fill="#feff18" stroke="none" /><path d="M 80.95270993114464 91.15688171328213 l -20.807814795152897 -9.660480144759672 a43.94101203470936,43.94101203470936 0 0,0 0.32441399382298436,-0.6832986068745234 l 20.638442607488162 10.017221167274728" fill="#eeff19" stroke="none" /><path d="M 81.26839172434947 90.50648371742162 l -13.52959100819961 -6.857040284145508 a36.16802011824714,36.16802011824714 0 0,0 0.28622779832989964,-0.5529010018949666 l 13.409553776709595 7.08891400830081" fill="#ffac0f" stroke="none" /><path d="M 81.6062741919709 89.86733742301443 l -13.528396532076922 -7.452469320128742 a36.4452844485484,36.4452844485484 0 0,0 0.30742874528495995,-0.546881434040712 l 13.39811014549953 7.684234264104238" fill="#ffaf10" stroke="none" /><line stroke="#e1ed5e" stroke-width="0.3" x1="26.266209847984243" x2="21.928928074336255" y1="57.711370442889674" y2="55.22380399835377" /><path d="M 25.398753493254645 57.213857153982495 a86.0,86.0 0 0,1 29.58750427330803,-30.492523968695096" fill="none" id="id23" stroke="none" /><text fill="#e1ed5e" style="font-size:6.75px; font-family:Arial;" text-anchor="middle"><textPath startOffset="21.46611528233685" xlink:href="#id23">November</textPath></text><path d="M 81.96595687620814 89.24020034530311 l -25.810421764106742 -15.399484479364169 a51.0553155676538,51.0553155676538 0 0,0 0.45678510517494836,-0.7508346093511448 l 25.541520860645576 15.841486861922387" fill="#99ff23" stroke="none" /><path d="M 82.15384107792192 88.93136811851018 l -18.569041324233403 -11.516981536897495 a42.85063292955894,42.85063292955894 0 0,0 0.39416951263737177,-0.6234815089791157 l 18.368044215350068 11.834910693590826" fill="#fbff18" stroke="none" /><path d="M 82.54541684631803 88.32363383020206 l -12.674956634396255 -8.479001391580123 a36.24952426412848,36.24952426412848 0 0,0 0.3514055367297103,-0.5156442639851184 l 12.527126631997804 8.695923678835657" fill="#ffad10" stroke="none" /><path d="M 82.95767976084542 87.72973835380427 l -12.368255229859274 -8.904992140015702 a36.24049285438902,36.24049285438902 0 0,0 0.36885467923406884,-0.5031173679480483 l 12.213137938111572 9.116571951635251" fill="#ffad10" stroke="none" /><path d="M 83.17141714833178 87.43820079747576 l -12.295448903214519 -9.1780134779303 a36.34320680733429,36.34320680733429 0 0,0 0.37853017800833144,-0.49810134345024376 l 12.135642784982078 9.38829959726157" fill="#ffae10" stroke="none" /><path d="M 83.39014120810768 87.1503855733568 l -25.09069475901597 -19.410505374514493 a52.72240032507262,52.72240032507262 0 0,0 0.5614833187615993,-0.713026795303473 l 24.752857359660403 19.83952456377101" fill="#86ff25" stroke="none" /><path d="M 83.6137871275137 86.86637796730984 l -13.379735681687118 -10.723917277776325 a38.147003490184545,38.147003490184545 0 0,0 0.4150784676321088,-0.5088371218864967 l 13.193158721978616 10.952638569270903" fill="#ffc612" stroke="none" /><path d="M 84.07557802195018 86.31012108654704 l -11.690711327292718 -10.050250031264879 a36.416882208443766,36.416882208443766 0 0,0 0.4127387747017565,-0.4718317685955885 l 11.515980689013118 10.24999735606341" fill="#ffaf10" stroke="none" /><path d="M 84.31358615837235 86.03803664274999 l -11.66654498271839 -10.384009704127607 a36.6184483662497,36.6184483662497 0 0,0 0.4231285412782613,-0.467229103535728 l 11.486072800824083 10.583291594932891" fill="#ffb210" stroke="none" /><path d="M 84.5562425177563 85.77008943001954 l -10.991900521629974 -10.127960219315229 a35.94648638581794,35.94648638581794 0 0,0 0.4231974330913484,-0.45143751503414276 l 10.81593576656817 10.315667151227421" fill="#ffa90f" stroke="none" /><path d="M 85.31137513191541 84.99185889309783 l -21.49031612513435 -21.95778704504486 a51.72422658218998,51.72422658218998 0 0,0 0.6416679874213326,-0.6172840955064353 l 21.109164894100587 22.32445422731361" fill="#92ff23" stroke="none" /><path d="M 85.83668400450813 84.49514656593479 l -10.292324013631292 -11.26720433110841 a36.26046614755,36.26046614755 0 0,0 0.464460332301866,-0.4169970722438731 l 10.096852693733455 11.442700412121562" fill="#ffad10" stroke="none" /><path d="M 86.65592168130627 83.78471172551755 l -9.783672027378577 -11.888798800340355 a36.396875502980606,36.396875502980606 0 0,0 0.487192286036135,-0.39394228002208986 l 9.577576342777942 12.05544717762658" fill="#ffaf10" stroke="none" /><path d="M 86.93701828274178 83.55741782278169 l -10.281335217956164 -12.94127963062441 a37.52823560886037,37.52823560886037 0 0,0 0.5092535909919998,-0.39748050541586527 l 10.05704907180474 13.116338525263496" fill="#ffbe11" stroke="none" /><path d="M 87.22198572758235 83.33499621200491 l -18.192877729523765 -23.727033779535862 a50.899045671336026,50.899045671336026 0 0,0 0.6998712003631262,-0.5271284782618781 l 17.781760375402246 24.036678847303595" fill="#9bff22" stroke="none" /><path d="M 88.09926311788651 82.69761687909137 l -8.867152746083498 -12.891880185582835 a36.64694770687879,36.64694770687879 0 0,0 0.522821595109996,-0.3530114748435866 l 8.643926456566962 13.042603572725087" fill="#ffb210" stroke="none" /><path d="M 88.70189139769569 82.29822771554957 l -8.467267651973128 -13.266436810153472 a36.73826442553135,36.73826442553135 0 0,0 0.5359952664317615,-0.33564018666727036 l 8.237653233169123 13.410221338143673" fill="#ffb310" stroke="none" /><line stroke="#e1ed5e" stroke-width="0.3" x1="56.762969772571076" x2="54.21961505331055" y1="26.818313649435495" y2="22.513508569990535" /><path d="M 56.25429882871897 25.957352633546506 a86.0,86.0 0 0,1 42.265352541879196,-11.944610805530505" fill="none" id="id24" stroke="none" /><text fill="#e1ed5e" style="font-size:6.75px; font-family:Arial;" text-anchor="middle"><textPath startOffset="22.20632615414155" xlink:href="#id24">December</textPath></text><path d="M 89.94658935756843 81.56283822128135 l -7.3819066001131475 -13.537834180098589 a36.419646537474186,36.419646537474186 0 0,0 0.5529802239124714,-0.29538288469613116 l 7.147781329672371 13.662895791296469" fill="#ffaf10" stroke="none" /><path d="M 90.58718382345135 81.22770947309562 l -6.96800355430227 -13.896519878902652 a36.54562119304036,36.54562119304036 0 0,0 0.564766863909253,-0.27712864736470894 l 6.727765423382591 14.01440368640219" fill="#ffb110" stroke="none" /><path d="M 91.56875222667455 80.76684994638697 l -21.906849204419217 -49.97335261377144 a75.5641458608627,75.5641458608627 0 0,0 1.1957710951555678,-0.5119667781986867 l 21.043394351473342 50.34303891993291" fill="#42ffd8" stroke="none" /><path d="M 92.23578459929587 80.48803036053334 l -5.6761235067757525 -14.26446122605349 a36.35230380541486,36.35230380541486 0 0,0 0.5833970654033875,-0.2263489977592983 l 5.4297432763726885 14.36005292770334" fill="#ffae10" stroke="none" /><path d="M 92.57280143429618 80.3572730644239 l -5.4974722534039975 -14.539175889030256 a36.543803804381525,36.543803804381525 0 0,0 0.5903001968545633,-0.2174125442498244 l 5.2463897307768645 14.631651701086403" fill="#ffb110" stroke="none" /><path d="M 93.59665428221793 80.00007090966166 l -4.766778288961438 -14.888346181879166 a36.63281891686813,36.63281891686813 0 0,0 0.6021992823305713,-0.1871062483760073 l 4.509793633920139 14.968192565137699" fill="#ffb210" stroke="none" /><path d="M 95.33964822691252 79.52364482259891 l -3.5566560379942986 -15.62700753586489 a37.02663928272485,37.02663928272485 0 0,0 0.6226774791827303,-0.1360931792142687 l 3.2871358346580473 15.685914213175026" fill="#ffb711" stroke="none" /><path d="M 96.04723909329186 79.375362276772 l -5.630129604741062 -29.37677895861137 a50.91142760466798,50.91142760466798 0 0,0 0.8621120022779415,-0.15754545793505667 l 5.123622481360227 29.469339897897164" fill="#9bff22" stroke="none" /><path d="M 96.40284397218896 79.31037775812273 l -5.114386155817569 -29.41621568396172 a50.85750644170028,50.85750644170028 0 0,0 0.8637803426837131,-0.14253115769838354 l 4.60727660699497 29.499893104599728" fill="#9bff22" stroke="none" /><path d="M 97.11714578562143 79.19881850522333 l -2.138719167926219 -15.431888770685166 a36.57938736632651,36.57938736632651 0 0,0 0.6244367433825617,-0.08106981074559186 l 1.8727676960357995 15.466416904594896" fill="#ffb110" stroke="none" /><path d="M 97.47563105711357 79.15227682838746 l -2.156033372286557 -17.805791431894765 a38.93584925278283,38.93584925278283 0 0,0 0.6660501656536124,-0.07483849670957568 l 1.8492165031232264 17.84026588207494" fill="#ffd113" stroke="none" /><path d="M 98.55514903715128 79.0497635885617 l -1.2388569135082357 -17.96333731665298 a39.006006053647894,39.006006053647894 0 0,0 0.670230824159408,-0.04043015363428053 l 0.9294640405092045 17.982000739667566" fill="#ffd113" stroke="none" /><path d="M 99.27714615592234 79.0124445844662 l -0.7228388108380478 -20.987118935943826 a41.99956326159917,41.99956326159917 0 0,0 0.7227392141042683,-0.018666221611934316 l 0.3614729615389005 20.99645194969812" fill="#fff817" stroke="none" /></svg>