<?xml version="1.0" encoding="utf-8" ?>
<svg baseProfile="full" height="200mm" version="1.1" viewBox="0,0,200,200" width="200mm" xmlns="http://www.w3.org/2000/svg" xmlns:ev="http://www.w3.org/2001/xml-events" xmlns:xlink="http://www.w3.org/1999/xlink"><defs /><rect fill="#1a1a1a" height="200" width="200" x="0" y="0" /><text alignment-baseline="middle" fill="#e1ed5e" style="dominant-baseline: central; font-size:9.0px; font-family:Arial;" text-anchor="middle" x="100.0" y="100.0">2026</text><line stroke="#e1ed5e" stroke-width="0.3" x1="100.0" x2="100.0" y1="15.0" y2="10.0" /><path d="M 100.0 14.0 a86.0,86.0 0 0,1 42.46469731375804,11.215312516191453" fill="none" id="id109" stroke="none" /><text fill="#e1ed5e" style="font-size:6.75px; font-family:Arial;" text-anchor="middle"><textPath startOffset="22.20632615414155" xlink:href="#id109">January</textPath></text><path d="M 101.08401301168833 79.027996857942 l 1.8793987878646206 -36.36004075531261 a57.408580081236636,57.408580081236636 0 0,0 0.9864378293114521,0.059504623708929456 l -2.5049986660156844 36.32230286222338" fill="#83ff25" stroke="none" /><path d="M 101.44485096284872 79.0497635885617 l 1.6328373274120864 -23.67602535507053 a44.73226357412484,44.73226357412484 0 0,0 0.7677117449592465,0.0595892069144115 l -2.040139261733674 23.644410885967655" fill="#ffc712" stroke="none" /><path d="M 101.80526077348638 79.07773832637324 l 2.0534313372406636 -23.798460808298685 a44.88688588118783,44.88688588118783 0 0,0 0.769222016752723,0.07304689920947281 l -2.462778481083631 23.759588364574036" fill="#ffca12" stroke="none" /><path d="M 102.16513564639614 79.11191278185805 l 3.092527076295802 -29.835070796443574 a50.99491912218506,50.99491912218506 0 0,0 0.872336804786547,0.0980172042005155 l -3.6056305845920744 29.77741763877246" fill="#daff1c" stroke="none" /><path d="M 102.52436894288641 79.15227682838746 l 3.268458690422154 -26.992853864641503 a48.190016218621274,48.190016218621274 0 0,0 0.8226386213020832,0.10680210293152774 l -3.732612040232083 26.93259343854584" fill="#fffb17" stroke="none" /><path d="M 102.88285421437855 79.19881850522331 l 3.5526224340353245 -25.633881749623605 a46.87889139264851,46.87889139264851 0 0,0 0.7983497964346286,0.11765600727673582 l -3.993341210898609 25.568931258185902" fill="#ffe815" stroke="none" /><path d="M 103.95276090670814 79.375362276772 l 7.162659423215802 -37.37318275132379 a59.053363569819005,59.053363569819005 0 0,0 0.9966902706235337,0.19992669191183038 l -7.804916103306461 37.244352103334755" fill="#6eff28" stroke="none" /><path d="M 104.307194497241 79.44645832069477 l 8.202914153817241 -39.14356272052315 a60.99382831225869,60.99382831225869 0 0,0 1.0257340119145095,0.2241857259602048 l -8.87549088988528 38.996563496467076" fill="#56ff2b" stroke="none" /><path d="M 104.66035177308747 79.52364482259891 l 5.919468816656701 -26.008583011130057 a47.67370430439338,47.67370430439338 0 0,0 0.7985942823351607,0.18900146508229596 l -6.366286785954386 25.902835633906893" fill="#fff417" stroke="none" /><path d="M 105.01212808612495 79.60689891045804 l 6.504407520318629 -26.464814507960263 a48.25240767585722,48.25240767585722 0 0,0 0.804875690876155,0.2051807349091606 l -6.958992099879809 26.348930776882234" fill="#fffc17" stroke="none" /><path d="M 106.40334571778207 80.00007090966166 l 3.5528904849514045 -11.09694226995105 a32.651830694817214,32.651830694817214 0 0,0 0.533806398226812,0.17598757678401505 l -3.743379705420634 11.0341409689078" fill="#ff0000" stroke="none" /><path d="M 106.74666289553966 80.11325718540242 l 11.54765533681326 -34.03834686132656 a56.94380893602974,56.94380893602974 0 0,0 0.9255212736690248,0.3228961992965357 l -12.131858614545559 33.834529808857816" fill="#89ff24" stroke="none" /><path d="M 107.08798089147638 80.2323363322302 l 21.26394267442914 -59.302991003309366 a84.0,84.0 0 0,0 1.3568706969096942,0.49974692877470117 l -22.28159569711141 58.92818080672834" fill="#4dd2ff" stroke="none" /><path d="M 107.4271985657038 80.35727306442388 l 9.48981773019798 -25.09773997472273 a47.831943507528024,47.831943507528024 0 0,0 0.7676271529915152,0.29782740955735615 l -9.920428048189164 24.930669861274826" fill="#fff617" stroke="none" /><line stroke="#e1ed5e" stroke-width="0.3" x1="143.23703022742887" x2="145.7803849466894" y1="26.81831364943548" y2="22.513508569990506" /><path d="M 143.74570117128098 25.957352633546492 a86.0,86.0 0 0,1 28.547481713284135,27.462654790039103" fill="none" id="id110" stroke="none" /><text fill="#e1ed5e" style="font-size:6.75px; font-family:Arial;" text-anchor="middle"><textPath startOffset="19.985693538727396" xlink:href="#id110">February</textPath></text><line stroke="#e1ed5e" stroke-width="0.3" x1="172.23445277983987" x2="176.4835382374775" y1="55.19839476539836" y2="52.563006222186495" /><path d="M 173.08426987136738 54.67131705675599 a86.0,86.0 0 0,1 12.851231095245387,41.99856678651699" fill="none" id="id111" stroke="none" /><text fill="#e1ed5e" style="font-size:6.75px; font-family:Arial;" text-anchor="middle"><textPath startOffset="22.20632615414155" xlink:href="#id111">March</textPath></text><line stroke="#e1ed5e" stroke-width="0.3" x1="184.98032266829074" x2="189.97916517819016" y1="98.17113171792111" y2="98.06355123074" /><path d="M 185.9800911702706 98.14961562048488 a86.0,86.0 0 0,1 -9.607161424134198,41.387399972396054" fill="none" id="id112" stroke="none" /><text fill="#e1ed5e" style="font-size:6.75px; font-family:Arial;" text-anchor="middle"><textPath startOffset="21.466115282336823" xlink:href="#id112">April</textPath></text><line stroke="#e1ed5e" stroke-width="0.3" x1="174.80103733775053" x2="179.2010983576182" y1="140.37084112569926" y2="142.7455964860345" /><path d="M 175.68104954172406 140.8457921977663 a86.0,86.0 0 0,1 -30.038265399797805,32.042727171017184" fill="none" id="id113" stroke="none" /><text fill="#e1ed5e" style="font-size:6.75px; font-family:Arial;" text-anchor="middle"><textPath startOffset="22.206326154141568" xlink:href="#id113">May</textPath></text><line stroke="#e1ed5e" stroke-width="0.3" x1="143.8653032363475" x2="146.44561519142675" y1="172.8068346515853" y2="177.08958963109032" /><path d="M 144.38136562736335 173.6633856474863 a86.0,86.0 0 0,1 -40.68145358897372,12.25698825130547" fill="none" id="id114" stroke="none" /><text fill="#e1ed5e" style="font-size:6.75px; font-family:Arial;" text-anchor="middle"><textPath startOffset="21.466115282336833" xlink:href="#id114">June</textPath></text><line stroke="#e1ed5e" stroke-width="0.3" x1="102.19456741930631" x2="102.32365962044197" y1="184.97166512339345" y2="189.96999836594603" /><path d="M 102.22038585953345 185.97133177190398 a86.0,86.0 0 0,1 -42.740103519485714,-10.115201625700543" fill="none" id="id115" stroke="none" /><text fill="#e1ed5e" style="font-size:6.75px; font-family:Arial;" text-anchor="middle"><textPath startOffset="22.20632615414155" xlink:href="#id115">July</textPath></text><line stroke="#e1ed5e" stroke-width="0.3" x1="58.666819895761336" x2="56.23545636021788" y1="174.27360380694188" y2="178.64263932499728" /><path d="M 58.180547188652646 175.14741091055294 a86.0,86.0 0 0,1 -31.652253787137756,-30.449443065178592" fill="none" id="id116" stroke="none" /><text fill="#e1ed5e" style="font-size:6.75px; font-family:Arial;" text-anchor="middle"><textPath startOffset="22.20632615414155" xlink:href="#id116">August</textPath></text><line stroke="#e1ed5e" stroke-width="0.3" x1="26.63291911575756" x2="22.317208475507996" y1="142.92168965132927" y2="145.44649492493687" /><path d="M 25.769776987707644 143.4266507060508 a86.0,86.0 0 0,1 -11.730757126820373,-40.83630448921669" fill="none" id="id117" stroke="none" /><text fill="#e1ed5e" style="font-size:6.75px; font-family:Arial;" text-anchor="middle"><textPath startOffset="21.46611528233685" xlink:href="#id117">September</textPath></text><line stroke="#e1ed5e" stroke-width="0.3" x1="15.007084014347285" x2="10.007500721073583" y1="101.09737516637583" y2="101.16192664675087" /><path d="M 14.007167355692545 101.11028546245083 a86.0,86.0 0 0,1 10.666146001902534,-42.60595125391555" fill="none" id="id118" stroke="none" /><text fill="#e1ed5e" style="font-size:6.75px; font-family:Arial;" text-anchor="middle"><textPath startOffset="22.20632615414155" xlink:href="#id118">October</textPath></text><line stroke="#e1ed5e" stroke-width="0.3" x1="26.266209847984243" x2="21.928928074336255" y1="57.711370442889674" y2="55.22380399835377" /><path d="M 25.398753493254645 57.213857153982495 a86.0,86.0 0 0,1 29.58750427330803,-30.492523968695096" fill="none" id="id119" stroke="none" /><text fill="#e1ed5e" style="font-size:6.75px; font-family:Arial;" text-anchor="middle"><textPath startOffset="21.46611528233685" xlink:href="#id119">November</textPath></text><line stroke="#e1ed5e" stroke-width="0.3" x1="56.762969772571076" x2="54.21961505331055" y1="26.818313649435495" y2="22.513508569990535" /><path d="M 56.25429882871897 25.957352633546506 a86.0,86.0 0 0,1 42.265352541879196,-11.944610805530505" fill="none" id="id120" stroke="none" /><text fill="#e1ed5e" style="font-size:6.75px; font-family:Arial;" text-anchor="middle"><textPath startOffset="22.20632615414155" xlink:href="#id120">December</textPath></text></svg>