<?xml version="1.0" encoding="utf-8" ?>
<svg baseProfile="full" height="200mm" version="1.1" viewBox="0,0,200,200" width="200mm" xmlns="http://www.w3.org/2000/svg" xmlns:ev="http://www.w3.org/2001/xml-events" xmlns:xlink="http://www.w3.org/1999/xlink"><defs /><rect fill="#1a1a1a" height="200" width="200" x="0" y="0" /><text alignment-baseline="middle" fill="#e1ed5e" style="dominant-baseline: central; font-size:9.0px; font-family:Arial;" text-anchor="middle" x="100.0" y="100.0">2024</text><line stroke="#e1ed5e" stroke-width="0.3" x1="100.0" x2="100.0" y1="15.0" y2="10.0" /><path d="M 100.0 14.0 a86.0,86.0 0 0,1 42.35913384403234,11.155469271406648" fill="none" id="id85" stroke="none" /><text fill="#e1ed5e" style="font-size:6.75px; font-family:Arial;" text-anchor="middle"><textPath startOffset="22.145653131862478" xlink:href="#id85">January</textPath></text><path d="M 100.72087961077811 79.0123766808444 l 0.4806817908173206 -13.994525869807509 a35.00277862799862,35.00277862799862 0 0,0 0.6003380556760337,0.02578109920639793 l -0.7208456070941905 13.98421220217528" fill="#ff9e0e" stroke="none" /><path d="M 101.80034050326958 79.07731436759882 l 1.0436491998044561 -12.128785681575035 a33.173604468760765,33.173604468760765 0 0,0 0.5669533870443393,0.05369107521231293 l -1.2517021502338084 12.109082850857538" fill="#ff840c" stroke="none" /><path d="M 102.15924093988457 79.11130261209362 l 1.259911759921264 -12.188503377426125 a33.253448176913956,33.253448176913956 0 0,0 0.5673103157031767,0.06356830417062224 l -1.4689579772252372 12.165079312748531" fill="#ff860c" stroke="none" /><path d="M 102.51750503828377 79.15144685158666 l 1.4594584579842862 -12.086409666107285 a33.17420706278456,33.17420706278456 0 0,0 0.5647864174348866,0.07312290915494346 l -1.6667226973099645 12.059575160751944" fill="#ff840c" stroke="none" /><path d="M 102.87502721639298 79.19773525538626 l 1.6617727709703813 -12.023759959561769 a33.1380514213567,33.1380514213567 0 0,0 0.5628338567180764,0.0827171946892363 l -1.8679317332961396 11.99346169157365" fill="#ff840c" stroke="none" /><path d="M 103.58742460773223 79.30868818359171 l 2.077040200966441 -11.97981592722013 a33.15853961816582,33.15853961816582 0 0,0 0.5600086804159392,0.1020522364424383 l -2.282383614933434 11.942395516846325" fill="#ff840c" stroke="none" /><path d="M 104.29559338865022 79.4440306129975 l 3.095290011643167 -14.81208321331007 a36.13203982859548,36.13203982859548 0 0,0 0.606050590087889,0.13208590534741302 l -3.34910301835019 14.756765849828938" fill="#ffad10" stroke="none" /><path d="M 104.64783097203109 79.52079915486377 l 5.389919950305454 -23.74898180801871 a45.3529335807476,45.3529335807476 0 0,0 0.7577564822407122,0.1788284665448767 l -5.796808586286051 23.652957197827604" fill="#dbff1b" stroke="none" /><path d="M 106.72888874123014 80.10723608172694 l 4.86294603604808 -14.376435866692795 a36.17663178635651,36.17663178635651 0 0,0 0.5865683004812909,0.2040389034840485 l -5.10902010857439 14.290838530640157" fill="#ffad10" stroke="none" /><path d="M 107.06938296918511 80.22567764915836 l 5.117844327856238 -14.315521442477637 a36.20284462639171,36.20284462639171 0 0,0 0.5834016839310062,0.2142331792948025 l -5.3628351634413685 14.225557414174112" fill="#ffae10" stroke="none" /><path d="M 108.4095320186766 80.7573450057729 l 4.873278277456494 -11.151014393630188 a33.16938631059418,33.16938631059418 0 0,0 0.5197904985866874,0.2324956785495974 l -5.063982178898813 11.065714964170738" fill="#ff840c" stroke="none" /><path d="M 109.06512990194946 81.05736502329252 l 6.54262579754274 -13.671571572889393 a36.156444886559285,36.156444886559285 0 0,0 0.5575663856968175,0.27273365925220766 l -6.776352432501625 13.557244163539963" fill="#ffad10" stroke="none" /><path d="M 109.3889696526874 81.21577127319529 l 6.7771606806448155 -13.558861201250311 a36.15825266863068,36.15825266863068 0 0,0 0.5528300305856979,0.2822789526869778 l -7.008917932944092 13.4405242968905" fill="#ffad10" stroke="none" /><path d="M 109.71004243097381 81.37971332152246 l 5.685847099925405 -10.903361521148714 a33.296834946627385,33.296834946627385 0 0,0 0.504544060901227,0.2686412938726552 l -5.872179976613191 10.804149759553486" fill="#ff860c" stroke="none" /><path d="M 110.02825361518725 81.54914285379988 l 5.799520508105862 -10.670464521306494 a33.14467995561847,33.14467995561847 0 0,0 0.4975739517959396,0.2759958834638307 l -5.981838648057902 10.569335722409516" fill="#ff840c" stroke="none" /><line stroke="#e1ed5e" stroke-width="0.3" x1="143.13028292997686" x2="145.6673583964461" y1="26.7553504044142" y2="22.446841604673864" /><path d="M 143.63769802327073 25.89364864446614 a86.0,86.0 0 0,1 29.32050498858742,28.57503671076993" fill="none" id="id86" stroke="none" /><text fill="#e1ed5e" style="font-size:6.75px; font-family:Arial;" text-anchor="middle"><textPath startOffset="20.669276256404974" xlink:href="#id86">February</textPath></text><path d="M 110.65571695917076 81.90426304109057 l 6.615843856761802 -11.235149230399148 a34.03832689291043,34.03832689291043 0 0,0 0.5009586601994658,0.30081128173837235 l -6.807735273518702 11.119923948124855" fill="#ff900d" stroke="none" /><path d="M 111.27062007382361 82.28071324371311 l 8.115001689914164 -12.758130522499261 a36.120289245131424,36.120289245131424 0 0,0 0.5203288792230929,0.33727089307723573 l -8.332816201394264 12.61694578771813" fill="#ffad10" stroke="none" /><path d="M 116.7966241395341 87.39550010848427 l 10.919942461377204 -8.194528402039053 a34.652671500172175,34.652671500172175 0 0,0 0.3529588785672356,0.47885650649182065 l -11.059003359528266 8.005865586278357" fill="#ff990e" stroke="none" /><path d="M 117.01052211995028 87.68569379921539 l 12.268311100054435 -8.88131113126565 a36.145598194130926,36.145598194130926 0 0,0 0.35953665320746053,0.5057333287449283 l -12.418962851791857 8.669400575811217" fill="#ffad10" stroke="none" /><line stroke="#e1ed5e" stroke-width="0.3" x1="172.87174338648825" x2="177.1583165268699" y1="56.24261187166439" y2="53.66864786411523" /><path d="M 173.72905801456457 55.72781907015455 a86.0,86.0 0 0,1 12.242430191666344,42.057860355516425" fill="none" id="id87" stroke="none" /><text fill="#e1ed5e" style="font-size:6.75px; font-family:Arial;" text-anchor="middle"><textPath startOffset="22.145653131862474" xlink:href="#id87">March</textPath></text><path d="M 118.00360718960297 89.18935116829356 l 12.9863510271448 -7.797930663628786 a36.147707273214216,36.147707273214216 0 0,0 0.3148745704192518,0.5347258587281194 l -13.11829930769382 7.57385363660711" fill="#ffad10" stroke="none" /><path d="M 118.53625476483649 90.13048839642627 l 10.73793600621301 -5.717346106657605 a33.1651681524276,33.1651681524276 0 0,0 0.2632555200999441,0.5048271713330729 l -10.834499595287898 5.532172692220033" fill="#ff840c" stroke="none" /><path d="M 118.8641267826498 90.77261029715802 l 13.624652918830465 -6.664500482664398 a36.167291578987644,36.167291578987644 0 0,0 0.26801813110010875,0.5600548121739449 l -13.737050307890486 6.429633168425349" fill="#ffad10" stroke="none" /><path d="M 119.16976305983485 91.42560881287824 l 22.123209883172354 -9.895430384873642 a45.23542774610705,45.23542774610705 0 0,0 0.3109744332860621,0.7115703606882438 l -22.289818198475388 9.514197954409548" fill="#ddff1b" stroke="none" /><path d="M 119.4528033332814 92.08871423366111 l 12.098088907789947 -4.920187437064676 a34.06032157477905,34.06032157477905 0 0,0 0.21562020386814412,0.5435037672898722 l -12.180767786624214 4.711782652561239" fill="#ff910d" stroke="none" /><path d="M 119.58574465831526 92.42381321644754 l 9.331085775777876 -3.609464432623906 a31.004868577112905,31.004868577112905 0 0,0 0.18775561597021836,0.49804407807007683 l -9.391672075562534 3.448752074359671" fill="#ff6609" stroke="none" /><path d="M 119.71291397450082 92.76114493625339 l 9.59842122593404 -3.5246732261502185 a31.225116692810957,31.225116692810957 0 0,0 0.1804511834379794,0.504754076196954 l -9.657512579415961 3.359384193572348" fill="#ff6909" stroke="none" /><path d="M 119.94978838288452 93.4421083053983 l 10.599350732772459 -3.484217115719026 a32.15732964762597,32.15732964762597 0 0,0 0.1678846655124718,0.5258963235613713 l -10.65760011406219 3.3017517584662675" fill="#ff760a" stroke="none" /><path d="M 120.592083275326 95.88100663000786 l 11.954863665294285 -2.391307548542705 a33.19168228947469,33.19168228947469 0 0,0 0.10696210504387711,0.5596709314729595 l -11.99415206262032 2.1857340520364312" fill="#ff850c" stroke="none" /><path d="M 120.7213421655516 96.59031103205396 l 11.997797438970625 -1.9742330028852373 a33.159142212189614,33.159142212189614 0 0,0 0.08760093961463543,0.5624608729999026 l -12.029919870723525 1.7679839479538935" fill="#ff840c" stroke="none" /><line stroke="#e1ed5e" stroke-width="0.3" x1="184.99686870605535" x2="189.99668451229388" y1="99.2704041080226" y2="99.22748670261217" /><path d="M 185.99683186730306 99.26182062694052 a86.0,86.0 0 0,1 -10.086455211305974,41.156179273409016" fill="none" id="id88" stroke="none" /><text fill="#e1ed5e" style="font-size:6.75px; font-family:Arial;" text-anchor="middle"><textPath startOffset="21.40746469413373" xlink:href="#id88">April</textPath></text><path d="M 120.86939407059847 102.33845913500097 l 12.02094105701185 1.3469715187217983 a33.09617113670276,33.09617113670276 0 0,0 -0.06811178425340139,0.5640632818786141 l -11.996047186498785 -1.553128477523821" fill="#ff830c" stroke="none" /><path d="M 120.82617615685814 102.69636545807757 l 9.040585938543533 1.1704848485804848 a30.116042392011323,30.116042392011323 0 0,0 -0.07078056341435726,0.5121328975680534 l -9.019160858573965 -1.3255060543486232" fill="#ff5a08" stroke="none" /><path d="M 120.65975698304385 103.76489593502545 l 4.278163224589736 0.7796238526354733 a25.34861977273597,25.34861977273597 0 0,0 -0.08168738502622919,0.42742291626055295 l -4.264149547281348 -0.8529493339293408" fill="#ff1402" stroke="none" /><path d="M 120.51834098615036 104.47187691870673 l 15.070524019168172 3.2845505667160553 a36.42429793013736,36.42429793013736 0 0,0 -0.1383934928672676,0.609787264886306 l -15.011919664743239 -3.542772165541378" fill="#ffb110" stroke="none" /><path d="M 120.43855184770803 104.8234425847677 l 11.77306566718324 2.778411441059427 a33.09647243371466,33.09647243371466 0 0,0 -0.13524238872010877,0.5518350975563706 l -11.723635751946833 -2.980102363223897" fill="#ff830c" stroke="none" /><path d="M 120.26092885502905 105.52220625578681 l 10.486176013708487 2.858053902489729 a31.868687110226883,31.868687110226883 0 0,0 -0.1483889657733995,0.5265800906125266 l -10.435568555860508 -3.037641917005264" fill="#ff720a" stroke="none" /><path d="M 120.16314734710363 105.8691983318838 l 10.421104041464892 3.033431507672792 a31.85362225963194,31.85362225963194 0 0,0 -0.15733213914206295,0.5237075216988761 l -10.3674955823192 -3.2118766329623916" fill="#ff720a" stroke="none" /><path d="M 119.83427380445688 106.89939002012753 l 59.50282141337066 20.698170060382587 a84.0,84.0 0 0,0 -0.48543931982422706,1.3578601744763141 l -59.13874192350249 -21.716565191239823" fill="#4dd2ff" stroke="none" /><path d="M 119.58574465831526 107.57618678355244 l 9.472712807970613 3.664248811171228 a31.15672227110992,31.15672227110992 0 0,0 -0.19723885440161018,0.49717075904802027 l -9.408415278602877 -3.8263205874328126" fill="#ff6809" stroke="none" /><path d="M 119.4528033332814 107.91128576633889 l 4.481486921641245 1.822581716772728 a25.837926120059684,25.837926120059684 0 0,0 -0.17062155160133133,0.40942961124828203 l -4.449539525503429 -1.8992438374622878" fill="#ff1b02" stroke="none" /><path d="M 119.16976305983485 108.57439118712176 l 4.197625834342115 1.877544644056114 a25.59839499560011,25.59839499560011 0 0,0 -0.18286461543412405,0.39959218653228984 l -4.164776754052935 -1.9493258128030928" fill="#ff1802" stroke="none" /><line stroke="#e1ed5e" stroke-width="0.3" x1="174.33088141563837" x2="178.70328620479359" y1="141.23008692659167" y2="143.65538615756765" /><path d="M 175.20536237346943 141.71514677278685 a86.0,86.0 0 0,1 -30.301960400862466,31.631185727798858" fill="none" id="id89" stroke="none" /><text fill="#e1ed5e" style="font-size:6.75px; font-family:Arial;" text-anchor="middle"><textPath startOffset="22.145653131862474" xlink:href="#id89">May</textPath></text><path d="M 117.62189284568427 111.42229804090321 l 10.148078419100443 6.577861825655776 a33.09345946359567,33.09345946359567 0 0,0 -0.31308864890400273,0.4740561191438191 l -10.033665331275715 -6.7510978231386565" fill="#ff830c" stroke="none" /><path d="M 117.423217284605 111.72311816256416 l 8.247313932170218 5.549160879490519 a30.94039101656655,30.94039101656655 0 0,0 -0.30028424933920606,0.4381236938894163 l -8.150839946015692 -5.68991930844998" fill="#ff6509" stroke="none" /><path d="M 117.21940702142032 112.02048342749411 l 17.286194234443872 12.067106089140907 a42.08145062554999,42.08145062554999 0 0,0 -0.4185799841730636,0.5887851679469608 l -17.076499151740848 -12.36206848379737" fill="#fffa17" stroke="none" /><path d="M 117.01052211995028 112.31430620078461 l 9.799663714499996 7.0942008007820005 a33.09797891877415,33.09797891877415 0 0,0 -0.33712337364680117,0.4573726027704745 l -9.676438321269366 -7.261379712821353" fill="#ff830c" stroke="none" /><path d="M 116.79662413953412 112.60449989151573 l 9.688487779991345 7.270421851282767 a33.1130437693691,33.1130437693691 0 0,0 -0.3450821025098475,0.45172354946970084 l -9.562253700127194 -7.435666313993345" fill="#ff840c" stroke="none" /><path d="M 116.57777611688842 112.89097897827486 l 16.738403648801103 13.015883918637103 a42.20347591536902,42.20347591536902 0 0,0 -0.44963496694659033,0.5680990923215163 l -16.512502251212954 -13.301302954873302" fill="#fffc17" stroke="none" /><path d="M 116.35404254752997 113.17365903436017 l 3.5486839464481883 2.858568589102565 a25.55681600795807,25.55681600795807 0 0,0 -0.2781472185119989,0.33929438047953053 l -3.4990899086975618 -2.9190652512805886" fill="#ff1702" stroke="none" /><path d="M 116.1254893667686 113.45245675266167 l 8.357420310227585 6.97205726474535 a31.883751960821826,31.883751960821826 0 0,0 -0.35422155563097285,0.4172721018558533 l -8.236504191089498 -7.114496149050759" fill="#ff730a" stroke="none" /><path d="M 115.89218393027572 113.72728997021213 l 10.621289434137001 9.174416842872475 a35.0350174082718,35.0350174082718 0 0,0 -0.39704507224700186,0.4517644076584577 l -10.462233297931414 -9.355393528342226" fill="#ff9e0e" stroke="none" /><path d="M 115.6541949942343 113.99807769240083 l 9.234804141321668 8.257818807798017 a33.38842923824463,33.38842923824463 0 0,0 -0.38571950945125477,0.423973308999592 l -9.091686931028532 -8.415129692355281" fill="#ff870c" stroke="none" /><path d="M 115.41159269507618 114.26474011684316 l 2.906146881691467 2.6898861674398793 a24.959946627386465,24.959946627386465 0 0,0 -0.2937478666291847,0.311950054842244 l -2.8595431813260226 -2.7393776822266203" fill="#ff0e01" stroke="none" /><path d="M 115.16444852881244 114.52719865689866 l 8.746594798180581 8.379039960678105 a33.112441175345296,33.112441175345296 0 0,0 -0.39673939265877894,0.4070895677007646 l -8.601468604370996 -8.527952220446606" fill="#ff840c" stroke="none" /><path d="M 114.91283532996324 114.78537596483092 l 10.667909334228836 10.576731169852673 a36.0223677162643,36.0223677162643 0 0,0 -0.43914367578157937,0.4353903335848376 l -10.484773738317292 -10.758301513666172" fill="#ffab0f" stroke="none" /><path d="M 114.65682725009322 115.03919595460226 l 8.425418572362476 8.645221694108365 a33.07176607873895,33.07176607873895 0 0,0 -0.40997574530104797,0.3927474899718516 l -8.275770341196116 -8.788581314385796" fill="#ff830c" stroke="none" /><path d="M 114.39649973595853 115.28858382429668 l 5.117981268760479 5.435118749260003 a28.465537360829476,28.465537360829476 0 0,0 -0.358625415677403,0.33193833078442275 l -5.023926081769109 -5.522174826176805" fill="#ff4206" stroke="none" /><path d="M 114.13192950727249 115.5334660781643 l 8.144769985659257 8.952528967936162 a33.10310096797643,33.10310096797643 0 0,0 -0.42361718812819804,0.37880110177744364 l -7.989887770707681 -9.091025599596993" fill="#ff830c" stroke="none" /><path d="M 113.86319453409587 115.77377054828091 l 8.000429569359602 9.10302023133159 a33.119069709607075,33.119069709607075 0 0,0 -0.430264848949774,0.3716525287799498 l -7.842985240646972 -9.239016892576258" fill="#ff840c" stroke="none" /><path d="M 113.31354834802062 116.24036423190432 l 7.668139297972315 9.353883121516917 a33.09526724566706,33.09526724566706 0 0,0 -0.4424509897194319,0.3564071978557567 l -7.5064375378976305 -9.484138613166078" fill="#ff830c" stroke="none" /><path d="M 113.03279911837588 116.46651593811092 l 7.513356085847569 9.492879972489694 a33.10641523510732,33.10641523510732 0 0,0 -0.44865507355658263,0.34887689886355244 l -7.349291067655756 -9.620457922974039" fill="#ff840c" stroke="none" /><path d="M 112.7482090630111 116.68781488649013 l 24.300160856512793 31.809690606818194 a61.02941710984428,61.02941710984428 0 0,0 -0.8379833339115113,0.6288383161780132 l -23.750524533690516 -32.22214795026022" fill="#30ff31" stroke="none" /><path d="M 112.16784306229584 117.11559508785304 l 7.046660156576538 9.912009987653038 a33.161552588284806,33.161552588284806 0 0,0 -0.4667960823522164,0.32585991869255443 l -6.875468983050562 -10.031514722150716" fill="#ff840c" stroke="none" /><path d="M 111.8722381534696 117.32195027204791 l 8.70880246497934 12.7064030621197 a36.40441232735203,36.40441232735203 0 0,0 -0.5185092788932477,0.34887618317326435 l -8.489396897989089 -12.854028919350085" fill="#ffb010" stroke="none" /><path d="M 111.5731344415666 117.5232005979908 l 1.732682469742332 2.6235020981754893 a24.144034319164405,24.144034319164405 0 0,0 -0.34780558461081335,0.22544337787687005 l -1.687391252874509 -2.652859317756254" fill="#ff0200" stroke="none" /><path d="M 110.96478420261333 117.91015095944535 l 1.6946185785077306 2.7680320924620094 a24.245571412174314,24.245571412174314 0 0,0 -0.3568339010500255,0.21426850490981017 l -1.6468519209002686 -2.796714597907743" fill="#ff0300" stroke="none" /><line stroke="#e1ed5e" stroke-width="0.3" x1="143.1302829299769" x2="145.66735839644613" y1="173.24464959558577" y2="177.55315839532614" /><path d="M 143.63769802327073 174.10635135553383 a86.0,86.0 0 0,1 -40.68552437913181,11.842963189579606" fill="none" id="id90" stroke="none" /><text fill="#e1ed5e" style="font-size:6.75px; font-family:Arial;" text-anchor="middle"><textPath startOffset="21.407464694133747" xlink:href="#id90">June</textPath></text><path d="M 110.34350942703117 118.27599006163325 l 13.494753740792142 23.843936817650697 a48.39784118299728,48.39784118299728 0 0,0 -0.7265571768399149,0.4030090184285936 l -13.083452375796131 -24.072078751512436" fill="#b7ff1f" stroke="none" /><path d="M 110.02825361518725 118.45085714620011 l 4.36071915152507 8.023232080771987 a30.131709836630066,30.131709836630066 0 0,0 -0.45658319378523815,0.2431048335399769 l -4.2223471419532785 -8.096907382034532" fill="#ff5a08" stroke="none" /><path d="M 109.3889696526874 118.78422872680471 l 5.39707697614857 10.7977693108347 a33.07146478172706,33.07146478172706 0 0,0 -0.5099930910215591,0.24946317689833947 l -5.210923635864942 -10.888826237830264" fill="#ff830c" stroke="none" /><path d="M 108.73861861582097 119.09545874513695 l 1.6929673523562943 3.6994391968605473 a25.068413551670048,25.068413551670048 0 0,0 -0.39284185292985635,0.1757131640688814 l -1.629212096570811 -3.727956111839279" fill="#ff1001" stroke="none" /><path d="M 108.07796709384702 119.3841803445677 l 1.8602859426771234 4.464009049106479 a25.836118337988292,25.836118337988292 0 0,0 -0.4108503075774777,0.16708924337258432 l -1.7833811739092047 -4.495285549058354" fill="#ff1b02" stroke="none" /><path d="M 107.74402155503746 119.51999308798841 l 4.589837162431579 11.569387952875251 a33.446579561541114,33.446579561541114 0 0,0 -0.5355079892051015,0.2071459942463792 l -4.390556910732948 -11.646473835259672" fill="#ff880c" stroke="none" /><path d="M 107.407793817531 119.65005319985036 l 4.264186245836759 11.311260632884364 a33.088337414393386,33.088337414393386 0 0,0 -0.5332120159409217,0.19580283800950515 l -4.0693850782417105 -11.38279431990259" fill="#ff830c" stroke="none" /><path d="M 107.06938296918513 119.77432235084164 l 3.2886952413177455 9.199065901361424 a30.769254313808013,30.769254313808013 0 0,0 -0.49889302344430675,0.17354089093443242 l -3.130296445828417 -9.254165224864447" fill="#ff6309" stroke="none" /><path d="M 106.72888874123015 119.89276391827305 l 3.8795633689740594 11.469239747137236 a33.10762042315491,33.10762042315491 0 0,0 -0.5399336764533361,0.1774869238957367 l -3.682106954872989 -11.53414759243499" fill="#ff840c" stroke="none" /><path d="M 106.38641147887787 120.00534299687104 l 3.675692932555182 11.514055758878433 a33.086529632322,33.086529632322 0 0,0 -0.5425550668886024,0.1680849466101278 l -3.4774972327949554 -11.575457293295205" fill="#ff830c" stroke="none" /><path d="M 106.0420521117495 120.11202640906438 l 3.4741163929076557 11.564203576868966 a33.07477904885794,33.07477904885794 0 0,0 -0.5451668385929894,0.1586901213677807 l -3.2750895419330597 -11.622137392539265" fill="#ff830c" stroke="none" /><path d="M 105.3480935250658 120.30758222061773 l 2.3876586766768275 9.066328900968387 a30.375459119256227,30.375459119256227 0 0,0 -0.505382125338879,0.1284661599797131 l -2.2316712581125513 -9.10598029278337" fill="#ff5d08" stroke="none" /><path d="M 104.9986988182912 120.39639698878246 l 2.129758963939658 8.690143354902304 a29.947316065347977,29.947316065347977 0 0,0 -0.5003595375771315,0.11808348845981752 l -1.9802672726226473 -8.725422987008347" fill="#ff5708" stroke="none" /><path d="M 104.64783097203109 120.47920084513623 l 1.5775586903432768 6.951014668765368 a28.127783410490874,28.127783410490874 0 0,0 -0.4717934502081746,0.10282518658828378 l -1.4580028235159663 -6.977071313487371" fill="#ff3d05" stroke="none" /><path d="M 104.29559338865022 120.5559693870025 l 2.4763922497229176 11.850433379009853 a33.10641523510732,33.10641523510732 0 0,0 -0.5572968636705643,0.11147498074306063 l -2.2725989005213947 -11.891197756415776" fill="#ff840c" stroke="none" /><path d="M 103.94208987418118 120.62667999033965 l 0.7784786657070871 4.073329332751965 a25.147052071775644,25.147052071775644 0 0,0 -0.4247040915924642,0.07739523312580693 l -0.7084398405635658 -4.086092739809136" fill="#ff1101" stroke="none" /><path d="M 102.875027216393 120.80226474461374 l 1.1636451836636703 8.419556879790434 a29.499588705666298,29.499588705666298 0 0,0 -0.502226533684576,0.06502327971095989 l -1.018940828088319 -8.438291755701789" fill="#ff5107" stroke="none" /><path d="M 102.51750503828377 120.84855314841334 l 0.9779448039876367 8.098785866204393 a29.157616597161113,29.157616597161113 0 0,0 -0.4974346296024522,0.055738587796302724 l -0.8387742727843852 -8.114380214507666" fill="#ff4c07" stroke="none" /><path d="M 102.15924093988457 120.88869738790638 l 0.9239063762603406 8.937956090018917 a29.985580785859128,29.985580785859128 0 0,0 -0.5124684779142256,0.048531297669945045 l -0.7703383349610997 -8.952499143194045" fill="#ff5808" stroke="none" /><path d="M 101.44090949804482 120.95050786540614 l 0.2073957046196808 3.015488028069704 a24.02261162336917,24.02261162336917 0 0,0 -0.41165106996179457,0.024763906149119698 l -0.1556002825254211 -3.018603912043515" fill="#ff0000" stroke="none" /><line stroke="#e1ed5e" stroke-width="0.3" x1="101.45913802915013" x2="101.54496967792366" y1="184.9874750549273" y2="189.98673829345242" /><path d="M 101.47630435890484 185.9873277026323 a86.0,86.0 0 0,1 -42.54439059252881,-10.42667462771756" fill="none" id="id91" stroke="none" /><text fill="#e1ed5e" style="font-size:6.75px; font-family:Arial;" text-anchor="middle"><textPath startOffset="22.145653131862474" xlink:href="#id91">July</textPath></text><path d="M 100.36049292484886 120.99690560180557 l 0.12641285691114407 7.3629151654799205 a28.364000267819566,28.364000267819566 0 0,0 -0.4869057817599954,0.004179500534080581 l -9.018299356905484e-16 -7.364000267819566" fill="#ff4006" stroke="none" /><path d="M 100.0 121.0 l 1.7232955000405615e-15 14.071775643723456 a35.071775643723456,35.071775643723456 0 0,0 -0.6020536657832668,-0.005167906629884007 l 0.24156074093441296 -14.069702135288006" fill="#ff9e0e" stroke="none" /><path d="M 99.63950707515114 120.99690560180557 l -0.25287743546088826 14.728842857110775 a35.73101350575813,35.73101350575813 0 0,0 -0.613189597249222,-0.015793588891891405 l 0.5056803467808542 -14.722331550868835" fill="#ffa70f" stroke="none" /><path d="M 99.27912038922189 120.98762331915562 l -0.4800198513958566 13.975254225791 a34.983495619237104,34.983495619237104 0 0,0 -0.6000073298182197,-0.025766896415041672 l 0.7198529418149151 -13.96495476095013" fill="#ff9d0e" stroke="none" /><path d="M 98.91894614982273 120.97215588758144 l -0.2600783031684835 5.045449600991395 a26.05214829551976,26.05214829551976 0 0,0 -0.44642917634408796,-0.026856070667420524 l 0.34665183164501784 -5.040241552499283" fill="#ff1e03" stroke="none" /><path d="M 98.55909050195518 120.95050786540614 l -0.8329939320415497 12.111548954845755 a33.14016050043999,33.14016050043999 0 0,0 -0.567219104856341,-0.043906346060217184 l 1.0407820316731267 -12.095464841790484" fill="#ff840c" stroke="none" /><path d="M 98.19965949673042 120.92268563240118 l -0.5396475369348266 6.271522385394158 a27.29469717259058,27.29469717259058 0 0,0 -0.4664799396436452,-0.04417613528161809 l 0.647227039963487 -6.261334494607357" fill="#ff3104" stroke="none" /><path d="M 97.84075906011543 120.88869738790638 l -1.2534989704672894 12.126465456672548 a33.191079695450895,33.191079695450895 0 0,0 -0.5662462972374634,-0.0634490786822094 l 1.4614811693055523 -12.103160617483368" fill="#ff850c" stroke="none" /><path d="M 97.48249496171623 120.84855314841334 l -1.466465707918675 12.144439747660144 a33.232658683092936,33.232658683092936 0 0,0 -0.5657815484161526,-0.07325174878368514 l 1.6747250782256213 -12.117476402676061" fill="#ff850c" stroke="none" /><path d="M 97.12497278360702 120.80226474461374 l -2.0505894849446324 14.837044013050058 a35.97807705551517,35.97807705551517 0 0,0 -0.6110703254387833,-0.08980629447715287 l 2.304984915991101 -14.799656645274021" fill="#ffab0f" stroke="none" /><path d="M 96.41257539226777 120.69131181640829 l -2.631737684383583 15.179163606450228 a36.405617515399626,36.405617515399626 0 0,0 -0.6148480017303576,-0.11204578757983456 l 2.8919204196649977 -15.131749644939028" fill="#ffb010" stroke="none" /><path d="M 95.70440661134978 120.55596938700252 l -2.469181431345633 11.815927002728923 a33.07116348471516,33.07116348471516 0 0,0 -0.5547098431166441,-0.12089642850204699 l 2.671653691081413 -11.771799116093158" fill="#ff830c" stroke="none" /><path d="M 95.35216902796893 120.47920084513623 l -3.110371982655509 13.704872857725963 a35.05339652599763,35.05339652599763 0 0,0 -0.5856718925323088,-0.1382169719357398 l 3.345176028927706 -13.649459742143996" fill="#ff9e0e" stroke="none" /><path d="M 95.00130118170881 120.39639698878247 l -3.433748642089932 14.010866229324233 a35.425498335692694,35.425498335692694 0 0,0 -0.5894038858735325,-0.14982416294308679 l 3.6737578211888433 -13.949856834545884" fill="#ffa30f" stroke="none" /><path d="M 94.6519064749342 120.30758222061772 l -3.6272584427762027 13.773291120820694 a35.242912346482,35.242912346482 0 0,0 -0.5837209713968907,-0.1590957464460822 l 3.863160815107789 -13.708994880230467" fill="#ffa10e" stroke="none" /><path d="M 94.30408787586889 120.21278271476187 l -3.7873228299068225 13.439872625008475 a34.96330871943987,34.96330871943987 0 0,0 -0.5762952022497608,-0.1677511343586378 l 4.01747804453819 -13.372877796347321" fill="#ff9d0e" stroke="none" /><path d="M 93.95794788825049 120.11202640906438 l -1.3422801234599813 4.468013978047688 a25.665282932241652,25.665282932241652 0 0,0 -0.4208609803674856,-0.13038380752949105 l 1.4187817366991007 -4.444313582711548" fill="#ff1902" stroke="none" /><path d="M 92.93061703081489 119.77432235084164 l -4.7403300270856725 13.259546754442008 a35.08141714810422,35.08141714810422 0 0,0 -0.5653301018221758,-0.20759704402694565 l 4.967249280561967 -13.176218861406342" fill="#ff9f0e" stroke="none" /><path d="M 92.59220618246901 119.65005319985036 l -4.19680272897874 11.132517848775082 a32.897315108849526,32.897315108849526 0 0,0 -0.5267138013850451,-0.20374421347690938 l 4.387288792857314 -11.058833747160133" fill="#ff810b" stroke="none" /><path d="M 90.6110303473126 118.78422872680471 l -5.423479748826096 10.850592542705991 a33.13051899605922,33.13051899605922 0 0,0 -0.5065384657207462,-0.25864214982647415 l 5.6089454362604245 -10.755892441206681" fill="#ff840c" stroke="none" /><path d="M 89.97174638481275 118.45085714620012 l -5.776643566536225 10.628373525501994 a33.096773730726554,33.096773730726554 0 0,0 -0.4968547748520941,-0.27559696813623397 l 5.958242529544422 -10.527643641932611" fill="#ff830c" stroke="none" /><line stroke="#e1ed5e" stroke-width="0.3" x1="58.13341422392154" x2="55.67067388415222" y1="173.97424548756322" y2="178.32567169271397" /><path d="M 57.64086615596768 174.84453072859336 a86.0,86.0 0 0,1 -31.369924170532247,-30.572349798747897" fill="none" id="id92" stroke="none" /><text fill="#e1ed5e" style="font-size:6.75px; font-family:Arial;" text-anchor="middle"><textPath startOffset="22.145653131862474" xlink:href="#id92">August</textPath></text><path d="M 89.65649057296885 118.27599006163327 l -5.997717796994641 10.597392657070076 a33.17691873589165,33.17691873589165 0 0,0 -0.4932420915489904,-0.2847734543314658 l 6.178752356404031 -10.49287230546244" fill="#ff850c" stroke="none" /><path d="M 89.34428304082925 118.09573695890944 l -6.127383785533025 10.405637241881212 a33.07568293989364,33.07568293989364 0 0,0 -0.48679095958159324,-0.2923039845884392 l 6.305107501672046 -10.298919256756854" fill="#ff830c" stroke="none" /><path d="M 88.4268655584334 117.5232005979908 l -7.696032562538311 11.65277419725306 a34.96481520449937,34.96481520449937 0 0,0 -0.49800504826990544,-0.33508002173514395 l 7.894933898905221 -11.518944501460794" fill="#ff9d0e" stroke="none" /><path d="M 88.1277618465304 117.32195027204791 l -6.831522124522489 9.967394942190483 a33.083817959214905,33.083817959214905 0 0,0 -0.46570185673606973,-0.32509606423063675 l 7.001619072432324 -9.848654062154717" fill="#ff830c" stroke="none" /><path d="M 87.83215693770417 117.11559508785305 l -6.999349560440561 9.845461709319528 a33.07990109806022,33.07990109806022 0 0,0 -0.45999806169452756,-0.3330031226278675 l 7.167328632509043 -9.723857815318595" fill="#ff830c" stroke="none" /><path d="M 87.54013794807813 116.9041958592261 l -7.1936074669434555 9.759510101225162 a33.12419175880935,33.12419175880935 0 0,0 -0.45482198516187156,-0.341306896850689 l 7.360082441016094 -9.634584177110458" fill="#ff840c" stroke="none" /><path d="M 87.2517909369889 116.68781488649013 l -4.24704558350879 5.559519000807774 a27.996116616291083,27.996116616291083 0 0,0 -0.37940077989661347,-0.2950243412327074 l 4.341856308040631 -5.485793607954274" fill="#ff3b05" stroke="none" /><path d="M 86.13680546590413 115.77377054828092 l -7.990683378153106 9.091930854822253 a33.10430615602403,33.10430615602403 0 0,0 -0.423632610803335,-0.37881489282864955 l 8.145581015779813 -8.95342043211022" fill="#ff840c" stroke="none" /><path d="M 85.86807049272751 115.53346607816431 l -5.827454173707561 6.405392956620696 a29.659577418984583,29.659577418984583 0 0,0 -0.37366862764151637,-0.34586210319629496 l 5.936552572663045 -6.3044131072920235" fill="#ff5307" stroke="none" /><path d="M 85.34317274990678 115.03919595460226 l -2.4839276238393047 2.5487285641393718 a24.55892030454911,24.55892030454911 0 0,0 -0.2993943824213759,-0.29683547145218203 l 2.527313926390643 -2.5057130824585303" fill="#ff0801" stroke="none" /><path d="M 85.08716467003676 114.78537596483092 l -5.03943658214348 4.9963647334190435 a28.096448521253397,28.096448521253397 0 0,0 -0.3366398708921036,-0.3454221638892669 l 5.124463254186393 -4.9091198774620395" fill="#ff3c05" stroke="none" /><path d="M 84.83555147118756 114.52719865689866 l -6.372888938919611 6.105083442904961 a29.82529077552894,29.82529077552894 0 0,0 -0.3510069820139012,-0.3727572511274472 l 6.476751754669765 -5.994784731833024" fill="#ff5507" stroke="none" /><path d="M 84.58840730492382 114.26474011684316 l -8.89555573692823 8.233593587164748 a33.121178788690365,33.121178788690365 0 0,0 -0.3826321011887354,-0.42057970648475773 l 9.035585538958845 -8.079676305122318" fill="#ff840c" stroke="none" /><path d="M 84.3458050057657 113.99807769240083 l -9.04659085070155 8.089517322744763 a33.13594234227341,33.13594234227341 0 0,0 -0.37552322203652727,-0.42727649283049085 l 9.18412513669667 -7.933028552102972" fill="#ff840c" stroke="none" /><path d="M 84.1078160697243 113.72728997021213 l -9.227675569952437 7.970646379095987 a33.19349007154609,33.19349007154609 0 0,0 -0.3687724614221142,-0.43441303229008493 l 9.363142594881662 -7.811066564356348" fill="#ff850c" stroke="none" /><path d="M 83.8745106332314 113.45245675266167 l -9.350186430184026 7.800258070963614 a33.17661743887975,33.17661743887975 0 0,0 -0.3610772115504337,-0.4404554877581709 l 9.48271046097309 -7.638600301506948" fill="#ff850c" stroke="none" /><path d="M 83.64595745247003 113.17365903436017 l -2.363286479015216 1.9036962992224962 a24.034663503845124,24.034663503845124 0 0,0 -0.2560648120973457,-0.32352952510755806 l 2.3956177217541232 -1.8628468302002577" fill="#ff0000" stroke="none" /><path d="M 83.4222238831116 112.89097897827486 l -3.0906132522312446 2.4032795583421525 a24.91505337261354,24.91505337261354 0 0,0 -0.25964810308136543,-0.33988770174958577 l 3.131413332666905 -2.3498709433516964" fill="#ff0d01" stroke="none" /><path d="M 83.20337586046588 112.60449989151573 l -5.830492086389337 4.375309958707934 a28.28957990588055,28.28957990588055 0 0,0 -0.28814685755665254,-0.3909265524819246 l 5.90474096352982 -4.27457709695713" fill="#ff3f05" stroke="none" /><path d="M 82.98947788004972 112.3143062007846 l -9.780383126911387 7.0802431422443615 a33.074176454834145,33.074176454834145 0 0,0 -0.32898552809384407,-0.46275934525040924 l 9.900483753535191 -6.911306570284449" fill="#ff830c" stroke="none" /><path d="M 82.78059297857968 112.02048342749411 l -9.959282853533724 6.952352908651658 a33.145885143666064,33.145885143666064 0 0,0 -0.3216891226009328,-0.4693540436706628 l 10.077161712949982 -6.780364129910945" fill="#ff840c" stroke="none" /><path d="M 82.576782715395 111.72311816256416 l -10.16565435152868 6.839905926447673 a33.25254428587826,33.25254428587826 0 0,0 -0.3145937092052498,-0.4763349722673171 l 10.281572499654656 -6.664391075841295" fill="#ff860c" stroke="none" /><path d="M 82.18462484594161 111.11811171558189 l -21.74718694019649 13.571853065674476 a46.634651069365276,46.634651069365276 0 0,0 -0.4180064427475507,-0.6827821098243837 l 21.976961347399442 -13.196533839725536" fill="#ccff1d" stroke="none" /><path d="M 81.99639281039703 110.81064883170644 l -26.189162763603317 15.72583976377913 a51.54790144239966,51.54790144239966 0 0,0 -0.449022207688307,-0.7625378742857253 l 26.455258681421395 -15.273950721199846" fill="#93ff23" stroke="none" /><line stroke="#e1ed5e" stroke-width="0.3" x1="26.387840678322732" x2="22.057713659400548" y1="142.50000000000003" y2="145.00000000000006" /><path d="M 25.521815274538298 143.00000000000003 a86.0,86.0 0 0,1 -11.493303480769221,-40.785679425670985" fill="none" id="id93" stroke="none" /><text fill="#e1ed5e" style="font-size:6.75px; font-family:Arial;" text-anchor="middle"><textPath startOffset="21.40746469413373" xlink:href="#id93">September</textPath></text><path d="M 81.81346652052679 110.50000000000001 l -26.19458874589905 15.123452863756377 a51.246905727512726,51.246905727512726 0 0,0 -0.43332098110005185,-0.7656366535893175 l 26.45034309202048 -14.671559440067938" fill="#96ff23" stroke="none" /><path d="M 81.63589988554817 110.18625677009913 l -17.872800538944677 9.913741177395615 a41.43818150514596,41.43818150514596 0 0,0 -0.3397036023616627,-0.6250163667313213 l 18.040349490921667 -9.605469977189706" fill="#fff216" stroke="none" /><path d="M 81.4637452351635 109.86951160357371 l -10.68607605175463 5.689733601932064 a33.10641523510732,33.10641523510732 0 0,0 -0.26278915642177136,-0.5039328574878276 l 10.782173277151351 -5.505454501339734" fill="#ff840c" stroke="none" /><path d="M 81.29705330413844 109.54985784667822 l -14.334191088297226 7.319140104839747 a37.094683781612275,37.094683781612275 0 0,0 -0.28471068339540184,-0.5696120869166217 l 14.457721684904365 -7.0719961617593725" fill="#ffba11" stroke="none" /><path d="M 81.1358732173502 109.22738970284198 l -13.478229851109225 6.592877622888446 a36.00428989555037,36.00428989555037 0 0,0 -0.26681020524628535,-0.5575307117169838 l 13.589419314315421 -6.360534409106358" fill="#ffab0f" stroke="none" /><path d="M 80.9802524753101 108.90220220490708 l -17.704258042815233 8.28648670443186 a40.54754753797299,40.54754753797299 0 0,0 -0.2896553353678129,-0.6329491822438672 l 17.843897843038103 -7.981348539973304" fill="#ffe715" stroke="none" /><path d="M 80.83023694016515 108.57439118712176 l -4.999635854846736 2.2362735250722077 a26.476977082297125,26.476977082297125 0 0,0 -0.18201801891890196,-0.41649284799801445 l 5.037287755782606 -2.150118607298344" fill="#ff2503" stroke="none" /><path d="M 80.68587082218212 108.24405325689762 l -11.569855780582868 4.938483446579407 a33.579752840800396,33.579752840800396 0 0,0 -0.22174494599388314,-0.5321071469721501 l 11.652926571113237 -4.739143790165976" fill="#ff8a0c" stroke="none" /><path d="M 80.5471966667186 107.91128576633889 l -15.087235381650425 6.1358472855193105 a37.28721257221564,37.28721257221564 0 0,0 -0.23604816410333954,-0.5949955716138581 l 15.190342220719888 -5.875950696691887" fill="#ffbc11" stroke="none" /><path d="M 80.41425534168474 107.57618678355246 l -14.539251281056048 5.624094734203491 a36.58910739564602,36.58910739564602 0 0,0 -0.22157198892116514,-0.5877460249492572 l 14.633653953791649 -5.373680429060089" fill="#ffb310" stroke="none" /><path d="M 80.28708602549918 107.23885506374661 l -11.375162898483696 4.177117378746961 a33.117864521559476,33.117864521559476 0 0,0 -0.1913894479449611,-0.5353503487800915 l 11.4451925164726 -3.981232073585948" fill="#ff840c" stroke="none" /><path d="M 80.16572619554312 106.89939002012753 l -7.449235547967456 2.5912308110658975 a28.88705188047595,28.88705188047595 0 0,0 -0.15889883904715874,-0.46975618316955037 l 7.492619808586983 -2.4629729534221854" fill="#ff4806" stroke="none" /><path d="M 80.05021161711548 106.5578916946017 l -12.180480420003025 4.0039658491378365 a33.82169434135517,33.82169434135517 0 0,0 -0.17657386057187074,-0.5531151033259998 l 12.24741899635215 -3.7942817121204446" fill="#ff8d0d" stroke="none" /><path d="M 79.94057633289273 106.21446072829308 l -14.465509895303763 4.4814519425354895 a36.14379041205953,36.14379041205953 0 0,0 -0.17852223574077813,-0.594242461570586 l 14.54030845104817 -4.23247187737418" fill="#ffad10" stroke="none" /><path d="M 79.83685265289637 105.86919833188381 l -7.871878024381675 2.291388966917926 a29.198592990779353,29.198592990779353 0 0,0 -0.13595630723519755,-0.48246097147533173 l 7.910052823691448 -2.1559200715395987" fill="#ff4c07" stroke="none" /><path d="M 79.64726062577567 105.17358676015961 l -25.536898320694796 6.491379691856533 a47.34902628457743,47.34902628457743 0 0,0 -0.19348271726307717,-0.7894755125725134 l 25.644568564474167 -6.05204835467592" fill="#c3ff1e" stroke="none" /><path d="M 79.56144815229197 104.8234425847677 l -14.712519942560466 3.472114646329418 a36.11667368098864,36.11667368098864 0 0,0 -0.13722467982899947,-0.6046372589792196 l 14.76995548394713 -3.219043053411172" fill="#ffad10" stroke="none" /><path d="M 79.48165901384964 104.47187691870673 l -14.790562533374622 3.22353426392179 a36.137764471821555,36.137764471821555 0 0,0 -0.12689911799247564,-0.6072582175918312 l 14.843719362191464 -2.96915959504455" fill="#ffad10" stroke="none" /><path d="M 79.34024301695615 103.76489593502545 l -39.108749233641326 7.1269168913511995 a60.752826452921155,60.752826452921155 0 0,0 -0.17816542404598876,-1.0276108202782719 l 39.22532947517955 -6.454513038152335" fill="#31ff2f" stroke="none" /><path d="M 79.2786578344484 103.40968896794605 l -35.33665888092501 5.81463377168046 a56.81186153728431,56.81186153728431 0 0,0 -0.15008749080647069,-0.9636693564787987 l 35.43126786386975 -5.207176233270212" fill="#59ff2a" stroke="none" /><path d="M 79.22317932658666 103.0534771498775 l -14.950654207460293 2.1972313144434508 a36.111250334774454,36.111250334774454 0 0,0 -0.08487086752707315,-0.614083319050549 l 14.986169591542579 -1.9402596871928162" fill="#ffad10" stroke="none" /><path d="M 79.17382384314188 102.69636545807758 l -18.62290185813477 2.411107489019665 a39.77833626659525,39.77833626659525 0 0,0 -0.08186365264304281,-0.677948479584843 l 18.661547597037476 -2.091065332511423" fill="#ffdd14" stroke="none" /><path d="M 79.13060592940153 102.33845913500099 l -15.043617719540425 1.685668743458306 a36.137764471821555,36.137764471821555 0 0,0 -0.06378764143007017,-0.6170875673523695 l 15.07033775345216 -1.427176653823005" fill="#ffad10" stroke="none" /><path d="M 79.0935383218832 101.97986365728391 l -15.066738293776165 1.4268357812493442 a36.13414890767877,36.13414890767877 0 0,0 -0.05317979236365416,-0.6180297980300918 l 15.08901170883756 -1.1679849358435905" fill="#ffad10" stroke="none" /><path d="M 79.06263194458094 101.62068470465958 l -15.217281826290751 1.177913854171387 a36.26280273175958,36.26280273175958 0 0,0 -0.042714195077921555,-0.6210550219557702 l 15.235259982533739 -0.9165154080612734" fill="#ffaf10" stroke="none" /><path d="M 79.03789590574601 101.26102812881392 l -3.8039277544877663 0.2288348477240853 a24.81080460649654,24.81080460649654 0 0,0 -0.021926147514291464,-0.4253614041598712 l 3.80729549145863 -0.1635016501874833" fill="#ff0c01" stroke="none" /><path d="M 79.01933749520258 100.90099992219065 l -24.364824824015887 1.046330413332154 a45.387281440104076,45.387281440104076 0 0,0 -0.026746753056353968,-0.7787025319683185 l 24.37919626406909 -0.6279216167997156" fill="#dbff1b" stroke="none" /><line stroke="#e1ed5e" stroke-width="0.3" x1="15.003131293944662" x2="10.003315487706104" y1="100.72959589197737" y2="100.7725132973878" /><path d="M 14.003168132696942 100.73817937305945 a86.0,86.0 0 0,1 10.791469493833604,-42.45332614584628" fill="none" id="id94" stroke="none" /><text fill="#e1ed5e" style="font-size:6.75px; font-family:Arial;" text-anchor="middle"><textPath startOffset="22.145653131862435" xlink:href="#id94">October</textPath></text><path d="M 79.01933749520258 99.09900007780938 l -3.231445058571186 -0.13877215486737668 a24.234423422734054,24.234423422734054 0 0,0 0.02141677996011459,-0.4154798096874451 l 3.228586689154501 0.19422375793153374" fill="#ff0300" stroke="none" /><path d="M 79.13060592940154 97.66154086499901 l -12.017647402401867 -1.3466024578528504 a33.092856869571875,33.092856869571875 0 0,0 0.06810496350525239,-0.5640067962994034 l 11.992760352636946 1.5527029310756901" fill="#ff830c" stroke="none" /><path d="M 79.17382384314186 97.30363454192245 l -15.003500170086859 -1.942503477555624 a36.12872556146459,36.12872556146459 0 0,0 0.0849119388728716,-0.6143804908490527 l 14.96794371465878 2.199772276604744" fill="#ffad10" stroke="none" /><path d="M 79.22317932658666 96.9465228501225 l -14.967347524755386 -2.1996846572198714 a36.128122967440795,36.128122967440795 0 0,0 0.09544449305137151,-0.6128221126493439 l 14.927381539565747 2.4562949518006656" fill="#ffad10" stroke="none" /><path d="M 79.2786578344484 96.59031103205396 l -14.928868034441226 -2.456539553966748 a36.12962945250029,36.12962945250029 0 0,0 0.10595475351286555,-0.6111188618821646 l 14.884498463436126 2.7124514487695053" fill="#ffad10" stroke="none" /><path d="M 81.29705330413844 90.45014215332179 l -3.720803729647859 -1.8998688961344086 a25.177784366989325,25.177784366989325 0 0,0 0.1998539759555248,-0.3832463506292031 l 3.6876416847173945 1.9634614898680982" fill="#ff1101" stroke="none" /><line stroke="#e1ed5e" stroke-width="0.3" x1="26.387840678322718" x2="22.05771365940052" y1="57.49999999999999" y2="54.99999999999999" /><path d="M 25.521815274538284 56.99999999999999 a86.0,86.0 0 0,1 29.574782752854787,-30.34633250058573" fill="none" id="id95" stroke="none" /><text fill="#e1ed5e" style="font-size:6.75px; font-family:Arial;" text-anchor="middle"><textPath startOffset="21.40746469413373" xlink:href="#id95">November</textPath></text><path d="M 82.37810715431573 88.57770195909679 l -17.67962229339869 -11.4597175714443 a42.068796151050236,42.068796151050236 0 0,0 0.3980019847256848,-0.6026257322041987 l 17.480295869752275 11.76152318198756" fill="#fffa17" stroke="none" /><path d="M 82.576782715395 88.27688183743585 l -17.89201162042772 -12.038543913332152 a42.56503232964762,42.56503232964762 0 0,0 0.413104306741437,-0.6027315293075335 l 17.68271757687097 12.34391017770972" fill="#feff18" stroke="none" /><path d="M 82.78059297857968 87.97951657250589 l -11.877171144662475 -8.291187886570471 a35.48485384703677,35.48485384703677 0 0,0 0.3529642952150766,-0.4964884841496995 l 11.733091750917426 8.493853597429691" fill="#ffa40f" stroke="none" /><path d="M 82.98947788004972 87.6856937992154 l -11.827054108153062 -8.561875097897925 a35.60085319661782,35.60085319661782 0 0,0 0.36261669523092865,-0.4919591896335195 l 11.678335393338314 8.76364059680031" fill="#ffa60f" stroke="none" /><path d="M 83.8745106332314 86.54754324733833 l -10.319816541751834 -8.60915799612342 a34.43935321574779,34.43935321574779 0 0,0 0.3826137302158428,-0.45071801212572254 l 10.170508248028876 8.785042790698698" fill="#ff960d" stroke="none" /><path d="M 84.10781606972428 86.27271002978789 l -19.40388413647029 -16.760612969139316 a46.64037571259135,46.64037571259135 0 0,0 0.528566352019577,-0.6014114810113224 l 19.11330672049212 17.091236727961938" fill="#ccff1d" stroke="none" /><path d="M 84.34580500576568 86.00192230759919 l -9.026601611005617 -8.071642821348885 a33.10912690821441,33.10912690821441 0 0,0 0.3824928719548219,-0.4204266691673164 l 8.88671103820893 8.225407066073858" fill="#ff840c" stroke="none" /><path d="M 84.58840730492382 85.73525988315684 l -9.533700749525163 -8.82425108387262 a33.99072196503042,33.99072196503042 0 0,0 0.40002898289284006,-0.424816917255901 l 9.380815932896052 8.986609461073032" fill="#ff900d" stroke="none" /><path d="M 88.12776184653039 82.6780497279521 l -8.484809755814954 -12.379591005345633 a36.00820675670505,36.00820675670505 0 0,0 0.5128661095191214,-0.34507920697170874 l 8.271047358198844 12.52341988637445" fill="#ffab0f" stroke="none" /><line stroke="#e1ed5e" stroke-width="0.3" x1="56.869717070023135" x2="54.33264160355391" y1="26.7553504044142" y2="22.446841604673864" /><path d="M 56.362301976729285 25.89364864446614 a86.0,86.0 0 0,1 42.16139366436587,-11.88097634709845" fill="none" id="id96" stroke="none" /><text fill="#e1ed5e" style="font-size:6.75px; font-family:Arial;" text-anchor="middle"><textPath startOffset="22.145653131862474" xlink:href="#id96">December</textPath></text><path d="M 90.61103034731259 81.2157712731953 l -2.0657475459687604 -4.1328788813590425 a25.620389677468722,25.620389677468722 0 0,0 0.395090505093359,-0.19325856427885071 l 1.9944967916133483 4.167731195735107" fill="#ff1802" stroke="none" /><path d="M 91.92203290615298 80.6158196554323 l -5.643906582178552 -13.54332120517963 a35.67226058843785,35.67226058843785 0 0,0 0.5672662991790894,-0.23070226545400804 l 5.410585821809021 13.63821072721293" fill="#ffa70f" stroke="none" /><path d="M 92.25597844496254 80.48000691201159 l -3.1333332805067275 -7.898046711668719 a29.496877032559205,29.496877032559205 0 0,0 0.47226991562685516,-0.18268414887776724 l 2.997291102386343 7.950670748684527" fill="#ff5107" stroke="none" /><path d="M 92.592206182469 80.34994680014964 l -6.6448225141375925 -17.62618117115552 a39.83708918391552,39.83708918391552 0 0,0 0.6419668164932882,-0.2357391071832862 l 6.341266545990177 17.73765112734753" fill="#ffde14" stroke="none" /><path d="M 92.93061703081487 80.22567764915836 l -5.572849473814528 -15.588251816074576 a37.554463021769905,37.554463021769905 0 0,0 0.6089084710886656,-0.21180997449254818 l 5.304435230680858 15.681620223135711" fill="#ffc011" stroke="none" /><path d="M 94.6519064749342 79.69241777938228 l -3.5179158450237034 -13.358099467258976 a34.81356410452615,34.81356410452615 0 0,0 0.5792226200990674,-0.1472361249967476 l 3.288087931699258 13.416520824090986" fill="#ff9b0e" stroke="none" /><path d="M 95.70440661134978 79.44403061299748 l -0.766380568559877 -3.6674084534478353 a24.746628342962083,24.746628342962083 0 0,0 0.41657238526170653,-0.08332614384241267 l 0.7033116977671937 3.6800239939531143" fill="#ff0b01" stroke="none" /><path d="M 96.05791012581881 79.37332000966035 l -0.6671139103469284 -3.490621874441255 a24.553798255346827,24.553798255346827 0 0,0 0.41468473336031564,-0.0755693722935248 l 0.6070944434355742 3.501559420666141" fill="#ff0801" stroke="none" /><path d="M 97.48249496171623 79.15144685158666 l -0.8376914457647786 -6.93728686275207 a27.987680299957916,27.987680299957916 0 0,0 0.477475288045214,-0.05350210194361164 l 0.7184802561187653 6.950644725202653" fill="#ff3b05" stroke="none" /></svg>