<?xml version="1.0" encoding="utf-8" ?>
<svg baseProfile="full" height="200mm" version="1.1" viewBox="0,0,200,200" width="200mm" xmlns="http://www.w3.org/2000/svg" xmlns:ev="http://www.w3.org/2001/xml-events" xmlns:xlink="http://www.w3.org/1999/xlink"><defs /><rect fill="#1a1a1a" height="200" width="200" x="0" y="0" /><text alignment-baseline="middle" fill="#e1ed5e" style="dominant-baseline: central; font-size:9.0px; font-family:Arial;" text-anchor="middle" x="100.0" y="100.0">2025</text><line stroke="#e1ed5e" stroke-width="0.3" x1="100.0" x2="100.0" y1="15.0" y2="10.0" /><path d="M 100.0 14.0 a86.0,86.0 0 0,1 42.46469731375804,11.215312516191453" fill="none" id="id97" stroke="none" /><text fill="#e1ed5e" style="font-size:6.75px; font-family:Arial;" text-anchor="middle"><textPath startOffset="22.20632615414155" xlink:href="#id97">January</textPath></text><path d="M 101.44485096284872 79.0497635885617 l 0.4870092815259081 -7.061600016112378 a28.07837360047142,28.07837360047142 0 0,0 0.4818914910647306,0.03740405426892987 l -0.6084909619529799 7.052170699654984" fill="#ff1001" stroke="none" /><path d="M 101.80526077348638 79.07773832637324 l 2.035952401919099 -23.595886828990466 a44.683559222156745,44.683559222156745 0 0,0 0.7657376283918669,0.07271601454957113 l -2.44181515740121 23.557345269925715" fill="#fdff18" stroke="none" /><path d="M 103.95276090670814 79.375362276772 l 3.5094243367355604 -18.31140493203508 a39.64466705951679,39.64466705951679 0 0,0 0.6691143662564247,0.134218047169898 l -3.8241051124591103 18.248282928787976" fill="#ffbc11" stroke="none" /><path d="M 104.307194497241 79.44645832069477 l 6.44659034413224 -30.76254471731015 a52.430760164997054,52.430760164997054 0 0,0 0.8817287824014325,0.19271176044335714 l -6.975161850687201 30.647019458770924" fill="#9cff22" stroke="none" /><path d="M 104.66035177308747 79.52364482259891 l 5.268837807270375 -23.149882147697333 a44.741897466116676,44.741897466116676 0 0,0 0.7494828442348255,0.1773783744108726 l -5.666544338467724 23.055757861145594" fill="#fdff18" stroke="none" /><path d="M 105.01212808612495 79.60689891045804 l 5.655011535396135 -23.00883375728325 a44.693576900412495,44.693576900412495 0 0,0 0.7455125105279422,0.190047738462054 l -6.050232934609102 22.908083022652328" fill="#fdff18" stroke="none" /><path d="M 105.36241919743992 79.69619591428918 l 6.041956899705513 -22.87674735397331 a44.6611667648792,44.6611667648792 0 0,0 0.7415925295545347,0.20270525214735263 l -6.434847318483759 22.769355560999664" fill="#feff18" stroke="none" /><path d="M 105.71112130821622 79.79150937346287 l 2.638330670291089 -9.335588887523658 a30.70123747790218,30.70123747790218 0 0,0 0.5073157015632473,0.14809936479882 l -2.7986365895777636 9.288791193806134" fill="#ff3905" stroke="none" /><path d="M 106.0581310904928 79.89281104454417 l 10.664160270752127 -35.39479129987526 a57.96641131408367,57.96641131408367 0 0,0 0.9528977655756476,0.2960699742329975 l -11.271843409038492 35.20598119075974" fill="#5cff2a" stroke="none" /><path d="M 106.40334571778207 80.00007090966166 l 11.463744332982465 -35.80535611761895 a58.595757218621095,58.595757218621095 0 0,0 0.9579490474697852,0.3158207397040808 l -12.078376202694667 35.60272165365563" fill="#55ff2b" stroke="none" /><path d="M 106.74666289553966 80.11325718540242 l 9.971286435672853 -29.391776637900342 a52.03712433706541,52.03712433706541 0 0,0 0.8457717615732102,0.29507316044902415 l -10.475740201309337 29.21578262427911" fill="#a1ff22" stroke="none" /><path d="M 107.08798089147638 80.2323363322302 l 7.999113715896316 -22.308721199606175 a44.699469652327636,44.699469652327636 0 0,0 0.7220404826029467,0.2659336032929607 l -8.38193652427184 22.167724328506893" fill="#fdff18" stroke="none" /><path d="M 107.4271985657038 80.35727306442388 l 8.752702476747833 -23.14828978627241 a45.74779021803182,45.74779021803182 0 0,0 0.7341797841685845,0.28485035009011106 l -9.149865425916085 22.99419673229175" fill="#efff19" stroke="none" /><path d="M 107.76421540070413 80.48803036053334 l 3.8366819094312046 -9.641826903246848 a31.37713612256924,31.37713612256924 0 0,0 0.5001158850640383,0.20400982667965747 l -4.00208166408363 9.574356190383611" fill="#ff4306" stroke="none" /><line stroke="#e1ed5e" stroke-width="0.3" x1="143.23703022742887" x2="145.7803849466894" y1="26.81831364943548" y2="22.513508569990506" /><path d="M 143.74570117128098 25.957352633546492 a86.0,86.0 0 0,1 28.547481713284135,27.462654790039103" fill="none" id="id98" stroke="none" /><text fill="#e1ed5e" style="font-size:6.75px; font-family:Arial;" text-anchor="middle"><textPath startOffset="19.985693538727396" xlink:href="#id98">February</textPath></text><path d="M 111.90073688211348 82.69761687909136 l 12.178911639326492 -17.706819104288744 a42.490866234531524,42.490866234531524 0 0,0 0.5990582068648225,0.41967855719675884 l -12.481900985774965 17.49455570432805" fill="#ffe315" stroke="none" /><path d="M 113.06298171725822 83.55741782278167 l 16.050052402611566 -20.202455403420082 a46.80200353565115,46.80200353565115 0 0,0 0.626470673059248,0.5065623828321978 l -16.395426474235304 19.923186923323755" fill="#e2ff1b" stroke="none" /><path d="M 113.6212207817346 84.01681056812373 l 16.995852717136998 -19.94299467625811 a47.20271066588097,47.20271066588097 0 0,0 0.6138739525492677,0.5323454424363464 l -17.33662046833303 19.647484240402093" fill="#ddff1b" stroke="none" /><path d="M 114.16331599549186 84.49514656593476 l 23.238696099233938 -25.439845946534856 a55.45609899823218,55.45609899823218 0 0,0 0.6992541814392559,0.6498805541740792 l -23.67315816446804 25.036060806286137" fill="#78ff26" stroke="none" /><path d="M 114.42810811169701 84.74124197986012 l 13.498137453881592 -14.275247422383016 a40.64643488509134,40.64643488509134 0 0,0 0.5042417797610974,0.4850801926199372 l -13.741862477255106 14.040784143000776" fill="#ffca12" stroke="none" /><path d="M 114.68862486808459 84.99185889309783 l 16.627076554663198 -16.98875921801594 a44.7713612256924,44.7713612256924 0 0,0 0.5461342820856788,0.5437890079174996 l -16.9170466369162 16.70003435944832" fill="#fcff18" stroke="none" /><path d="M 114.94478906791727 85.2469230424477 l 17.48528159460141 -17.260979985552744 a45.56982911019446,45.56982911019446 0 0,0 0.5462644992370618,0.5629735844689104 l -17.77981035754158 16.957442205533717" fill="#f2ff19" stroke="none" /><path d="M 115.19652480421416 85.50635884689758 l 14.298472744902904 -13.637126624145603 a40.75898644667059,40.75898644667059 0 0,0 0.479854922522856,0.5118757744304713 l -14.531094989396223 13.388981432837078" fill="#ffcc13" stroke="none" /><path d="M 115.4437574822437 85.77008943001954 l 14.510726928064875 -13.370214258361422 a40.73129051266942,40.73129051266942 0 0,0 0.47065269851499847,0.5197064649420967 l -14.738723267195908 13.118455006149777" fill="#ffcb12" stroke="none" /><path d="M 116.38621287248628 86.86637796730983 l 19.13862946913311 -15.339696098623987 a45.52740129640542,45.52740129640542 0 0,0 0.4848579771953402,0.6157203929395925 l -19.399841526922415 15.007983311731357" fill="#f2ff19" stroke="none" /><path d="M 116.60985879189232 87.15038557335679 l 20.288198876232023 -15.695228733545253 a46.65055981143193,46.65055981143193 0 0,0 0.48588570632258127,0.6393686346382157 l -20.55536052277872 15.343675323026003" fill="#e4ff1a" stroke="none" /><path d="M 116.82858285166822 87.43820079747576 l 14.961416238443299 -11.168041196890188 a39.67000589275192,39.67000589275192 0 0,0 0.4037601629088496,0.5507284084528733 l -15.151439013865776 10.90885034476582" fill="#ffbc11" stroke="none" /><path d="M 117.04232023915458 87.72973835380427 l 43.80111107401427 -31.536263004696245 a74.97289334119034,74.97289334119034 0 0,0 0.7450426998617107,1.0538100622747788 l -44.33746639367987 30.777626442089673" fill="#41ffcd" stroke="none" /><path d="M 117.45458315368197 88.32363383020206 l 29.77765502130938 -19.91997177161953 a56.82616381850324,56.82616381850324 0 0,0 0.5368810524425139,0.8177066761617697 l -30.11613270910982 19.404447031480085" fill="#69ff28" stroke="none" /><path d="M 117.65298651832404 88.62581576622439 l 20.030693263783963 -12.906189854959292 a44.828520919269295,44.828520919269295 0 0,0 0.41236348298636716,0.6522600007797927 l -20.249884343016287 12.559482206465294" fill="#fcff18" stroke="none" /><line stroke="#e1ed5e" stroke-width="0.3" x1="172.23445277983987" x2="176.4835382374775" y1="55.19839476539836" y2="52.563006222186495" /><path d="M 173.08426987136738 54.67131705675599 a86.0,86.0 0 0,1 12.851231095245387,41.99856678651699" fill="none" id="id99" stroke="none" /><text fill="#e1ed5e" style="font-size:6.75px; font-family:Arial;" text-anchor="middle"><textPath startOffset="22.20632615414155" xlink:href="#id99">March</textPath></text><path d="M 117.84615892207809 88.93136811851018 l 20.655012231670245 -12.810752604987202 a45.305244549204474,45.305244549204474 0 0,0 0.405339985979747,0.6662723599775502 l -20.872468015936217 12.45331247180257" fill="#f5ff19" stroke="none" /><path d="M 118.03404312379186 89.2402003453031 l 21.391167519314358 -12.762788427861286 a45.90925162050678,45.90925162050678 0 0,0 0.3990614159824267,0.6821253175725432 l -21.607688609767113 12.392683697934848" fill="#edff19" stroke="none" /><path d="M 118.3937258080291 89.86733742301442 l 33.999256571161794 -18.729375347846187 a59.816735415439005,59.816735415439005 0 0,0 0.4890499524772807,0.9061352881248547 l -34.316614622857536 18.141359076388873" fill="#47ff2c" stroke="none" /><path d="M 119.04729006885535 91.15688171328212 l 10.128944470490717 -4.702582558901999 a32.1673541543901,32.1673541543901 0 0,0 0.22884419905168263,0.5042278581622885 l -10.208390986505748 4.5275326918976475" fill="#ff4f07" stroke="none" /><path d="M 119.196687751892 91.48605970444005 l 37.36612619708429 -16.572284324777804 a61.87625220978197,61.87625220978197 0 0,0 0.42343772774585825,0.9773526565599899 l -37.64585463467283 15.926632523631213" fill="#31ff2f" stroke="none" /><path d="M 120.08093135843002 93.85539295169968 l 13.058212063312213 -3.9957101814774405 a34.65586328815557,34.65586328815557 0 0,0 0.1696389703107354,0.5719382758383094 l -13.125056930734651 3.770342518892601" fill="#ff740a" stroke="none" /><path d="M 120.18372546131832 94.20196356495316 l 22.74881490808181 -6.534891585994657 a44.668827342368886,44.668827342368886 0 0,0 0.20593016333467964,0.7408403644227401 l -22.857931841982854 6.142339918152965" fill="#feff18" stroke="none" /><path d="M 120.6074358757038 95.95851677861258 l 16.338723817044386 -3.204313169467178 a37.649970536240424,37.649970536240424 0 0,0 0.11925050166824565,0.6370409483054673 l -16.39146004262249 2.922594143699148" fill="#ffa00e" stroke="none" /><path d="M 120.67395015179393 96.31383870115 l 13.540720893818849 -2.414307906851241 a34.75427224513848,34.75427224513848 0 0,0 0.0999402764334901,0.5898531688051327 l -13.580273031772562 2.1808689497302707" fill="#ff760a" stroke="none" /><path d="M 120.73433829027371 96.67025291283417 l 23.408385454235273 -3.7591748620238197 a44.708308780200355,44.708308780200355 0 0,0 0.11548391741056535,0.7608947257853559 l -23.469625265085135 3.3556810238463814" fill="#fdff18" stroke="none" /><path d="M 120.78858239683441 97.02765380044208 l 23.458541754533186 -3.354096306339532 a44.69711255156158,44.69711255156158 0 0,0 0.10234361914482328,0.762578837614085 l -23.512801372735847 2.949799126660783" fill="#fdff18" stroke="none" /><path d="M 120.83666639777658 97.38593545837742 l 9.931577165098993 -1.2459662795409567 a31.009428403064227,31.009428403064227 0 0,0 0.061885437996805015,0.5301966399565415 l -9.951552956099388 1.0748259012595622" fill="#ff3e05" stroke="none" /><path d="M 120.87857604477298 97.74499172005257 l 29.098303348085985 -3.1427868855444903 a50.26753093694756,50.26753093694756 0 0,0 0.0855095566631076,0.8610695661472313 l -29.14809003043132 2.641441788692824" fill="#b6ff1f" stroke="none" /><path d="M 120.98425023603335 99.18683210126433 l 6.221023199026077 -0.2410730097971864 a27.225692398350027,27.225692398350027 0 0,0 0.014116269404278889,0.46845025812133995 l -6.224251162886 0.1339526042508474" fill="#ff0300" stroke="none" /><line stroke="#e1ed5e" stroke-width="0.3" x1="184.98032266829074" x2="189.97916517819016" y1="98.17113171792111" y2="98.06355123074" /><path d="M 185.9800911702706 98.14961562048488 a86.0,86.0 0 0,1 -9.607161424134198,41.387399972396054" fill="none" id="id100" stroke="none" /><text fill="#e1ed5e" style="font-size:6.75px; font-family:Arial;" text-anchor="middle"><textPath startOffset="21.466115282336823" xlink:href="#id100">April</textPath></text><path d="M 120.99513854157772 99.54816195383933 l 6.058703166977725 -0.13038983266594562 a27.060106069534474,27.060106069534474 0 0,0 0.006013777258113314,0.46577367605593883 l -6.0600499513535535 0.02607989854954406" fill="#ff0000" stroke="none" /><path d="M 120.99980553446 99.90962569577887 l 19.45532955988807 -0.0837275311660586 a40.45550972304066,40.45550972304066 0 0,0 -0.00299698791098436,0.6963944437770417 l -19.453888274687586 -0.2511763908146678" fill="#ffc712" stroke="none" /><path d="M 120.92983693683757 101.71520430193887 l 28.524295545313223 2.3375716961743995 a49.61991750147319,49.61991750147319 0 0,0 -0.07708904005637038,0.8506711332959457 l -28.479831908979776 -2.828224218018916" fill="#beff1f" stroke="none" /><path d="M 120.89721153311464 102.0752229133903 l 28.23765247852333 2.8041742962176923 a49.376546847377725,49.376546847377725 0 0,0 -0.09127066230669979,0.8450529785512124 l -28.185199514715578 -3.289823596653696" fill="#c1ff1e" stroke="none" /><path d="M 120.8583938346157 102.4346265915055 l 13.821897758073064 1.6133150085136962 a34.915733647613436,34.915733647613436 0 0,0 -0.07481691988960223,0.5963644645442455 l -13.792079328936614 -1.8509972273453366" fill="#ff780b" stroke="none" /><path d="M 120.81339534386255 102.79330883721812 l 46.51870076433627 6.243147540040484 a67.93576900412492,67.93576900412492 0 0,0 -0.16552371861966722,1.1576725025056696 l -46.40434299470001 -7.042965514526563" fill="#37ff7a" stroke="none" /><path d="M 120.5718875245553 104.21870165774334 l 61.715662573665874 12.656104973230008 a84.0,84.0 0 0,0 -0.30266384510222766,1.4139447223353239 l -61.488664689839204 -13.716563514981502" fill="#4dd2ff" stroke="none" /><path d="M 120.49622156327973 104.57218783832717 l 21.476258085541104 4.790809161011721 a43.004124926340594,43.004124926340594 0 0,0 -0.16738727781575652,0.7211000118982076 l -21.390610241794796 -5.159777830258493" fill="#ffea16" stroke="none" /><line stroke="#e1ed5e" stroke-width="0.3" x1="174.80103733775053" x2="179.2010983576182" y1="140.37084112569926" y2="142.7455964860345" /><path d="M 175.68104954172406 140.8457921977663 a86.0,86.0 0 0,1 -30.038265399797805,32.042727171017184" fill="none" id="id101" stroke="none" /><text fill="#e1ed5e" style="font-size:6.75px; font-family:Arial;" text-anchor="middle"><textPath startOffset="22.206326154141568" xlink:href="#id101">May</textPath></text><line stroke="#e1ed5e" stroke-width="0.3" x1="143.8653032363475" x2="146.44561519142675" y1="172.8068346515853" y2="177.08958963109032" /><path d="M 144.38136562736335 173.6633856474863 a86.0,86.0 0 0,1 -40.68145358897372,12.25698825130547" fill="none" id="id102" stroke="none" /><text fill="#e1ed5e" style="font-size:6.75px; font-family:Arial;" text-anchor="middle"><textPath startOffset="21.466115282336833" xlink:href="#id102">June</textPath></text><line stroke="#e1ed5e" stroke-width="0.3" x1="102.19456741930631" x2="102.32365962044197" y1="184.97166512339345" y2="189.96999836594603" /><path d="M 102.22038585953345 185.97133177190398 a86.0,86.0 0 0,1 -42.740103519485714,-10.115201625700543" fill="none" id="id103" stroke="none" /><text fill="#e1ed5e" style="font-size:6.75px; font-family:Arial;" text-anchor="middle"><textPath startOffset="22.20632615414155" xlink:href="#id103">July</textPath></text><line stroke="#e1ed5e" stroke-width="0.3" x1="58.666819895761336" x2="56.23545636021788" y1="174.27360380694188" y2="178.64263932499728" /><path d="M 58.180547188652646 175.14741091055294 a86.0,86.0 0 0,1 -31.652253787137756,-30.449443065178592" fill="none" id="id104" stroke="none" /><text fill="#e1ed5e" style="font-size:6.75px; font-family:Arial;" text-anchor="middle"><textPath startOffset="22.20632615414155" xlink:href="#id104">August</textPath></text><line stroke="#e1ed5e" stroke-width="0.3" x1="26.63291911575756" x2="22.317208475507996" y1="142.92168965132927" y2="145.44649492493687" /><path d="M 25.769776987707644 143.4266507060508 a86.0,86.0 0 0,1 -11.730757126820373,-40.83630448921669" fill="none" id="id105" stroke="none" /><text fill="#e1ed5e" style="font-size:6.75px; font-family:Arial;" text-anchor="middle"><textPath startOffset="21.46611528233685" xlink:href="#id105">September</textPath></text><line stroke="#e1ed5e" stroke-width="0.3" x1="15.007084014347285" x2="10.007500721073583" y1="101.09737516637583" y2="101.16192664675087" /><path d="M 14.007167355692545 101.11028546245083 a86.0,86.0 0 0,1 10.666146001902534,-42.60595125391555" fill="none" id="id106" stroke="none" /><text fill="#e1ed5e" style="font-size:6.75px; font-family:Arial;" text-anchor="middle"><textPath startOffset="22.20632615414155" xlink:href="#id106">October</textPath></text><line stroke="#e1ed5e" stroke-width="0.3" x1="26.266209847984243" x2="21.928928074336255" y1="57.711370442889674" y2="55.22380399835377" /><path d="M 25.398753493254645 57.213857153982495 a86.0,86.0 0 0,1 29.58750427330803,-30.492523968695096" fill="none" id="id107" stroke="none" /><text fill="#e1ed5e" style="font-size:6.75px; font-family:Arial;" text-anchor="middle"><textPath startOffset="21.46611528233685" xlink:href="#id107">November</textPath></text><line stroke="#e1ed5e" stroke-width="0.3" x1="56.762969772571076" x2="54.21961505331055" y1="26.818313649435495" y2="22.513508569990535" /><path d="M 56.25429882871897 25.957352633546506 a86.0,86.0 0 0,1 42.265352541879196,-11.944610805530505" fill="none" id="id108" stroke="none" /><text fill="#e1ed5e" style="font-size:6.75px; font-family:Arial;" text-anchor="middle"><textPath startOffset="22.20632615414155" xlink:href="#id108">December</textPath></text></svg>