<?xml version="1.0" encoding="utf-8" ?>
<svg baseProfile="full" height="200mm" version="1.1" viewBox="0,0,200,200" width="200mm" xmlns="http://www.w3.org/2000/svg" xmlns:ev="http://www.w3.org/2001/xml-events" xmlns:xlink="http://www.w3.org/1999/xlink"><defs /><rect fill="#1a1a1a" height="200" width="200" x="0" y="0" /><text alignment-baseline="middle" fill="#e1ed5e" style="dominant-baseline: central; font-size:9.0px; font-family:Arial;" text-anchor="middle" x="100.0" y="100.0">2020</text><line stroke="#e1ed5e" stroke-width="0.3" x1="100.0" x2="100.0" y1="15.0" y2="10.0" /><path d="M 100.0 14.0 a86.0,86.0 0 0,1 42.35913384403234,11.155469271406648" fill="none" id="id25" stroke="none" /><text fill="#e1ed5e" style="font-size:6.75px; font-family:Arial;" text-anchor="middle"><textPath startOffset="22.145653131862478" xlink:href="#id25">January</textPath></text><path d="M 100.0 79.0 l 0.0 -47.52394842631303 a68.52394842631303,68.52394842631303 0 0,0 1.1763046947806506,0.010097161061234951 l -0.8158117699317958 47.51694566344623" fill="#39ff8b" stroke="none" /><path d="M 100.72087961077811 79.0123766808444 l 0.5390490266587779 -15.693824257091034 a36.70307911416104,36.70307911416104 0 0,0 0.6295001715976326,0.027033445940933338 l -0.8083749588572468 15.68225824272427" fill="#ffb310" stroke="none" /><path d="M 101.08105385017728 79.02784411241856 l 1.1432828043787906 -22.179380974492044 a43.20882788402954,43.20882788402954 0 0,0 0.7404257500859226,0.044542174485835674 l -1.5238529065971758 22.15648682218152" fill="#f7ff19" stroke="none" /><path d="M 103.94208987418118 79.37332000966035 l 3.6255697737270913 -18.97051307610038 a40.313858303163016,40.313858303163016 0 0,0 0.6786233615226257,0.13574367826022202 l -3.9506896207806736 18.9054800011773" fill="#ffe315" stroke="none" /><path d="M 104.64783097203109 79.52079915486377 l 3.4559864673065626 -15.227714047250558 a36.6149645394102,36.6149645394102 0 0,0 0.6117625594682544,0.1443742982914189 l -3.7168811805147017 15.166143605312913" fill="#ffb210" stroke="none" /><path d="M 105.3480935250658 79.69241777938227 l 3.9457403810572567 -14.982618915316342 a36.49347400411867,36.49347400411867 0 0,0 0.6044337620542267,0.16474110964543082 l -4.202355544046176 14.91267731152677" fill="#ffb010" stroke="none" /><path d="M 106.04205211174951 79.88797359093562 l 8.562603960417135 -28.502123748218402 a50.76053166093823,50.76053166093823 0 0,0 0.8323745027552508,0.2578717486827445 l -9.050619096044016 28.350935411729008" fill="#9cff22" stroke="none" /><line stroke="#e1ed5e" stroke-width="0.3" x1="143.13028292997686" x2="145.6673583964461" y1="26.7553504044142" y2="22.446841604673864" /><path d="M 143.63769802327073 25.89364864446614 a86.0,86.0 0 0,1 29.32050498858742,28.57503671076993" fill="none" id="id26" stroke="none" /><text fill="#e1ed5e" style="font-size:6.75px; font-family:Arial;" text-anchor="middle"><textPath startOffset="20.669276256404974" xlink:href="#id26">February</textPath></text><path d="M 117.21940702142032 87.97951657250589 l 12.466513749597302 -8.702594795468247 a36.20358909083673,36.20358909083673 0 0,0 0.35136490575396484,0.5126518981624647 l -12.614068392166592 8.487308162235733" fill="#ffad10" stroke="none" /><path d="M 117.81537515405839 88.88188828441811 l 15.383724821169466 -9.600582063778171 a39.13367489883958,39.13367489883958 0 0,0 0.3507719659309096,0.5729596448114925 l -15.546264751555777 9.335085302842124" fill="#ffd313" stroke="none" /><line stroke="#e1ed5e" stroke-width="0.3" x1="172.87174338648825" x2="177.1583165268699" y1="56.24261187166439" y2="53.66864786411523" /><path d="M 173.72905801456457 55.72781907015455 a86.0,86.0 0 0,1 12.242430191666344,42.057860355516425" fill="none" id="id27" stroke="none" /><text fill="#e1ed5e" style="font-size:6.75px; font-family:Arial;" text-anchor="middle"><textPath startOffset="22.145653131862474" xlink:href="#id27">March</textPath></text><path d="M 119.0197475246899 91.09779779509293 l 19.199467471071102 -8.986320214405554 a42.19843159690243,42.19843159690243 0 0,0 0.301448585632706,0.6587195624154578 l -19.35090052155886 8.655411669775413" fill="#fffb17" stroke="none" /><path d="M 119.16976305983485 91.42560881287824 l 13.585731849201487 -6.076725052615034 a35.88283229911185,35.88283229911185 0 0,0 0.24667929529804042,0.5644505024889956 l -13.688045026516498 5.842612480350189" fill="#ffa80f" stroke="none" /><path d="M 119.94978838288452 93.4421083053983 l 28.2059942820921 -9.271870562757798 a50.69083523873902,50.69083523873902 0 0,0 0.2646430537565419,0.8289905966205158 l -28.3610020516259 8.786310932445895" fill="#9dff22" stroke="none" /><path d="M 120.592083275326 95.88100663000786 l 17.899865247412773 -3.5804743644461894 a39.25445076001992,39.25445076001992 0 0,0 0.12649972511228819,0.661900015483291 l -17.958691264807218 3.272671783929584" fill="#ffd513" stroke="none" /><path d="M 120.65975698304385 96.23510406497455 l 20.518526631091802 -3.7391590602692353 a41.85644374261386,41.85644374261386 0 0,0 0.12274936795309055,0.7079857349782718 l -20.579690816537127 3.3863802923703705" fill="#fff617" stroke="none" /><path d="M 120.96210409425399 98.7389718711861 l 19.347400327762458 -1.1638915598849484 a40.38237712474593,40.38237712474593 0 0,0 0.0356872730190735,0.6923235626384197 l -19.364529190238105 0.831596203869798" fill="#ffe415" stroke="none" /><line stroke="#e1ed5e" stroke-width="0.3" x1="184.99686870605535" x2="189.99668451229388" y1="99.2704041080226" y2="99.22748670261217" /><path d="M 185.99683186730306 99.26182062694052 a86.0,86.0 0 0,1 -10.086455211305974,41.156179273409016" fill="none" id="id28" stroke="none" /><text fill="#e1ed5e" style="font-size:6.75px; font-family:Arial;" text-anchor="middle"><textPath startOffset="21.40746469413373" xlink:href="#id28">April</textPath></text><path d="M 120.99922638620191 100.18025310272382 l 15.14600502840729 0.13001023704544523 a36.14656300889002,36.14656300889002 0 0,0 -0.010652165602550471,0.620435243508224 l -15.14154143120607 -0.3899923965227402" fill="#ffac0f" stroke="none" /><path d="M 120.98066250479742 100.90099992219065 l 18.79693917299595 0.8072214463398872 a39.81426397010366,39.81426397010366 0 0,0 -0.03518521220197955,0.6825837169134223 l -18.7803123713374 -1.1297769566300402" fill="#ffdc14" stroke="none" /><path d="M 120.9064616781168 101.97986365728391 l 16.81983729861055 1.5928560796973232 a37.895091513287504,37.895091513287504 0 0,0 -0.06688954186123278,0.6470956402066363 l -16.790015364267653 -1.881356242186891" fill="#ffc312" stroke="none" /><path d="M 120.86939407059847 102.33845913500097 l 15.59918928417502 1.7479216960870019 a36.69681294337078,36.69681294337078 0 0,0 -0.07552189030151699,0.6254295899614907 l -15.566885307613841 -2.015444962971901" fill="#ffb310" stroke="none" /><path d="M 120.7213421655516 103.40968896794604 l 19.34953649517579 3.1839588669189767 a40.60974647068064,40.60974647068064 0 0,0 -0.11909326895195049,0.686898327510206 l -19.292028408731607 -3.5156502273497705" fill="#ffe615" stroke="none" /><path d="M 120.65975698304385 103.76489593502545 l 18.163223587297786 3.309944386417503 a39.4623515003736,39.4623515003736 0 0,0 -0.12716969720452276,0.665405592573144 l -18.1037275978111 -3.6212525440239616" fill="#ffd814" stroke="none" /><path d="M 120.16314734710363 105.8691983318838 l 17.79289778907722 5.179253229929499 a39.53137544145831,39.53137544145831 0 0,0 -0.19525427314791402,0.6499379722987009 l -17.701367195925673 -5.483928805818922" fill="#ffd914" stroke="none" /><path d="M 120.05942366710727 106.21446072829308 l 14.6971611672477 4.553218098734442 a36.38630369616747,36.38630369616747 0 0,0 -0.1899629879783068,0.5950563542273132 l -14.616833463492139 -4.804843486653139" fill="#ffaf10" stroke="none" /><path d="M 119.83427380445688 106.89939002012753 l 14.7738149613865 5.139099747674978 a36.64212117105096,36.64212117105096 0 0,0 -0.21175626640704628,0.5923199648393512 l -14.683418524935512 -5.39195466889525" fill="#ffb210" stroke="none" /><path d="M 119.31412917781788 108.2440532568976 l 14.204628961630247 6.0631114442706835 a36.44450725414155,36.44450725414155 0 0,0 -0.2505405730516643,0.5732858616367777 l -14.098454506561618 -6.306059375683306" fill="#ffb010" stroke="none" /><path d="M 119.0197475246899 108.90220220490707 l 14.234915133149887 6.662659045315485 a36.71699190055476,36.71699190055476 0 0,0 -0.272091691668773,0.5685669870398696 l -14.118444183521202 -6.906038534420459" fill="#ffb310" stroke="none" /><path d="M 118.70294669586154 109.54985784667822 l 13.746556852651668 7.019089877059427 a36.43487764789286,36.43487764789286 0 0,0 -0.2892095291327962,0.5545974058179394 l -13.624039254543922 -7.254033525981869" fill="#ffb010" stroke="none" /><line stroke="#e1ed5e" stroke-width="0.3" x1="174.33088141563837" x2="178.70328620479359" y1="141.23008692659167" y2="143.65538615756765" /><path d="M 175.20536237346943 141.71514677278685 a86.0,86.0 0 0,1 -30.301960400862466,31.631185727798858" fill="none" id="id29" stroke="none" /><text fill="#e1ed5e" style="font-size:6.75px; font-family:Arial;" text-anchor="middle"><textPath startOffset="22.145653131862474" xlink:href="#id29">May</textPath></text><path d="M 117.81537515405839 111.11811171558189 l 13.125371474368258 8.191202548282854 a36.471624850905464,36.471624850905464 0 0,0 -0.3360292460146546,0.5282937877092839 l -12.982824536727714 -8.41531001067081" fill="#ffb010" stroke="none" /><path d="M 117.21940702142032 112.02048342749411 l 13.010334660109146 9.082224026265834 a36.86680816142042,36.86680816142042 0 0,0 -0.3667104566815785,0.5158241817312972 l -12.852509104897607 -9.304225434706634" fill="#ffb510" stroke="none" /><path d="M 116.79662413953412 112.60449989151573 l 11.910086300040758 8.937550797690864 a35.890600052909996,35.890600052909996 0 0,0 -0.3740279453879452,0.48961458697117427 l -11.754906377298507 -9.140686297902914" fill="#ffa80f" stroke="none" /><path d="M 115.89218393027572 113.72728997021213 l 11.556952887616161 9.982620649019568 a36.27140710834504,36.27140710834504 0 0,0 -0.41105683744952537,0.4677072243546677 l -11.383884986208049 -10.17954015118553" fill="#ffad10" stroke="none" /><path d="M 115.41159269507618 114.26474011684316 l 11.141187140941085 10.312116489388822 a36.18110000626423,36.18110000626423 0 0,0 -0.4258070378834844,0.45219231834505974 l -10.962524269321342 -10.501850267678378" fill="#ffac0f" stroke="none" /><path d="M 115.16444852881244 114.52719865689866 l 11.437688624149974 10.95704697095165 a36.83911611759477,36.83911611759477 0 0,0 -0.44139084995832756,0.45290589646879265 l -11.24791097304084 -11.15177555948818" fill="#ffb510" stroke="none" /><path d="M 114.91283532996324 114.78537596483092 l 21.51992187338237 21.335992022419187 a51.30398642121555,51.30398642121555 0 0,0 -0.625439764446369,0.6200941575553242 l -21.15049018880604 -21.702266190203176" fill="#96ff23" stroke="none" /><path d="M 114.39649973595853 115.28858382429668 l 10.524080162551186 11.176208431894153 a36.35134841572379,36.35134841572379 0 0,0 -0.4579754553996999,0.42389524434140924 l -10.330674935837518 -11.355221422367942" fill="#ffaf10" stroke="none" /><path d="M 113.03279911837588 116.46651593811092 l 18.422458592816923 23.276174617783244 a50.6844620204172,50.6844620204172 0 0,0 -0.68687113583448,0.5341151497278178 l -18.020177512347214 -23.588990819131855" fill="#9dff22" stroke="none" /><path d="M 112.45986205192187 116.90419585922612 l 8.84523469699042 12.0002596429778 a35.907863976563675,35.907863976563675 0 0,0 -0.4993227694316724,0.3614711783945731 l -8.63793091718478 -12.15033159274545" fill="#ffa90f" stroke="none" /><path d="M 111.27062007382361 117.71928675628689 l 9.801457613593096 15.409519347406013 a39.26258081074913,39.26258081074913 0 0,0 -0.571805028962842,0.35684862858990346 l -9.535488455840538 -15.575503772837465" fill="#ffd513" stroke="none" /><path d="M 110.96478420261333 117.91015095944535 l 15.545406734039924 25.392253617383105 a50.772910746116835,50.772910746116835 0 0,0 -0.7472496936122685,0.4487019707865928 l -15.107224283870218 -25.65536958870562" fill="#9cff22" stroke="none" /><line stroke="#e1ed5e" stroke-width="0.3" x1="143.1302829299769" x2="145.66735839644613" y1="173.24464959558577" y2="177.55315839532614" /><path d="M 143.63769802327073 174.10635135553383 a86.0,86.0 0 0,1 -40.68552437913181,11.842963189579606" fill="none" id="id30" stroke="none" /><text fill="#e1ed5e" style="font-size:6.75px; font-family:Arial;" text-anchor="middle"><textPath startOffset="21.407464694133747" xlink:href="#id30">June</textPath></text><path d="M 110.34350942703117 118.27599006163325 l 7.366468456367915 13.01584392102757 a35.95583666984946,35.95583666984946 0 0,0 -0.5397755466609648,0.2994043967437447 l -7.141948721550856 -13.140381233204458" fill="#ffa90f" stroke="none" /><path d="M 109.71004243097381 118.62028667847754 l 6.940684540173974 13.309677769343732 a36.010683668973,36.010683668973 0 0,0 -0.5505738215995472,0.2811269163025228 l -6.711183496860845 -13.426862637319092" fill="#ffaa0f" stroke="none" /><path d="M 108.07796709384702 119.3841803445677 l 5.960415077528579 14.302826373147688 a36.49507631981331,36.49507631981331 0 0,0 -0.5803508535960018,0.2360236398258089 l -5.714009762742136 -14.403037269552788" fill="#ffb010" stroke="none" /><path d="M 107.407793817531 119.65005319985036 l 5.263544458411136 13.962177022636016 a35.9213701608497,35.9213701608497 0 0,0 -0.5788657785656797,0.21256753201582015 l -5.0230895281913295 -14.050475403660558" fill="#ffa90f" stroke="none" /><path d="M 106.72888874123015 119.89276391827305 l 4.7965341123096685 14.18010081478566 a35.96936867767092,35.96936867767092 0 0,0 -0.5866043292032417,0.19282849445158393 l -4.5524070454586925 -14.260350230639265" fill="#ffa90f" stroke="none" /><path d="M 106.38641147887787 120.00534299687104 l 5.992979442989154 18.77292274804389 a40.70630434932218,40.70630434932218 0 0,0 -0.6675046287556016,0.20679464027461542 l -5.669834181361928 -18.87303397612515" fill="#ffe815" stroke="none" /><path d="M 105.69591212413111 120.21278271476187 l 4.173287322312551 14.809524447331926 a36.38630369616747,36.38630369616747 0 0,0 -0.6026587227031283,0.16425731477704064 l -3.918447198674728 -14.878982256253108" fill="#ffaf10" stroke="none" /><path d="M 104.9986988182912 120.39639698878246 l 0.7463673814740162 3.0454336149074295 a24.13555898859143,24.13555898859143 0 0,0 -0.40325674288624647,0.09516749330997068 l -0.6939784848478906 -3.0577972518636254" fill="#ff0000" stroke="none" /><path d="M 104.29559338865022 120.5559693870025 l 3.99753702447862 19.129661786823014 a40.542882651756216,40.542882651756216 0 0,0 -0.6824786430524642,0.1365148425396423 l -3.668561895895197 -19.195466026025517" fill="#ffe615" stroke="none" /><path d="M 103.94208987418118 120.62667999033965 l 3.261088549995695 17.06339329843257 a38.37222177465814,38.37222177465814 0 0,0 -0.6480616314260503,0.11809841731461175 l -2.9676921850185876 -17.116859889678544" fill="#ffc912" stroke="none" /><path d="M 103.2317021107853 120.74984581791261 l 2.711338400317175 17.408737512968376 a38.618612252855414,38.618612252855414 0 0,0 -0.655918545088807,0.09639743833244331 l -2.4120947496206826 -17.452716024599702" fill="#ffcd13" stroke="none" /><path d="M 102.875027216393 120.80226474461374 l 2.1796767684265532 15.771055291566817 a36.92096654806096,36.92096654806096 0 0,0 -0.6285744941981226,0.08138155277373169 l -1.9086244523376554 -15.806148440540943" fill="#ffb610" stroke="none" /><path d="M 102.51750503828377 120.84855314841334 l 3.6266762851557663 30.034082209704643 a51.25225404918794,51.25225404918794 0 0,0 -0.8743734565647191,0.09797536957657968 l -3.110566926990248 -30.091913339788192" fill="#97ff23" stroke="none" /><path d="M 101.80034050326958 120.92268563240118 l 1.2975364993385579 15.079340948517158 a36.1350627487547,36.1350627487547 0 0,0 -0.6184791394116587,0.04787419692591478 l -1.0384883651516634 -15.099392912438127" fill="#ffac0f" stroke="none" /><path d="M 101.08105385017728 120.97215588758144 l 0.7768234383516056 15.070167173971235 a36.09017539016073,36.09017539016073 0 0,0 -0.618988165282562,0.026582015159384374 l -0.5180095124682141 -15.08128175755645" fill="#ffab0f" stroke="none" /><line stroke="#e1ed5e" stroke-width="0.3" x1="101.45913802915013" x2="101.54496967792366" y1="184.9874750549273" y2="189.98673829345242" /><path d="M 101.47630435890484 185.9873277026323 a86.0,86.0 0 0,1 -42.54439059252881,-10.42667462771756" fill="none" id="id31" stroke="none" /><text fill="#e1ed5e" style="font-size:6.75px; font-family:Arial;" text-anchor="middle"><textPath startOffset="22.145653131862474" xlink:href="#id31">July</textPath></text><path d="M 100.36049292484886 120.99690560180557 l 0.25596693273907334 14.908790584889923 a35.910987753155666,35.910987753155666 0 0,0 -0.6164598575879238,0.005291566460178052 l -1.826069342402747e-15 -14.910987753155666" fill="#ffa90f" stroke="none" /><path d="M 99.63950707515114 120.99690560180557 l -0.25556569360333903 14.88542041677853 a35.887614140888864,35.887614140888864 0 0,0 -0.6158770631496593,-0.015862808480388815 l 0.5110560708237423 -14.878839890948095" fill="#ffa80f" stroke="none" /><path d="M 99.27912038922189 120.98762331915562 l -0.5116980381964975 14.897530070558018 a35.906315342346495,35.906315342346495 0 0,0 -0.6158347532407659,-0.026446594078017402 l 0.7673585520381021 -14.886550908054172" fill="#ffa90f" stroke="none" /><path d="M 98.91894614982273 120.97215588758144 l -0.7660883697668032 14.861909711322895 a35.88164143022556,35.88164143022556 0 0,0 -0.6148672058773844,-0.03698888425561821 l 1.021099927776634 -14.846568849242585" fill="#ffa80f" stroke="none" /><path d="M 97.84075906011543 120.88869738790638 l -1.6694643048661166 16.150552733649096 a37.23660877977918,37.23660877977918 0 0,0 -0.6352638129491119,-0.0711826352744613 l 1.9464640194160279 -16.119514337867663" fill="#ffba11" stroke="none" /><path d="M 97.12497278360702 120.80226474461374 l -2.0473842087926415 14.813852231520778 a35.95466482525592,35.95466482525592 0 0,0 -0.6106726799742496,-0.08974785428754004 l 2.301381994374576 -14.776523303934356" fill="#ffa90f" stroke="none" /><path d="M 96.76829788921471 120.74984581791261 l -2.411997203844617 15.486752298729215 a36.673456136843235,36.673456136843235 0 0,0 -0.6212177804129441,-0.1022211493658582 l 2.6774924873106247 -15.443065150867687" fill="#ffb310" stroke="none" /><path d="M 96.41257539226777 120.69131181640829 l -2.549295897836114 14.703661289696656 a35.92302130591684,35.92302130591684 0 0,0 -0.6066975201482879,-0.11056049832875488 l 2.801328151535459 -14.657732617436535" fill="#ffa90f" stroke="none" /><path d="M 93.95794788825049 120.11202640906438 l -8.56956847480949 28.52530635154499 a50.78473780804427,50.78473780804427 0 0,0 -0.8327714367313401,-0.25799471984318295 l 9.057980544412462 -28.37399504389516" fill="#9cff22" stroke="none" /><path d="M 93.61358852112213 120.00534299687104 l -4.5594703844185105 14.282476039328815 a35.99259457200091,35.99259457200091 0 0,0 -0.5869831073320741,-0.19295300634602205 l 4.803976229398328 -14.202102111580771" fill="#ffaa0f" stroke="none" /><path d="M 92.93061703081489 119.77432235084164 l -5.2096609104726275 14.572348765275594 a36.47559095281778,36.47559095281778 0 0,0 -0.5877969370600197,-0.21584717712437598 l 5.459046999186766 -14.480770739142498" fill="#ffb010" stroke="none" /><path d="M 92.25597844496254 119.51999308798841 l -5.515642418296159 13.90302197840872 a35.95714984275493,35.95714984275493 0 0,0 -0.5717966561092785,-0.23254472217781197 l 5.753493535595879 -13.806289999651616" fill="#ffa90f" stroke="none" /><path d="M 91.92203290615298 119.3841803445677 l -6.876229181142378 16.50044683140265 a38.875885247660875,38.875885247660875 0 0,0 -0.6138038080868392,-0.2619963466417151 l 7.158468064399648 -16.37997583510153" fill="#ffd013" stroke="none" /><path d="M 91.59046798132341 119.24265499422711 l -11.946962043252881 27.33698716134025 a50.83355106456834,50.83355106456834 0 0,0 -0.7966019209811,-0.35630990688746716 l 12.414477367089615 -27.12787350354293" fill="#9cff22" stroke="none" /><path d="M 90.93487009805054 118.94263497670748 l -6.4989440643849905 13.580293550918704 a36.05525313241624,36.05525313241624 0 0,0 -0.5560059136759364,-0.2719703541905465 l 6.731110227322996 -13.466729446630936" fill="#ffab0f" stroke="none" /><path d="M 90.6110303473126 118.78422872680471 l -8.248306615950366 16.502138553454625 a39.448716455844405,39.448716455844405 0 0,0 -0.6031385234433851,-0.3079668276023154 l 8.530372361107332 -16.358113774179476" fill="#ffd714" stroke="none" /><path d="M 90.28995756902619 118.62028667847754 l -8.257657491529926 15.835147052961384 a38.85891344500924,38.85891344500924 0 0,0 -0.5888257554563754,-0.31351654903794907 l 8.528272062772864 -15.691060036200861" fill="#ffd013" stroke="none" /><line stroke="#e1ed5e" stroke-width="0.3" x1="58.13341422392154" x2="55.67067388415222" y1="173.97424548756322" y2="178.32567169271397" /><path d="M 57.64086615596768 174.84453072859336 a86.0,86.0 0 0,1 -31.369924170532247,-30.572349798747897" fill="none" id="id32" stroke="none" /><text fill="#e1ed5e" style="font-size:6.75px; font-family:Arial;" text-anchor="middle"><textPath startOffset="22.145653131862474" xlink:href="#id32">August</textPath></text><path d="M 89.34428304082925 118.09573695890944 l -15.112568563484313 25.66444534386152 a50.783443108446505,50.783443108446505 0 0,0 -0.7474047035262038,-0.4487950497861121 l 15.550906023567943 -25.40123629353949" fill="#9cff22" stroke="none" /><path d="M 88.72937992617639 117.7192867562869 l -8.19403763475311 12.882388155307593 a36.26755308960017,36.26755308960017 0 0,0 -0.5224502805945587,-0.33864595981617823 l 8.41397354760468 -12.73982835378752" fill="#ffad10" stroke="none" /><path d="M 87.54013794807813 116.9041958592261 l -17.63095415948365 23.919775440128415 a50.71542026759818,50.71542026759818 0 0,0 -0.6963638023950608,-0.5225643795341518 l 18.038970950789476 -23.61359203333025" fill="#9dff22" stroke="none" /><path d="M 87.2517909369889 116.68781488649013 l -9.090845724277834 11.900208873147859 a35.97526117325396,35.97526117325396 0 0,0 -0.4875334080504031,-0.3791089269194482 l 9.293789076963465 -11.742398894607618" fill="#ffa90f" stroke="none" /><path d="M 85.60350026404147 115.28858382429668 l -20.284699368063425 21.541647784335368 a50.58904556955282,50.58904556955282 0 0,0 -0.6271295464556198,-0.6007759192602186 l 20.65150140038436 -21.190259734769565" fill="#9eff22" stroke="none" /><path d="M 85.34317274990678 115.03919595460226 l -14.686496949424479 15.069639679873998 a42.04251013369573,42.04251013369573 0 0,0 -0.5125343948687636,-0.508153785337911 l 14.943023264423205 -14.815305884307428" fill="#fff917" stroke="none" /><path d="M 84.83555147118756 114.52719865689866 l -10.87575910147834 10.41873119959229 a36.060946047401764,36.060946047401764 0 0,0 -0.42439297359843203,-0.45069063107721785 l 11.053007908813026 -10.230499108570582" fill="#ffab0f" stroke="none" /><path d="M 83.64595745247003 113.17365903436017 l -11.722743629363908 9.443012458334504 a36.053013070081775,36.053013070081775 0 0,0 -0.38410806191884883,-0.48530798841407 l 11.88311812192432 -9.240384526005753" fill="#ffab0f" stroke="none" /><path d="M 83.20337586046588 112.60449989151573 l -11.934521375402698 8.95588733378229 a35.92115003595051,35.92115003595051 0 0,0 -0.36587911651981103,-0.4963852906780378 l 12.086502511506339 -8.749695733835372" fill="#ffa90f" stroke="none" /><path d="M 82.37810715431573 111.42229804090323 l -24.9223099769162 16.154340224230253 a50.699903075021645,50.699903075021645 0 0,0 -0.46712068006184904,-0.7343912957399207 l 25.195948348603938 -15.72413525381166" fill="#9dff22" stroke="none" /><path d="M 81.99639281039703 110.81064883170644 l -12.813246492078163 7.693986364018546 a35.9457924459179,35.9457924459179 0 0,0 -0.3131157356465286,-0.5317389727660293 l 12.94343593785446 -7.4728962229589575" fill="#ffa90f" stroke="none" /><line stroke="#e1ed5e" stroke-width="0.3" x1="26.387840678322732" x2="22.057713659400548" y1="142.50000000000003" y2="145.00000000000006" /><path d="M 25.521815274538298 143.00000000000003 a86.0,86.0 0 0,1 -11.493303480769221,-40.785679425670985" fill="none" id="id33" stroke="none" /><text fill="#e1ed5e" style="font-size:6.75px; font-family:Arial;" text-anchor="middle"><textPath startOffset="21.40746469413373" xlink:href="#id33">September</textPath></text><path d="M 81.63589988554817 110.18625677009913 l -13.06983363539944 7.249616399547217 a35.94581845191499,35.94581845191499 0 0,0 -0.2946780861133456,-0.5421744881640036 l 13.192357071128116 -7.024187077908627" fill="#ffa90f" stroke="none" /><path d="M 81.1358732173502 109.22738970284198 l -34.65813521419459 16.95303067456598 a59.58227035282099,59.58227035282099 0 0,0 -0.4415351011780543,-0.9226385436816358 l 34.94404957333255 -16.35557962881924" fill="#3dff2e" stroke="none" /><path d="M 80.9802524753101 108.90220220490708 l -13.523441638845199 6.329653525578161 a35.931442914638765,35.931442914638765 0 0,0 -0.25667974463664467,-0.5608915653496448 l 13.6301058483369 -6.096572978013827" fill="#ffa90f" stroke="none" /><path d="M 80.68587082218212 108.24405325689762 l -11.513380392507248 4.914377461644083 a33.51834789012055,33.51834789012055 0 0,0 -0.2213394564854638,-0.5311341197652162 l 11.596045693529197 -4.716010832437585" fill="#ff880c" stroke="none" /><path d="M 80.41425534168474 107.57618678355246 l -11.430306336759568 4.421488042005488 a33.25567050217015,33.25567050217015 0 0,0 -0.20138575605016243,-0.5341996439901857 l 11.504522776624167 -4.224620117821157" fill="#ff840c" stroke="none" /><path d="M 80.05021161711548 106.5578916946017 l -28.724723982373156 9.442387318521229 a51.23687229421215,51.23687229421215 0 0,0 -0.2674937646028784,-0.8379204077443828 l 28.88258246275329 -8.947897877085456" fill="#97ff23" stroke="none" /><path d="M 79.56144815229197 104.8234425847677 l -14.601386079292258 3.4458873571999415 a36.00248696433562,36.00248696433562 0 0,0 -0.13679082936503262,-0.6027256337841989 l 14.658387770214956 -3.1947273894767165" fill="#ffaa0f" stroke="none" /><path d="M 79.407916724674 104.11899336999214 l -29.283588702109945 5.8575378751549865 a50.86367889649928,50.86367889649928 0 0,0 -0.16391113043313885,-0.8576522966771203 l 29.37982612482524 -5.353983013444552" fill="#9bff22" stroke="none" /><path d="M 79.22317932658666 103.0534771498775 l -15.250864003020062 2.241351816098652 a36.4146849076503,36.4146849076503 0 0,0 -0.0855840180050803,-0.6192433206538955 l 15.287092537580357 -1.9792201872446709" fill="#ffaf10" stroke="none" /><path d="M 79.0935383218832 101.97986365728391 l -14.811404410354541 1.4026553970196787 a35.87767262611523,35.87767262611523 0 0,0 -0.052802327948078764,-0.6136430893546166 l 14.833300361000362 -1.1481912602894" fill="#ffa80f" stroke="none" /><path d="M 79.03789590574601 101.26102812881392 l -14.891781067640261 0.8958525694746697 a35.918702865623516,35.918702865623516 0 0,0 -0.03174257304607718,-0.6157974369973579 l 14.904965230142912 -0.640083339100581" fill="#ffa90f" stroke="none" /><line stroke="#e1ed5e" stroke-width="0.3" x1="15.003131293944662" x2="10.003315487706104" y1="100.72959589197737" y2="100.7725132973878" /><path d="M 14.003168132696942 100.73817937305945 a86.0,86.0 0 0,1 10.791469493833604,-42.45332614584628" fill="none" id="id34" stroke="none" /><text fill="#e1ed5e" style="font-size:6.75px; font-family:Arial;" text-anchor="middle"><textPath startOffset="22.145653131862435" xlink:href="#id34">October</textPath></text><path d="M 79.00077361379809 99.81974689727619 l -16.601392241708908 -0.14250298587520105 a37.60200383881585,37.60200383881585 0 0,0 0.011081074894463545,-0.6454170594973668 l 16.59649973521578 0.42746696134162027" fill="#ffbf11" stroke="none" /><path d="M 79.01933749520258 99.09900007780938 l -29.735552924289777 -1.2769725867786137 a50.762959642828235,50.762959642828235 0 0,0 0.04486094502148371,-0.8702903487189426 l 29.70925038981172 1.7872347288742683" fill="#9cff22" stroke="none" /><path d="M 79.0935383218832 98.0201363427161 l -15.421330577020367 -1.460416039140771 a36.49032768449793,36.49032768449793 0 0,0 0.06440995927735473,-0.6231079280035995 l 15.393988225261348 1.7249284894272834" fill="#ffb010" stroke="none" /><path d="M 79.13060592940154 97.66154086499901 l -14.855995501974371 -1.6646452826375417 a35.948968067117214,35.948968067117214 0 0,0 0.07398282861802905,-0.6126839513951774 l 14.825230587096673 1.9194229109561556" fill="#ffa90f" stroke="none" /><path d="M 79.22317932658666 96.9465228501225 l -15.370456688013736 -2.258927822392428 a36.5355622268679,36.5355622268679 0 0,0 0.096520879820767,-0.6197332878566313 l 15.3294143160547 2.522449292180509" fill="#ffb110" stroke="none" /><path d="M 79.2786578344484 96.59031103205396 l -29.329235734802747 -4.826114579078644 a50.723651369204724,50.723651369204724 0 0,0 0.14875358700155958,-0.8579711600975446 l 29.242067330308952 5.328878772096782" fill="#9dff22" stroke="none" /><path d="M 79.407916724674 95.88100663000787 l -15.787853905042175 -3.158012945644694 a37.10060174936996,37.10060174936996 0 0,0 0.13028015727581152,-0.6234377145125919 l 15.731316036941998 3.428567111442695" fill="#ffb911" stroke="none" /><path d="M 79.56144815229197 95.17655741523228 l -16.41483942564646 -3.873857409162083 a37.86575597464511,37.86575597464511 0 0,0 0.15473115145307412,-0.6313559000634454 l 16.345920747677084 4.1550691338336465" fill="#ffc312" stroke="none" /><path d="M 79.73907114497095 94.47779374421319 l -28.69740185642877 -7.821604487647355 a50.74421574139326,50.74421574139326 0 0,0 0.23627837779457922,-0.8384686080961642 l 28.558904986559607 8.313081019646532" fill="#9dff22" stroke="none" /><path d="M 79.83685265289637 94.1308016681162 l -17.768413301356357 -5.172126152394705 a39.50587474787676,39.50587474787676 0 0,0 0.19512831953930745,-0.6495187136998406 l 17.67700866181342 5.476382469685269" fill="#ffd814" stroke="none" /><path d="M 80.05021161711548 93.44210830539832 l -14.149082714447646 -4.651084524731801 a35.89392926384709,35.89392926384709 0 0,0 0.19744152890593564,-0.5837007971498415 l 14.067155763969344 4.893286996355804" fill="#ffa80f" stroke="none" /><path d="M 80.28708602549916 92.7611449362534 l -14.023661684787827 -5.149682818608562 a35.939287807042824,35.939287807042824 0 0,0 0.21763688831513406,-0.5773077030736835 l 13.933194112658258 5.38965880187639" fill="#ffa90f" stroke="none" /><path d="M 80.41425534168474 92.42381321644754 l -13.817623244395989 -5.344953507287525 a35.8153717509598,35.8153717509598 0 0,0 0.22673061795967528,-0.5715092686601909 l 13.723833951470183 5.581363793161299" fill="#ffa70f" stroke="none" /><path d="M 80.5471966667186 92.08871423366112 l -13.6415046450173 -5.547881180957077 a35.72649430713387,35.72649430713387 0 0,0 0.23592102027209985,-0.5661245646212338 l 13.54425778020872 5.781238255019575" fill="#ffa60f" stroke="none" /><path d="M 80.68587082218212 91.75594674310238 l -13.525856531623678 -5.773383856204498 a35.706486870260676,35.706486870260676 0 0,0 0.24546699506053823,-0.5616765222998618 l 13.424755654546162 6.004722448280226" fill="#ffa60f" stroke="none" /><path d="M 80.9802524753101 91.09779779509293 l -13.768741687706926 -6.444466334371014 a36.20228252591169,36.20228252591169 0 0,0 0.2682774319155973,-0.56059665114924 l 13.656084997831424 6.679875487585341" fill="#ffad10" stroke="none" /><line stroke="#e1ed5e" stroke-width="0.3" x1="26.387840678322718" x2="22.05771365940052" y1="57.49999999999999" y2="54.99999999999999" /><path d="M 25.521815274538284 56.99999999999999 a86.0,86.0 0 0,1 29.574782752854787,-30.34633250058573" fill="none" id="id35" stroke="none" /><text fill="#e1ed5e" style="font-size:6.75px; font-family:Arial;" text-anchor="middle"><textPath startOffset="21.40746469413373" xlink:href="#id35">November</textPath></text><path d="M 82.18462484594161 88.88188828441811 l -12.572782876490216 -7.846346393930959 a35.82025711628914,35.82025711628914 0 0,0 0.33002790635303647,-0.5188586849651974 l 12.436237278511289 8.061018753574828" fill="#ffa70f" stroke="none" /><path d="M 82.576782715395 88.27688183743585 l -12.671153620197506 -8.525717651287705 a36.27239324847691,36.27239324847691 0 0,0 0.3520326673481205,-0.5136261822846295 l 12.522931216034072 8.74197856864237" fill="#ffad10" stroke="none" /><path d="M 82.78059297857968 87.97951657250589 l -12.02407585759254 -8.39373878539062 a35.66401210537248,35.66401210537248 0 0,0 0.3547463645074574,-0.4989951877840848 l 11.87821439455511 8.598911199884226" fill="#ffa50f" stroke="none" /><path d="M 82.98947788004972 87.6856937992154 l -14.37947560941238 -10.409631427676322 a38.75189413166246,38.75189413166246 0 0,0 0.39471199486020314,-0.5355026276614002 l 14.198661594968359 10.654940364606587" fill="#ffce13" stroke="none" /><path d="M 83.2033758604659 87.39550010848427 l -11.723005277197066 -8.797161710422564 a35.65670177388198,35.65670177388198 0 0,0 0.3715904132038692,-0.4864237790963738 l 11.57026288663889 8.997106402759822" fill="#ffa50f" stroke="none" /><path d="M 83.64595745247003 86.82634096563983 l -11.607778988903872 -9.350405081899789 a35.90538856423594,35.90538856423594 0 0,0 0.390775750610907,-0.476682876497048 l 11.445556419054336 9.548290240095328" fill="#ffa90f" stroke="none" /><path d="M 83.8745106332314 86.54754324733833 l -11.458721921096705 -9.55927337014638 a35.92253381400799,35.92253381400799 0 0,0 0.3990915443527416,-0.47012883574611497 l 11.292935813236848 9.754568988342053" fill="#ffa90f" stroke="none" /><path d="M 84.34580500576568 86.00192230759919 l -10.917538267899959 -9.762530040037854 a35.645806041788944,35.645806041788944 0 0,0 0.41179783338490034,-0.45263795525261574 l 10.748342733673192 9.948505570848129" fill="#ffa50f" stroke="none" /><path d="M 84.83555147118756 85.47280134310135 l -10.666092210686756 -10.217875061070885 a35.77059558076542,35.77059558076542 0 0,0 0.4285882847055884,-0.4397693366750457 l 10.489117124830365 10.399467089813662" fill="#ffa70f" stroke="none" /><path d="M 85.34317274990677 84.96080404539775 l -10.21019982030774 -10.476564485146403 a35.62896386563461,35.62896386563461 0 0,0 0.44167617115884256,-0.42311578085097584 l 10.028851163283596 10.650292396302946" fill="#ffa50f" stroke="none" /><path d="M 85.86807049272753 84.46653392183569 l -10.256891486682223 -11.274120486788432 a36.24170645696199,36.24170645696199 0 0,0 0.46378161964696124,-0.4147163841076942 l 10.06184484021187 11.448532400779527" fill="#ffad10" stroke="none" /><path d="M 86.13680546590413 84.22622945171909 l -9.70245818436598 -11.039616358125382 a35.69730669728165,35.69730669728165 0 0,0 0.463759894486549,-0.4005847513533905 l 9.511518810116584 11.204545241943483" fill="#ffa60f" stroke="none" /><path d="M 86.40962598614128 83.9905735841838 l -19.50822730263078 -22.980642709759252 a51.14433399238935,51.14433399238935 0 0,0 0.6741935386328044,-0.5624362284516048 l 19.110859429836065 23.312141122122735" fill="#98ff23" stroke="none" /><path d="M 87.25179093698888 83.31218511350988 l -18.030303191922304 -23.60224565873428 a50.70114195326309,50.70114195326309 0 0,0 0.6961677495730987,-0.5224172578415733 l 17.62248245343845 23.908281943839853" fill="#9dff22" stroke="none" /><path d="M 87.83215693770416 82.88440491214696 l -8.566707656633177 -12.050147157246336 a35.78494256280725,35.78494256280725 0 0,0 0.5037240325538419,-0.35163849590243107 l 8.35858853290557 12.195430468953894" fill="#ffa70f" stroke="none" /><path d="M 88.4268655584334 82.4767994020092 l -23.91239096821393 -36.206407678858284 a64.39016477065289,64.39016477065289 0 0,0 0.9275690468790466,-0.6012390496157045 l 23.287336289077857 36.61156057017789" fill="#34ff5a" stroke="none" /><path d="M 88.72937992617638 82.28071324371311 l -7.819163233803505 -12.293023332031806 a35.56906779168602,35.56906779168602 0 0,0 0.5180141350575507,-0.3232791324356923 l 7.606984969956256 12.425438261309035" fill="#ffa40f" stroke="none" /><line stroke="#e1ed5e" stroke-width="0.3" x1="56.869717070023135" x2="54.33264160355391" y1="26.7553504044142" y2="22.446841604673864" /><path d="M 56.362301976729285 25.89364864446614 a86.0,86.0 0 0,1 42.16139366436587,-11.88097634709845" fill="none" id="id36" stroke="none" /><text fill="#e1ed5e" style="font-size:6.75px; font-family:Arial;" text-anchor="middle"><textPath startOffset="22.145653131862474" xlink:href="#id36">December</textPath></text><path d="M 89.65649057296885 81.72400993836675 l -7.191481216188216 -12.706658234583559 a35.60056730313237,35.60056730313237 0 0,0 0.534442178440586,-0.2964460672964202 l 6.972294849591528 12.828237217313125" fill="#ffa40f" stroke="none" /><path d="M 90.28995756902619 81.37971332152246 l -6.769923672088761 -12.982221289125896 a35.64137753511402,35.64137753511402 0 0,0 0.5449274336740081,-0.2782438303956397 l 6.54606901670117 13.096523071194369" fill="#ffa50f" stroke="none" /><path d="M 90.61103034731259 81.2157712731953 l -13.212453473696188 -26.4337576190947 a50.551860663241385,50.551860663241385 0 0,0 0.7795572360249292,-0.3813205082510583 l 12.756735988409206 26.65667187744297" fill="#9fff22" stroke="none" /><path d="M 90.93487009805054 81.0573650232925 l -12.846129029150557 -26.843468951344494 a50.7589458209692,50.7589458209692 0 0,0 0.7892080325014458,-0.3693892086603408 l 12.383432282777589 27.06003439157538" fill="#9cff22" stroke="none" /><path d="M 91.5904679813234 80.7573450057729 l -6.067544543770355 -13.883729327455702 a36.15166779033552,36.15166779033552 0 0,0 0.5707916673031497,-0.2436370214011466 l 5.828317801296774 13.985840998516252" fill="#ffac0f" stroke="none" /><path d="M 91.92203290615298 80.6158196554323 l -5.61193164623341 -13.466592998978008 a35.58913649953689,35.58913649953689 0 0,0 0.5659444459097521,-0.2301646792369611 l 5.379932739133217 13.56094493479426" fill="#ffa40f" stroke="none" /><path d="M 92.93061703081487 80.22567764915836 l -21.208148907555373 -59.32296705252492 a84.0,84.0 0 0,0 1.3619769118199827,-0.47376626972565683 l 20.186666223690388 59.67829175481917" fill="#4dd2ff" stroke="none" /><path d="M 93.27111125876988 80.10723608172694 l -5.6617721900653475 -16.738023448939334 a38.669665908257585,38.669665908257585 0 0,0 0.6306419674445601,-0.20730454084014419 l 5.373607484973027 16.832748911181508" fill="#ffcd13" stroke="none" /><path d="M 93.95794788825049 79.88797359093562 l -4.15131273575563 -13.818369956035884 a35.42846996988669,35.42846996988669 0 0,0 0.5839623884149798,-0.16998294050856536 l 3.9134903349590253 13.88759659084697" fill="#ffa20f" stroke="none" /><path d="M 94.30408787586887 79.78721728523814 l -3.903658828526454 -13.852708042893703 a35.392222634853326,35.392222634853326 0 0,0 0.5861939664125084,-0.15976977223450897 l 3.665283461179268 13.917678309272352" fill="#ffa20e" stroke="none" /><path d="M 94.6519064749342 79.69241777938228 l -3.645731542868439 -13.843436490798716 a35.31544942911131,35.31544942911131 0 0,0 0.5875729094237302,-0.1493587358895245 l 3.4075533402193305 13.903980458523503" fill="#ffa10e" stroke="none" /><path d="M 95.35216902796891 79.52079915486377 l -6.326428318735158 -27.875410476710453 a49.584299965491425,49.584299965491425 0 0,0 0.8316882854036872,-0.18126259084815746 l 5.846977616712353 27.979904525692326" fill="#aaff21" stroke="none" /><path d="M 95.70440661134978 79.44403061299748 l -3.16310338006786 -15.136594729937958 a36.46356113614785,36.46356113614785 0 0,0 0.6138093815087788,-0.12277906703607051 l 2.902797513028104 15.188663193636893" fill="#ffb010" stroke="none" /></svg>