<?xml version="1.0" encoding="utf-8" ?>
<svg baseProfile="full" height="200mm" version="1.1" viewBox="0,0,200,200" width="200mm" xmlns="http://www.w3.org/2000/svg" xmlns:ev="http://www.w3.org/2001/xml-events" xmlns:xlink="http://www.w3.org/1999/xlink"><defs /><rect fill="#1a1a1a" height="200" width="200" x="0" y="0" /><text alignment-baseline="middle" fill="#e1ed5e" style="dominant-baseline: central; font-size:9.0px; font-family:Arial;" text-anchor="middle" x="100.0" y="100.0">2025</text><line stroke="#e1ed5e" stroke-width="0.3" x1="100.0" x2="100.0" y1="15.0" y2="10.0" /><path d="M 100.0 14.0 a86.0,86.0 0 0,1 42.46469731375804,11.215312516191453" fill="none" id="id97" stroke="none" /><text fill="#e1ed5e" style="font-size:6.75px; font-family:Arial;" text-anchor="middle"><textPath startOffset="22.20632615414155" xlink:href="#id97">January</textPath></text><path d="M 101.44485096284872 79.0497635885617 l 0.8160916817745515 -11.833271462736532 a32.86137931034483,32.86137931034483 0 0,0 0.5639792140254124,0.043775641444395864 l -1.019661085162305 11.817470559103672" fill="#ff0000" stroke="none" /><path d="M 101.80526077348638 79.07773832637324 l 3.4116882012785705 -39.54012314693103 a60.68703761755486,60.68703761755486 0 0,0 1.0399876166612916,0.09875935550318256 l -4.091800945030107 39.47553824691267" fill="#5bff2a" stroke="none" /><path d="M 103.95276090670814 79.375362276772 l 5.880816069980181 -30.684805841517285 a52.243260188087774,52.243260188087774 0 0,0 0.8817507756955778,0.17687091052391057 l -6.408133255142884 30.57903097491617" fill="#caff1d" stroke="none" /><path d="M 104.307194497241 79.44645832069477 l 10.802686838268365 -51.54944229266998 a73.66918495297804,73.66918495297804 0 0,0 1.2388956510392206,0.2707746040308907 l -11.688425213461114 51.35585419054322" fill="#3dffb1" stroke="none" /><path d="M 104.66035177308747 79.52364482259891 l 8.829102175753654 -38.792743734991696 a60.78479623824452,60.78479623824452 0 0,0 1.0182215004487585,0.24098013173896218 l -9.495547363164937 38.63501769111186" fill="#5aff2a" stroke="none" /><path d="M 105.01212808612495 79.60689891045804 l 9.476221602832856 -38.55638598471645 a60.70382445141066,60.70382445141066 0 0,0 1.0125719108644662,0.2581271259334281 l -10.138502402382347 38.38755586261416" fill="#5bff2a" stroke="none" /><path d="M 105.36241919743992 79.69619591428918 l 10.124634076871727 -38.335046024461455 a60.64951410658308,60.64951410658308 0 0,0 1.0070768374534211,0.2752721422239493 l -10.78300880354886 38.15508734141121" fill="#5bff2a" stroke="none" /><path d="M 105.71112130821622 79.79150937346287 l 4.421106117421482 -15.643842375455197 a37.25656739811912,37.25656739811912 0 0,0 0.6156377781520846,0.1797215493420199 l -4.6897341132969945 15.565422497194474" fill="#ff4c07" stroke="none" /><path d="M 106.0581310904928 79.89281104454417 l 17.870157346495 -59.31179518277374 a82.94539184952978,82.94539184952978 0 0,0 1.363522025366612,0.4236529305665258 l -18.888464744572328 58.995402117324694" fill="#4bdeff" stroke="none" /><path d="M 106.40334571778207 80.00007090966166 l 19.21003715334621 -59.99978727101504 a84.0,84.0 0 0,0 1.37326871103033,0.45274510296305515 l -20.239988686618958 59.66022844379275" fill="#4dd2ff" stroke="none" /><path d="M 106.74666289553966 80.11325718540242 l 16.709094108530106 -49.25241743157625 a73.00956112852666,73.00956112852666 0 0,0 1.1866417661242208,0.41399601187888185 l -17.5544178787176 48.957500566525155" fill="#3cffa8" stroke="none" /><path d="M 107.08798089147638 80.2323363322302 l 13.404282860191083 -37.38319266725856 a60.71369905956113,60.71369905956113 0 0,0 0.9807218947013352,0.3612081504710373 l -14.045787080664995 37.1469212489812" fill="#5bff2a" stroke="none" /><path d="M 107.4271985657038 80.35727306442388 l 14.667087374476296 -38.790075381507364 a62.470391849529776,62.470391849529776 0 0,0 1.0025511305885295,0.38897426310202554 l -15.332621670064492 38.531858414514794" fill="#45ff2d" stroke="none" /><path d="M 107.76421540070413 80.48803036053334 l 6.429208457981183 -16.15701185036087 a38.389184952978056,38.389184952978056 0 0,0 0.6118799731960246,0.2496012044578236 l -6.7063723007655955 16.043949759719467" fill="#ff5f08" stroke="none" /><line stroke="#e1ed5e" stroke-width="0.3" x1="143.23703022742887" x2="145.7803849466894" y1="26.81831364943548" y2="22.513508569990506" /><path d="M 143.74570117128098 25.957352633546492 a86.0,86.0 0 0,1 28.547481713284135,27.462654790039103" fill="none" id="id98" stroke="none" /><text fill="#e1ed5e" style="font-size:6.75px; font-family:Arial;" text-anchor="middle"><textPath startOffset="19.985693538727396" xlink:href="#id98">February</textPath></text><path d="M 111.90073688211348 82.69761687909136 l 20.40845802934224 -29.67168867176511 a57.01269592476489,57.01269592476489 0 0,0 0.8037944719861414,0.5631093947470018 l -20.91618364091203 29.315994434254172" fill="#8aff24" stroke="none" /><path d="M 113.06298171725822 83.55741782278167 l 26.895409912470303 -33.85367883440509 a64.23695924764891,64.23695924764891 0 0,0 0.85984718719359,0.6952699603468181 l -27.474160498228382 33.38570277679414" fill="#30ff2f" stroke="none" /><line stroke="#e1ed5e" stroke-width="0.3" x1="172.23445277983987" x2="176.4835382374775" y1="55.19839476539836" y2="52.563006222186495" /><path d="M 173.08426987136738 54.67131705675599 a86.0,86.0 0 0,1 12.851231095245387,41.99856678651699" fill="none" id="id99" stroke="none" /><text fill="#e1ed5e" style="font-size:6.75px; font-family:Arial;" text-anchor="middle"><textPath startOffset="22.20632615414155" xlink:href="#id99">March</textPath></text><line stroke="#e1ed5e" stroke-width="0.3" x1="184.98032266829074" x2="189.97916517819016" y1="98.17113171792111" y2="98.06355123074" /><path d="M 185.9800911702706 98.14961562048488 a86.0,86.0 0 0,1 -9.607161424134198,41.387399972396054" fill="none" id="id100" stroke="none" /><text fill="#e1ed5e" style="font-size:6.75px; font-family:Arial;" text-anchor="middle"><textPath startOffset="21.466115282336823" xlink:href="#id100">April</textPath></text><line stroke="#e1ed5e" stroke-width="0.3" x1="174.80103733775053" x2="179.2010983576182" y1="140.37084112569926" y2="142.7455964860345" /><path d="M 175.68104954172406 140.8457921977663 a86.0,86.0 0 0,1 -30.038265399797805,32.042727171017184" fill="none" id="id101" stroke="none" /><text fill="#e1ed5e" style="font-size:6.75px; font-family:Arial;" text-anchor="middle"><textPath startOffset="22.206326154141568" xlink:href="#id101">May</textPath></text><line stroke="#e1ed5e" stroke-width="0.3" x1="143.8653032363475" x2="146.44561519142675" y1="172.8068346515853" y2="177.08958963109032" /><path d="M 144.38136562736335 173.6633856474863 a86.0,86.0 0 0,1 -40.68145358897372,12.25698825130547" fill="none" id="id102" stroke="none" /><text fill="#e1ed5e" style="font-size:6.75px; font-family:Arial;" text-anchor="middle"><textPath startOffset="21.466115282336833" xlink:href="#id102">June</textPath></text><line stroke="#e1ed5e" stroke-width="0.3" x1="102.19456741930631" x2="102.32365962044197" y1="184.97166512339345" y2="189.96999836594603" /><path d="M 102.22038585953345 185.97133177190398 a86.0,86.0 0 0,1 -42.740103519485714,-10.115201625700543" fill="none" id="id103" stroke="none" /><text fill="#e1ed5e" style="font-size:6.75px; font-family:Arial;" text-anchor="middle"><textPath startOffset="22.20632615414155" xlink:href="#id103">July</textPath></text><line stroke="#e1ed5e" stroke-width="0.3" x1="58.666819895761336" x2="56.23545636021788" y1="174.27360380694188" y2="178.64263932499728" /><path d="M 58.180547188652646 175.14741091055294 a86.0,86.0 0 0,1 -31.652253787137756,-30.449443065178592" fill="none" id="id104" stroke="none" /><text fill="#e1ed5e" style="font-size:6.75px; font-family:Arial;" text-anchor="middle"><textPath startOffset="22.20632615414155" xlink:href="#id104">August</textPath></text><line stroke="#e1ed5e" stroke-width="0.3" x1="26.63291911575756" x2="22.317208475507996" y1="142.92168965132927" y2="145.44649492493687" /><path d="M 25.769776987707644 143.4266507060508 a86.0,86.0 0 0,1 -11.730757126820373,-40.83630448921669" fill="none" id="id105" stroke="none" /><text fill="#e1ed5e" style="font-size:6.75px; font-family:Arial;" text-anchor="middle"><textPath startOffset="21.46611528233685" xlink:href="#id105">September</textPath></text><line stroke="#e1ed5e" stroke-width="0.3" x1="15.007084014347285" x2="10.007500721073583" y1="101.09737516637583" y2="101.16192664675087" /><path d="M 14.007167355692545 101.11028546245083 a86.0,86.0 0 0,1 10.666146001902534,-42.60595125391555" fill="none" id="id106" stroke="none" /><text fill="#e1ed5e" style="font-size:6.75px; font-family:Arial;" text-anchor="middle"><textPath startOffset="22.20632615414155" xlink:href="#id106">October</textPath></text><line stroke="#e1ed5e" stroke-width="0.3" x1="26.266209847984243" x2="21.928928074336255" y1="57.711370442889674" y2="55.22380399835377" /><path d="M 25.398753493254645 57.213857153982495 a86.0,86.0 0 0,1 29.58750427330803,-30.492523968695096" fill="none" id="id107" stroke="none" /><text fill="#e1ed5e" style="font-size:6.75px; font-family:Arial;" text-anchor="middle"><textPath startOffset="21.46611528233685" xlink:href="#id107">November</textPath></text><line stroke="#e1ed5e" stroke-width="0.3" x1="56.762969772571076" x2="54.21961505331055" y1="26.818313649435495" y2="22.513508569990535" /><path d="M 56.25429882871897 25.957352633546506 a86.0,86.0 0 0,1 42.265352541879196,-11.944610805530505" fill="none" id="id108" stroke="none" /><text fill="#e1ed5e" style="font-size:6.75px; font-family:Arial;" text-anchor="middle"><textPath startOffset="22.20632615414155" xlink:href="#id108">December</textPath></text></svg>