<?xml version="1.0" encoding="utf-8" ?>
<svg baseProfile="full" height="200mm" version="1.1" viewBox="0,0,200,200" width="200mm" xmlns="http://www.w3.org/2000/svg" xmlns:ev="http://www.w3.org/2001/xml-events" xmlns:xlink="http://www.w3.org/1999/xlink"><defs /><rect fill="#1a1a1a" height="200" width="200" x="0" y="0" /><text alignment-baseline="middle" fill="#e1ed5e" style="dominant-baseline: central; font-size:9.0px; font-family:Arial;" text-anchor="middle" x="100.0" y="100.0">2023</text><line stroke="#e1ed5e" stroke-width="0.3" x1="100.0" x2="100.0" y1="15.0" y2="10.0" /><path d="M 100.0 14.0 a86.0,86.0 0 0,1 42.46469731375804,11.215312516191453" fill="none" id="id73" stroke="none" /><text fill="#e1ed5e" style="font-size:6.75px; font-family:Arial;" text-anchor="middle"><textPath startOffset="22.20632615414155" xlink:href="#id73">January</textPath></text><path d="M 103.95276090670814 79.375362276772 l 2.941905574159947 -15.350216751036669 a36.629586133710646,36.629586133710646 0 0,0 0.6182264634811554,0.124010412601713 l -3.2056984471082277 15.297302382357747" fill="#ff8f0d" stroke="none" /><path d="M 104.66035177308747 79.52364482259891 l 5.8160926365739165 -25.554375371165637 a47.20788114609127,47.20788114609127 0 0,0 0.7907911607563517,0.1871547183133387 l -6.255107484292792 25.450474740711428" fill="#deff1b" stroke="none" /><line stroke="#e1ed5e" stroke-width="0.3" x1="143.23703022742887" x2="145.7803849466894" y1="26.81831364943548" y2="22.513508569990506" /><path d="M 143.74570117128098 25.957352633546492 a86.0,86.0 0 0,1 28.547481713284135,27.462654790039103" fill="none" id="id74" stroke="none" /><text fill="#e1ed5e" style="font-size:6.75px; font-family:Arial;" text-anchor="middle"><textPath startOffset="19.985693538727396" xlink:href="#id74">February</textPath></text><path d="M 112.48926042617603 83.11751280151076 l 9.213159979895487 -12.453984472308957 a36.49141846480368,36.49141846480368 0 0,0 0.5017636874535442,0.37791800673784764 l -9.426169821107415 12.293549876065262" fill="#ff8d0d" stroke="none" /><path d="M 114.94478906791727 85.2469230424477 l 11.97739996299922 -11.823753590798406 a37.83030774672798,37.83030774672798 0 0,0 0.45348763690288313,0.4673588725171008 l -12.179151863605213 11.61583052273119" fill="#ffa10e" stroke="none" /><path d="M 115.19652480421416 85.50635884689758 l 11.430022858753679 -10.901350922060391 a36.79509020162717,36.79509020162717 0 0,0 0.4331880328041269,0.4620947902333193 l -11.615978213528269 10.702986714949017" fill="#ff920d" stroke="none" /><path d="M 115.4437574822437 85.77008943001954 l 11.104864683270495 -10.232045635031302 a36.10009197028652,36.10009197028652 0 0,0 0.4171388995683815,0.4606151915595813 l -11.279347223454911 10.039377656202172" fill="#ff880c" stroke="none" /><path d="M 116.15771136456269 86.58626213691792 l 9.388962013722825 -7.794487252367237 a33.202730810045985,33.202730810045985 0 0,0 0.3612797170131708,0.44288621486355834 l -9.521740222812404 7.631716867895578" fill="#ff5d08" stroke="none" /><path d="M 116.82858285166822 87.43820079747576 l 13.49286842409099 -10.07183464605927 a37.83743898125221,37.83743898125221 0 0,0 0.38510835033466295,0.5252873570630113 l -13.664239386939279 9.838084845324765" fill="#ffa10e" stroke="none" /><path d="M 117.45458315368197 88.32363383020206 l 12.93800138198708 -8.654967025641378 a36.565999292536254,36.565999292536254 0 0,0 0.34546749005423477,0.5261706885147432 l -13.085065507399241 8.43097827314896" fill="#ff8e0d" stroke="none" /><line stroke="#e1ed5e" stroke-width="0.3" x1="172.23445277983987" x2="176.4835382374775" y1="55.19839476539836" y2="52.563006222186495" /><path d="M 173.08426987136738 54.67131705675599 a86.0,86.0 0 0,1 12.851231095245387,41.99856678651699" fill="none" id="id75" stroke="none" /><text fill="#e1ed5e" style="font-size:6.75px; font-family:Arial;" text-anchor="middle"><textPath startOffset="22.20632615414155" xlink:href="#id75">March</textPath></text><path d="M 117.84615892207809 88.93136811851018 l 12.714898993453412 -7.886096777651762 a35.961924301379554,35.961924301379554 0 0,0 0.32174654473599723,0.528866721988258 l -12.848761336475633 7.666062282456422" fill="#ff860c" stroke="none" /><path d="M 118.3937258080291 89.86733742301442 l 13.194814357853092 -7.268706897638377 a36.06443579766537,36.06443579766537 0 0,0 0.2948557872721337,0.5463229929820468 l -13.31797824434369 7.0405029213238715" fill="#ff870c" stroke="none" /><path d="M 118.89224826269711 90.83032412892265 l 11.802342345873402 -5.728468752172716 a34.11909444640962,34.11909444640962 0 0,0 0.2518993346407168,0.5305642410929419 l -11.899199874355874 5.524462095439233" fill="#ff6a09" stroke="none" /><path d="M 119.34039704204932 91.81776055985345 l 12.071910507434932 -5.107199301911916 a34.10780332507959,34.10780332507959 0 0,0 0.2241017698481823,0.5426802112803083 l -12.158033964169311 4.898644520178305" fill="#ff6a09" stroke="none" /><path d="M 119.61058180528143 92.48833698450437 l 13.91622934956179 -5.330490770656563 a35.90220021223912,35.90220021223912 0 0,0 0.21608920807252385,0.579011644839331 l -14.00592314613594 5.090155988787898" fill="#ff850c" stroke="none" /><path d="M 119.85752413597 93.16781622104841 l 14.294326712663224 -4.9181089459379095 a36.11673151750973,36.11673151750973 0 0,0 0.19720200837695576,0.5896089047017012 l -14.37686601481195 4.671326938313894" fill="#ff880c" stroke="none" /><path d="M 119.97218684219823 93.5106431181261 l 14.168313147609368 -4.603564004053929 a35.89744605588963,35.89744605588963 0 0,0 0.18588811453831586,0.5893161215945022 l -14.24545674591589 4.358997716033008" fill="#ff850c" stroke="none" /><path d="M 120.08093135843002 93.85539295169968 l 13.01261399863287 -3.9817575323389867 a34.60817828086311,34.60817828086311 0 0,0 0.16940555423712345,0.5711513128754359 l -13.079225449981696 3.757176832717021" fill="#ff720a" stroke="none" /><path d="M 120.18372546131832 94.20196356495316 l 25.634116694841634 -7.363731877040042 a47.67081712062257,47.67081712062257 0 0,0 0.21976979786608472,0.7906288933283404 l -25.75707326327408 6.921391680292749" fill="#d8ff1c" stroke="none" /><path d="M 120.91429891909075 98.10471618934814 l 15.226379010723678 -1.3798363380726002 a36.28877255040679,36.28877255040679 0 0,0 0.051021178147986214,0.6225876053106814 l -15.247874672691157 1.1175348155541502" fill="#ff8a0c" stroke="none" /><line stroke="#e1ed5e" stroke-width="0.3" x1="184.98032266829074" x2="189.97916517819016" y1="98.17113171792111" y2="98.06355123074" /><path d="M 185.9800911702706 98.14961562048488 a86.0,86.0 0 0,1 -9.607161424134198,41.387399972396054" fill="none" id="id76" stroke="none" /><text fill="#e1ed5e" style="font-size:6.75px; font-family:Arial;" text-anchor="middle"><textPath startOffset="21.466115282336823" xlink:href="#id76">April</textPath></text><path d="M 120.89721153311464 102.0752229133903 l 17.30824296447021 1.7188160407658717 a38.393378139370355,38.393378139370355 0 0,0 -0.07096869414143733,0.657081967550369 l -17.27609196882772 -2.016494330201032" fill="#ffa90f" stroke="none" /><path d="M 120.76222939487914 103.15116336523771 l 15.321306145886478 2.325373528837739 a36.49676689069685,36.49676689069685 0 0,0 -0.09961574522189322,0.6203073405873835 l -15.279008646303296 -2.588760099118327" fill="#ff8d0d" stroke="none" /><path d="M 120.41448212921028 104.9243191809786 l 10.308194181041776 2.4865111936552298 a31.603848602759108,31.603848602759108 0 0,0 -0.1321171586692428,0.5277423748993869 l -10.263865708077471 -2.663581407952013" fill="#ff4406" stroke="none" /><path d="M 120.13307415673323 105.97154293290107 l 8.845163814171443 2.623507719371467 a30.226034665723382,30.226034665723382 0 0,0 -0.15224310671119423,0.49753928145938436 l -8.798693934954116 -2.7753739733829086" fill="#ff2f04" stroke="none" /><path d="M 120.02730092923936 106.31721596034902 l 8.887672675552365 2.803440557203915 a30.31933498408207,30.31933498408207 0 0,0 -0.161281174369341,0.4963724152128158 l -8.838099250166778 -2.956011872394526" fill="#ff3104" stroke="none" /><path d="M 119.79798401119884 107.00284435728193 l 59.393952033596506 21.00853307184577 a84.0,84.0 0 0,0 -0.49390295597909306,1.3590088119754755 l -59.02352481661219 -22.027789680827375" fill="#4dd2ff" stroke="none" /><line stroke="#e1ed5e" stroke-width="0.3" x1="174.80103733775053" x2="179.2010983576182" y1="140.37084112569926" y2="142.7455964860345" /><path d="M 175.68104954172406 140.8457921977663 a86.0,86.0 0 0,1 -30.038265399797805,32.042727171017184" fill="none" id="id77" stroke="none" /><text fill="#e1ed5e" style="font-size:6.75px; font-family:Arial;" text-anchor="middle"><textPath startOffset="22.206326154141568" xlink:href="#id77">May</textPath></text><path d="M 116.93607887273984 112.41649034213515 l 12.47243060726372 9.14401824304846 a36.4652706048815,36.4652706048815 0 0,0 -0.37548590120096526,0.5030247256877021 l -12.313183439367663 -9.357355848245478" fill="#ff8d0d" stroke="none" /><path d="M 116.498646956653 112.99209946851258 l 7.322201067454942 5.7659737096479 a30.31992925362575,30.31992925362575 0 0,0 -0.32641871009565826,0.4072575300154476 l -7.22186444530443 -5.891159073241599" fill="#ff3104" stroke="none" /><path d="M 116.27256486870786 113.27417163493432 l 10.04512854746355 8.194206722163633 a33.96339582596392,33.96339582596392 0 0,0 -0.37344209301971437,0.4498350580562391 l -9.902590454550293 -8.365903037333641" fill="#ff6809" stroke="none" /><path d="M 116.0416608686014 113.55231037782055 l 18.356608151217113 15.508023339170277 a45.030477538026176,45.030477538026176 0 0,0 -0.505322349020984,0.5878040537554948 l -18.08694329262535 -15.8217044920873" fill="#faff18" stroke="none" /><path d="M 115.80600337817218 113.82643327865902 l 11.217062687451062 9.81221913723979 a35.903091616554654,35.903091616554654 0 0,0 -0.41090430191923083,0.4616553391728527 l -11.046499535883493 -10.003848646153509" fill="#ff850c" stroke="none" /><path d="M 115.56566222782051 114.09645910891815 l 8.833719791944151 7.999927533068246 a32.9177785638486,32.9177785638486 0 0,0 -0.3839680047626733,0.41672143456793664 l -8.694705379185756 -8.150800222437518" fill="#ff5808" stroke="none" /><path d="M 115.32070863581623 114.36230785411682 l 8.696006040690039 8.152019519885341 a32.91956137247966,32.91956137247966 0 0,0 -0.3911054711386562,0.41007252286981305 l -8.554394018172419 -8.300499159337662" fill="#ff5808" stroke="none" /><path d="M 115.07121518719521 114.62390073753431 l 8.558658953492458 8.304637511155851 a32.92550406791652,32.92550406791652 0 0,0 -0.3981781158485476,0.40335232914046765 l -8.414440212588374 -8.450730334276985" fill="#ff5908" stroke="none" /><path d="M 114.81725581225074 114.88116024355365 l 8.413811252313357 8.45009866139788 a32.92461266360099,32.92461266360099 0 0,0 -0.4050512023642783,0.3964278534907473 l -8.267110097573285 -8.593676617811198" fill="#ff5908" stroke="none" /><path d="M 113.75828350139079 115.86535959552629 l 7.835456822511205 9.035454173610654 a32.95967456667846,32.95967456667846 0 0,0 -0.431825921622795,0.36801141867024584 l -7.678765424311362 -9.168989982503847" fill="#ff5908" stroke="none" /><path d="M 113.48314897796784 116.09983520530334 l 17.51464390831685 20.913725796862877 a48.279051998585075,48.279051998585075 0 0,0 -0.6417202656356774,0.528092090524909 l -17.152053514136483 -21.212113006244962" fill="#d0ff1d" stroke="none" /><path d="M 113.20401910651253 116.32954008644616 l 15.602694752901128 19.296005812231545 a45.81491333569154,45.81491333569154 0 0,0 -0.617503235308162,0.4905819162853007 l -15.268234024875614 -19.561721642521974" fill="#f0ff19" stroke="none" /><path d="M 112.92097659922987 116.55440617244103 l 7.333556905906026 9.395782027522143 a32.91896710293598,32.91896710293598 0 0,0 -0.44969075950000453,0.34480369858690024 l -7.1707374179125285 -9.520625067936416" fill="#ff5808" stroke="none" /><path d="M 112.34349029814194 116.9893568818739 l 16.950096596037824 23.329806505026436 a49.83722674212947,49.83722674212947 0 0,0 -0.6983682802860698,0.4982672251562289 l -16.54600098790287 -23.618117992026885" fill="#bdff1f" stroke="none" /><path d="M 111.7513745106137 117.40417183066458 l 12.028552314776325 17.814681267406257 a42.49532366466219,42.49532366466219 0 0,0 -0.6097579145427174,0.4041142966760936 l -11.720119701493644 -18.019093585173668" fill="#ffe215" stroke="none" /><path d="M 111.45004920935366 117.60387380957326 l 14.760559369154633 22.69361639782682 a48.0716519278387,48.0716519278387 0 0,0 -0.697538435622772,0.4452020325032743 l -14.36773913148493 -22.944332859153903" fill="#d3ff1c" stroke="none" /><path d="M 111.1453310114006 117.79835938074945 l 10.864470246896822 17.349843242693353 a41.470802971347716,41.470802971347716 0 0,0 -0.6082795195563863,0.37365496247937874 l -10.564211527408126 -17.53428667200111" fill="#ffd413" stroke="none" /><line stroke="#e1ed5e" stroke-width="0.3" x1="143.8653032363475" x2="146.44561519142675" y1="172.8068346515853" y2="177.08958963109032" /><path d="M 144.38136562736335 173.6633856474863 a86.0,86.0 0 0,1 -40.68145358897372,12.25698825130547" fill="none" id="id78" stroke="none" /><text fill="#e1ed5e" style="font-size:6.75px; font-family:Arial;" text-anchor="middle"><textPath startOffset="21.466115282336833" xlink:href="#id78">June</textPath></text><path d="M 110.8373102113329 117.98757091392108 l 6.152464062388546 10.211748252978502 a32.92193845065441,32.92193845065441 0 0,0 -0.48792214256522565,0.2882730021506494 l -5.975774048794938 -10.3161398274229" fill="#ff5808" stroke="none" /><path d="M 109.89434966115114 118.52300852407294 l 4.231995697303683 7.922632114244082 a29.982087018040325,29.982087018040325 0 0,0 -0.4573112015771699,0.23924360680300386 l -4.094993593200017 -7.994305139991802" fill="#ff2b04" stroke="none" /><path d="M 109.57404056367764 118.69057910512821 l 5.449921838235797 10.639415464851972 a32.95402900601344,32.95402900601344 0 0,0 -0.5070936047334385,0.2542672605038973 l -5.265974325819598 -10.73165056626517" fill="#ff5908" stroke="none" /><path d="M 109.2508944713604 118.85261126421891 l 5.267283260304403 10.734318074049282 a32.95700035373187,32.95700035373187 0 0,0 -0.5114413769520507,0.245522941178278 l -5.081729215352119 -10.82339529172712" fill="#ff5908" stroke="none" /><path d="M 100.90346689309514 120.98055641714683 l 0.3888071532152636 9.028986535939453 a30.037354085603113,30.037354085603113 0 0,0 -0.5167564152700305,0.017798135792093092 l -0.23333038627058092 -9.03434147015764" fill="#ff2c04" stroke="none" /><line stroke="#e1ed5e" stroke-width="0.3" x1="102.19456741930631" x2="102.32365962044197" y1="184.97166512339345" y2="189.96999836594603" /><path d="M 102.22038585953345 185.97133177190398 a86.0,86.0 0 0,1 -42.740103519485714,-10.115201625700543" fill="none" id="id79" stroke="none" /><text fill="#e1ed5e" style="font-size:6.75px; font-family:Arial;" text-anchor="middle"><textPath startOffset="22.20632615414155" xlink:href="#id79">July</textPath></text><path d="M 99.81925306533755 120.99922214144158 l -0.05367295249749981 6.235736470922309 a27.235967456667844,27.235967456667844 0 0,0 -0.4687703106481538,-0.008070306015389703 l 0.16100295303832152 -6.2338886876277595" fill="#ff0000" stroke="none" /><path d="M 98.01472825383883 120.90594882070398 l -1.2573434542613433 13.240483553781832 a34.300049522461975,34.300049522461975 0 0,0 -0.5872942734805339,-0.060875452747659056 l 1.4850703243474703 -13.216878732578412" fill="#ff6d0a" stroke="none" /><path d="M 97.2962882734958 120.8252237178851 l -0.8718059644188763 6.715048083578116 a27.77140431552883,27.77140431552883 0 0,0 -0.47353075561816804,-0.06562704790660312 l 0.9872653112238754 -6.699046470178908" fill="#ff0901" stroke="none" /><path d="M 96.93821686468263 120.77559828337769 l -1.7387722379780357 11.798364523546475 a32.92580120268836,32.92580120268836 0 0,0 -0.5599959691217065,-0.08745985347803131 l 1.9416040707082594 -11.766686362721337" fill="#ff5908" stroke="none" /><path d="M 96.22490169976321 120.6578951692458 l -1.8842107186537387 10.31067919483758 a31.481429076759817,31.481429076759817 0 0,0 -0.5322346124673352,-0.10200403020841602 l 2.061412945692769 -10.276717966280694" fill="#ff4306" stroke="none" /><path d="M 95.16358092515715 120.4354850818985 l -3.433840435182729 14.509122121324156 a35.909925716307036,35.909925716307036 0 0,0 -0.6002886413249952,-0.14753634308760133 l 3.6830823612509347 -14.447864519922526" fill="#ff850c" stroke="none" /><path d="M 94.81253420990036 120.34920634021253 l -2.7390259765001526 10.744553703540303 a32.088178280863104,32.088178280863104 0 0,0 -0.5340535705681168,-0.14104840192440907 l 2.9235699898797582 -10.695813952312314" fill="#ff4c07" stroke="none" /><path d="M 94.46302465271185 120.25689768951611 l -2.9129935247664385 10.6571201965559 a32.04806508666431,32.04806508666431 0 0,0 -0.5308820460097723,-0.1500325690397892 l 3.096006738880825 -10.605398834177588" fill="#ff4b07" stroke="none" /><path d="M 93.76903079525671 120.05430185196036 l -3.542593626954298 11.401796349705998 a32.93946940219314,32.93946940219314 0 0,0 -0.5400169628192943,-0.1728963783211165 l 3.7383319348645325 -11.339127124725175" fill="#ff5908" stroke="none" /><path d="M 93.42475214034765 119.94407469862007 l -3.800014132684828 11.526221875700552 a33.136469755925006,33.136469755925006 0 0,0 -0.5401722162411118,-0.18325574391399105 l 3.9978560818631657 -11.459103144888438" fill="#ff5c08" stroke="none" /><path d="M 93.08242187328487 119.8279376855182 l -4.925256898992644 14.117323301524943 a35.951821719136895,35.951821719136895 0 0,0 -0.5825572233690304,-0.2088842939069021 l 5.167533682991401 -14.030451466578084" fill="#ff850c" stroke="none" /><path d="M 92.7421414339146 119.70592522655815 l -6.947621696921706 18.863596254369508 a41.10235585426247,41.10235585426247 0 0,0 -0.6618062148206696,-0.25023848193844406 l 7.271298132502658 -18.741209522324432" fill="#ffcf13" stroke="none" /><path d="M 92.40401165467489 119.57807347666478 l -4.312973700877986 11.116356710931464 a32.923721259285465,32.923721259285465 0 0,0 -0.5265897175841239,-0.2095409161999321 l 4.503684494503968 -11.040468950325465" fill="#ff5808" stroke="none" /><path d="M 91.7346041902142 119.30500536409082 l -4.687564129435219 10.948471524633717 a32.90975592500884,32.90975592500884 0 0,0 -0.5188447518490601,-0.22744629176889075 l 4.875329555942023 -10.866160679570374" fill="#ff5808" stroke="none" /><path d="M 90.7491055286396 118.85261126421891 l -6.278566043264856 12.795234588055015 a35.252663600990445,35.252663600990445 0 0,0 -0.5424647850682975,-0.27200310461745425 l 6.497884736015915 -12.685263642528259" fill="#ff7b0b" stroke="none" /><path d="M 90.10565033884886 118.52300852407294 l -5.625534523297292 10.531447492363956 a32.93976653696498,32.93976653696498 0 0,0 -0.49782526100978064,-0.27145402514631595 l 5.8059825961757126 -10.433052815457874" fill="#ff5908" stroke="none" /><line stroke="#e1ed5e" stroke-width="0.3" x1="58.666819895761336" x2="56.23545636021788" y1="174.27360380694188" y2="178.64263932499728" /><path d="M 58.180547188652646 175.14741091055294 a86.0,86.0 0 0,1 -31.652253787137756,-30.449443065178592" fill="none" id="id80" stroke="none" /><text fill="#e1ed5e" style="font-size:6.75px; font-family:Arial;" text-anchor="middle"><textPath startOffset="22.20632615414155" xlink:href="#id80">August</textPath></text><path d="M 89.4739219176387 118.17145234162733 l -5.983816612876254 10.330023922597254 a32.93798372833392,32.93798372833392 0 0,0 -0.48815994284770825,-0.288413498749109 l 6.160744426752345 -10.225491851554395" fill="#ff5908" stroke="none" /><path d="M 89.1626897886671 117.98757091392108 l -6.174545034025355 10.248397849180897 a32.964725857799785,32.964725857799785 0 0,0 -0.4835152967967429,-0.29701458667316694 l 6.350039530754406 -10.140594795679352" fill="#ff5908" stroke="none" /><path d="M 88.54995079064634 117.60387380957326 l -7.4885832982519265 11.513319548636787 a34.73446055889636,34.73446055889636 0 0,0 -0.4983986567625886,-0.33031145285415014 l 7.685656653754477 -11.38271007469132" fill="#ff740a" stroke="none" /><path d="M 88.24862548938628 117.40417183066458 l -6.763836769964701 10.017464533422066 a33.08714538379908,33.08714538379908 0 0,0 -0.46927516476409875,-0.32277173740415327 l 6.93526881935169 -9.899552006652812" fill="#ff5b08" stroke="none" /><path d="M 87.95078237400918 117.19931262002967 l -6.871676910267932 9.8087795466985 a32.976314113901665,32.976314113901665 0 0,0 -0.4620965748567766,-0.3296936367352912 l 7.039500812973596 -9.68904164811899" fill="#ff5908" stroke="none" /><path d="M 87.65650970185807 116.9893568818739 l -7.504597589258727 10.329192442267269 a33.767584011319414,33.767584011319414 0 0,0 -0.46730321077824793,-0.3456997436917998 l 7.681285770455539 -10.198482749835703" fill="#ff6509" stroke="none" /><path d="M 87.36589467227662 116.77436683061367 l -7.184859728784686 9.539375332946934 a32.94244074991157,32.94244074991157 0 0,0 -0.4500114221169099,-0.34504956900778677 l 7.347999879395084 -9.41428642211178" fill="#ff5908" stroke="none" /><path d="M 87.07902340077011 116.55440617244103 l -7.33191150386297 9.39367393193598 a32.91629288998939,32.91629288998939 0 0,0 -0.44365286047773317,-0.3524646641729839 l 7.492521857058061 -9.266075353757866" fill="#ff5808" stroke="none" /><path d="M 86.51685102203217 116.09983520530335 l -8.380060870268343 10.006386434073642 a34.051941987973116,34.051941987973116 0 0,0 -0.44613642049936664,-0.38020713627250846 l 8.551062767344765 -9.860654907578182" fill="#ff6909" stroke="none" /><path d="M 85.97065885151581 115.62618273729859 l -7.964814775263952 8.871382471190216 a32.92223558542625,32.92223558542625 0 0,0 -0.41842664334802937,-0.3822228178984644 l 8.116340968078836 -8.732966886705176" fill="#ff5808" stroke="none" /><path d="M 85.70375840098266 115.38237550388516 l -8.127871010825828 8.745372905859348 a32.93917226742129,32.93917226742129 0 0,0 -0.4119971523561598,-0.38956902311840247 l 8.277203997572805 -8.604169245995015" fill="#ff5908" stroke="none" /><path d="M 85.44109423537348 115.13401014063109 l -8.266904099614106 8.593462482542147 a32.92431552882915,32.92431552882915 0 0,0 -0.405047546898447,-0.3964242758480615 l 8.413601598888347 -8.449888103771517" fill="#ff5808" stroke="none" /><path d="M 85.18274418774928 114.88116024355367 l -8.408150609838211 8.444413605485952 a32.916590024761234,32.916590024761234 0 0,0 -0.39807031561864914,-0.403243128076717 l 8.552261550512393 -8.298429983428571" fill="#ff5808" stroke="none" /><path d="M 84.19399662182784 113.82643327865904 l -8.01359339294892 7.009957654629082 a31.646933144676332,31.646933144676332 0 0,0 -0.3551350878407508,-0.4131023388695138 l 8.13307099036045 -6.870978216598037" fill="#ff4506" stroke="none" /><path d="M 83.95833913139862 113.55231037782056 l -11.808750595682433 9.976264587428266 a36.458733639900956,36.458733639900956 0 0,0 -0.4008794017271057,-0.4828850638964895 l 11.978725997303075 -9.771518266418015" fill="#ff8d0d" stroke="none" /><path d="M 83.72743513129214 113.27417163493432 l -9.24157352246474 7.538715261167227 a32.926395472232045,32.926395472232045 0 0,0 -0.35447943985093305,-0.4422676049195941 l 9.369970874370535 -7.378519822669373" fill="#ff5908" stroke="none" /><path d="M 83.50135304334701 112.99209946851258 l -9.737411557918778 7.66786633223342 a33.39408560311284,33.39408560311284 0 0,0 -0.35174019431641945,-0.45467161620932256 l 9.867958569453267 -7.499116721910845" fill="#ff6008" stroke="none" /><path d="M 82.6465618267979 111.8261652097733 l -5.142314194005963 3.5044269966506136 a27.222893526706756,27.222893526706756 0 0,0 -0.2605579552667804,-0.3894987901562236 l 5.201875254683475 -3.415391292288569" fill="#ff0000" stroke="none" /><path d="M 82.44556493220864 111.52570212397912 l -12.471286660824967 8.188263228086191 a35.91913689423417,35.91913689423417 0 0,0 -0.33489487217072283,-0.5197642786486838 l 12.610386396372736 -7.972377349516058" fill="#ff850c" stroke="none" /><path d="M 82.24976979558568 111.22182372390057 l -11.475928811182223 7.255165071329163 a34.5769791298196,34.5769791298196 0 0,0 -0.31372081798541646,-0.5058178494755845 l 11.599114268835596 -7.056550890488314" fill="#ff710a" stroke="none" /><path d="M 82.05923443525364 110.91462005526583 l -12.964313238870345 7.887096722214094 a36.174969932790944,36.174969932790944 0 0,0 -0.31906172631401575,-0.5347658056985004 l 13.098155840882592 -7.6627688226294834" fill="#ff890c" stroke="none" /><line stroke="#e1ed5e" stroke-width="0.3" x1="26.63291911575756" x2="22.317208475507996" y1="142.92168965132927" y2="145.44649492493687" /><path d="M 25.769776987707644 143.4266507060508 a86.0,86.0 0 0,1 -11.730757126820373,-40.83630448921669" fill="none" id="id81" stroke="none" /><text fill="#e1ed5e" style="font-size:6.75px; font-family:Arial;" text-anchor="middle"><textPath startOffset="21.46611528233685" xlink:href="#id81">September</textPath></text><path d="M 81.87401531095188 110.60418214915194 l -12.865794438289344 7.52683123469695 a35.905765829501235,35.905765829501235 0 0,0 -0.3075038243359991,-0.536158837304311 l 12.99345025877772 -7.304252551534332" fill="#ff850c" stroke="none" /><path d="M 81.35079622478065 109.6543875284942 l -10.60530808531788 5.490194399118646 a32.94214361513973,32.94214361513973 0 0,0 -0.2563547109370464,-0.5058121650565282 l 10.698241466041194 -5.306828022359434" fill="#ff5908" stroke="none" /><path d="M 81.02952815118164 109.00673069616217 l -10.788004726931153 5.121889117926476 a32.94214361513973,32.94214361513973 0 0,0 -0.23879192542533817,-0.5143365634392013 l 10.874571269196318 -4.935432487208447" fill="#ff5908" stroke="none" /><path d="M 80.87730276802145 108.67885076344099 l -13.55594275230785 6.1523749854850704 a35.886749204103296,35.886749204103296 0 0,0 -0.25045347789876116,-0.5647064748745408 l 13.65983731493789 -5.918120174117834" fill="#ff840c" stroke="none" /><path d="M 80.32549172779594 107.34259656027581 l -11.16498766569916 4.166813162263629 a32.91718429430492,32.91718429430492 0 0,0 -0.19354636458888194,-0.5325564704926542 l 11.235058291293265 -3.9740088947648573" fill="#ff5808" stroke="none" /><path d="M 79.58551787078972 104.9243191809786 l -14.492476998498304 3.4958311463351883 a35.90814290767598,35.90814290767598 0 0,0 -0.13976720379800878,-0.6021134559142483 l 14.550504768226869 -3.2458490330723655" fill="#ff850c" stroke="none" /><path d="M 79.50377843672027 104.57218783832718 l -11.652758098820554 2.599435154323654 a32.93917226742129,32.93917226742129 0 0,0 -0.11868448253503212,-0.5544543903049416 l 11.695776620080027 -2.3984669446025486" fill="#ff5908" stroke="none" /><path d="M 79.4281124754447 104.21870165774334 l -11.72051818979474 2.403540727990001 a32.96442872302794,32.96442872302794 0 0,0 -0.10920654836571048,-0.5568418373590948 l 11.760154671136117 -2.2014351635629517" fill="#ff5908" stroke="none" /><path d="M 79.1416061653843 102.43462659150553 l -14.799056249635225 1.727370580890745 a35.899525999292536,35.899525999292536 0 0,0 -0.06635890364265175,-0.6144010327018395 l 14.826597454778929 -1.4723732263041234" fill="#ff850c" stroke="none" /><path d="M 79.10278846688536 102.07522291339032 l -11.849391612162282 1.1767181924883883 a32.90767598160594,32.90767598160594 0 0,0 -0.051125057832527854,-0.5641607529995938 l 11.867891266271887 -0.9725760509402281" fill="#ff5808" stroke="none" /><line stroke="#e1ed5e" stroke-width="0.3" x1="15.007084014347285" x2="10.007500721073583" y1="101.09737516637583" y2="101.16192664675087" /><path d="M 14.007167355692545 101.11028546245083 a86.0,86.0 0 0,1 10.666146001902534,-42.60595125391555" fill="none" id="id82" stroke="none" /><text fill="#e1ed5e" style="font-size:6.75px; font-family:Arial;" text-anchor="middle"><textPath startOffset="22.20632615414155" xlink:href="#id82">October</textPath></text><path d="M 79.16333360222342 97.38593545837743 l -14.777449308181899 -1.853905299182847 a35.89328616908384,35.89328616908384 0 0,0 0.08218537171293648,-0.6123764798765232 l 14.743347937411128 2.1080001211240296" fill="#ff850c" stroke="none" /><path d="M 79.26566170972629 96.67025291283419 l -11.860598916154025 -1.9047048495216046 a33.0125645560665,33.0125645560665 0 0,0 0.09493177714211053,-0.5602927224725371 l 11.826055277491692 2.1085833603099697" fill="#ff5a08" stroke="none" /><path d="M 79.32604984820605 96.31383870115002 l -12.340307903835573 -2.2002745037606704 a33.534927484966396,33.534927484966396 0 0,0 0.10621673454275356,-0.5674140431481653 l 12.300605445382958 2.4123666243714084" fill="#ff6209" stroke="none" /><path d="M 79.62865764111835 94.90015583598534 l -11.679761778906869 -2.9239587600995773 a33.04019808984789,33.04019808984789 0 0,0 0.1428652943947549,-0.5505182577243514 l 11.627700152641806 3.1245734433727925" fill="#ff5a08" stroke="none" /><path d="M 79.71946130924805 94.55025226153421 l -12.674798641252407 -3.4059477553312183 a34.124442872302794,34.124442872302794 0 0,0 0.15731892938530312,-0.5659598918832903 l 12.614292941300743 3.623618950633451" fill="#ff6a09" stroke="none" /><path d="M 79.81627453868168 94.20196356495316 l -12.492062527470612 -3.5885066818792932 a33.99726918995401,33.99726918995401 0 0,0 0.16641518033491084,-0.5610692586716833 l 12.428441450023994 3.8030053272975155" fill="#ff6909" stroke="none" /><path d="M 79.91906864156998 93.8553929516997 l -8.59750834064003 -2.6307699281856243 a29.991001061195615,29.991001061195615 0 0,0 0.15530270960509535,-0.49235202974059117 l 8.55095014726673 2.7783721243526296" fill="#ff2c04" stroke="none" /><path d="M 80.38941819471856 92.48833698450439 l -12.27301936794345 -4.701073460748308 a34.142568093385215,34.142568093385215 0 0,0 0.21494608216900463,-0.5470143338301721 l 12.190279735892753 4.911636799474244" fill="#ff6b09" stroke="none" /><path d="M 80.52162464483688 92.15188598940014 l -11.049551110565266 -4.452021038740281 a32.912727272727274,32.912727272727274 0 0,0 0.21624964709835606,-0.5236656732168103 l 10.97127977658071 4.641561282410403" fill="#ff5808" stroke="none" /><path d="M 80.65960295795068 91.81776055985345 l -9.180497205046636 -3.8839443754939693 a30.968277325787056,30.968277325787056 0 0,0 0.21192519770875537,-0.4891525752210947 l 9.1122812974952 4.041396095301663" fill="#ff3b05" stroke="none" /><line stroke="#e1ed5e" stroke-width="0.3" x1="26.266209847984243" x2="21.928928074336255" y1="57.711370442889674" y2="55.22380399835377" /><path d="M 25.398753493254645 57.213857153982495 a86.0,86.0 0 0,1 29.58750427330803,-30.492523968695096" fill="none" id="id83" stroke="none" /><text fill="#e1ed5e" style="font-size:6.75px; font-family:Arial;" text-anchor="middle"><textPath startOffset="21.46611528233685" xlink:href="#id83">November</textPath></text><path d="M 87.22198572758235 83.33499621200491 l -6.14881481981821 -8.019244624349842 a31.10525645560665,31.10525645560665 0 0,0 0.42770297332800433,-0.3221370122981131 l 6.009865692731816 8.123898226153809" fill="#ff3d05" stroke="none" /><path d="M 87.51073957382395 83.11751280151077 l -6.532585640954366 -8.830490332742153 a31.984181110718076,31.984181110718076 0 0,0 0.44542493182944787,-0.32362015600798355 l 6.379615392771137 8.941629723566804" fill="#ff4a06" stroke="none" /><path d="M 87.80319425747018 82.90503203632743 l -11.65647042197997 -16.337637299445344 a41.06967102935974,41.06967102935974 0 0,0 0.5790214618731667,-0.40564153686608584 l 11.373517820523142 16.535863679075373" fill="#ffce13" stroke="none" /><path d="M 88.09926311788651 82.69761687909137 l -5.082923856009589 -7.390021038383414 a29.969310222851078,29.969310222851078 0 0,0 0.4275554597447756,-0.28868735498612386 l 4.954963701858273 7.476420305668203" fill="#ff2b04" stroke="none" /><path d="M 88.70189139769569 82.29822771554957 l -5.6871809216211995 -8.91062257929407 a31.570866643084543,31.570866643084543 0 0,0 0.46060518487862595,-0.28843092451499597 l 5.532956584370331 9.007197845131996" fill="#ff4406" stroke="none" /><line stroke="#e1ed5e" stroke-width="0.3" x1="56.762969772571076" x2="54.21961505331055" y1="26.818313649435495" y2="22.513508569990535" /><path d="M 56.25429882871897 25.957352633546506 a86.0,86.0 0 0,1 42.265352541879196,-11.944610805530505" fill="none" id="id84" stroke="none" /><text fill="#e1ed5e" style="font-size:6.75px; font-family:Arial;" text-anchor="middle"><textPath startOffset="22.20632615414155" xlink:href="#id84">December</textPath></text><path d="M 89.3179101791058 81.91981866633112 l -6.468351128050775 -10.94813498911487 a33.71617969579059,33.71617969579059 0 0,0 0.5022157703633203,-0.29091578997939804 l 6.278938625222134 11.057854936484315" fill="#ff6409" stroke="none" /><path d="M 89.63071344664047 81.73862282372117 l -5.952491330121673 -10.48294776680309 a33.05505482844004,33.05505482844004 0 0,0 0.49720455022414173,-0.2766937938877921 l 5.771162690825486 10.583856958251067" fill="#ff5a08" stroke="none" /><path d="M 89.94658935756843 81.56283822128135 l -6.0354603487474945 -11.068558006498103 a33.60713123452423,33.60713123452423 0 0,0 0.5102762031476838,-0.2725718757374762 l 5.844039099071505 11.170808608737328" fill="#ff6309" stroke="none" /><path d="M 90.58718382345135 81.22770947309562 l -5.625048336986653 -11.218219885444737 a33.5494870887867,33.5494870887867 0 0,0 0.5184653589225724,-0.2544086999529732 l 5.4311117110536555 11.31338374553254" fill="#ff6209" stroke="none" /></svg>