<?xml version="1.0" encoding="utf-8" ?>
<svg baseProfile="full" height="200mm" version="1.1" viewBox="0,0,200,200" width="200mm" xmlns="http://www.w3.org/2000/svg" xmlns:ev="http://www.w3.org/2001/xml-events" xmlns:xlink="http://www.w3.org/1999/xlink"><defs /><rect fill="#1a1a1a" height="200" width="200" x="0" y="0" /><text alignment-baseline="middle" fill="#e1ed5e" style="dominant-baseline: central; font-size:9.0px; font-family:Arial;" text-anchor="middle" x="100.0" y="100.0">2023</text><line stroke="#e1ed5e" stroke-width="0.3" x1="100.0" x2="100.0" y1="15.0" y2="10.0" /><path d="M 100.0 14.0 a86.0,86.0 0 0,1 42.46469731375804,11.215312516191453" fill="none" id="id73" stroke="none" /><text fill="#e1ed5e" style="font-size:6.75px; font-family:Arial;" text-anchor="middle"><textPath startOffset="22.20632615414155" xlink:href="#id73">January</textPath></text><path d="M 103.95276090670814 79.375362276772 l 2.941905574159947 -15.350216751036669 a36.629586133710646,36.629586133710646 0 0,0 0.6182264634811554,0.124010412601713 l -3.2056984471082277 15.297302382357747" fill="#ff8f0d" stroke="none" /><path d="M 104.66035177308747 79.52364482259891 l 5.8160926365739165 -25.554375371165637 a47.20788114609127,47.20788114609127 0 0,0 0.7907911607563517,0.1871547183133387 l -6.255107484292792 25.450474740711428" fill="#deff1b" stroke="none" /><line stroke="#e1ed5e" stroke-width="0.3" x1="143.23703022742887" x2="145.7803849466894" y1="26.81831364943548" y2="22.513508569990506" /><path d="M 143.74570117128098 25.957352633546492 a86.0,86.0 0 0,1 28.547481713284135,27.462654790039103" fill="none" id="id74" stroke="none" /><text fill="#e1ed5e" style="font-size:6.75px; font-family:Arial;" text-anchor="middle"><textPath startOffset="19.985693538727396" xlink:href="#id74">February</textPath></text><path d="M 112.48926042617603 83.11751280151076 l 9.213159979895487 -12.453984472308957 a36.49141846480368,36.49141846480368 0 0,0 0.5017636874535442,0.37791800673784764 l -9.426169821107415 12.293549876065262" fill="#ff8d0d" stroke="none" /><path d="M 114.94478906791727 85.2469230424477 l 11.97739996299922 -11.823753590798406 a37.83030774672798,37.83030774672798 0 0,0 0.45348763690288313,0.4673588725171008 l -12.179151863605213 11.61583052273119" fill="#ffa00e" stroke="none" /><path d="M 115.19652480421416 85.50635884689758 l 11.430022858753679 -10.901350922060391 a36.79509020162717,36.79509020162717 0 0,0 0.4331880328041269,0.4620947902333193 l -11.615978213528269 10.702986714949017" fill="#ff920d" stroke="none" /><path d="M 115.4437574822437 85.77008943001954 l 11.104864683270495 -10.232045635031302 a36.10009197028652,36.10009197028652 0 0,0 0.4171388995683815,0.4606151915595813 l -11.279347223454911 10.039377656202172" fill="#ff870c" stroke="none" /><path d="M 116.15771136456269 86.58626213691792 l 9.388962013722825 -7.794487252367237 a33.202730810045985,33.202730810045985 0 0,0 0.3612797170131708,0.44288621486355834 l -9.521740222812404 7.631716867895578" fill="#ff5d08" stroke="none" /><path d="M 116.82858285166822 87.43820079747576 l 13.49286842409099 -10.07183464605927 a37.83743898125221,37.83743898125221 0 0,0 0.38510835033466295,0.5252873570630113 l -13.664239386939279 9.838084845324765" fill="#ffa10e" stroke="none" /><path d="M 117.45458315368197 88.32363383020206 l 12.93800138198708 -8.654967025641378 a36.565999292536254,36.565999292536254 0 0,0 0.34546749005423477,0.5261706885147432 l -13.085065507399241 8.43097827314896" fill="#ff8e0d" stroke="none" /><line stroke="#e1ed5e" stroke-width="0.3" x1="172.23445277983987" x2="176.4835382374775" y1="55.19839476539836" y2="52.563006222186495" /><path d="M 173.08426987136738 54.67131705675599 a86.0,86.0 0 0,1 12.851231095245387,41.99856678651699" fill="none" id="id75" stroke="none" /><text fill="#e1ed5e" style="font-size:6.75px; font-family:Arial;" text-anchor="middle"><textPath startOffset="22.20632615414155" xlink:href="#id75">March</textPath></text><path d="M 117.84615892207809 88.93136811851018 l 12.714898993453412 -7.886096777651762 a35.961924301379554,35.961924301379554 0 0,0 0.32174654473599723,0.528866721988258 l -12.848761336475633 7.666062282456422" fill="#ff850c" stroke="none" /><path d="M 118.3937258080291 89.86733742301442 l 13.194814357853092 -7.268706897638377 a36.06443579766537,36.06443579766537 0 0,0 0.2948557872721337,0.5463229929820468 l -13.31797824434369 7.0405029213238715" fill="#ff870c" stroke="none" /><path d="M 118.89224826269711 90.83032412892265 l 11.802342345873402 -5.728468752172716 a34.11909444640962,34.11909444640962 0 0,0 0.2518993346407168,0.5305642410929419 l -11.899199874355874 5.524462095439233" fill="#ff6a09" stroke="none" /><path d="M 119.34039704204932 91.81776055985345 l 12.071910507434932 -5.107199301911916 a34.10780332507959,34.10780332507959 0 0,0 0.2241017698481823,0.5426802112803083 l -12.158033964169311 4.898644520178305" fill="#ff6a09" stroke="none" /><path d="M 119.61058180528143 92.48833698450437 l 13.91622934956179 -5.330490770656563 a35.90220021223912,35.90220021223912 0 0,0 0.21608920807252385,0.579011644839331 l -14.00592314613594 5.090155988787898" fill="#ff850c" stroke="none" /><path d="M 119.85752413597 93.16781622104841 l 14.294326712663224 -4.9181089459379095 a36.11673151750973,36.11673151750973 0 0,0 0.19720200837695576,0.5896089047017012 l -14.37686601481195 4.671326938313894" fill="#ff880c" stroke="none" /><path d="M 119.97218684219823 93.5106431181261 l 14.168313147609368 -4.603564004053929 a35.89744605588963,35.89744605588963 0 0,0 0.18588811453831586,0.5893161215945022 l -14.24545674591589 4.358997716033008" fill="#ff840c" stroke="none" /><path d="M 120.08093135843002 93.85539295169968 l 13.01261399863287 -3.9817575323389867 a34.60817828086311,34.60817828086311 0 0,0 0.16940555423712345,0.5711513128754359 l -13.079225449981696 3.757176832717021" fill="#ff720a" stroke="none" /><path d="M 120.18372546131832 94.20196356495316 l 25.634116694841634 -7.363731877040042 a47.67081712062257,47.67081712062257 0 0,0 0.21976979786608472,0.7906288933283404 l -25.75707326327408 6.921391680292749" fill="#d8ff1c" stroke="none" /><path d="M 120.91429891909075 98.10471618934814 l 15.226379010723678 -1.3798363380726002 a36.28877255040679,36.28877255040679 0 0,0 0.051021178147986214,0.6225876053106814 l -15.247874672691157 1.1175348155541502" fill="#ff8a0c" stroke="none" /><line stroke="#e1ed5e" stroke-width="0.3" x1="184.98032266829074" x2="189.97916517819016" y1="98.17113171792111" y2="98.06355123074" /><path d="M 185.9800911702706 98.14961562048488 a86.0,86.0 0 0,1 -9.607161424134198,41.387399972396054" fill="none" id="id76" stroke="none" /><text fill="#e1ed5e" style="font-size:6.75px; font-family:Arial;" text-anchor="middle"><textPath startOffset="21.466115282336823" xlink:href="#id76">April</textPath></text><path d="M 120.89721153311464 102.0752229133903 l 17.30824296447021 1.7188160407658717 a38.393378139370355,38.393378139370355 0 0,0 -0.07096869414143733,0.657081967550369 l -17.27609196882772 -2.016494330201032" fill="#ffa80f" stroke="none" /><path d="M 120.76222939487914 103.15116336523771 l 15.321306145886478 2.325373528837739 a36.49676689069685,36.49676689069685 0 0,0 -0.09961574522189322,0.6203073405873835 l -15.279008646303296 -2.588760099118327" fill="#ff8d0d" stroke="none" /><path d="M 120.41448212921028 104.9243191809786 l 10.308194181041776 2.4865111936552298 a31.603848602759108,31.603848602759108 0 0,0 -0.1321171586692428,0.5277423748993869 l -10.263865708077471 -2.663581407952013" fill="#ff4406" stroke="none" /><path d="M 120.13307415673323 105.97154293290107 l 8.845163814171443 2.623507719371467 a30.226034665723382,30.226034665723382 0 0,0 -0.15224310671119423,0.49753928145938436 l -8.798693934954116 -2.7753739733829086" fill="#ff2f04" stroke="none" /><path d="M 120.02730092923936 106.31721596034902 l 8.887672675552365 2.803440557203915 a30.31933498408207,30.31933498408207 0 0,0 -0.161281174369341,0.4963724152128158 l -8.838099250166778 -2.956011872394526" fill="#ff3004" stroke="none" /><path d="M 119.79798401119884 107.00284435728193 l 59.393952033596506 21.00853307184577 a84.0,84.0 0 0,0 -0.49390295597909306,1.3590088119754755 l -59.02352481661219 -22.027789680827375" fill="#4dd2ff" stroke="none" /><line stroke="#e1ed5e" stroke-width="0.3" x1="174.80103733775053" x2="179.2010983576182" y1="140.37084112569926" y2="142.7455964860345" /><path d="M 175.68104954172406 140.8457921977663 a86.0,86.0 0 0,1 -30.038265399797805,32.042727171017184" fill="none" id="id77" stroke="none" /><text fill="#e1ed5e" style="font-size:6.75px; font-family:Arial;" text-anchor="middle"><textPath startOffset="22.206326154141568" xlink:href="#id77">May</textPath></text><path d="M 116.93607887273984 112.41649034213515 l 12.47243060726372 9.14401824304846 a36.4652706048815,36.4652706048815 0 0,0 -0.37548590120096526,0.5030247256877021 l -12.313183439367663 -9.357355848245478" fill="#ff8d0d" stroke="none" /><path d="M 116.498646956653 112.99209946851258 l 7.322201067454942 5.7659737096479 a30.31992925362575,30.31992925362575 0 0,0 -0.32641871009565826,0.4072575300154476 l -7.22186444530443 -5.891159073241599" fill="#ff3104" stroke="none" /><path d="M 116.27256486870786 113.27417163493432 l 10.04512854746355 8.194206722163633 a33.96339582596392,33.96339582596392 0 0,0 -0.37344209301971437,0.4498350580562391 l -9.902590454550293 -8.365903037333641" fill="#ff6809" stroke="none" /><path d="M 116.0416608686014 113.55231037782055 l 18.356608151217113 15.508023339170277 a45.030477538026176,45.030477538026176 0 0,0 -0.505322349020984,0.5878040537554948 l -18.08694329262535 -15.8217044920873" fill="#faff18" stroke="none" /><path d="M 115.80600337817218 113.82643327865902 l 11.217062687451062 9.81221913723979 a35.903091616554654,35.903091616554654 0 0,0 -0.41090430191923083,0.4616553391728527 l -11.046499535883493 -10.003848646153509" fill="#ff850c" stroke="none" /><path d="M 115.56566222782051 114.09645910891815 l 8.833719791944151 7.999927533068246 a32.9177785638486,32.9177785638486 0 0,0 -0.3839680047626733,0.41672143456793664 l -8.694705379185756 -8.150800222437518" fill="#ff5808" stroke="none" /><path d="M 115.32070863581623 114.36230785411682 l 8.696006040690039 8.152019519885341 a32.91956137247966,32.91956137247966 0 0,0 -0.3911054711386562,0.41007252286981305 l -8.554394018172419 -8.300499159337662" fill="#ff5808" stroke="none" /><path d="M 115.07121518719521 114.62390073753431 l 8.558658953492458 8.304637511155851 a32.92550406791652,32.92550406791652 0 0,0 -0.3981781158485476,0.40335232914046765 l -8.414440212588374 -8.450730334276985" fill="#ff5808" stroke="none" /><path d="M 114.81725581225074 114.88116024355365 l 8.413811252313357 8.45009866139788 a32.92461266360099,32.92461266360099 0 0,0 -0.4050512023642783,0.3964278534907473 l -8.267110097573285 -8.593676617811198" fill="#ff5808" stroke="none" /><path d="M 113.75828350139079 115.86535959552629 l 7.835456822511205 9.035454173610654 a32.95967456667846,32.95967456667846 0 0,0 -0.431825921622795,0.36801141867024584 l -7.678765424311362 -9.168989982503847" fill="#ff5908" stroke="none" /><path d="M 113.48314897796784 116.09983520530334 l 17.51464390831685 20.913725796862877 a48.279051998585075,48.279051998585075 0 0,0 -0.6417202656356774,0.528092090524909 l -17.152053514136483 -21.212113006244962" fill="#d0ff1d" stroke="none" /><path d="M 113.20401910651253 116.32954008644616 l 15.602694752901128 19.296005812231545 a45.81491333569154,45.81491333569154 0 0,0 -0.617503235308162,0.4905819162853007 l -15.268234024875614 -19.561721642521974" fill="#f0ff19" stroke="none" /><path d="M 112.92097659922987 116.55440617244103 l 7.333556905906026 9.395782027522143 a32.91896710293598,32.91896710293598 0 0,0 -0.44969075950000453,0.34480369858690024 l -7.1707374179125285 -9.520625067936416" fill="#ff5808" stroke="none" /><path d="M 112.34349029814194 116.9893568818739 l 16.950096596037824 23.329806505026436 a49.83722674212947,49.83722674212947 0 0,0 -0.6983682802860698,0.4982672251562289 l -16.54600098790287 -23.618117992026885" fill="#bdff1f" stroke="none" /><path d="M 111.7513745106137 117.40417183066458 l 12.028552314776325 17.814681267406257 a42.49532366466219,42.49532366466219 0 0,0 -0.6097579145427174,0.4041142966760936 l -11.720119701493644 -18.019093585173668" fill="#ffe215" stroke="none" /><path d="M 111.45004920935366 117.60387380957326 l 14.760559369154633 22.69361639782682 a48.0716519278387,48.0716519278387 0 0,0 -0.697538435622772,0.4452020325032743 l -14.36773913148493 -22.944332859153903" fill="#d3ff1c" stroke="none" /><path d="M 111.1453310114006 117.79835938074945 l 10.864470246896822 17.349843242693353 a41.470802971347716,41.470802971347716 0 0,0 -0.6082795195563863,0.37365496247937874 l -10.564211527408126 -17.53428667200111" fill="#ffd413" stroke="none" /><line stroke="#e1ed5e" stroke-width="0.3" x1="143.8653032363475" x2="146.44561519142675" y1="172.8068346515853" y2="177.08958963109032" /><path d="M 144.38136562736335 173.6633856474863 a86.0,86.0 0 0,1 -40.68145358897372,12.25698825130547" fill="none" id="id78" stroke="none" /><text fill="#e1ed5e" style="font-size:6.75px; font-family:Arial;" text-anchor="middle"><textPath startOffset="21.466115282336833" xlink:href="#id78">June</textPath></text><path d="M 110.8373102113329 117.98757091392108 l 6.152464062388546 10.211748252978502 a32.92193845065441,32.92193845065441 0 0,0 -0.48792214256522565,0.2882730021506494 l -5.975774048794938 -10.3161398274229" fill="#ff5808" stroke="none" /><path d="M 109.89434966115114 118.52300852407294 l 4.231995697303683 7.922632114244082 a29.982087018040325,29.982087018040325 0 0,0 -0.4573112015771699,0.23924360680300386 l -4.094993593200017 -7.994305139991802" fill="#ff2b04" stroke="none" /><path d="M 109.57404056367764 118.69057910512821 l 5.449921838235797 10.639415464851972 a32.95402900601344,32.95402900601344 0 0,0 -0.5070936047334385,0.2542672605038973 l -5.265974325819598 -10.73165056626517" fill="#ff5908" stroke="none" /><path d="M 109.2508944713604 118.85261126421891 l 5.267283260304403 10.734318074049282 a32.95700035373187,32.95700035373187 0 0,0 -0.5114413769520507,0.245522941178278 l -5.081729215352119 -10.82339529172712" fill="#ff5908" stroke="none" /><path d="M 100.90346689309514 120.98055641714683 l 0.3888071532152636 9.028986535939453 a30.037354085603113,30.037354085603113 0 0,0 -0.5167564152700305,0.017798135792093092 l -0.23333038627058092 -9.03434147015764" fill="#ff2c04" stroke="none" /><line stroke="#e1ed5e" stroke-width="0.3" x1="102.19456741930631" x2="102.32365962044197" y1="184.97166512339345" y2="189.96999836594603" /><path d="M 102.22038585953345 185.97133177190398 a86.0,86.0 0 0,1 -42.740103519485714,-10.115201625700543" fill="none" id="id79" stroke="none" /><text fill="#e1ed5e" style="font-size:6.75px; font-family:Arial;" text-anchor="middle"><textPath startOffset="22.20632615414155" xlink:href="#id79">July</textPath></text><path d="M 99.81925306533755 120.99922214144158 l -0.05367295249749981 6.235736470922309 a27.235967456667844,27.235967456667844 0 0,0 -0.4687703106481538,-0.008070306015389703 l 0.16100295303832152 -6.2338886876277595" fill="#ff0000" stroke="none" /><path d="M 98.01472825383883 120.90594882070398 l -1.2573434542613433 13.240483553781832 a34.300049522461975,34.300049522461975 0 0,0 -0.5872942734805339,-0.060875452747659056 l 1.4850703243474703 -13.216878732578412" fill="#ff6d0a" stroke="none" /><path d="M 97.2962882734958 120.8252237178851 l -0.8718059644188763 6.715048083578116 a27.77140431552883,27.77140431552883 0 0,0 -0.47353075561816804,-0.06562704790660312 l 0.9872653112238754 -6.699046470178908" fill="#ff0901" stroke="none" /><path d="M 96.93821686468263 120.77559828337769 l -1.7387722379780357 11.798364523546475 a32.92580120268836,32.92580120268836 0 0,0 -0.5599959691217065,-0.08745985347803131 l 1.9416040707082594 -11.766686362721337" fill="#ff5808" stroke="none" /><path d="M 96.22490169976321 120.6578951692458 l -1.8842107186537387 10.31067919483758 a31.481429076759817,31.481429076759817 0 0,0 -0.5322346124673352,-0.10200403020841602 l 2.061412945692769 -10.276717966280694" fill="#ff4206" stroke="none" /><path d="M 95.16358092515715 120.4354850818985 l -3.433840435182729 14.509122121324156 a35.909925716307036,35.909925716307036 0 0,0 -0.6002886413249952,-0.14753634308760133 l 3.6830823612509347 -14.447864519922526" fill="#ff850c" stroke="none" /><line stroke="#e1ed5e" stroke-width="0.3" x1="58.666819895761336" x2="56.23545636021788" y1="174.27360380694188" y2="178.64263932499728" /><path d="M 58.180547188652646 175.14741091055294 a86.0,86.0 0 0,1 -31.652253787137756,-30.449443065178592" fill="none" id="id80" stroke="none" /><text fill="#e1ed5e" style="font-size:6.75px; font-family:Arial;" text-anchor="middle"><textPath startOffset="22.20632615414155" xlink:href="#id80">August</textPath></text><line stroke="#e1ed5e" stroke-width="0.3" x1="26.63291911575756" x2="22.317208475507996" y1="142.92168965132927" y2="145.44649492493687" /><path d="M 25.769776987707644 143.4266507060508 a86.0,86.0 0 0,1 -11.730757126820373,-40.83630448921669" fill="none" id="id81" stroke="none" /><text fill="#e1ed5e" style="font-size:6.75px; font-family:Arial;" text-anchor="middle"><textPath startOffset="21.46611528233685" xlink:href="#id81">September</textPath></text><line stroke="#e1ed5e" stroke-width="0.3" x1="15.007084014347285" x2="10.007500721073583" y1="101.09737516637583" y2="101.16192664675087" /><path d="M 14.007167355692545 101.11028546245083 a86.0,86.0 0 0,1 10.666146001902534,-42.60595125391555" fill="none" id="id82" stroke="none" /><text fill="#e1ed5e" style="font-size:6.75px; font-family:Arial;" text-anchor="middle"><textPath startOffset="22.20632615414155" xlink:href="#id82">October</textPath></text><line stroke="#e1ed5e" stroke-width="0.3" x1="26.266209847984243" x2="21.928928074336255" y1="57.711370442889674" y2="55.22380399835377" /><path d="M 25.398753493254645 57.213857153982495 a86.0,86.0 0 0,1 29.58750427330803,-30.492523968695096" fill="none" id="id83" stroke="none" /><text fill="#e1ed5e" style="font-size:6.75px; font-family:Arial;" text-anchor="middle"><textPath startOffset="21.46611528233685" xlink:href="#id83">November</textPath></text><line stroke="#e1ed5e" stroke-width="0.3" x1="56.762969772571076" x2="54.21961505331055" y1="26.818313649435495" y2="22.513508569990535" /><path d="M 56.25429882871897 25.957352633546506 a86.0,86.0 0 0,1 42.265352541879196,-11.944610805530505" fill="none" id="id84" stroke="none" /><text fill="#e1ed5e" style="font-size:6.75px; font-family:Arial;" text-anchor="middle"><textPath startOffset="22.20632615414155" xlink:href="#id84">December</textPath></text></svg>