<?xml version="1.0" encoding="utf-8" ?>
<svg baseProfile="full" height="200mm" version="1.1" viewBox="0,0,200,200" width="200mm" xmlns="http://www.w3.org/2000/svg" xmlns:ev="http://www.w3.org/2001/xml-events" xmlns:xlink="http://www.w3.org/1999/xlink"><defs /><rect fill="#1a1a1a" height="200" width="200" x="0" y="0" /><text alignment-baseline="middle" fill="#e1ed5e" style="dominant-baseline: central; font-size:9.0px; font-family:Arial;" text-anchor="middle" x="100.0" y="100.0">2025</text><line stroke="#e1ed5e" stroke-width="0.3" x1="100.0" x2="100.0" y1="15.0" y2="10.0" /><path d="M 100.0 14.0 a86.0,86.0 0 0,1 42.46469731375804,11.215312516191453" fill="none" id="id97" stroke="none" /><text fill="#e1ed5e" style="font-size:6.75px; font-family:Arial;" text-anchor="middle"><textPath startOffset="22.20632615414155" xlink:href="#id97">January</textPath></text><path d="M 101.44485096284872 79.0497635885617 l 0.2473016842353026 -3.585856868905954 a24.594374438940054,24.594374438940054 0 0,0 0.4220978016328601,0.032762913169908474 l -0.30898967523050386 3.581068693547581" fill="#ff0801" stroke="none" /><path d="M 101.80526077348638 79.07773832637324 l 1.0338498199458188 -11.981912409454775 a33.02643215746251,33.02643215746251 0 0,0 0.5659706226347377,0.05374573026608044 l -1.2399455696708006 11.962341134673517" fill="#ff820b" stroke="none" /><path d="M 103.95276090670814 79.375362276772 l 1.7820739400526058 -9.298470177443622 a30.46769957110084,30.46769957110084 0 0,0 0.5142274359172474,0.10314918604444792 l -1.9418677854369786 9.266417035321966" fill="#ff5e08" stroke="none" /><path d="M 104.307194497241 79.44645832069477 l 3.2735570145271033 -15.621117314475443 a36.96043488379825,36.96043488379825 0 0,0 0.6215641189363385,0.1358498417874165 l -3.54196385761697 15.562453974592156" fill="#ffb711" stroke="none" /><path d="M 104.66035177308747 79.52364482259891 l 2.6754982155946556 -11.755432724067608 a33.056056122618614,33.056056122618614 0 0,0 0.5537303593511751,0.13105008574804128 l -2.8774522619083545 11.707636726178698" fill="#ff820c" stroke="none" /><path d="M 105.01212808612495 79.60689891045804 l 2.8715959430829257 -11.683808823186721 a33.031519100974165,33.031519100974165 0 0,0 0.5509832159191459,0.14045788989084784 l -3.072288047687097 11.632647937127006" fill="#ff820c" stroke="none" /><path d="M 105.36241919743992 79.69619591428918 l 3.06808550484431 -11.616735789381734 a33.01506134255411,33.01506134255411 0 0,0 0.5482105513122517,0.14984665244718776 l -3.2675939453802725 11.562202596108252" fill="#ff820b" stroke="none" /><path d="M 105.71112130821622 79.79150937346287 l 1.339735489821319 -4.740580811887782 a25.92625594307943,25.92625594307943 0 0,0 0.42841259190736647,0.12506538342454004 l -1.4211382994521125 4.716817099544539" fill="#ff1c02" stroke="none" /><path d="M 106.0581310904928 79.89281104454417 l 5.415224916554086 -17.973356635402297 a39.771420021943676,39.771420021943676 0 0,0 0.6537940923638459,0.20313700700401424 l -5.723804381628651 17.87747949351576" fill="#ffdc14" stroke="none" /><path d="M 106.40334571778207 80.00007090966166 l 5.821251028947075 -18.181840076616492 a40.09099976726402,40.09099976726402 0 0,0 0.6554251854084278,0.21608337878002107 l -6.133359036597921 18.078942973577234" fill="#ffe015" stroke="none" /><path d="M 106.74666289553966 80.11325718540242 l 5.063385900589537 -14.925045868625594 a36.7605479269874,36.7605479269874 0 0,0 0.5974779308559676,0.2084483182889446 l -5.319545835508778 14.835676697164441" fill="#ffb510" stroke="none" /><path d="M 107.08798089147638 80.2323363322302 l 4.061923189908716 -11.32829400809872 a33.034511420686904,33.034511420686904 0 0,0 0.5336138158745083,0.19653447173882227 l -4.2563193315558 11.256696268553572" fill="#ff820c" stroke="none" /><path d="M 107.4271985657038 80.35727306442388 l 4.444593042104255 -11.75462412826208 a33.56684509758287,33.56684509758287 0 0,0 0.538694852177801,0.20900523351832337 l -4.646271059281723 11.67637619085321" fill="#ff890c" stroke="none" /><path d="M 107.76421540070413 80.48803036053334 l 1.9482542408731855 -4.896087451982882 a26.2694750141304,26.2694750141304 0 0,0 0.4187055726035366,0.17080051613580813 l -2.0322436830651096 4.861826049663494" fill="#ff2103" stroke="none" /><line stroke="#e1ed5e" stroke-width="0.3" x1="143.23703022742887" x2="145.7803849466894" y1="26.81831364943548" y2="22.513508569990506" /><path d="M 143.74570117128098 25.957352633546492 a86.0,86.0 0 0,1 28.547481713284135,27.462654790039103" fill="none" id="id98" stroke="none" /><text fill="#e1ed5e" style="font-size:6.75px; font-family:Arial;" text-anchor="middle"><textPath startOffset="19.985693538727396" xlink:href="#id98">February</textPath></text><path d="M 111.90073688211348 82.69761687909136 l 6.184410595053814 -8.991463516301561 a31.912989992352962,31.912989992352962 0 0,0 0.4499258371197283,0.31520180176842094 l -6.338267571757193 8.883676871769204" fill="#ff720a" stroke="none" /><path d="M 113.06298171725822 83.55741782278167 l 8.150162926657792 -10.258739281724736 a34.102171094191576,34.102171094191576 0 0,0 0.45647639981664284,0.3691055028459614 l -8.325542725038927 10.116927681614644" fill="#ff910d" stroke="none" /><path d="M 113.6212207817346 84.01681056812373 l 8.630437162909645 -10.126985992302762 a34.30564883465772,34.30564883465772 0 0,0 0.4461469256281633,0.3868942174999337 l -8.803477887184574 9.976926781383158" fill="#ff930d" stroke="none" /><path d="M 114.16331599549186 84.49514656593476 l 11.800532151597563 -12.918268681764367 a38.49669182431759,38.49669182431759 0 0,0 0.48541049976469874,0.45113615758392567 l -12.021150535157108 12.7132279381058" fill="#ffcc13" stroke="none" /><path d="M 114.42810811169701 84.74124197986012 l 6.8543090512063545 -7.248922893973993 a30.976393922266183,30.976393922266183 0 0,0 0.3842795080577518,0.369676582287302 l -6.978071802876524 7.12986322492439" fill="#ff6509" stroke="none" /><path d="M 114.68862486808459 84.99185889309783 l 8.443173861068958 -8.626835107781941 a33.0710177211823,33.0710177211823 0 0,0 0.40341003772376005,0.4016776668184864 l -8.59041969896004 8.480221590313336" fill="#ff820c" stroke="none" /><path d="M 114.94478906791727 85.2469230424477 l 8.878967509869579 -8.76506790302713 a33.4764770422582,33.4764770422582 0 0,0 0.4012964569932779,0.4135712738860184 l -9.028528230565966 8.610932433590998" fill="#ff880c" stroke="none" /><path d="M 115.19652480421416 85.50635884689758 l 7.260716635066732 -6.924887286982606 a31.033547228779465,31.033547228779465 0 0,0 0.365357475720346,0.38973788128516357 l -7.3788414327575405 6.798879988819388" fill="#ff6609" stroke="none" /><path d="M 115.4437574822437 85.77008943001954 l 7.368498599339524 -6.789350080392127 a31.019483326129603,31.019483326129603 0 0,0 0.358432137804295,0.3957897189321488 l -7.484274377759855 6.66150757419043" fill="#ff6609" stroke="none" /><path d="M 116.38621287248628 86.86637796730983 l 9.718532030523987 -7.789446371456067 a33.45493234032649,33.45493234032649 0 0,0 0.35628852866281163,0.45245024973520015 l -9.851174639780762 7.621003727767828" fill="#ff880c" stroke="none" /><path d="M 116.60985879189232 87.15038557335679 l 10.30227953042829 -7.969984654301846 a34.02526847757422,34.02526847757422 0 0,0 0.35438785030378717,0.46633287012290614 l -10.437943320956192 7.791467008297906" fill="#ff900d" stroke="none" /><path d="M 116.82858285166822 87.43820079747576 l 7.597357123707303 -5.671093965492033 a30.480566545865614,30.480566545865614 0 0,0 0.3102303172675179,0.4231538041090515 l -7.693850053488447 5.539477717711487" fill="#ff5e08" stroke="none" /><path d="M 117.04232023915458 87.72973835380427 l 22.242057699684807 -16.01400887291704 a48.40725471290355,48.40725471290355 0 0,0 0.48104681754866596,0.6804066087113352 l -22.514417137037356 15.62877576387391" fill="#b7ff1f" stroke="none" /><path d="M 117.45458315368197 88.32363383020206 l 15.120993621054565 -10.115295038333112 a39.19240615752901,39.19240615752901 0 0,0 0.3702812023844065,0.5639636747645451 l -15.292871458796895 9.853513299590894" fill="#ffd513" stroke="none" /><path d="M 117.65298651832404 88.62581576622439 l 10.17151904171867 -6.553720040389442 a33.10004322239585,33.10004322239585 0 0,0 0.304476900649189,0.48160933654116656 l -10.282823538613814 6.377663056134069" fill="#ff830c" stroke="none" /><line stroke="#e1ed5e" stroke-width="0.3" x1="172.23445277983987" x2="176.4835382374775" y1="55.19839476539836" y2="52.563006222186495" /><path d="M 173.08426987136738 54.67131705675599 a86.0,86.0 0 0,1 12.851231095245387,41.99856678651699" fill="none" id="id99" stroke="none" /><text fill="#e1ed5e" style="font-size:6.75px; font-family:Arial;" text-anchor="middle"><textPath startOffset="22.20632615414155" xlink:href="#id99">March</textPath></text><path d="M 117.84615892207809 88.93136811851018 l 10.488546125421406 -6.505257324067212 a33.342121887156296,33.342121887156296 0 0,0 0.29830752162913243,0.4903391308767327 l -10.598969445336763 6.323750419983397" fill="#ff860c" stroke="none" /><path d="M 118.03404312379186 89.2402003453031 l 10.86236331823281 -6.48090127535078 a33.64883465771187,33.64883465771187 0 0,0 0.29248901105299324,0.49995853159551773 l -10.972312003756128 6.292963331401367" fill="#ff8a0c" stroke="none" /><path d="M 118.3937258080291 89.86733742301442 l 17.26470876787426 -9.51071415658659 a40.711008411743194,40.711008411743194 0 0,0 0.3328452579497741,0.6167117125470355 l -17.4258621250425 9.212121460707095" fill="#ffe815" stroke="none" /><path d="M 119.04729006885535 91.15688171328212 l 5.143444123343576 -2.387955694454574 a26.67074508760847,26.67074508760847 0 0,0 0.18974035814047147,0.4180677281249704 l -5.183786798447395 2.299065957487541" fill="#ff2703" stroke="none" /><path d="M 119.196687751892 91.48605970444005 l 18.974393902585643 -8.415350549999381 a41.75682415134488,41.75682415134488 0 0,0 0.2857544551435132,0.6595606804927572 l -19.116439067571836 8.087490724920022" fill="#fff617" stroke="none" /><path d="M 120.08093135843002 93.85539295169968 l 6.630916409315003 -2.029008265508692 a27.934401702297436,27.934401702297436 0 0,0 0.13673770298614293,0.4610115585159048 l -6.664860009412848 1.9145673202462572" fill="#ff3905" stroke="none" /><path d="M 120.18372546131832 94.20196356495316 l 11.551772121259885 -3.3183960897993954 a33.01895135818067,33.01895135818067 0 0,0 0.15222244349988773,0.5476251205244654 l -11.607181335326135 3.1190596658559784" fill="#ff820b" stroke="none" /><path d="M 120.6074358757038 95.95851677861258 l 8.296749305373506 -1.627139509833834 a29.454799348339264,29.454799348339264 0 0,0 0.09329355504929213,0.49837790154316003 l -8.323528584332658 1.484083530828111" fill="#ff4f07" stroke="none" /><path d="M 120.67395015179393 96.31383870115 l 6.875932779575595 -1.2259774798463605 a27.984373441500146,27.984373441500146 0 0,0 0.08047258184071923,0.47495373331559415 l -6.896017222936537 1.1074379582149285" fill="#ff3a05" stroke="none" /><path d="M 120.73433829027371 96.67025291283417 l 11.886699838499029 -1.9088964214412936 a33.03899990025601,33.03899990025601 0 0,0 0.0853414776784975,0.5622937090490194 l -11.917797209616825 1.7040036000001921" fill="#ff820c" stroke="none" /><path d="M 120.78858239683441 97.02765380044208 l 11.912169040030099 -1.7031988857506952 a33.03331449280181,33.03331449280181 0 0,0 0.07563685358069883,0.5635824135038278 l -11.939721892668635 1.4978981301822032" fill="#ff820c" stroke="none" /><path d="M 120.83666639777658 97.38593545837742 l 5.043221665809652 -0.6326975093070794 a26.082754264055588,26.082754264055588 0 0,0 0.05205328685241456,0.44596077334491935 l -5.053365305665655 0.5457929976373073" fill="#ff1e03" stroke="none" /><path d="M 120.87857604477298 97.74499172005257 l 14.776021113652195 -1.5958966686478366 a35.86195431725238,35.86195431725238 0 0,0 0.06100438508880303,0.614305832603591 l -14.801302624423228 1.3413153053398108" fill="#ffa90f" stroke="none" /><path d="M 120.98425023603335 99.18683210126433 l 3.1590147727075597 -0.12241606804642845 a24.161385776506965,24.161385776506965 0 0,0 0.01252745479569711,0.41572523622061835 l -3.160653921958902 0.06802068440081101" fill="#ff0100" stroke="none" /><line stroke="#e1ed5e" stroke-width="0.3" x1="184.98032266829074" x2="189.97916517819016" y1="98.17113171792111" y2="98.06355123074" /><path d="M 185.9800911702706 98.14961562048488 a86.0,86.0 0 0,1 -9.607161424134198,41.387399972396054" fill="none" id="id100" stroke="none" /><text fill="#e1ed5e" style="font-size:6.75px; font-family:Arial;" text-anchor="middle"><textPath startOffset="21.466115282336823" xlink:href="#id100">April</textPath></text><path d="M 120.99513854157772 99.54816195383933 l 3.0765892033530866 -0.0662115209065727 a24.077301592579047,24.077301592579047 0 0,0 0.005350885483675354,0.4144319775933525 l -3.0772730959544776 0.01324328525275747" fill="#ff0000" stroke="none" /><path d="M 120.99980553446 99.90962569577887 l 9.879351277327208 -0.04251656027859204 a30.879442763573493,30.879442763573493 0 0,0 -0.0022875825145679926,0.5315536132087445 l -9.878619397523137 -0.12754653113383715" fill="#ff6409" stroke="none" /><path d="M 120.92983693683757 101.71520430193887 l 14.484541871315912 1.1870110887279846 a35.53309838082255,35.53309838082255 0 0,0 -0.0552038895333684,0.6091703209347986 l -14.461963385505468 -1.4361627982113536" fill="#ffa40f" stroke="none" /><path d="M 120.89721153311464 102.0752229133903 l 14.338985480748969 1.423950328361632 a35.4095155766865,35.4095155766865 0 0,0 -0.0654531380785535,0.6060147685018524 l -14.312350041169363 -1.6705614187482758" fill="#ffa20f" stroke="none" /><path d="M 120.8583938346157 102.4346265915055 l 7.018713450777997 0.8192359651903338 a28.06636300162915,28.06636300162915 0 0,0 -0.060140189333495866,0.47937648144807216 l -7.0035717521976535 -0.9399302009258009" fill="#ff3b05" stroke="none" /><path d="M 120.81339534386255 102.79330883721812 l 23.622040654776338 3.1702494390743197 a44.83382651195265,44.83382651195265 0 0,0 -0.10923644190671979,0.763999420273668 l -23.563970161853018 -3.576394331328397" fill="#e2ff1b" stroke="none" /><path d="M 120.5718875245553 104.21870165774334 l 38.33488904381755 7.861381692152528 a60.13265950726469,60.13265950726469 0 0,0 -0.2166664516987114,1.0121935303605232 l -38.193888553394395 -8.52008904192922" fill="#37ff2e" stroke="none" /><path d="M 120.49622156327973 104.57218783832717 l 38.685998803763106 8.62986637307805 a60.636865378860925,60.636865378860925 0 0,0 -0.23602014570539745,1.0167686104777438 l -38.53171809212716 -9.29450364090436" fill="#32ff2f" stroke="none" /><path d="M 120.41448212921028 104.9243191809786 l 38.87554870607602 9.377441414028342 a60.990557568906475,60.990557568906475 0 0,0 -0.2549657566374156,1.0184614570974257 l -38.70837163514354 -10.045230710523164" fill="#2fff30" stroke="none" /><path d="M 120.32669344350535 105.2749913415812 l 39.369904669284 10.216905510310918 a61.67400339129567,61.67400339129567 0 0,0 -0.2755122332305334,1.0252835129173001 l -39.18820435971169 -10.893079956403767" fill="#30ff39" stroke="none" /><path d="M 120.23288151984713 105.62410040840565 l 13.873053335510903 3.8562695508074065 a35.39904245769192,35.39904245769192 0 0,0 -0.1682421468790115,0.5856729845819508 l -13.804618551745792 -4.094500010893939" fill="#ffa20f" stroke="none" /><path d="M 120.13307415673323 105.97154293290107 l 6.553751263811986 1.9438664328527033 a27.83595438374838,27.83595438374838 0 0,0 -0.14020470169243476,0.4581970773206257 l -6.5193197896134185 -2.0563904827253863" fill="#ff3805" stroke="none" /><path d="M 120.02730092923936 106.31721596034902 l 60.08190278771807 18.951647881047055 a84.0,84.0 0 0,0 -0.4468309959350121,1.375204400088819 l -59.746779540766816 -19.98305118111367" fill="#4dd2ff" stroke="none" /><path d="M 119.9155931802556 106.66101706037122 l 7.295986501280594 2.4402331438186393 a28.69325398144762,28.69325398144762 0 0,0 -0.1606947503948995,0.46705416419287665 l -7.252900919942464 -2.5654600111008166" fill="#ff4406" stroke="none" /><path d="M 119.79798401119884 107.00284435728193 l 26.810626123278563 9.483321218786442 a49.438408085912826,49.438408085912826 0 0,0 -0.29068780824444096,0.7998480028427992 l -26.643414054028895 -9.94341701863537" fill="#abff21" stroke="none" /><path d="M 119.67450827220406 107.3425965602758 l 17.859649147982537 6.665284671280802 a40.06287196196429,40.06287196196429 0 0,0 -0.24668373907594723,0.6440134009209693 l -17.742271129313085 -6.971721639034915" fill="#ffe015" stroke="none" /><path d="M 119.54520255179757 107.68017299344265 l 10.830678145666916 4.255851612413726 a32.636832130864114,32.636832130864114 0 0,0 -0.20995955713333703,0.5211024021469863 l -10.755815974276185 -4.441653382403525" fill="#ff7c0b" stroke="none" /><path d="M 119.41010516605496 108.01547362559984 l 13.182782087425753 5.443877878548732 a35.2625926787911,35.2625926787911 0 0,0 -0.23650959902014274,0.5590388282774952 l -13.087121507213302 -5.66999123249239" fill="#ffa00e" stroke="none" /><path d="M 119.26925614724726 108.34839909993367 l 30.403724797263 13.172404102810246 a54.13455464308276,54.13455464308276 0 0,0 -0.37780483843075446,0.8518501730968664 l -30.172478874100975 -13.6938026123998" fill="#76ff27" stroke="none" /><path d="M 119.12269723197855 108.67885076344098 l 12.743439041866434 5.783619555112467 a34.99448083252984,34.99448083252984 0 0,0 -0.253668964439192,0.5463803819515303 l -12.64199546058741 -6.002120004342827" fill="#ff9d0e" stroke="none" /><path d="M 118.97047184881838 109.00673069616215 l 39.53002335283489 18.767918773415296 a64.75908501512784,64.75908501512784 0 0,0 -0.48676241305946594,1.0028747451668196 l -39.20110768316071 -19.44558247454739" fill="#34ff5f" stroke="none" /><path d="M 118.81262510543309 109.33194174019688 l 13.547674210528447 6.720279904547043 a36.12288459620308,36.12288459620308 0 0,0 -0.28110713580326663,0.5546510475807287 l -13.42998840493891 -6.952485163830467" fill="#ffac0f" stroke="none" /><path d="M 118.64920377521936 109.65438752849418 l 15.671995808577085 8.113135697620958 a38.64750473783955,38.64750473783955 0 0,0 -0.31092376137259775,0.5881505818381431 l -15.530019538979595 -8.381701294545236" fill="#ffce13" stroke="none" /><line stroke="#e1ed5e" stroke-width="0.3" x1="174.80103733775053" x2="179.2010983576182" y1="140.37084112569926" y2="142.7455964860345" /><path d="M 175.68104954172406 140.8457921977663 a86.0,86.0 0 0,1 -30.038265399797805,32.042727171017184" fill="none" id="id101" stroke="none" /><text fill="#e1ed5e" style="font-size:6.75px; font-family:Arial;" text-anchor="middle"><textPath startOffset="22.206326154141568" xlink:href="#id101">May</textPath></text><path d="M 118.48025628344425 109.97397251340804 l 21.355093505029636 11.525549882727463 a45.26681517438574,45.26681517438574 0 0,0 -0.37598097311482154,0.6825146772594347 l -21.153536122463304 -11.891435078384703" fill="#ddff1b" stroke="none" /><path d="M 117.75023020441432 111.22182372390056 l 16.481892921558376 10.419971733996732 a40.499451408052664,40.499451408052664 0 0,0 -0.3775997915044849,0.5860432618065669 l -16.30008826667684 -10.702136595724753" fill="#ffe615" stroke="none" /><path d="M 117.55443506779139 111.5257021239791 l 12.557809120543912 8.245071213868876 a36.022641885826374,36.022641885826374 0 0,0 -0.34478281685489465,0.5154035304511688 l -12.414023198278295 -8.460011658525852" fill="#ffab0f" stroke="none" /><path d="M 117.35343817320211 111.8261652097733 l 12.453092110423308 8.486636665338999 a36.06992053728763,36.06992053728763 0 0,0 -0.35406765229953835,0.5100608607508302 l -12.305163550961634 -8.69973878827685" fill="#ffab0f" stroke="none" /><path d="M 116.93607887273984 112.41649034213515 l 12.104599815394169 8.874347352336002 a36.00917644711906,36.00917644711906 0 0,0 -0.37078946201323576,0.4967330779146151 l -11.95004908668584 -9.081393309759932" fill="#ffab0f" stroke="none" /><path d="M 116.71984013943494 112.70617746262583 l 12.034625482263369 9.145666812520444 a36.11540379692123,36.11540379692123 0 0,0 -0.38040386253788866,0.49172327128693183 l -11.87541480250741 -9.351468077920629" fill="#ffac0f" stroke="none" /><path d="M 116.498646956653 112.99209946851258 l 14.140051750532793 11.134789374880079 a38.99790537620108,38.99790537620108 0 0,0 -0.4198441844256561,0.5238201740654971 l -13.946289654052283 -11.376537382523827" fill="#ffd213" stroke="none" /><path d="M 116.27256486870786 113.27417163493432 l 11.71245331097383 9.554309155958336 a36.11510456494996,36.11510456494996 0 0,0 -0.3971010527766618,0.47833379918571006 l -11.546256258303625 -9.754504212257816" fill="#ffac0f" stroke="none" /><path d="M 116.0416608686014 113.55231037782055 l 11.522941108968862 9.734807115873712 a36.08458290388004,36.08458290388004 0 0,0 -0.40493344049112145,0.4710290733884729 l -11.353665158906962 -9.931713288423714" fill="#ffac0f" stroke="none" /><path d="M 115.80600337817218 113.82643327865902 l 11.392853783168526 9.965993864333448 a36.13664926688167,36.13664926688167 0 0,0 -0.41357732641223205,0.4646585105272777 l -11.219617607107956 -10.160626544601593" fill="#ffac0f" stroke="none" /><path d="M 115.56566222782051 114.09645910891815 l 11.123357568727316 10.073452245494012 a36.00678259134887,36.00678259134887 0 0,0 -0.4199995586794292,0.45582657002624954 l -10.948311602052165 -10.263430070321597" fill="#ffab0f" stroke="none" /><path d="M 115.32070863581623 114.36230785411682 l 11.00703617027517 10.318481070080653 a36.0872759916215,36.0872759916215 0 0,0 -0.4287399494518451,0.4495321229205302 l -10.827789669444359 -10.506420309583689" fill="#ffac0f" stroke="none" /><path d="M 115.07121518719521 114.62390073753431 l 16.68643564271115 16.19118136602464 a44.25062339994015,44.25062339994015 0 0,0 -0.5351362218834139,0.5420901674722022 l -16.405258795772202 -16.476012027477505" fill="#e9ff1a" stroke="none" /><path d="M 114.81725581225074 114.88116024355365 l 2.9197606708631016 2.9323531270895677 a25.138078930744424,25.138078930744424 0 0,0 -0.3092582804256603,0.3026743176363328 l -2.868852438061647 -2.9821775476484724" fill="#ff1001" stroke="none" /><path d="M 114.55890576462653 115.13401014063108 l 10.487731217456544 10.902016481406356 a36.12767230774346,36.12767230774346 0 0,0 -0.4518783286721791,0.42727916458271514 l -10.298517054393557 -11.080930282734993" fill="#ffac0f" stroke="none" /><path d="M 114.29624159901734 115.38237550388516 l 10.212348075776042 10.988214754902002 a36.00109718389467,36.00109718389467 0 0,0 -0.45755757419374776,0.4179679954406152 l -10.02169095211543 -11.162375516929199" fill="#ffaa0f" stroke="none" /><path d="M 114.0293411484842 115.62618273729858 l 14.878408850496585 16.571892655359637 a43.270937925989955,43.270937925989955 0 0,0 -0.5585199343687588,0.49282890408117097 l -14.59094656322124 -16.825544701213097" fill="#f5ff19" stroke="none" /><path d="M 113.75828350139079 115.86535959552629 l 9.836886152911607 11.343401675101369 a36.014562622601986,36.014562622601986 0 0,0 -0.47184997730741357,0.4021207872280223 l -9.640170699027147 -11.511046852552337" fill="#ffab0f" stroke="none" /><path d="M 113.48314897796784 116.09983520530334 l 9.629603917664243 11.498429366913692 a35.99810486418193,35.99810486418193 0 0,0 -0.4784831611130396,0.3937590666282733 l -9.430250628006512 -11.662483552399143" fill="#ffaa0f" stroke="none" /><path d="M 113.20401910651253 116.32954008644616 l 15.076133889752239 18.644802822188726 a44.977457858164044,44.977457858164044 0 0,0 -0.6062158306368777,0.4816145193602256 l -14.752960566398011 -18.90155125555408" fill="#e0ff1b" stroke="none" /><path d="M 112.63410532772338 116.77436683061366 l 9.103331982772614 12.086540843126087 a36.13126309139874,36.13126309139874 0 0,0 -0.5000137186724515,0.3698981954341289 l -8.893933293681599 -12.241448987299986" fill="#ffac0f" stroke="none" /><path d="M 112.34349029814194 116.9893568818739 l 8.814961314943229 12.13275338354066 a35.996907936296836,35.996907936296836 0 0,0 -0.5044241089329411,0.35989320843289924 l -8.604809878161404 -12.28269085381778" fill="#ffaa0f" stroke="none" /><path d="M 111.7513745106137 117.40417183066458 l 8.406341645343712 12.450068230800763 a36.022342653855105,36.022342653855105 0 0,0 -0.5168782501078634,0.3425587196619749 l -8.190788696495884 -12.592924971554057" fill="#ffab0f" stroke="none" /><path d="M 111.45004920935366 117.60387380957326 l 8.170231371719305 12.561319120381498 a35.98463942547461,35.98463942547461 0 0,0 -0.5221511657010287,0.3332615786777484 l -7.952798403971346 -12.700095127883055" fill="#ffaa0f" stroke="none" /><line stroke="#e1ed5e" stroke-width="0.3" x1="143.8653032363475" x2="146.44561519142675" y1="172.8068346515853" y2="177.08958963109032" /><path d="M 144.38136562736335 173.6633856474863 a86.0,86.0 0 0,1 -40.68145358897372,12.25698825130547" fill="none" id="id102" stroke="none" /><text fill="#e1ed5e" style="font-size:6.75px; font-family:Arial;" text-anchor="middle"><textPath startOffset="21.466115282336833" xlink:href="#id102">June</textPath></text><path d="M 110.21172684928248 118.3499491758327 l 7.360539415561317 13.226511654270661 a36.13664926688167,36.13664926688167 0 0,0 -0.5461403872767505,0.2977992842720147 l -7.131776216415918 -13.351251590302446" fill="#ffac0f" stroke="none" /><path d="M 109.57404056367764 118.69057910512821 l 9.158681478146535 17.879709149698375 a41.08893839146191,41.08893839146191 0 0,0 -0.6322728513649865,0.31703473344348765 l -8.849554719098789 -18.034711724051164" fill="#ffed16" stroke="none" /><path d="M 109.2508944713604 118.85261126421891 l 6.63634218117269 13.524354833504967 a36.06483359377597,36.06483359377597 0 0,0 -0.5596701142329157,0.2686756659286311 l -6.402559398939542 -13.636584775933159" fill="#ffab0f" stroke="none" /><path d="M 108.59647513512805 119.15986991738527 l 2.0464803682346395 4.561206427926736 a25.99926854407022,25.99926854407022 0 0,0 -0.4098962042363168,0.17968645019814608 l -1.9676634893405691 -4.595757431419337" fill="#ff1d02" stroke="none" /><path d="M 108.2653958097858 119.30500536409082 l 5.939147329889642 13.871721778393152 a36.0896698473917,36.0896698473917 0 0,0 -0.5731873767342399,0.23959236996178498 l -5.699488493657941 -13.971899191374911" fill="#ffac0f" stroke="none" /><path d="M 107.93186726928326 119.44442032107085 l 5.662643224185969 13.88157557877103 a35.992120224756455,35.992120224756455 0 0,0 -0.5756664100982372,0.22906954497880233 l -5.4228557380458655 -13.976991968155902" fill="#ffaa0f" stroke="none" /><path d="M 106.91757812671514 119.82793768551818 l 4.992153403487453 14.309069559854766 a36.15490241712937,36.15490241712937 0 0,0 -0.5893770190516379,0.1999486845578684 l -4.745106651498588 -14.392881231310758" fill="#ffad10" stroke="none" /><path d="M 106.57524785965236 119.94407469862006 l 5.637238419763991 17.098899773437303 a39.004189247597836,39.004189247597836 0 0,0 -0.6394433242848281,0.20472955948137098 l -5.342073750388222 -17.19340217957838" fill="#ffd213" stroke="none" /><path d="M 105.88484417918355 120.15858648285463 l 5.346445741937086 18.31429781029161 a40.0787312564418,40.0787312564418 0 0,0 -0.663911496477516,0.1876280205372384 l -5.030403077354964 -18.403614624167368" fill="#ffe015" stroke="none" /><path d="M 105.53697534728816 120.25689768951611 l 3.984069138430552 14.575625835985184 a36.11031685340958,36.11031685340958 0 0,0 -0.6009952787319859,0.15872831547420427 l -3.732583416887069 -14.642045500762972" fill="#ffac0f" stroke="none" /><path d="M 105.18746579009965 120.34920634021253 l 3.7192044518306004 14.58956297238232 a36.05615586660904,36.05615586660904 0 0,0 -0.6027330991314238,0.1481371313430588 l -3.4675180679559654 -14.651421362039407" fill="#ffab0f" stroke="none" /><path d="M 102.70371172650421 120.8252237178851 l 1.9528611907983546 15.04182964096336 a36.16806862386541,36.16806862386541 0 0,0 -0.6180822852524331,0.07484115709882362 l -1.6936514824945412 -15.073216326787534" fill="#ffad10" stroke="none" /><path d="M 102.34483914955558 120.86867818915974 l 1.6921813569228363 15.06013245386628 a36.15490241712937,36.15490241712937 0 0,0 -0.6190535420050013,0.06416743078603994 l -1.4326952183122323 -15.08702925310808" fill="#ffad10" stroke="none" /><path d="M 101.98527174616119 120.90594882070398 l 1.43167683526403 15.076305147490418 a36.14413006616351,36.14413006616351 0 0,0 -0.619881610648456,0.05348599369253686 l -1.1719509068740321 -15.098715393461617" fill="#ffac10" stroke="none" /><path d="M 101.62511606390274 120.93702456842531 l 1.2165040296724046 15.672711212806016 a36.71985237889417,36.71985237889417 0 0,0 -0.6305974374537914,0.043489691322891544 l -0.9465438314396828 -15.691329248645193" fill="#ffb410" stroke="none" /><path d="M 101.26447882468166 120.96189622390904 l 0.9109587995157217 15.101418423920743 a36.12886923562855,36.12886923562855 0 0,0 -0.621092993751956,0.03210341339999847 l -0.6508777373502861 -15.114861644082943" fill="#ffac0f" stroke="none" /><path d="M 100.90346689309514 120.98055641714683 l 0.6493200284118307 15.07868809913677 a36.092662167104436,36.092662167104436 0 0,0 -0.6209306807074797,0.02138610812781806 l -0.38966899602969873 -15.087631005690682" fill="#ffac0f" stroke="none" /><line stroke="#e1ed5e" stroke-width="0.3" x1="102.19456741930631" x2="102.32365962044197" y1="184.97166512339345" y2="189.96999836594603" /><path d="M 102.22038585953345 185.97133177190398 a86.0,86.0 0 0,1 -42.740103519485714,-10.115201625700543" fill="none" id="id103" stroke="none" /><text fill="#e1ed5e" style="font-size:6.75px; font-family:Arial;" text-anchor="middle"><textPath startOffset="22.20632615414155" xlink:href="#id103">July</textPath></text><path d="M 100.54218724476979 120.99299961872073 l 0.3871504169285113 14.990113901367444 a35.995112544469194,35.995112544469194 0 0,0 -0.6195278400200601,0.010665733602245937 l -0.12906288701578322 -14.994557112248849" fill="#ffaa0f" stroke="none" /><line stroke="#e1ed5e" stroke-width="0.3" x1="58.666819895761336" x2="56.23545636021788" y1="174.27360380694188" y2="178.64263932499728" /><path d="M 58.180547188652646 175.14741091055294 a86.0,86.0 0 0,1 -31.652253787137756,-30.449443065178592" fill="none" id="id104" stroke="none" /><text fill="#e1ed5e" style="font-size:6.75px; font-family:Arial;" text-anchor="middle"><textPath startOffset="22.20632615414155" xlink:href="#id104">August</textPath></text><line stroke="#e1ed5e" stroke-width="0.3" x1="26.63291911575756" x2="22.317208475507996" y1="142.92168965132927" y2="145.44649492493687" /><path d="M 25.769776987707644 143.4266507060508 a86.0,86.0 0 0,1 -11.730757126820373,-40.83630448921669" fill="none" id="id105" stroke="none" /><text fill="#e1ed5e" style="font-size:6.75px; font-family:Arial;" text-anchor="middle"><textPath startOffset="21.46611528233685" xlink:href="#id105">September</textPath></text><line stroke="#e1ed5e" stroke-width="0.3" x1="15.007084014347285" x2="10.007500721073583" y1="101.09737516637583" y2="101.16192664675087" /><path d="M 14.007167355692545 101.11028546245083 a86.0,86.0 0 0,1 10.666146001902534,-42.60595125391555" fill="none" id="id106" stroke="none" /><text fill="#e1ed5e" style="font-size:6.75px; font-family:Arial;" text-anchor="middle"><textPath startOffset="22.20632615414155" xlink:href="#id106">October</textPath></text><line stroke="#e1ed5e" stroke-width="0.3" x1="26.266209847984243" x2="21.928928074336255" y1="57.711370442889674" y2="55.22380399835377" /><path d="M 25.398753493254645 57.213857153982495 a86.0,86.0 0 0,1 29.58750427330803,-30.492523968695096" fill="none" id="id107" stroke="none" /><text fill="#e1ed5e" style="font-size:6.75px; font-family:Arial;" text-anchor="middle"><textPath startOffset="21.46611528233685" xlink:href="#id107">November</textPath></text><line stroke="#e1ed5e" stroke-width="0.3" x1="56.762969772571076" x2="54.21961505331055" y1="26.818313649435495" y2="22.513508569990535" /><path d="M 56.25429882871897 25.957352633546506 a86.0,86.0 0 0,1 42.265352541879196,-11.944610805530505" fill="none" id="id108" stroke="none" /><text fill="#e1ed5e" style="font-size:6.75px; font-family:Arial;" text-anchor="middle"><textPath startOffset="22.20632615414155" xlink:href="#id108">December</textPath></text></svg>