<?xml version="1.0" encoding="utf-8" ?>
<svg baseProfile="full" height="200mm" version="1.1" viewBox="0,0,200,200" width="200mm" xmlns="http://www.w3.org/2000/svg" xmlns:ev="http://www.w3.org/2001/xml-events" xmlns:xlink="http://www.w3.org/1999/xlink"><defs /><rect fill="#1a1a1a" height="200" width="200" x="0" y="0" /><text alignment-baseline="middle" fill="#e1ed5e" style="dominant-baseline: central; font-size:9.0px; font-family:Arial;" text-anchor="middle" x="100.0" y="100.0">2020</text><line stroke="#e1ed5e" stroke-width="0.3" x1="100.0" x2="100.0" y1="15.0" y2="10.0" /><path d="M 100.0 14.0 a86.0,86.0 0 0,1 42.35913384403234,11.155469271406648" fill="none" id="id25" stroke="none" /><text fill="#e1ed5e" style="font-size:6.75px; font-family:Arial;" text-anchor="middle"><textPath startOffset="22.145653131862478" xlink:href="#id25">January</textPath></text><path d="M 100.0 79.0 l 0.0 -63.0 a84.0,84.0 0 0,0 1.441971699395419,0.012377592777739643 l -1.0814787745465644 62.990716805416696" fill="#4dd2ff" stroke="none" /><path d="M 100.72087961077811 79.0123766808444 l 0.7145889557589874 -20.804477761980447 a41.81674643945186,41.81674643945186 0 0,0 0.717205468713203,0.03079988877174286 l -1.0716201850730267 20.789145304782874" fill="#ffed16" stroke="none" /><path d="M 101.08105385017728 79.02784411241856 l 1.5155899091074692 -29.402039343585816 a50.4410755634769,50.4410755634769 0 0,0 0.8643574250490667,0.0519975963021213 l -2.0200916862889984 29.371689769459003" fill="#a7ff21" stroke="none" /><path d="M 103.94208987418118 79.37332000966035 l 4.806227245595198 -25.14821186727402 a46.603366584447514,46.603366584447514 0 0,0 0.7844978035091124,0.15692153184420157 l -5.2372215346352675 25.062000938766964" fill="#d5ff1c" stroke="none" /><path d="M 104.64783097203109 79.52079915486377 l 4.581419571606184 -20.186579961138396 a41.699937580063626,41.699937580063626 0 0,0 0.6967222518046742,0.16442455434956518 l -4.927273977150743 20.1049592631426" fill="#ffeb16" stroke="none" /><path d="M 105.3480935250658 79.69241777938227 l 5.230660587725338 -19.861670229873177 a41.53888396442741,41.53888396442741 0 0,0 0.687999829868738,0.18751741303007335 l -5.570841818528769 19.76895232269896" fill="#ffe915" stroke="none" /><path d="M 106.04205211174951 79.88797359093562 l 11.350993917155263 -37.783767039515475 a60.45197225239407,60.45197225239407 0 0,0 0.9912953764998189,0.3071058416049197 l -11.997929926526712 37.58334461010391" fill="#38ff2e" stroke="none" /><line stroke="#e1ed5e" stroke-width="0.3" x1="143.13028292997686" x2="145.6673583964461" y1="26.7553504044142" y2="22.446841604673864" /><path d="M 143.63769802327073 25.89364864446614 a86.0,86.0 0 0,1 29.32050498858742,28.57503671076993" fill="none" id="id26" stroke="none" /><text fill="#e1ed5e" style="font-size:6.75px; font-family:Arial;" text-anchor="middle"><textPath startOffset="20.669276256404974" xlink:href="#id26">February</textPath></text><path d="M 117.21940702142032 87.97951657250589 l 16.526201888346794 -11.536572407585085 a41.15459877471766,41.15459877471766 0 0,0 0.39941569559690043,0.5827594365585603 l -16.72180732075902 11.251178235956477" fill="#ffe415" stroke="none" /><path d="M 117.81537515405839 88.88188828441811 l 20.393395242325113 -12.726986920201671 a45.03885948993157,45.03885948993157 0 0,0 0.40370267620937805,0.6594179821540632 l -20.608865882989893 12.375031821923052" fill="#e8ff1a" stroke="none" /><line stroke="#e1ed5e" stroke-width="0.3" x1="172.87174338648825" x2="177.1583165268699" y1="56.24261187166439" y2="53.66864786411523" /><path d="M 173.72905801456457 55.72781907015455 a86.0,86.0 0 0,1 12.242430191666344,42.057860355516425" fill="none" id="id27" stroke="none" /><text fill="#e1ed5e" style="font-size:6.75px; font-family:Arial;" text-anchor="middle"><textPath startOffset="22.145653131862474" xlink:href="#id27">March</textPath></text><path d="M 119.0197475246899 91.09779779509293 l 25.451724672097484 -11.912692279459066 a49.10164632418071,49.10164632418071 0 0,0 0.35076236903904606,0.7664790788792519 l -25.65247150599158 11.474024218365129" fill="#b7ff1f" stroke="none" /><path d="M 119.16976305983485 91.42560881287824 l 18.0098904834641 -8.055594936694696 a40.72938835875233,40.72938835875233 0 0,0 0.27999731834172736,0.6406886595107553 l -18.1455216838228 7.745244207408092" fill="#ffde14" stroke="none" /><path d="M 119.94978838288452 93.4421083053983 l 37.39120377438854 -12.291231364318243 a60.359579369564514,60.359579369564514 0 0,0 0.3151209352260671,0.9871118413748077 l -37.596689425391865 11.647550489252048" fill="#39ff2e" stroke="none" /><path d="M 120.592083275326 95.88100663000786 l 23.728910326874797 -4.746446632267123 a45.19896569967042,45.19896569967042 0 0,0 0.14565626637658624,0.7621351341619282 l -23.80689288553354 4.33840893307188" fill="#e6ff1a" stroke="none" /><path d="M 120.65975698304385 96.23510406497455 l 27.20033205496579 -4.956806591148752 a48.648291004734006,48.648291004734006 0 0,0 0.14266732762940187,0.8228672333994276 l -27.28141420008743 4.489146324828733" fill="#bcff1f" stroke="none" /><path d="M 120.96210409425399 98.7389718711861 l 25.647831483087856 -1.5429098528385978 a46.69419838404886,46.69419838404886 0 0,0 0.041265243028924745,0.8005346906628702 l -25.670538315573353 1.1024033687989971" fill="#d4ff1c" stroke="none" /><line stroke="#e1ed5e" stroke-width="0.3" x1="184.99686870605535" x2="189.99668451229388" y1="99.2704041080226" y2="99.22748670261217" /><path d="M 185.99683186730306 99.26182062694052 a86.0,86.0 0 0,1 -10.086455211305974,41.156179273409016" fill="none" id="id28" stroke="none" /><text fill="#e1ed5e" style="font-size:6.75px; font-family:Arial;" text-anchor="middle"><textPath startOffset="21.40746469413373" xlink:href="#id28">April</textPath></text><path d="M 120.99922638620191 100.18025310272382 l 20.078262610463977 0.17234773635365824 a41.07900229585579,41.07900229585579 0 0,0 -0.012105724550779191,0.7050977650692776 l -20.07234545431453 -0.516992417392007" fill="#ffe315" stroke="none" /><path d="M 120.98066250479742 100.90099992219065 l 24.91811406905479 1.0700910341712173 a45.94108064178134,45.94108064178134 0 0,0 -0.0405996873980419,0.7876230892283587 l -24.896072792200176 -1.4976859167763066" fill="#ddff1b" stroke="none" /><path d="M 120.9064616781168 101.97986365728391 l 22.29717405437126 2.1115655652334158 a43.396934610504324,43.396934610504324 0 0,0 -0.07660097807814173,0.741044976100485 l -22.257640683811456 -2.4940150636168323" fill="#fdff18" stroke="none" /><path d="M 120.86939407059847 102.33845913500097 l 20.67902515353498 2.3171279007724546 a41.80843970626031,41.80843970626031 0 0,0 -0.08604159718301005,0.7125478537541426 l -20.636201470092306 -2.671769431450006" fill="#ffec16" stroke="none" /><path d="M 120.7213421655516 103.40968896794604 l 25.65066328792513 4.220806882805919 a46.99560997269447,46.99560997269447 0 0,0 -0.1378206293920077,0.7949127659260843 l -25.57442784104089 -4.660512681652591" fill="#d0ff1d" stroke="none" /><path d="M 120.65975698304385 103.76489593502545 l 24.078030632787126 4.387819262695056 a45.474568781400684,45.474568781400684 0 0,0 -0.14654441315749314,0.7667822934147663 l -23.999159927347474 -4.800504121143137" fill="#e3ff1b" stroke="none" /><path d="M 120.16314734710363 105.8691983318838 l 23.587109190852004 6.865863723244358 a45.566070191370414,45.566070191370414 0 0,0 -0.22506097539151684,0.7491547899631358 l -23.465771895456857 -7.2697561167982165" fill="#e2ff1b" stroke="none" /><path d="M 120.05942366710727 106.21446072829308 l 19.483253900341783 6.035961861734648 a41.39681392133336,41.39681392133336 0 0,0 -0.21612149810387984,0.6769975146238811 l -19.376767686460646 -6.369528410049913" fill="#ffe715" stroke="none" /><path d="M 119.83427380445688 106.89939002012753 l 19.58486980538874 6.812634362768196 a41.73593769895149,41.73593769895149 0 0,0 -0.24119363343815864,0.6746615195932243 l -19.465036001906636 -7.147830838742341" fill="#ffec16" stroke="none" /><path d="M 119.31412917781788 108.2440532568976 l 18.830329848755213 8.037548091807135 a41.473971318262464,41.473971318262464 0 0,0 -0.2851160112646315,0.6524012306405145 l -18.689579955473615 -8.359611392223496" fill="#ffe815" stroke="none" /><path d="M 119.0197475246899 108.90220220490707 l 18.87047863413435 8.832336827098946 a41.83518988895108,41.83518988895108 0 0,0 -0.3100201568526931,0.6478228916961563 l -18.716079219321745 -9.154972220860206" fill="#ffed16" stroke="none" /><path d="M 118.70294669586154 109.54985784667822 l 18.22308773564678 9.304838442462104 a41.461205855506186,41.461205855506186 0 0,0 -0.32910706984197463,0.6311062008157208 l -18.060672596829853 -9.616290886382327" fill="#ffe815" stroke="none" /><line stroke="#e1ed5e" stroke-width="0.3" x1="174.33088141563837" x2="178.70328620479359" y1="141.23008692659167" y2="143.65538615756765" /><path d="M 175.20536237346943 141.71514677278685 a86.0,86.0 0 0,1 -30.301960400862466,31.631185727798858" fill="none" id="id29" stroke="none" /><text fill="#e1ed5e" style="font-size:6.75px; font-family:Arial;" text-anchor="middle"><textPath startOffset="22.145653131862474" xlink:href="#id29">May</textPath></text><path d="M 117.81537515405839 111.11811171558189 l 17.39961493661086 10.858646590401904 a41.50991969066624,41.50991969066624 0 0,0 -0.3824492896273347,0.6012738064327239 l -17.210647955357636 -11.155734071513299" fill="#ffe915" stroke="none" /><path d="M 117.21940702142032 112.02048342749411 l 17.24711667966234 12.039826920987553 a42.033793429841026,42.033793429841026 0 0,0 -0.41810594280973,0.5881183694036057 l -17.03789563832265 -12.334122517100662" fill="#ffef16" stroke="none" /><path d="M 116.79662413953412 112.60449989151573 l 15.788575270970595 11.848041227625915 a40.739685661596226,40.739685661596226 0 0,0 -0.4245618881070253,0.5557651401518051 l -15.582861405509265 -12.117327281018595" fill="#ffde14" stroke="none" /><path d="M 115.89218393027572 113.72728997021213 l 15.320444871047181 13.233435388125729 a41.244501555199975,41.244501555199975 0 0,0 -0.4674159544133574,0.5318335537591037 l -15.091017852675238 -13.494481219696125" fill="#ffe515" stroke="none" /><path d="M 115.41159269507618 114.26474011684316 l 14.769286078314645 13.67023070144968 a41.12478617759593,41.12478617759593 0 0,0 -0.48398814250650124,0.5139786352507881 l -14.532442102071883 -13.921750796644966" fill="#ffe415" stroke="none" /><path d="M 115.16444852881244 114.52719865689866 l 15.162342506930278 14.525181135575687 a41.997083543167335,41.997083543167335 0 0,0 -0.5031914539349108,0.5163187604848226 l -14.91076425184456 -14.783322588128247" fill="#ffef16" stroke="none" /><path d="M 114.91283532996324 114.78537596483092 l 28.52782908232507 28.284002948462323 a61.17240165759296,61.17240165759296 0 0,0 -0.74574424235233,0.7393703982389732 l -28.038092919842775 -28.769553356929958" fill="#31ff2f" stroke="none" /><path d="M 114.39649973595853 115.28858382429668 l 13.951219799607939 14.815711962592014 a41.350475543718005,41.350475543718005 0 0,0 -0.5209573700417941,0.482190364268742 l -13.694832658252176 -15.053020072993133" fill="#ffe615" stroke="none" /><path d="M 113.03279911837588 116.46651593811092 l 24.42168485110252 30.856001015867392 a60.35113072908808,60.35113072908808 0 0,0 -0.817872935024648,0.6359829411353917 l -23.88840197144264 -31.270685008623577" fill="#39ff2e" stroke="none" /><path d="M 112.45986205192187 116.90419585922612 l 11.725662626168889 15.908113331109726 a40.762571537585,40.762571537585 0 0,0 -0.5668307121411632,0.41034172285215403 l -11.450850903653757 -16.107055825334957" fill="#ffdf14" stroke="none" /><path d="M 111.27062007382361 117.71928675628689 l 12.993277076162983 20.42758968968721 a45.209743280509144,45.209743280509144 0 0,0 -0.658417201113707,0.4109010298205987 l -12.64069574625956 -20.647626516349355" fill="#e6ff1a" stroke="none" /><path d="M 110.96478420261333 117.91015095944535 l 20.607728454276824 33.66117569914305 a60.46838255482215,60.46838255482215 0 0,0 -0.8899426815071082,0.5343850101148954 l -20.02685301621228 -34.009974709793866" fill="#38ff2e" stroke="none" /><line stroke="#e1ed5e" stroke-width="0.3" x1="143.1302829299769" x2="145.66735839644613" y1="173.24464959558577" y2="177.55315839532614" /><path d="M 143.63769802327073 174.10635135553383 a86.0,86.0 0 0,1 -40.68552437913181,11.842963189579606" fill="none" id="id30" stroke="none" /><text fill="#e1ed5e" style="font-size:6.75px; font-family:Arial;" text-anchor="middle"><textPath startOffset="21.407464694133747" xlink:href="#id30">June</textPath></text><path d="M 110.34350942703117 118.27599006163325 l 9.765339962666546 17.25442001722905 a40.82616641505379,40.82616641505379 0 0,0 -0.6128898208405797,0.3399596521448457 l -9.467705953669872 -17.41951258480704" fill="#ffe015" stroke="none" /><path d="M 109.71004243097381 118.62028667847754 l 9.200900609278015 17.643940102510296 a40.89887419837574,40.89887419837574 0 0,0 -0.6253102460790086,0.31928786715984314 l -8.896663141485424 -17.799285921342975" fill="#ffe115" stroke="none" /><path d="M 108.07796709384702 119.3841803445677 l 7.901408917369972 18.960504994770087 a41.54100807010686,41.54100807010686 0 0,0 -0.6605921106030515,0.26865706049823873 l -7.57476234557648 -19.093349311847618" fill="#ffe915" stroke="none" /><path d="M 107.407793817531 119.65005319985036 l 6.97760417348445 18.508924059412603 a40.780475976045935,40.780475976045935 0 0,0 -0.6571693081429618,0.24132167269349722 l -6.658845713687361 -18.625976581114823" fill="#ffdf14" stroke="none" /><path d="M 106.72888874123015 119.89276391827305 l 6.358513109323161 18.797814173976956 a40.84410508641807,40.84410508641807 0 0,0 -0.6661036806297482,0.2189615103232403 l -6.034886691045678 -18.904196605702214" fill="#ffe015" stroke="none" /><path d="M 106.38641147887787 120.00534299687104 l 7.944577784687411 24.886276757087206 a47.123611676169276,47.123611676169276 0 0,0 -0.7727360520766183,0.23939560421373302 l -7.516201099739169 -25.018988949107584" fill="#cfff1d" stroke="none" /><path d="M 105.69591212413111 120.21278271476187 l 5.5323076051508995 19.632207993587677 a41.39681392133336,41.39681392133336 0 0,0 -0.6856467535183467,0.1868760716071097 l -5.194479450697858 -19.72428455933893" fill="#ffe715" stroke="none" /><path d="M 104.9986988182912 120.39639698878246 l 0.9894199995981059 4.0371712387630225 a25.156645708585238,25.156645708585238 0 0,0 -0.42031705232858163,0.09919367988554756 l -0.9199707935296451 -4.053561062294795" fill="#ff0000" stroke="none" /><path d="M 104.29559338865022 120.5559693870025 l 5.299324674856179 25.35918694631385 a46.90697212311069,46.90697212311069 0 0,0 -0.78960854755338,0.15794382378778546 l -4.86321964177184 -25.446420166764497" fill="#d1ff1c" stroke="none" /><path d="M 103.94208987418118 120.62667999033965 l 4.323053648799439 22.620043439110592 a44.02944111431383,44.02944111431383 0 0,0 -0.7436054030669598,0.13550967523807614 l -3.9341135121814217 -22.690921288280034" fill="#f5ff19" stroke="none" /><path d="M 103.2317021107853 120.74984581791261 l 3.5942787768325606 23.07784810888651 a44.35606801802105,44.35606801802105 0 0,0 -0.7533664702850464,0.11071892753268721 l -3.1975872009398287 -23.13614810971808" fill="#f1ff19" stroke="none" /><path d="M 102.875027216393 120.80226474461374 l 2.8894829019476376 20.906858884195458 a42.105588355795966,42.105588355795966 0 0,0 -0.716841983787361,0.09280954647776395 l -2.530163096269501 -20.953380026873617" fill="#fff016" stroke="none" /><path d="M 102.51750503828377 120.84855314841334 l 4.807694089624681 39.814603833795715 a61.10382277166994,61.10382277166994 0 0,0 -1.0424431416208038,0.11680792834692981 l -4.123515046403077 -39.89126752264961" fill="#32ff2f" stroke="none" /><path d="M 101.80034050326958 120.92268563240118 l 1.7200759230912037 19.989889544417284 a41.063757005586005,41.063757005586005 0 0,0 -0.7028374980392015,0.0544040674032339 l -1.3766694302767666 -20.01647137881557" fill="#ffe315" stroke="none" /><path d="M 101.08105385017728 120.97215588758144 l 1.029793993065066 19.977728353785377 a41.004252194115956,41.004252194115956 0 0,0 -0.7032702545784515,0.030201450717260037 l -0.6866979778857849 -19.99246237292847" fill="#ffe215" stroke="none" /><line stroke="#e1ed5e" stroke-width="0.3" x1="101.45913802915013" x2="101.54496967792366" y1="184.9874750549273" y2="189.98673829345242" /><path d="M 101.47630435890484 185.9873277026323 a86.0,86.0 0 0,1 -42.54439059252881,-10.42667462771756" fill="none" id="id31" stroke="none" /><text fill="#e1ed5e" style="font-size:6.75px; font-family:Arial;" text-anchor="middle"><textPath startOffset="22.145653131862474" xlink:href="#id31">July</textPath></text><path d="M 100.36049292484886 120.99690560180557 l 0.339321906039967 19.76379989352947 a40.76671256398985,40.76671256398985 0 0,0 -0.6998148308888168,0.006007068654812247 l -2.420724127115594e-15 -19.76671256398985" fill="#ffdf14" stroke="none" /><path d="M 99.63950707515114 120.99690560180557 l -0.3387900044116655 19.73281929028054 a40.735727395005156,40.735727395005156 0 0,0 -0.699076847371596,-0.01800573979199304 l 0.6774801658540055 -19.7240958331385" fill="#ffde14" stroke="none" /><path d="M 99.27912038922189 120.98762331915562 l -0.6783311882505618 19.748872421667354 a40.76051859461808,40.76051859461808 0 0,0 -0.6990899420158064,-0.03002193010904745 l 1.017246890867207 -19.73431792313248" fill="#ffdf14" stroke="none" /><path d="M 98.91894614982273 120.97215588758144 l -1.0155630770061614 19.701652384062683 a40.72780968647612,40.72780968647612 0 0,0 -0.6979110638549186,-0.04198459653545569 l 1.3536184929935267 -19.681315809702536" fill="#ffde14" stroke="none" /><path d="M 97.84075906011543 120.88869738790638 l -2.2131210618924797 21.409938692226437 a42.52401866844309,42.52401866844309 0 0,0 -0.725468057550502,-0.08129020903009627 l 2.580325021043781 -21.368792722689367" fill="#fff617" stroke="none" /><path d="M 97.12497278360702 120.80226474461374 l -2.7141096105247007 19.637945109566598 a40.824612962282345,40.824612962282345 0 0,0 -0.6933864055680568,-0.10190392354625587 l 3.0508211217004426 -19.58846011272146" fill="#ffe015" stroke="none" /><path d="M 96.76829788921471 120.74984581791261 l -3.1974578896326733 20.529973352966074 a41.77747681576065,41.77747681576065 0 0,0 -0.7076756366211965,-0.11644775670385304 l 3.5494110293069334 -20.472059597766552" fill="#ffec16" stroke="none" /><path d="M 96.41257539226777 120.69131181640829 l -3.379467550190994 19.49187077094797 a40.782664812257465,40.782664812257465 0 0,0 -0.6887711753398675,-0.12551705232196317 l 3.713573459081919 -19.43098554469464" fill="#ffdf14" stroke="none" /><path d="M 93.95794788825049 120.11202640906438 l -11.36022640774679 37.81449899798983 a60.48406106904711,60.48406106904711 0 0,0 -0.9918215710043107,-0.30726885800747455 l 12.007688611622735 -37.61391355217571" fill="#38ff2e" stroke="none" /><path d="M 93.61358852112213 120.00534299687104 l -6.044250188170892 18.93352762708406 a40.87489443349975,40.87489443349975 0 0,0 -0.6666058068820229,-0.21912656919585904 l 6.368378732700659 -18.82698013648618" fill="#ffe015" stroke="none" /><path d="M 92.93061703081489 119.77432235084164 l -6.906173586747963 19.317796660684287 a41.5151773434655,41.5151773434655 0 0,0 -0.6690088754300888,-0.24566932579642378 l 7.23677161383217 -19.196396485879145" fill="#ffe915" stroke="none" /><path d="M 92.25597844496254 119.51999308798841 l -7.3117971856114234 18.430505327179148 a40.82790721933846,40.82790721933846 0 0,0 -0.6492522607061272,-0.26404524226592924 l 7.627103907507991 -18.302272828333926" fill="#ffe015" stroke="none" /><path d="M 91.92203290615298 119.3841803445677 l -9.11545552835662 21.87377490298769 a44.69712130188014,44.69712130188014 0 0,0 -0.705714174502667,-0.3012274167364146 l 9.489604778029719 -21.71407283659187" fill="#edff1a" stroke="none" /><path d="M 91.59046798132341 119.24265499422711 l -15.837459505115529 36.239206719845534 a60.54877023701081,60.54877023701081 0 0,0 -0.9488470837416136,-0.4244072317099526 l 16.457219991712776 -35.96199573722573" fill="#37ff2e" stroke="none" /><path d="M 90.93487009805054 118.94263497670748 l -8.615308483702497 18.00268121733281 a40.957957592956845,40.957957592956845 0 0,0 -0.6316102275065655,-0.30895221266558764 l 8.923078960471132 -17.85213525457" fill="#ffe115" stroke="none" /><path d="M 90.6110303473126 118.78422872680471 l -10.934346450833981 21.87601752997479 a45.456493519689815,45.456493519689815 0 0,0 -0.6949925078821595,-0.35486812654230443 l 11.308266180429722 -21.685091451759646" fill="#e3ff1b" stroke="none" /><path d="M 90.28995756902619 118.62028667847754 l -10.946742414995626 20.991821962844504 a44.674622675346384,44.674622675346384 0 0,0 -0.6769506945624042,-0.36043811545497456 l 11.305481925344592 -20.80081337966696" fill="#edff1a" stroke="none" /><line stroke="#e1ed5e" stroke-width="0.3" x1="58.13341422392154" x2="55.67067388415222" y1="173.97424548756322" y2="178.32567169271397" /><path d="M 57.64086615596768 174.84453072859336 a86.0,86.0 0 0,1 -31.369924170532247,-30.572349798747897" fill="none" id="id32" stroke="none" /><text fill="#e1ed5e" style="font-size:6.75px; font-family:Arial;" text-anchor="middle"><textPath startOffset="22.145653131862474" xlink:href="#id32">August</textPath></text><path d="M 89.34428304082925 118.09573695890944 l -20.033937646737247 34.02200596127349 a60.4823447538553,60.4823447538553 0 0,0 -0.890148170000829,-0.534508400051208 l 20.6150185732955 -33.673083560686365" fill="#38ff2e" stroke="none" /><path d="M 88.72937992617639 117.7192867562869 l -10.86240491548937 17.077504724649884 a41.23939248516335,41.23939248516335 0 0,0 -0.594071844940677,-0.3850701925181408 l 11.153962392687056 -16.88852069042785" fill="#ffe515" stroke="none" /><path d="M 87.54013794807813 116.9041958592261 l -23.372429034799442 31.709188790671387 a60.39217044983909,60.39217044983909 0 0,0 -0.8292334210667925,-0.6222722184558857 l 23.913315444777 -31.303297544951487" fill="#39ff2e" stroke="none" /><path d="M 87.2517909369889 116.68781488649013 l -12.0512562527822 15.775481285414715 a40.85191645803226,40.85191645803226 0 0,0 -0.5536213888832584,-0.4304993405446548 l 12.320287586300685 -15.566280893249267" fill="#ffe015" stroke="none" /><path d="M 85.60350026404147 115.28858382429668 l -26.8903595451347 28.556629980300976 a60.22464215641032,60.22464215641032 0 0,0 -0.7465776848680613,-0.7152045338331324 l 27.376609715868078 -28.09081331616226" fill="#3bff2e" stroke="none" /><path d="M 85.34317274990678 115.03919595460226 l -19.469116907412747 19.977029082592093 a48.89494943750992,48.89494943750992 0 0,0 -0.596071529563785,-0.5909769317189992 l 19.809180357106495 -19.63987214064443" fill="#b9ff1f" stroke="none" /><path d="M 84.83555147118756 114.52719865689866 l -14.417422080480367 13.81156421781845 a40.96550439106525,40.96550439106525 0 0,0 -0.4821135918239852,-0.511987927386503 l 14.652391506040606 -13.562034830487457" fill="#ffe115" stroke="none" /><path d="M 83.64595745247003 113.17365903436017 l -15.54022494143218 12.51810517801346 a40.95498806008458,40.95498806008458 0 0,0 -0.4363336029388071,-0.5512932534189665 l 15.75282497501255 -12.249491980679814" fill="#ffe115" stroke="none" /><path d="M 83.20337586046588 112.60449989151573 l -15.820967565777261 11.872349009534036 a40.78018416803948,40.78018416803948 0 0,0 -0.4153713825972904,-0.5635310548770561 l 16.02244096795838 -11.5990116453881" fill="#ffdf14" stroke="none" /><path d="M 82.37810715431573 111.42229804090323 l -33.03819612085063 21.41495956937394 a60.37160012341015,60.37160012341015 0 0,0 -0.5562303120055287,-0.8744864378718461 l 33.400944124482045 -20.844659456823422" fill="#39ff2e" stroke="none" /><path d="M 81.99639281039703 110.81064883170644 l -16.98584725662178 10.199513234569297 a40.81285131543262,40.81285131543262 0 0,0 -0.35551159381702013,-0.6037364085594207 l 17.158432560568574 -9.906425657716317" fill="#ffdf14" stroke="none" /><line stroke="#e1ed5e" stroke-width="0.3" x1="26.387840678322732" x2="22.057713659400548" y1="142.50000000000003" y2="145.00000000000006" /><path d="M 25.521815274538298 143.00000000000003 a86.0,86.0 0 0,1 -11.493303480769221,-40.785679425670985" fill="none" id="id33" stroke="none" /><text fill="#e1ed5e" style="font-size:6.75px; font-family:Arial;" text-anchor="middle"><textPath startOffset="21.40746469413373" xlink:href="#id33">September</textPath></text><path d="M 81.63589988554817 110.18625677009913 l -17.325991343224867 9.610435334085054 a40.81288579021576,40.81288579021576 0 0,0 -0.3345775278287655,-0.6155849669525978 l 17.48841422066896 -9.31159553365787" fill="#ffdf14" stroke="none" /><path d="M 81.1358732173502 109.22738970284198 l -45.94446780615814 22.47374151063392 a72.14648745982359,72.14648745982359 0 0,0 -0.5346423768611263,-1.1171969400881587 l 46.32348944097917 -21.681732068480656" fill="#3dffb1" stroke="none" /><path d="M 80.9802524753101 108.90220220490708 l -17.927315626315377 8.390888916347583 a40.793828896199344,40.793828896199344 0 0,0 -0.2914146701178391,-0.6367936461820448 l 18.06871476128827 -8.081906287950849" fill="#ffdf14" stroke="none" /><path d="M 80.68587082218212 108.24405325689762 l -15.262683104974279 6.514731842275863 a37.594915683414314,37.594915683414314 0 0,0 -0.24825919914854833,-0.5957317023683999 l 15.372268148659314 -6.251767630466181" fill="#ffb410" stroke="none" /><path d="M 80.41425534168474 107.57618678355246 l -15.152556196638384 5.861334250840912 a37.24669807968269,37.24669807968269 0 0,0 -0.22555414880778135,-0.5983091771575619 l 15.250941029260602 -5.600356793489206" fill="#ffb010" stroke="none" /><path d="M 80.05021161711548 106.5578916946017 l -38.07885646739611 12.51727646302785 a61.08343198774807,61.08343198774807 0 0,0 -0.3188999727274992,-0.9989496225237369 l 38.28812115590086 -11.86175780681272" fill="#32ff2f" stroke="none" /><path d="M 79.56144815229197 104.8234425847677 l -19.356289901326672 4.568031712268201 a40.888008257955065,40.888008257955065 0 0,0 -0.15535328340596458,-0.6845152312911699 l 19.431854046290304 -4.235082147038005" fill="#ffe015" stroke="none" /><path d="M 79.407916724674 104.11899336999214 l -38.8197140457181 7.765030018643036 a60.58870911992144,60.58870911992144 0 0,0 -0.19525059961823701,-1.021633642252705 l 38.9472909376185 -7.097493811357016" fill="#37ff2e" stroke="none" /><path d="M 79.22317932658666 103.0534771498775 l -20.217268640462674 2.971242270266262 a41.43443740133925,41.43443740133925 0 0,0 -0.097381747105042,-0.7046058113890432 l 20.26529490412293 -2.623748150677133" fill="#ffe815" stroke="none" /><path d="M 79.0935383218832 101.97986365728391 l -19.634700161733353 1.8594265194369373 a40.72254845151501,40.72254845151501 0 0,0 -0.059932687959621624,-0.6965086810004294 l 19.663726472390717 -1.5220967910608458" fill="#ffde14" stroke="none" /><path d="M 79.03789590574601 101.26102812881392 l -19.74125127073583 1.187584654596065 a40.77694008298961,40.77694008298961 0 0,0 -0.03603596165546947,-0.6990880290315834 l 19.758728821847875 -0.848524832187751" fill="#ffdf14" stroke="none" /><line stroke="#e1ed5e" stroke-width="0.3" x1="15.003131293944662" x2="10.003315487706104" y1="100.72959589197737" y2="100.7725132973878" /><path d="M 14.003168132696942 100.73817937305945 a86.0,86.0 0 0,1 10.791469493833604,-42.45332614584628" fill="none" id="id34" stroke="none" /><text fill="#e1ed5e" style="font-size:6.75px; font-family:Arial;" text-anchor="middle"><textPath startOffset="22.145653131862435" xlink:href="#id34">October</textPath></text><path d="M 79.00077361379809 99.81974689727619 l -22.007592926529117 -0.18890871670854067 a43.008403688660906,43.008403688660906 0 0,0 0.012674307050450586,-0.7382148451821813 l 22.001107187880002 0.5666704778597743" fill="#fffc17" stroke="none" /><path d="M 79.01933749520258 99.09900007780938 l -39.41885925440123 -1.6928154252963874 a60.455190900341805,60.455190900341805 0 0,0 0.05342629772428363,-1.0364559029008849 l 39.383991367220375 2.369243121573984" fill="#38ff2e" stroke="none" /><path d="M 79.0935383218832 98.0201363427161 l -20.443247215847066 -1.9359967661047006 a41.5347130539145,41.5347130539145 0 0,0 0.07331392580329622,-0.709245727114791 l 20.407000897562103 2.2866470155024046" fill="#ffe915" stroke="none" /><path d="M 79.13060592940154 97.66154086499901 l -19.693812227651133 -2.206732737469669 a40.8170610695078,40.8170610695078 0 0,0 0.08400134402075422,-0.6956516307704329 l 19.65302879737071 2.5444780451635385" fill="#ffe014" stroke="none" /><path d="M 79.22317932658666 96.9465228501225 l -20.375806375732793 -2.9945418578042116 a41.594678108664255,41.594678108664255 0 0,0 0.10988622268846483,-0.7055483767173053 l 20.321398660906063 3.343878416452967" fill="#ffea16" stroke="none" /><path d="M 79.2786578344484 96.59031103205396 l -38.88022591720339 -6.3977263790146495 a60.40308198851346,60.40308198851346 0 0,0 0.17713975372829216,-1.0216950264470783 l 38.76467134598286 7.06421443838232" fill="#39ff2e" stroke="none" /><path d="M 79.407916724674 95.88100663000787 l -20.929127922943128 -4.186411739001437 a42.34372129839046,42.34372129839046 0 0,0 0.1486915686075394,-0.7115429827408396 l 20.85417864351122 4.545071173027686" fill="#fff316" stroke="none" /><path d="M 79.56144815229197 95.17655741523228 l -21.760289665728777 -5.135369110915121 a43.35804602915388,43.35804602915388 0 0,0 0.17717434167532808,-0.722931774927684 l 21.66892779753715 5.508156710450923" fill="#feff18" stroke="none" /><path d="M 79.73907114497095 94.47779374421319 l -38.0426369614103 -10.368689871924696 a60.43034309561375,60.43034309561375 0 0,0 0.2813795272542611,-0.9985166766666776 l 37.859038942081455 11.020214472494386" fill="#39ff2e" stroke="none" /><path d="M 79.83685265289637 94.1308016681162 l -23.55465139267882 -6.856415731241165 a45.532265262511686,45.532265262511686 0 0,0 0.22489400531421957,-0.7485990008798876 l 23.43348106736097 7.259752335711776" fill="#e2ff1b" stroke="none" /><path d="M 80.05021161711548 93.44210830539832 l -18.756695109042248 -6.165698237646121 a40.74409902151227,40.74409902151227 0 0,0 0.2241208296135146,-0.6625734090907328 l 18.648088857856365 6.4867733212110155" fill="#ffdf14" stroke="none" /><path d="M 80.28708602549916 92.7611449362534 l -18.59043104365593 -6.826663783531698 a40.80422845763776,40.80422845763776 0 0,0 0.24709742049701555,-0.6554552648079028 l 18.470502939344478 7.144787328533746" fill="#ffdf14" stroke="none" /><path d="M 80.41425534168474 92.42381321644754 l -18.317296715080264 -7.085523869743797 a40.63995945660274,40.63995945660274 0 0,0 0.2572728599754031,-0.6484956702089911 l 18.192965180138728 7.398920557166371" fill="#ffdd14" stroke="none" /><path d="M 80.5471966667186 92.08871423366112 l -18.08382554679 -7.354534418414945 a40.522139301787206,40.522139301787206 0 0,0 0.26758921167859584,-0.6421166955965365 l 17.954910490574925 7.663883623452745" fill="#ffdc14" stroke="none" /><path d="M 80.68587082218212 91.75594674310238 l -17.930516922716077 -7.65347145986501 a40.49561649455528,40.49561649455528 0 0,0 0.2783902356499146,-0.637011339807698 l 17.796492805049184 7.960144869448574" fill="#ffdb14" stroke="none" /><path d="M 80.9802524753101 91.09779779509293 l -18.25249700517851 -8.5430902210259 a41.15286673028527,41.15286673028527 0 0,0 0.30496379322114914,-0.6372570364223992 l 18.103153953997456 8.855159759513386" fill="#ffe415" stroke="none" /><line stroke="#e1ed5e" stroke-width="0.3" x1="26.387840678322718" x2="22.05771365940052" y1="57.49999999999999" y2="54.99999999999999" /><path d="M 25.521815274538284 56.99999999999999 a86.0,86.0 0 0,1 29.574782752854787,-30.34633250058573" fill="none" id="id35" stroke="none" /><text fill="#e1ed5e" style="font-size:6.75px; font-family:Arial;" text-anchor="middle"><textPath startOffset="21.40746469413373" xlink:href="#id35">November</textPath></text><path d="M 82.18462484594161 88.88188828441811 l -16.667077283088755 -10.401488916353502 a40.64643572858645,40.64643572858645 0 0,0 0.3744936291403242,-0.5887661867470595 l 16.48606596232254 10.686068777779234" fill="#ffdd14" stroke="none" /><path d="M 82.576782715395 88.27688183743585 l -16.797482206475298 -11.302095676329223 a41.24580882932944,41.24580882932944 0 0,0 0.4003009120367098,-0.5840509937992501 l 16.600991557623274 11.588781405198507" fill="#ffe515" stroke="none" /><path d="M 82.78059297857968 87.97951657250589 l -15.939685234758576 -11.127138232201686 a40.4393099317261,40.4393099317261 0 0,0 0.4022457747906914,-0.5658090568615715 l 15.746324361437912 11.399124515772778" fill="#ffdb14" stroke="none" /><path d="M 82.98947788004972 87.6856937992154 l -19.062114857682953 -13.799501128582609 a44.53275279786132,44.53275279786132 0 0,0 0.45359361361121814,-0.6153868520394633 l 18.822419224487916 14.124694289890934" fill="#efff19" stroke="none" /><path d="M 83.2033758604659 87.39550010848427 l -15.540571794209248 -11.661934795168678 a40.42961900958786,40.42961900958786 0 0,0 0.42133057983652544,-0.5515352538993197 l 15.338089237018416 11.926990962308883" fill="#ffda14" stroke="none" /><path d="M 83.64595745247003 86.82634096563983 l -15.38782236149477 -12.395340447628456 a40.75929001359949,40.75929001359949 0 0,0 0.44360311324682433,-0.5411236693038545 l 15.172772429009317 12.657666398630802" fill="#ffdf14" stroke="none" /><path d="M 83.8745106332314 86.54754324733833 l -15.190225242930184 -12.672226156734427 a40.782018569862316,40.782018569862316 0 0,0 0.45307936397631854,-0.5337263515122471 l 14.97045131544675 12.93111929069623" fill="#ffdf14" stroke="none" /><path d="M 84.34580500576568 86.00192230759919 l -14.472806524991386 -12.941672838400988 a40.41517511036249,40.41517511036249 0 0,0 0.4668959239358351,-0.5132004085329079 l 14.248512900213685 13.188210822491556" fill="#ffda14" stroke="none" /><path d="M 84.83555147118756 85.47280134310135 l -14.139477705964625 -13.545299794388463 a40.580602041748634,40.580602041748634 0 0,0 0.48621976623574525,-0.4989043137814014 l 13.904871138578077 13.786026800237593" fill="#ffdc14" stroke="none" /><path d="M 85.34317274990677 84.96080404539775 l -13.535125131211473 -13.88823076406635 a40.39284832286148,40.39284832286148 0 0,0 0.5007318948909761,-0.4796898282918436 l 13.294720750455197 14.118532722663762" fill="#ffda14" stroke="none" /><path d="M 85.86807049272753 84.46653392183569 l -13.5970218186501 -14.945508826333334 a41.205128963083965,41.205128963083965 0 0,0 0.5272980584110974,-0.47151317531238196 l 13.338458733415612 15.176717531529118" fill="#ffe515" stroke="none" /><path d="M 86.13680546590413 84.22622945171909 l -12.862038737434062 -14.63463903131452 a40.48344682185698,40.48344682185698 0 0,0 0.5259388106158132,-0.45429341817254565 l 12.6089204470554 14.853276581951777" fill="#ffdb14" stroke="none" /><path d="M 86.40962598614128 83.9905735841838 l -25.861031348675922 -30.464229902101874 a60.960758825944694,60.960758825944694 0 0,0 0.8035953643803534,-0.6703878338256257 l 25.33426165013366 30.90367991983938" fill="#33ff2f" stroke="none" /><path d="M 87.25179093698888 83.31218511350988 l -23.90182505252816 -31.28825625265115 a60.37324243916453,60.37324243916453 0 0,0 0.8289735241476005,-0.6220771869625107 l 23.361198539469807 31.69395246687766" fill="#39ff2e" stroke="none" /><path d="M 87.83215693770416 82.88440491214696 l -11.356433971489373 -15.974246586089393 a40.599621081592026,40.599621081592026 0 0,0 0.571497489914461,-0.3989496326920945 l 11.080541390401148 16.166841034586614" fill="#ffdd14" stroke="none" /><path d="M 88.4268655584334 82.4767994020092 l -31.69939958447076 -47.99693121679103 a78.52006032894363,78.52006032894363 0 0,0 1.1311164955024076,-0.7331760466228602 l 30.870797456711326 48.5340211051178" fill="#46fff6" stroke="none" /><path d="M 88.72937992617638 82.28071324371311 l -10.365453630045486 -16.296214762517526 a40.31344724648392,40.31344724648392 0 0,0 0.5871094409580446,-0.3663997135843298 l 10.084180060297744 16.47175027294339" fill="#ffd914" stroke="none" /><line stroke="#e1ed5e" stroke-width="0.3" x1="56.869717070023135" x2="54.33264160355391" y1="26.7553504044142" y2="22.446841604673864" /><path d="M 56.362301976729285 25.89364864446614 a86.0,86.0 0 0,1 42.16139366436587,-11.88097634709845" fill="none" id="id36" stroke="none" /><text fill="#e1ed5e" style="font-size:6.75px; font-family:Arial;" text-anchor="middle"><textPath startOffset="22.145653131862474" xlink:href="#id36">December</textPath></text><path d="M 89.65649057296885 81.72400993836675 l -9.533368577788577 -16.844548807218487 a40.3552044928162,40.3552044928162 0 0,0 0.6058196549766317,-0.33603795032180833 l 9.242804734655843 17.00571967297344" fill="#ffd914" stroke="none" /></svg>