<?xml version="1.0" encoding="utf-8" ?>
<svg baseProfile="full" height="200mm" version="1.1" viewBox="0,0,200,200" width="200mm" xmlns="http://www.w3.org/2000/svg" xmlns:ev="http://www.w3.org/2001/xml-events" xmlns:xlink="http://www.w3.org/1999/xlink"><defs /><rect fill="#1a1a1a" height="200" width="200" x="0" y="0" /><text alignment-baseline="middle" fill="#e1ed5e" style="dominant-baseline: central; font-size:9.0px; font-family:Arial;" text-anchor="middle" x="100.0" y="100.0">2021</text><line stroke="#e1ed5e" stroke-width="0.3" x1="100.0" x2="100.0" y1="15.0" y2="10.0" /><path d="M 100.0 14.0 a86.0,86.0 0 0,1 42.46469731375804,11.215312516191453" fill="none" id="id49" stroke="none" /><text fill="#e1ed5e" style="font-size:6.75px; font-family:Arial;" text-anchor="middle"><textPath startOffset="22.20632615414155" xlink:href="#id49">January</textPath></text><path d="M 100.0 79.0 l 0.0 -42.20995042347861 a63.20995042347861,63.20995042347861 0 0,0 1.0880553892319909,0.009365236246465578 l -0.7265749099594624 42.2036965638407" fill="#30ff39" stroke="none" /><path d="M 102.16513564639614 79.11191278185805 l 1.372625462620563 -13.242366790637112 a34.313315848367864,34.313315848367864 0 0,0 0.5869755031295798,0.06595353702292812 l -1.600367669259868 13.216777300143582" fill="#ff6109" stroke="none" /><path d="M 102.88285421437855 79.19881850522331 l 3.45495418323533 -24.92915828458151 a46.16743215320098,46.16743215320098 0 0,0 0.7862336110447679,0.11587039650466312 l -3.883556774708753 24.86599340391588" fill="#f3ff19" stroke="none" /><path d="M 103.95276090670814 79.375362276772 l 4.1792419217471215 -21.806365886558357 a43.20323526468484,43.20323526468484 0 0,0 0.7291751332142266,0.14626567199927312 l -4.553983464428473 21.731196258481877" fill="#ffe215" stroke="none" /><path d="M 104.66035177308747 79.52364482259891 l 4.834021400946751 -21.2394136667 a42.78257229553052,42.78257229553052 0 0,0 0.716661692589572,0.1696106682253208 l -5.198906780498847 21.15305708633381" fill="#ffdd14" stroke="none" /><path d="M 105.36241919743992 79.69619591428918 l 5.8990210114319455 -22.335547166992573 a44.10140939731309,44.10140939731309 0 0,0 0.7322978354786833,0.20016466114731962 l -6.282616736134339 22.23069596501896" fill="#ffef16" stroke="none" /><path d="M 105.71112130821622 79.79150937346287 l 5.993084774783717 -21.20620294319862 a43.036789883870796,43.036789883870796 0 0,0 0.7111517660706961,0.2076047015814642 l -6.35722675857784 21.099899912698454" fill="#ffe015" stroke="none" /><path d="M 106.40334571778207 80.00007090966166 l 6.52326768016178 -20.374488086475 a42.393288340340646,42.393288340340646 0 0,0 0.6930640051842467,0.2284923058879763 l -6.873014507588444 20.259182056327788" fill="#ffd714" stroke="none" /><path d="M 107.4271985657038 80.35727306442388 l 7.650327765521972 -20.23283717762894 a42.630885677113646,42.630885677113646 0 0,0 0.6841583887696128,0.2654428258043141 l -7.997469319291252 20.09815164793408" fill="#ffda14" stroke="none" /><path d="M 107.76421540070413 80.48803036053334 l 6.888257496046026 -17.310631428320455 a39.63078237162868,39.63078237162868 0 0,0 0.6316696247912524,0.25767390023207654 l -7.185210990425666 17.1894966419048" fill="#ffb010" stroke="none" /><path d="M 108.09893153111575 80.62456947434976 l 8.888047599783699 -21.263267644214416 a44.04612637832042,44.04612637832042 0 0,0 0.6970115810445864,0.2984239834532381 l -9.2527429386186 21.107124132798386" fill="#ffee16" stroke="none" /><path d="M 109.08828744355905 81.06846463323043 l 9.35920338136318 -19.495872123261044 a42.62599634190913,42.62599634190913 0 0,0 0.6587314564408446,0.323236664836217 l -9.693406104814457 19.331880298289995" fill="#ffda14" stroke="none" /><path d="M 109.73455568895987 81.39251694778311 l 10.453624621824058 -19.981974442391046 a43.55122103901195,43.55122103901195 0 0,0 0.6612629789537805,0.3532237823699102 l -10.79603264730615 19.799071933519382" fill="#ffe715" stroke="none" /><path d="M 110.05341064243156 81.56283822128135 l 10.759283183585376 -19.731676317046563 a43.474457165975764,43.474457165975764 0 0,0 0.6539301790191137,0.36391143662895414 l -11.097337451676525 19.54354948285743" fill="#ffe615" stroke="none" /><path d="M 110.36928655335952 81.73862282372117 l 10.979948620337202 -19.33681571054448 a43.236719936375614,43.236719936375614 0 0,0 0.6440279654085607,0.3730625666934297 l -11.311173318211091 19.144948986461003" fill="#ffe315" stroke="none" /><line stroke="#e1ed5e" stroke-width="0.3" x1="143.23703022742887" x2="145.7803849466894" y1="26.81831364943548" y2="22.513508569990506" /><path d="M 143.74570117128098 25.957352633546492 a86.0,86.0 0 0,1 28.547481713284135,27.462654790039103" fill="none" id="id50" stroke="none" /><text fill="#e1ed5e" style="font-size:6.75px; font-family:Arial;" text-anchor="middle"><textPath startOffset="19.985693538727396" xlink:href="#id50">February</textPath></text><path d="M 110.68208982089419 81.91981866633111 l 10.971439490192905 -18.569925810402733 a42.56883467160027,42.56883467160027 0 0,0 0.6276631433922524,0.3781600209229864 l -11.289464699802794 18.378319180021133" fill="#ffda14" stroke="none" /><path d="M 111.2981086023043 82.29822771554956 l 11.909049309899897 -18.658988546555825 a43.135566607749816,43.135566607749816 0 0,0 0.622452335410796,0.4048603135893251 l -12.228468671094973 18.451229308806973" fill="#ffe115" stroke="none" /><path d="M 115.9244219780498 86.31012108654704 l 5.399882326294431 -4.642161285085373 a28.120982413583988,28.120982413583988 0 0,0 0.31239651120974166,0.369778934340405 l -5.47898945099129 4.548523401115862" fill="#ff0000" stroke="none" /><path d="M 116.15771136456269 86.58626213691792 l 33.50564582526978 -27.815569909185765 a64.54691988581074,64.54691988581074 0 0,0 0.7023365964633802,0.8609816220501554 l -33.97948091380957 27.23470411752751" fill="#32ff4b" stroke="none" /><path d="M 116.38621287248628 86.86637796730983 l 35.73428724740862 -28.641189148901567 a66.79581859671762,66.79581859671762 0 0,0 0.7113624886924622,0.9033581206476615 l -36.22200381669505 28.021838634300867" fill="#35ff68" stroke="none" /><line stroke="#e1ed5e" stroke-width="0.3" x1="172.23445277983987" x2="176.4835382374775" y1="55.19839476539836" y2="52.563006222186495" /><path d="M 173.08426987136738 54.67131705675599 a86.0,86.0 0 0,1 12.851231095245387,41.99856678651699" fill="none" id="id51" stroke="none" /><text fill="#e1ed5e" style="font-size:6.75px; font-family:Arial;" text-anchor="middle"><textPath startOffset="22.20632615414155" xlink:href="#id51">March</textPath></text><path d="M 118.89224826269711 90.83032412892265 l 56.676744788091334 -27.509027613232025 a84.0,84.0 0 0,0 0.6201672246329752,1.3062303374378386 l -57.14187020656606 26.529354860153646" fill="#4dd2ff" stroke="none" /><path d="M 119.196687751892 91.48605970444005 l 30.05657259976849 -13.330417617402285 a53.88004851425106,53.88004851425106 0 0,0 0.36871731074404496,0.8510503896139247 l -30.281580620355214 12.811068083201757" fill="#91ff23" stroke="none" /><path d="M 119.34039704204932 91.81776055985345 l 20.111354449911083 -8.508404311300154 a42.83711340206185,42.83711340206185 0 0,0 0.2814567926610076,0.6815699483811658 l -20.25483292945829 8.160959792465684" fill="#ffdd14" stroke="none" /><path d="M 119.61058180528143 92.48833698450437 l 16.64501151045 -6.375727074138792 a38.82431776834444,38.82431776834444 0 0,0 0.23367693430826467,0.626138007083772 l -16.752293033259892 6.088265930025687" fill="#ffa40f" stroke="none" /><path d="M 119.7369772167798 92.82701384747503 l 20.87443672850488 -7.586371709849584 a43.21024863553669,43.21024863553669 0 0,0 0.24804106430743234,0.7012454903660498 l -21.00193087362212 7.22592859305692" fill="#ffe315" stroke="none" /><path d="M 119.85752413597 93.16781622104841 l 40.847011442820026 -14.053831035902832 a64.19708914493633,64.19708914493633 0 0,0 0.3505243796825392,1.0480232796656248 l -41.082873116274335 13.348634653314893" fill="#32ff46" stroke="none" /><path d="M 119.97218684219823 93.5106431181261 l 20.491374880990765 -6.658051301726127 a42.54590661006671,42.54590661006671 0 0,0 0.2203159062835611,0.6984616296694101 l -20.602946271042534 6.304339505630298" fill="#ffd914" stroke="none" /><line stroke="#e1ed5e" stroke-width="0.3" x1="184.98032266829074" x2="189.97916517819016" y1="98.17113171792111" y2="98.06355123074" /><path d="M 185.9800911702706 98.14961562048488 a86.0,86.0 0 0,1 -9.607161424134198,41.387399972396054" fill="none" id="id52" stroke="none" /><text fill="#e1ed5e" style="font-size:6.75px; font-family:Arial;" text-anchor="middle"><textPath startOffset="21.466115282336823" xlink:href="#id52">April</textPath></text><line stroke="#e1ed5e" stroke-width="0.3" x1="174.80103733775053" x2="179.2010983576182" y1="140.37084112569926" y2="142.7455964860345" /><path d="M 175.68104954172406 140.8457921977663 a86.0,86.0 0 0,1 -30.038265399797805,32.042727171017184" fill="none" id="id53" stroke="none" /><text fill="#e1ed5e" style="font-size:6.75px; font-family:Arial;" text-anchor="middle"><textPath startOffset="22.206326154141568" xlink:href="#id53">May</textPath></text><line stroke="#e1ed5e" stroke-width="0.3" x1="143.8653032363475" x2="146.44561519142675" y1="172.8068346515853" y2="177.08958963109032" /><path d="M 144.38136562736335 173.6633856474863 a86.0,86.0 0 0,1 -40.68145358897372,12.25698825130547" fill="none" id="id54" stroke="none" /><text fill="#e1ed5e" style="font-size:6.75px; font-family:Arial;" text-anchor="middle"><textPath startOffset="21.466115282336833" xlink:href="#id54">June</textPath></text><line stroke="#e1ed5e" stroke-width="0.3" x1="102.19456741930631" x2="102.32365962044197" y1="184.97166512339345" y2="189.96999836594603" /><path d="M 102.22038585953345 185.97133177190398 a86.0,86.0 0 0,1 -42.740103519485714,-10.115201625700543" fill="none" id="id55" stroke="none" /><text fill="#e1ed5e" style="font-size:6.75px; font-family:Arial;" text-anchor="middle"><textPath startOffset="22.20632615414155" xlink:href="#id55">July</textPath></text><line stroke="#e1ed5e" stroke-width="0.3" x1="58.666819895761336" x2="56.23545636021788" y1="174.27360380694188" y2="178.64263932499728" /><path d="M 58.180547188652646 175.14741091055294 a86.0,86.0 0 0,1 -31.652253787137756,-30.449443065178592" fill="none" id="id56" stroke="none" /><text fill="#e1ed5e" style="font-size:6.75px; font-family:Arial;" text-anchor="middle"><textPath startOffset="22.20632615414155" xlink:href="#id56">August</textPath></text><line stroke="#e1ed5e" stroke-width="0.3" x1="26.63291911575756" x2="22.317208475507996" y1="142.92168965132927" y2="145.44649492493687" /><path d="M 25.769776987707644 143.4266507060508 a86.0,86.0 0 0,1 -11.730757126820373,-40.83630448921669" fill="none" id="id57" stroke="none" /><text fill="#e1ed5e" style="font-size:6.75px; font-family:Arial;" text-anchor="middle"><textPath startOffset="21.46611528233685" xlink:href="#id57">September</textPath></text><line stroke="#e1ed5e" stroke-width="0.3" x1="15.007084014347285" x2="10.007500721073583" y1="101.09737516637583" y2="101.16192664675087" /><path d="M 14.007167355692545 101.11028546245083 a86.0,86.0 0 0,1 10.666146001902534,-42.60595125391555" fill="none" id="id58" stroke="none" /><text fill="#e1ed5e" style="font-size:6.75px; font-family:Arial;" text-anchor="middle"><textPath startOffset="22.20632615414155" xlink:href="#id58">October</textPath></text><line stroke="#e1ed5e" stroke-width="0.3" x1="26.266209847984243" x2="21.928928074336255" y1="57.711370442889674" y2="55.22380399835377" /><path d="M 25.398753493254645 57.213857153982495 a86.0,86.0 0 0,1 29.58750427330803,-30.492523968695096" fill="none" id="id59" stroke="none" /><text fill="#e1ed5e" style="font-size:6.75px; font-family:Arial;" text-anchor="middle"><textPath startOffset="21.46611528233685" xlink:href="#id59">November</textPath></text><line stroke="#e1ed5e" stroke-width="0.3" x1="56.762969772571076" x2="54.21961505331055" y1="26.818313649435495" y2="22.513508569990535" /><path d="M 56.25429882871897 25.957352633546506 a86.0,86.0 0 0,1 42.265352541879196,-11.944610805530505" fill="none" id="id60" stroke="none" /><text fill="#e1ed5e" style="font-size:6.75px; font-family:Arial;" text-anchor="middle"><textPath startOffset="22.20632615414155" xlink:href="#id60">December</textPath></text></svg>