<?xml version="1.0" encoding="utf-8" ?>
<svg baseProfile="full" height="200mm" version="1.1" viewBox="0,0,200,200" width="200mm" xmlns="http://www.w3.org/2000/svg" xmlns:ev="http://www.w3.org/2001/xml-events" xmlns:xlink="http://www.w3.org/1999/xlink"><defs /><rect fill="#1a1a1a" height="200" width="200" x="0" y="0" /><text alignment-baseline="middle" fill="#e1ed5e" style="dominant-baseline: central; font-size:9.0px; font-family:Arial;" text-anchor="middle" x="100.0" y="100.0">2023</text><line stroke="#e1ed5e" stroke-width="0.3" x1="100.0" x2="100.0" y1="15.0" y2="10.0" /><path d="M 100.0 14.0 a86.0,86.0 0 0,1 42.46469731375804,11.215312516191453" fill="none" id="id73" stroke="none" /><text fill="#e1ed5e" style="font-size:6.75px; font-family:Arial;" text-anchor="middle"><textPath startOffset="22.20632615414155" xlink:href="#id73">January</textPath></text><path d="M 103.95276090670814 79.375362276772 l 6.949170336021199 -36.25924361228331 a57.91915106951872,57.91915106951872 0 0,0 0.9775472701993099,0.19608678611472902 l -7.572284015687634 36.13425287009137" fill="#ffc912" stroke="none" /><path d="M 104.66035177308747 79.52364482259891 l 13.738380584554195 -60.362816823433526 a82.90648395721925,82.90648395721925 0 0,0 1.3887874882557754,0.3286811285459998 l -14.775391759772493 60.117389782746656" fill="#4be4ff" stroke="none" /><line stroke="#e1ed5e" stroke-width="0.3" x1="143.23703022742887" x2="145.7803849466894" y1="26.81831364943548" y2="22.513508569990506" /><path d="M 143.74570117128098 25.957352633546492 a86.0,86.0 0 0,1 28.547481713284135,27.462654790039103" fill="none" id="id74" stroke="none" /><text fill="#e1ed5e" style="font-size:6.75px; font-family:Arial;" text-anchor="middle"><textPath startOffset="19.985693538727396" xlink:href="#id74">February</textPath></text><path d="M 112.48926042617603 83.11751280151076 l 21.762703261334014 -29.417959645068034 a57.59278074866311,57.59278074866311 0 0,0 0.7919112836631729,0.5964511608124395 l -22.26586069875557 29.03899189474975" fill="#ffc112" stroke="none" /><path d="M 114.94478906791727 85.2469230424477 l 28.292203956716904 -27.92927089002932 a60.75541443850267,60.75541443850267 0 0,0 0.7283004279856775,0.7505776104542448 l -28.76876864840569 27.438129084024958" fill="#f6ff19" stroke="none" /><path d="M 115.19652480421416 85.50635884689758 l 26.99922678951926 -25.750433703763974 a58.3100935828877,58.3100935828877 0 0,0 0.6864838377452501,0.7322930944052461 l -27.438477949234972 25.281871192480672" fill="#ffd213" stroke="none" /><path d="M 115.4437574822437 85.77008943001954 l 26.231160143387108 -24.169446031277985 a56.668415775401066,56.668415775401066 0 0,0 0.6548072125769351,0.7230544788985254 l -26.643310996580077 23.71433876510991" fill="#ffab0f" stroke="none" /><path d="M 116.15771136456269 86.58626213691792 l 22.177970933150426 -18.41161051340423 a49.824465240641715,49.824465240641715 0 0,0 0.5421412113796754,0.6646010216530794 l -22.491610636606513 18.02712532214305" fill="#ff0000" stroke="none" /><path d="M 116.82858285166822 87.43820079747576 l 31.871941038523758 -23.791006470930444 a60.77225935828878,60.77225935828878 0 0,0 0.6185382831849983,0.8436855231370338 l -32.276741934222386 23.238858504121918" fill="#f5ff19" stroke="none" /><path d="M 117.45458315368197 88.32363383020206 l 30.56127164678934 -20.444177624906565 a57.768950534759355,57.768950534759355 0 0,0 0.5457882932351361,0.8312730149795985 l -30.9086565753824 19.915086545949293" fill="#ffc512" stroke="none" /><line stroke="#e1ed5e" stroke-width="0.3" x1="172.23445277983987" x2="176.4835382374775" y1="55.19839476539836" y2="52.563006222186495" /><path d="M 173.08426987136738 54.67131705675599 a86.0,86.0 0 0,1 12.851231095245387,41.99856678651699" fill="none" id="id75" stroke="none" /><text fill="#e1ed5e" style="font-size:6.75px; font-family:Arial;" text-anchor="middle"><textPath startOffset="22.20632615414155" xlink:href="#id75">March</textPath></text><path d="M 117.84615892207809 88.93136811851018 l 30.0342742768155 -18.628004336916383 a56.34204545454545,56.34204545454545 0 0,0 0.5040847730070741,0.8285828266569099 l -30.350474848108796 18.10825373705239" fill="#ffa40f" stroke="none" /><path d="M 118.3937258080291 89.86733742301442 l 31.16789788573754 -17.169647726958296 a56.58419117647058,56.58419117647058 0 0,0 0.46262130177495264,0.8571670121898566 l -31.45882728673096 16.630599731435982" fill="#ffa90f" stroke="none" /><path d="M 118.89224826269711 90.83032412892265 l 27.878694695675225 -13.531401372319744 a51.989037433155076,51.989037433155076 0 0,0 0.3838321078126148,0.808448308444983 l -28.107484997329596 13.04951064823422" fill="#ff3805" stroke="none" /><path d="M 119.34039704204932 91.81776055985345 l 28.515450371422585 -12.06388070396473 a51.96236631016042,51.96236631016042 0 0,0 0.34141331661321056,0.8267594268402457 l -28.718885374921992 11.57124670667118" fill="#ff3805" stroke="none" /><path d="M 119.61058180528143 92.48833698450437 l 32.87197557754945 -12.591324706422212 a56.2009692513369,56.2009692513369 0 0,0 0.33826403024429685,0.9063794267596992 l -33.083844196295374 12.02362214263318" fill="#ffa00e" stroke="none" /><path d="M 119.85752413597 93.16781622104841 l 33.765091591493096 -11.617224256489365 a56.7077205882353,56.7077205882353 0 0,0 0.3096314622229224,0.9257586614101484 l -33.96006034748779 11.034292492156903" fill="#ffac10" stroke="none" /><path d="M 119.97218684219823 93.5106431181261 l 33.46743087256993 -10.874227472811214 a56.18973930481283,56.18973930481283 0 0,0 0.2909679056139277,0.9224477749465294 l -33.649654261952065 10.296529531438265" fill="#ffa00e" stroke="none" /><path d="M 120.08093135843002 93.85539295169968 l 30.737516522505953 -9.405438288705144 a53.144318181818186,53.144318181818186 0 0,0 0.26013916719572616,0.8770599496766796 l -30.89486158681338 8.874948952281933" fill="#ff5607" stroke="none" /><path d="M 120.18372546131832 94.20196356495316 l 60.551176383954946 -17.394109305140535 a84.0,84.0 0 0,0 0.3872529177345476,1.3931547863241924 l -60.84161607225586 16.349243215397394" fill="#4dd2ff" stroke="none" /><line stroke="#e1ed5e" stroke-width="0.3" x1="184.98032266829074" x2="189.97916517819016" y1="98.17113171792111" y2="98.06355123074" /><path d="M 185.9800911702706 98.14961562048488 a86.0,86.0 0 0,1 -9.607161424134198,41.387399972396054" fill="none" id="id76" stroke="none" /><text fill="#e1ed5e" style="font-size:6.75px; font-family:Arial;" text-anchor="middle"><textPath startOffset="21.466115282336823" xlink:href="#id76">April</textPath></text><line stroke="#e1ed5e" stroke-width="0.3" x1="174.80103733775053" x2="179.2010983576182" y1="140.37084112569926" y2="142.7455964860345" /><path d="M 175.68104954172406 140.8457921977663 a86.0,86.0 0 0,1 -30.038265399797805,32.042727171017184" fill="none" id="id77" stroke="none" /><text fill="#e1ed5e" style="font-size:6.75px; font-family:Arial;" text-anchor="middle"><textPath startOffset="22.206326154141568" xlink:href="#id77">May</textPath></text><line stroke="#e1ed5e" stroke-width="0.3" x1="143.8653032363475" x2="146.44561519142675" y1="172.8068346515853" y2="177.08958963109032" /><path d="M 144.38136562736335 173.6633856474863 a86.0,86.0 0 0,1 -40.68145358897372,12.25698825130547" fill="none" id="id78" stroke="none" /><text fill="#e1ed5e" style="font-size:6.75px; font-family:Arial;" text-anchor="middle"><textPath startOffset="21.466115282336833" xlink:href="#id78">June</textPath></text><line stroke="#e1ed5e" stroke-width="0.3" x1="102.19456741930631" x2="102.32365962044197" y1="184.97166512339345" y2="189.96999836594603" /><path d="M 102.22038585953345 185.97133177190398 a86.0,86.0 0 0,1 -42.740103519485714,-10.115201625700543" fill="none" id="id79" stroke="none" /><text fill="#e1ed5e" style="font-size:6.75px; font-family:Arial;" text-anchor="middle"><textPath startOffset="22.20632615414155" xlink:href="#id79">July</textPath></text><line stroke="#e1ed5e" stroke-width="0.3" x1="58.666819895761336" x2="56.23545636021788" y1="174.27360380694188" y2="178.64263932499728" /><path d="M 58.180547188652646 175.14741091055294 a86.0,86.0 0 0,1 -31.652253787137756,-30.449443065178592" fill="none" id="id80" stroke="none" /><text fill="#e1ed5e" style="font-size:6.75px; font-family:Arial;" text-anchor="middle"><textPath startOffset="22.20632615414155" xlink:href="#id80">August</textPath></text><line stroke="#e1ed5e" stroke-width="0.3" x1="26.63291911575756" x2="22.317208475507996" y1="142.92168965132927" y2="145.44649492493687" /><path d="M 25.769776987707644 143.4266507060508 a86.0,86.0 0 0,1 -11.730757126820373,-40.83630448921669" fill="none" id="id81" stroke="none" /><text fill="#e1ed5e" style="font-size:6.75px; font-family:Arial;" text-anchor="middle"><textPath startOffset="21.46611528233685" xlink:href="#id81">September</textPath></text><line stroke="#e1ed5e" stroke-width="0.3" x1="15.007084014347285" x2="10.007500721073583" y1="101.09737516637583" y2="101.16192664675087" /><path d="M 14.007167355692545 101.11028546245083 a86.0,86.0 0 0,1 10.666146001902534,-42.60595125391555" fill="none" id="id82" stroke="none" /><text fill="#e1ed5e" style="font-size:6.75px; font-family:Arial;" text-anchor="middle"><textPath startOffset="22.20632615414155" xlink:href="#id82">October</textPath></text><line stroke="#e1ed5e" stroke-width="0.3" x1="26.266209847984243" x2="21.928928074336255" y1="57.711370442889674" y2="55.22380399835377" /><path d="M 25.398753493254645 57.213857153982495 a86.0,86.0 0 0,1 29.58750427330803,-30.492523968695096" fill="none" id="id83" stroke="none" /><text fill="#e1ed5e" style="font-size:6.75px; font-family:Arial;" text-anchor="middle"><textPath startOffset="21.46611528233685" xlink:href="#id83">November</textPath></text><line stroke="#e1ed5e" stroke-width="0.3" x1="56.762969772571076" x2="54.21961505331055" y1="26.818313649435495" y2="22.513508569990535" /><path d="M 56.25429882871897 25.957352633546506 a86.0,86.0 0 0,1 42.265352541879196,-11.944610805530505" fill="none" id="id84" stroke="none" /><text fill="#e1ed5e" style="font-size:6.75px; font-family:Arial;" text-anchor="middle"><textPath startOffset="22.20632615414155" xlink:href="#id84">December</textPath></text></svg>