<?xml version="1.0" encoding="utf-8" ?>
<svg baseProfile="full" height="200mm" version="1.1" viewBox="0,0,200,200" width="200mm" xmlns="http://www.w3.org/2000/svg" xmlns:ev="http://www.w3.org/2001/xml-events" xmlns:xlink="http://www.w3.org/1999/xlink"><defs /><rect fill="#1a1a1a" height="200" width="200" x="0" y="0" /><text alignment-baseline="middle" fill="#e1ed5e" style="dominant-baseline: central; font-size:9.0px; font-family:Arial;" text-anchor="middle" x="100.0" y="100.0">2022</text><line stroke="#e1ed5e" stroke-width="0.3" x1="100.0" x2="100.0" y1="15.0" y2="10.0" /><path d="M 100.0 14.0 a86.0,86.0 0 0,1 42.46469731375804,11.215312516191453" fill="none" id="id61" stroke="none" /><text fill="#e1ed5e" style="font-size:6.75px; font-family:Arial;" text-anchor="middle"><textPath startOffset="22.20632615414155" xlink:href="#id61">January</textPath></text><path d="M 100.0 79.0 l 0.0 -39.19424925636936 a60.19424925636936,60.19424925636936 0 0,0 1.0361450509829728,0.008918427576477607 l -0.6746645717104446 39.188442205401444" fill="#40ff2d" stroke="none" /><path d="M 100.36148047927253 79.00311137660856 l 0.4433227639274113 -25.750764514672724 a46.75458033366384,46.75458033366384 0 0,0 0.804564762629903,0.020779534121468032 l -0.8865141617521821 25.739318188408895" fill="#ddff1b" stroke="none" /><path d="M 100.72285384407766 79.0124445844662 l 0.6787647409809229 -19.70745916641632 a40.71914471698926,40.71914471698926 0 0,0 0.7002901148479138,0.030155965444738426 l -1.0178956882181682 19.692855474447388" fill="#ffd213" stroke="none" /><path d="M 101.80526077348638 79.07773832637324 l 1.6914168015411093 -19.60285485662495 a40.67569082208907,40.67569082208907 0 0,0 0.697055193576944,0.06619378977685032 l -2.0285971222082977 19.57083552233292" fill="#ffd113" stroke="none" /><path d="M 102.16513564639614 79.11191278185805 l 1.0255189876768112 -9.893666521129672 a30.946674138897272,30.946674138897272 0 0,0 0.5293845603012572,0.05948252356536208 l -1.1956702514877935 9.874548044093709" fill="#ff4606" stroke="none" /><path d="M 102.88285421437855 79.19881850522331 l 5.411483391743215 -39.046458758194724 a60.41966633616416,60.41966633616416 0 0,0 1.0289498511410864,0.15164046100331768 l -6.0828022233129575 38.947523813030436" fill="#3eff2d" stroke="none" /><path d="M 104.307194497241 79.44645832069477 l 4.040267750397285 -19.279791441165756 a40.698581713152564,40.698581713152564 0 0,0 0.6844285832681907,0.14958957880464852 l -4.371539057819003 19.207388364265235" fill="#ffd213" stroke="none" /><path d="M 104.66035177308747 79.52364482259891 l 4.369903131676669 -19.200200536743747 a40.69121007026771,40.69121007026771 0 0,0 0.6816287548358194,0.16131950372783038 l -4.699755573475013 19.122135120875047" fill="#ffd213" stroke="none" /><path d="M 105.01212808612495 79.60689891045804 l 4.925515707617469 -20.040696889138864 a41.63710824675605,41.63710824675605 0 0,0 0.6945289961760993,0.17705090545846852 l -5.269753592478594 19.952942987511527" fill="#ffde14" stroke="none" /><path d="M 106.40334571778207 80.00007090966166 l 6.094533615749474 -19.035398918909536 a40.987239729275345,40.987239729275345 0 0,0 0.6700773079965844,0.22091395323097845 l -6.421293745988476 18.927671241419322" fill="#ffd614" stroke="none" /><path d="M 107.76421540070413 80.48803036053334 l 7.540248108524123 -18.949125516819876 a41.39423201276027,41.39423201276027 0 0,0 0.6597770076510292,0.2691396074349333 l -7.86530898576354 18.816525023201365" fill="#ffdb14" stroke="none" /><line stroke="#e1ed5e" stroke-width="0.3" x1="143.23703022742887" x2="145.7803849466894" y1="26.81831364943548" y2="22.513508569990506" /><path d="M 143.74570117128098 25.957352633546492 a86.0,86.0 0 0,1 28.547481713284135,27.462654790039103" fill="none" id="id62" stroke="none" /><text fill="#e1ed5e" style="font-size:6.75px; font-family:Arial;" text-anchor="middle"><textPath startOffset="19.985693538727396" xlink:href="#id62">February</textPath></text><path d="M 112.77801427241765 83.33499621200491 l 11.87611919007216 -15.488758039380984 a40.51778247187137,40.51778247187137 0 0,0 0.5498213781721527,0.42914430678555465 l -12.140973123403743 15.282035343372206" fill="#ffcf13" stroke="none" /><path d="M 113.34407831869373 83.78471172551755 l 12.420473072794943 -15.092953336362939 a40.546493081001856,40.546493081001856 0 0,0 0.5351026171494743,0.4481330531352401 l -12.678433226903534 14.87691912583388" fill="#ffd013" stroke="none" /><path d="M 113.89432698308785 84.25364557470407 l 12.974992283980843 -14.70447812389379 a40.61050997973876,40.61050997973876 0 0,0 0.5201800463177676,0.46702278164244043 l -13.2261833178946 14.478956333482051" fill="#ffd113" stroke="none" /><path d="M 114.68862486808459 84.99185889309783 l 14.26627228856946 -14.576601247510716 a41.3961719187826,41.3961719187826 0 0,0 0.5049627264624237,0.502794256038368 l -14.515070815199206 14.32887114082223" fill="#ffdb14" stroke="none" /><path d="M 115.4437574822437 85.77008943001954 l 17.25948965261988 -15.902930004091388 a44.46898305815407,44.46898305815407 0 0,0 0.513841977828517,0.5673971458757157 l -17.530675271064432 15.603480070946125" fill="#faff18" stroke="none" /><path d="M 115.9244219780498 86.31012108654704 l 47.773265934149435 -41.069636740358895 a84.0,84.0 0 0,0 0.9331575460515311,1.1045642014835737 l -48.47313409368808 40.241213589246215" fill="#4dd2ff" stroke="none" /><path d="M 117.2510076193507 88.02491185347247 l 49.11627329003736 -34.09491868853925 a80.790231495452,80.790231495452 0 0,0 0.7831864069253984,1.149229412036328 l -49.69588416263149 33.24441125323252" fill="#49f2ff" stroke="none" /><path d="M 117.45458315368197 88.32363383020206 l 24.714435948891765 -16.532895760298018 a50.73449152907703,50.73449152907703 0 0,0 0.47932827727494,0.7300498511126093 l -24.99536086152463 16.105027845207736" fill="#acff21" stroke="none" /><line stroke="#e1ed5e" stroke-width="0.3" x1="172.23445277983987" x2="176.4835382374775" y1="55.19839476539836" y2="52.563006222186495" /><path d="M 173.08426987136738 54.67131705675599 a86.0,86.0 0 0,1 12.851231095245387,41.99856678651699" fill="none" id="id63" stroke="none" /><text fill="#e1ed5e" style="font-size:6.75px; font-family:Arial;" text-anchor="middle"><textPath startOffset="22.20632615414155" xlink:href="#id63">March</textPath></text><path d="M 117.84615892207809 88.93136811851018 l 16.856250415367498 -10.454665990847682 a40.83515109712462,40.83515109712462 0 0,0 0.36534665551165174,0.6005338402262042 l -17.033712869165374 10.162964377414397" fill="#ffd413" stroke="none" /><path d="M 118.3937258080291 89.86733742301442 l 17.147797515808353 -9.446310550650503 a40.57753157735914,40.57753157735914 0 0,0 0.33175397740664553,0.6146897354374092 l -17.307859592433466 9.149739831880636" fill="#ffd013" stroke="none" /><path d="M 118.56541770881063 90.18545643968196 l 20.850379883171737 -11.02248087396671 a44.58460145708497,44.58460145708497 0 0,0 0.35283524707063113,0.6815653921369262 l -21.037024563402483 10.66194275956944" fill="#f9ff18" stroke="none" /><path d="M 119.196687751892 91.48605970444005 l 18.110941563571 -8.032400024500124 a40.812260206061126,40.812260206061126 0 0,0 0.27929052113946917,0.6446410296049823 l -18.24652279455315 7.719459850308538" fill="#ffd313" stroke="none" /><path d="M 119.47837535516314 92.15188598940014 l 18.14854040614055 -7.312304626864826 a40.56628012242963,40.56628012242963 0 0,0 0.2553868518805219,0.649931681660372 l -18.271720807902774 6.99882394030867" fill="#ffd013" stroke="none" /><path d="M 119.61058180528143 92.48833698450437 l 41.117621687582265 -15.749747824033028 a65.03082295124369,65.03082295124369 0 0,0 0.39140941080954283,1.0487826244537166 l -41.38263568689343 15.039642062549978" fill="#34ff59" stroke="none" /><path d="M 119.85752413597 93.16781622104841 l 18.683406243696687 -6.4282165389654145 a40.758330818640346,40.758330818640346 0 0,0 0.2225457387147985,0.6653834326009662 l -18.791289276183257 6.105660003442135" fill="#ffd313" stroke="none" /><path d="M 119.97218684219823 93.5106431181261 l 18.685019565003493 -6.071130881166847 a40.64659223175411,40.64659223175411 0 0,0 0.2104806670815757,0.6672812336776398 l -18.786755715853275 5.748599481062788" fill="#ffd113" stroke="none" /><path d="M 120.28053869075195 94.5502522615342 l 20.757767509363738 -5.5779877578567145 a42.49415872742165,42.49415872742165 0 0,0 0.18374407078740362,0.708040858667588 l -20.850707912021445 5.219850473640276" fill="#ffea16" stroke="none" /><path d="M 120.37134235888165 94.90015583598534 l 39.043891481682174 -9.774405564710625 a61.2487821701082,61.2487821701082 0 0,0 0.24723275009500587,1.024939361783432 l -39.206357032038 9.100880971267786" fill="#35ff2f" stroke="none" /><path d="M 120.67395015179393 96.31383870115 l 20.619584890800727 -3.676467983368255 a41.944777341897655,41.944777341897655 0 0,0 0.1206174772679013,0.7118911785990552 l -20.67981422958885 3.320991016453362" fill="#ffe315" stroke="none" /><path d="M 120.78858239683441 97.02765380044208 l 20.804969605443873 -2.974689238457915 a42.01655386472389,42.01655386472389 0 0,0 0.09620590550561237,0.7168457418753623 l -20.85309151000732 2.616125154517888" fill="#ffe315" stroke="none" /><path d="M 120.83666639777658 97.38593545837742 l 41.03904115683011 -5.148554008702014 a62.36073630210803,62.36073630210803 0 0,0 0.12445316404083932,1.066238707235455 l -41.12158467387454 4.441371563141707" fill="#30ff37" stroke="none" /><path d="M 120.87857604477298 97.74499172005257 l 23.519594599879483 -2.5402537246793235 a44.6563779799112,44.6563779799112 0 0,0 0.07596448466967898,0.764951993785034 l -23.559836210231392 2.135026200189855" fill="#f8ff18" stroke="none" /><path d="M 120.94382443527127 98.46500227214037 l 19.779382931125845 -1.4496544292365552 a40.83243522869336,40.83243522869336 0 0,0 0.04534229797064824,0.7014252806298178 l -19.801405820100907 1.1089700843537023" fill="#ffd413" stroke="none" /><path d="M 120.98425023603335 99.18683210126433 l 12.81199879695393 -0.4964821722547427 a33.82161486399103,33.82161486399103 0 0,0 0.017536194125839566,0.581940910126397 l -12.818646685535414 0.2758711147033466" fill="#ff710a" stroke="none" /><line stroke="#e1ed5e" stroke-width="0.3" x1="184.98032266829074" x2="189.97916517819016" y1="98.17113171792111" y2="98.06355123074" /><path d="M 185.9800911702706 98.14961562048488 a86.0,86.0 0 0,1 -9.607161424134198,41.387399972396054" fill="none" id="id64" stroke="none" /><text fill="#e1ed5e" style="font-size:6.75px; font-family:Arial;" text-anchor="middle"><textPath startOffset="21.466115282336823" xlink:href="#id64">April</textPath></text><path d="M 120.99980553446 99.90962569577887 l 19.970759582472983 -0.08594572454834273 a40.97094451868776,40.97094451868776 0 0,0 -0.0030351718780640097,0.7052670529784915 l -19.969280113305416 -0.2578308066338335" fill="#ffd513" stroke="none" /><path d="M 120.99824983174949 100.27111621757518 l 39.31745408639633 0.5076422807615326 a60.32073112902531,60.32073112902531 0 0,0 -0.022341469786479922,1.0381203118579043 l -39.30289055392484 -1.1843524084095518" fill="#3fff2d" stroke="none" /><path d="M 120.9904718944345 100.63252640178507 l 20.59012769070703 0.6204624386720548 a41.599474069922834,41.599474069922834 0 0,0 -0.027728757690028447,0.7155560260146187 l -20.576396800165796 -0.9747957117006796" fill="#ffde14" stroke="none" /><path d="M 120.92983693683757 101.71520430193887 l 23.639595969244077 1.9372695938772422 a44.71884295383023,44.71884295383023 0 0,0 -0.06947477644717982,0.766648368854881 l -23.60274659651982 -2.343899351280694" fill="#f7ff19" stroke="none" /><path d="M 120.89721153311464 102.0752229133903 l 19.594827722922936 1.94588811096197 a40.69121007026771,40.69121007026771 0 0,0 -0.07521614876500063,0.6964081222006109 l -19.558429272656884 -2.2828925550473724" fill="#ffd213" stroke="none" /><path d="M 120.81339534386255 102.79330883721812 l 39.25857624883088 5.268786094758795 a60.61055308876148,60.61055308876148 0 0,0 -0.14767602224738788,1.0328457556469086 l -39.16206617556689 -5.943777322386112" fill="#3cff2e" stroke="none" /><path d="M 120.76222939487914 103.15116336523771 l 20.11652238569607 3.053161930357268 a41.34689830581541,41.34689830581541 0 0,0 -0.11285388921388358,0.7027412758623026 l -20.060986742120896 -3.3989824359127754" fill="#ffdb14" stroke="none" /><path d="M 120.70491114924044 103.5080841355445 l 19.526975768454232 3.308503640257793 a40.80527654438074,40.80527654438074 0 0,0 -0.12329714133686731,0.6915158472995582 l -19.467132184778176 -3.64413823829057" fill="#ffd313" stroke="none" /><path d="M 120.5718875245553 104.21870165774334 l 19.319044510801493 3.9617796376950296 a40.72108462301159,40.72108462301159 0 0,0 -0.1467238101039748,0.6854447939342542 l -19.247986661973076 -4.293738251045453" fill="#ffd213" stroke="none" /><path d="M 120.41448212921028 104.9243191809786 l 19.28135698722412 4.650990186600265 a40.8343751347157,40.8343751347157 0 0,0 -0.1707045773647209,0.6818799312070479 l -19.198441095564338 -4.982197957204709" fill="#ffd413" stroke="none" /><path d="M 120.32669344350535 105.2749913415812 l 20.852702138284908 5.411496145880558 a42.54343234038885,42.54343234038885 0 0,0 -0.19005148699406307,0.7072522839934453 l -20.756462574949065 -5.769639363049551" fill="#ffeb16" stroke="none" /><path d="M 120.13307415673323 105.97154293290107 l 22.67197980036588 6.724591569960151 a44.64823037461741,44.64823037461741 0 0,0 -0.22488511564823827,0.7349375697041525 l -22.55286791221151 -7.113856112216361" fill="#f8ff18" stroke="none" /><path d="M 120.02730092923936 106.31721596034902 l 14.97394690148457 4.7232353820265764 a36.70121136353839,36.70121136353839 0 0,0 -0.19522903363799096,0.6008531828062829 l -14.890425616830333 -4.9802874648106545" fill="#ff9a0e" stroke="none" /><path d="M 119.79798401119884 107.00284435728193 l 19.21555050919736 6.79682887809597 a41.38220459542182,41.38220459542182 0 0,0 -0.24331896636441006,0.669509294097027 l -19.095707281827725 -7.126585969199128" fill="#ffdb14" stroke="none" /><path d="M 119.54520255179757 107.68017299344265 l 22.3057176142313 8.764901236821498 a44.96598698107515,44.96598698107515 0 0,0 -0.2892755851656847,0.7179582790631578 l -22.151539414808223 -9.14755888372747" fill="#f4ff19" stroke="none" /><path d="M 119.12269723197855 108.67885076344098 l 18.69579610889045 8.485101362240869 a41.531189377936805,41.531189377936805 0 0,0 -0.30105243886447414,0.6484401704318126 l -18.546969053186142 -8.805661599951513" fill="#ffdd14" stroke="none" /><path d="M 118.81262510543309 109.33194174019688 l 25.311698371769097 12.555785980265386 a49.25473121524335,49.25473121524335 0 0,0 -0.3832987473578498,0.7562847920986215 l -25.09182095462498 -12.989624984066701" fill="#beff1f" stroke="none" /><line stroke="#e1ed5e" stroke-width="0.3" x1="174.80103733775053" x2="179.2010983576182" y1="140.37084112569926" y2="142.7455964860345" /><path d="M 175.68104954172406 140.8457921977663 a86.0,86.0 0 0,1 -30.038265399797805,32.042727171017184" fill="none" id="id65" stroke="none" /><text fill="#e1ed5e" style="font-size:6.75px; font-family:Arial;" text-anchor="middle"><textPath startOffset="22.206326154141568" xlink:href="#id65">May</textPath></text><path d="M 118.30583269289576 110.29060199501025 l 39.126675464347315 21.99501390328934 a65.88515756347803,65.88515756347803 0 0,0 -0.5642530509989274,0.9838227554478398 l -38.742270417196 -22.665256504595497" fill="#35ff63" stroke="none" /><path d="M 118.12598468904814 110.60418214915192 l 20.918126868930763 12.237659434371919 a45.23485795577014,45.23485795577014 0 0,0 -0.3989695608801345,0.6686959327213707 l -20.7043764323524 -12.595917460979395" fill="#f0ff19" stroke="none" /><path d="M 117.75023020441432 111.22182372390056 l 16.756788367121835 10.593762619922767 a40.82467560460404,40.82467560460404 0 0,0 -0.3806320446471928,0.5907493860215602 l -16.57195145909759 -10.88063360586578" fill="#ffd313" stroke="none" /><path d="M 117.55443506779139 111.5257021239791 l 16.55573529038016 10.869986568264881 a40.80527654438074,40.80527654438074 0 0,0 -0.39055875563225106,0.5838323479623831 l -16.366173429337188 -11.153355830433071" fill="#ffd313" stroke="none" /><path d="M 117.35343817320211 111.8261652097733 l 16.76148543275311 11.422756338571137 a41.28365736948743,41.28365736948743 0 0,0 -0.4052464609131109,0.583787751654597 l -16.562378064677862 -11.709585352412754" fill="#ffda14" stroke="none" /><path d="M 116.0416608686014 113.55231037782055 l 14.255017048842339 12.042918564945214 a39.661119972410226,39.661119972410226 0 0,0 -0.44506857144335515,0.5177152979685595 l -14.045605967828205 -12.286510962075301" fill="#ffc412" stroke="none" /><path d="M 115.32070863581623 114.36230785411682 l 14.395874845435271 13.495327877727924 a40.73233607794111,40.73233607794111 0 0,0 -0.48392623802269297,0.50739472585519 l -14.161442056033614 -13.74112972016562" fill="#ffd213" stroke="none" /><path d="M 115.07121518719521 114.62390073753431 l 13.882718457494724 13.470678652510228 a40.34396689227056,40.34396689227056 0 0,0 -0.4878918387971999,0.49423185683647347 l -13.648785993641988 -13.707651003327367" fill="#ffcd13" stroke="none" /><path d="M 113.75828350139079 115.86535959552629 l 13.680925512754515 15.776154259179126 a41.88192438677415,41.88192438677415 0 0,0 -0.5487220621995833,0.4676328456773954 l -13.407337973977885 -16.00931149507947" fill="#ffe215" stroke="none" /><path d="M 113.20401910651253 116.32954008644616 l 12.961453325255551 16.029556602880742 a41.614217355692546,41.614217355692546 0 0,0 -0.5608853532838258,0.4456012465959304 l -12.683610479254373 -16.250291763481798" fill="#ffde14" stroke="none" /><path d="M 112.92097659922987 116.55440617244103 l 12.349881512718241 15.822716895504914 a41.07181963184894,41.07181963184894 0 0,0 -0.5610631009940187,0.4301992608842371 l -12.075689683230728 -16.032955498216523" fill="#ffd714" stroke="none" /><path d="M 112.34349029814194 116.9893568818739 l 11.870439348663634 16.338258107550235 a41.19519765486916,41.19519765486916 0 0,0 -0.5772676616043672,0.41186514914768296 l -11.587444359210382 -16.540167518542138" fill="#ffd814" stroke="none" /><path d="M 111.45004920935366 117.60387380957326 l 11.110875198570312 17.082410855471764 a41.3779368021727,41.3779368021727 0 0,0 -0.6004100160654315,0.38321007966966175 l -10.81518338045795 -17.271135363965236" fill="#ffdb14" stroke="none" /><line stroke="#e1ed5e" stroke-width="0.3" x1="143.8653032363475" x2="146.44561519142675" y1="172.8068346515853" y2="177.08958963109032" /><path d="M 144.38136562736335 173.6633856474863 a86.0,86.0 0 0,1 -40.68145358897372,12.25698825130547" fill="none" id="id66" stroke="none" /><text fill="#e1ed5e" style="font-size:6.75px; font-family:Arial;" text-anchor="middle"><textPath startOffset="21.466115282336833" xlink:href="#id66">June</textPath></text><path d="M 109.2508944713604 118.85261126421891 l 8.938921259767953 18.216833858994946 a41.29180497478123,41.29180497478123 0 0,0 -0.6407845788898178,0.30761553828184357 l -8.624024012877904 -18.36800367377635" fill="#ffda14" stroke="none" /><path d="M 108.92500713936063 119.00905698771935 l 8.878782375048726 18.910604497393184 a41.89123593568134,41.89123593568134 0 0,0 -0.6553624619871091,0.3008447627993622 l -8.551951917294197 -19.06063633052662" fill="#ffe215" stroke="none" /><path d="M 108.59647513512805 119.15986991738527 l 8.06817883219822 17.98240028211478 a40.709445186877616,40.709445186877616 0 0,0 -0.6418121736918377,0.2813515958253524 l -7.757445983848627 -18.11861643123459" fill="#ffd213" stroke="none" /><path d="M 107.2578585660854 119.70592522655815 l 5.413381888786389 14.697957772517638 a36.66316271244579,36.66316271244579 0 0,0 -0.5940836722140275,0.21301726837131219 l -5.159578655942626 -14.78896258192891" fill="#ff9a0e" stroke="none" /><path d="M 106.91757812671514 119.82793768551818 l 5.623026388215958 16.117348411143087 a38.070071633380735,38.070071633380735 0 0,0 -0.6205970375882918,0.21054020990834918 l -5.34475961769044 -16.21175160794956" fill="#ffae10" stroke="none" /><path d="M 106.57524785965236 119.94407469862006 l 4.937711369768466 14.97709082621479 a36.770042586747444,36.770042586747444 0 0,0 -0.6028162287006785,0.19300272012088238 l -4.679173795976847 -15.059866392995378" fill="#ff9b0e" stroke="none" /><path d="M 104.13013068566511 120.58985236759428 l 3.8646388172771227 19.266301421887324 a40.6500840625943,40.6500840625943 0 0,0 -0.6872426815525523,0.13171169557091433 l -3.532428521152866 -19.329970315806705" fill="#ffd113" stroke="none" /><path d="M 103.7750983002368 120.6578951692458 l 3.488349013474848 19.08876074288847 a40.40487994137173,40.40487994137173 0 0,0 -0.6852495023175181,0.11913940955513438 l -3.1592505396852797 -19.14597873096461" fill="#ffce13" stroke="none" /><path d="M 103.41894727170886 120.7198165907248 l 3.2028351217583135 19.410113996872145 a40.67258697245333,40.67258697245333 0 0,0 -0.6917518762297034,0.10803741647121437 l -2.868247381920093 -19.462369720690464" fill="#ffd113" stroke="none" /><path d="M 102.34483914955558 120.86867818915974 l 2.2107876907750525 19.675642515643023 a40.799456826313744,40.799456826313744 0 0,0 -0.6985787976637834,0.07241054869422534 l -1.8717762965056663 -19.71078243279301" fill="#ffd313" stroke="none" /><path d="M 101.62511606390274 120.93702456842531 l 1.540136722370896 19.8422014964117 a40.9018838642928,40.9018838642928 0 0,0 -0.7024163083694939,0.048442741147981215 l -1.1983576532224718 -19.865772582075966" fill="#ffd413" stroke="none" /><path d="M 101.26447882468166 120.96189622390904 l 1.2128652191662326 20.106271739387825 a41.14282019226624,41.14282019226624 0 0,0 -0.707288047072711,0.036558713101698566 l -0.8665891036800419 -20.124170259251727" fill="#ffd814" stroke="none" /><line stroke="#e1ed5e" stroke-width="0.3" x1="102.19456741930631" x2="102.32365962044197" y1="184.97166512339345" y2="189.96999836594603" /><path d="M 102.22038585953345 185.97133177190398 a86.0,86.0 0 0,1 -42.740103519485714,-10.115201625700543" fill="none" id="id67" stroke="none" /><text fill="#e1ed5e" style="font-size:6.75px; font-family:Arial;" text-anchor="middle"><textPath startOffset="22.20632615414155" xlink:href="#id67">July</textPath></text><path d="M 100.54218724476979 120.99299961872073 l 0.5092377640402156 19.717225533170655 a40.72380049144286,40.72380049144286 0 0,0 -0.7009153846845823,0.01206689399223677 l -0.1697626894629653 -19.723069904442053" fill="#ffd213" stroke="none" /><path d="M 99.09653310690486 120.98055641714683 l -0.8202860011585427 19.048906890814333 a40.0665603310773,40.0665603310773 0 0,0 -0.6887860160547474,-0.035602369435799926 l 1.148060085626779 -19.03196471461633" fill="#ffc912" stroke="none" /><path d="M 98.73552117531835 120.96189622390904 l -0.9517757554182813 15.778061462226235 a36.80674225115317,36.80674225115317 0 0,0 -0.6320896147703517,-0.04359260060707487 l 1.2232281309675632 -15.759340517102874" fill="#ff9c0e" stroke="none" /><path d="M 98.37488393609728 120.93702456842531 l -1.6750968472745225 21.58094712426515 a42.645859378367895,42.645859378367895 0 0,0 -0.7313880276149697,-0.0631072365429408 l 2.046329192631034 -21.548915635443546" fill="#ffec16" stroke="none" /><path d="M 98.01472825383883 120.90594882070398 l -1.8901888944999672 19.904676710525845 a40.994223390955725,40.994223390955725 0 0,0 -0.7019136408979142,-0.07275621883078788 l 2.2325351320034748 -19.869191123239297" fill="#ffd614" stroke="none" /><path d="M 96.93821686468263 120.77559828337769 l -2.923796517686681 19.839296001446176 a41.05358451523904,41.05358451523904 0 0,0 -0.6982318123409573,-0.10904944922517533 l 3.2648641936361553 -19.786028244873894" fill="#ffd714" stroke="none" /><path d="M 94.46302465271185 120.25689768951611 l -5.457558577977871 19.966353255082577 a41.698797258266154,41.698797258266154 0 0,0 -0.6907481854131227,-0.19521233689488107 l 5.8004379314956065 -19.869452124849175" fill="#ffdf14" stroke="none" /><path d="M 93.76903079525671 120.05430185196036 l -6.594246386283422 21.223505231907946 a43.22433935422684,43.22433935422684 0 0,0 -0.7086294005812356,-0.226880756287202 l 6.958597131955599 -21.10685162896104" fill="#fff417" stroke="none" /><path d="M 93.42475214034765 119.94407469862007 l -6.170558662715768 18.716569402134635 a40.70750528085529,40.70750528085529 0 0,0 -0.6635910073454515,-0.2251260987689246 l 6.491819402998446 -18.607580316467587" fill="#ffd213" stroke="none" /><path d="M 92.7421414339146 119.70592522655815 l -1.8610501180331065 5.052966262005565 a26.38479113678493,26.38479113678493 0 0,0 -0.4248325524936729,-0.16063531987661656 l 1.9477528912870623 -5.020182692022316" fill="#ff0000" stroke="none" /><path d="M 92.06813273071674 119.44442032107085 l -7.478119462828163 18.33208916764321 a40.79868086390482,40.79868086390482 0 0,0 -0.6479773563317615,-0.27085458749919683 l 7.792568278657386 -18.20064953712404" fill="#ffd313" stroke="none" /><path d="M 91.40352486487194 119.15986991738527 l -7.363642586142485 16.412126115747427 a38.98836056386601,38.98836056386601 0 0,0 -0.6099487732280668,-0.27999756569086065 l 7.645059355137971 -16.282941479722492" fill="#ffba11" stroke="none" /><path d="M 91.07499286063937 119.00905698771935 l -8.440828841116229 17.977822757893936 a40.86075785661939,40.86075785661939 0 0,0 -0.63409539816104,-0.30440432503119097 l 8.74903690727751 -17.829864156363183" fill="#ffd413" stroke="none" /><path d="M 90.42595943632237 118.69057910512821 l -7.650022730867179 14.93448393667328 a37.779799111954134,37.779799111954134 0 0,0 -0.5762482550609681,-0.30146585187342984 l 7.905961888454643 -14.800588665855132" fill="#ffa90f" stroke="none" /><path d="M 90.10565033884886 118.52300852407294 l -8.209046001637788 15.367986201242953 a38.42307194895892,38.42307194895892 0 0,0 -0.5806955492633094,-0.3166415137559264 l 8.472364362769737 -15.224404035727261" fill="#ffb210" stroke="none" /><line stroke="#e1ed5e" stroke-width="0.3" x1="58.666819895761336" x2="56.23545636021788" y1="174.27360380694188" y2="178.64263932499728" /><path d="M 58.180547188652646 175.14741091055294 a86.0,86.0 0 0,1 -31.652253787137756,-30.449443065178592" fill="none" id="id68" stroke="none" /><text fill="#e1ed5e" style="font-size:6.75px; font-family:Arial;" text-anchor="middle"><textPath startOffset="22.20632615414155" xlink:href="#id68">August</textPath></text><path d="M 89.4739219176387 118.17145234162733 l -9.51300651355533 16.42255958335839 a39.978876578867954,39.978876578867954 0 0,0 -0.5925100415016488,-0.350065376353058 l 9.794284426085362 -16.25637563471158" fill="#ffc812" stroke="none" /><path d="M 88.24862548938628 117.40417183066458 l -10.876131262833134 16.10790781795322 a40.435918437729015,40.435918437729015 0 0,0 -0.5735028533632344,-0.3944604920214438 l 11.151791000819259 -15.918306536566675" fill="#ffce13" stroke="none" /><path d="M 87.95078237400918 117.19931262002967 l -11.560730816539488 16.502036032677523 a41.14863991033323,41.14863991033323 0 0,0 -0.5766152486570332,-0.4113996698324015 l 11.843073393045408 -16.300592101000902" fill="#ffd814" stroke="none" /><path d="M 87.65650970185807 116.9893568818739 l -11.37374725419292 15.654620088679794 a40.35017459154201,40.35017459154201 0 0,0 -0.5583984372636702,-0.41308981446642756 l 11.641530661875155 -15.4565203254736" fill="#ffcd13" stroke="none" /><path d="M 87.07902340077011 116.55440617244103 l -12.566160800044234 16.099814771318258 a41.42333060309522,41.42333060309522 0 0,0 -0.558312540661803,-0.4435572486471197 l 12.841430833423395 -15.881123608666007" fill="#ffdc14" stroke="none" /><path d="M 86.79598089348748 116.32954008644616 l -12.276446908457428 15.182402440777132 a40.52476613355175,40.52476613355175 0 0,0 -0.5386510838864214,-0.4432731708594311 l 12.535968120888539 -14.96883415106052" fill="#ffcf13" stroke="none" /><path d="M 85.70375840098266 115.38237550388516 l -13.281640645771681 14.29069187911365 a40.50963486657757,40.50963486657757 0 0,0 -0.506687116255346,-0.47910429423463075 l 13.525663596417845 -14.059952948133088" fill="#ffcf13" stroke="none" /><path d="M 85.44109423537348 115.13401014063109 l -12.013188575981188 12.48773229729582 a38.32801655386473,38.32801655386473 0 0,0 -0.4715259477158238,-0.46148738289651153 l 12.226364476072806 -12.279094811476737" fill="#ffb110" stroke="none" /><path d="M 84.9287848128048 114.62390073753433 l -14.104639244742962 13.68601281926483 a40.65318791223003,40.65318791223003 0 0,0 -0.48298590712674044,-0.5064087926701765 l 14.33813170324866 -13.441196910012154" fill="#ffd113" stroke="none" /><path d="M 83.95833913139862 113.55231037782056 l -12.925481382471444 10.919700703862759 a37.92063628917532,37.92063628917532 0 0,0 -0.41695364789299555,-0.5022475289008339 l 13.111531030257977 -10.695591917848164" fill="#ffab0f" stroke="none" /><path d="M 83.50135304334701 112.99209946851258 l -34.77417600999304 27.383430583391682 a65.26167176790102,65.26167176790102 0 0,0 -0.6874017567624644,-0.8885594333047985 l 35.24038458397357 -26.78079315597363" fill="#34ff5c" stroke="none" /><path d="M 82.6465618267979 111.8261652097733 l -14.533567256161652 9.904456151181494 a38.58757597965254,38.58757597965254 0 0,0 -0.36933252103036446,-0.5521020072458928 l 14.701902882602745 -9.65281722972978" fill="#ffb510" stroke="none" /><path d="M 82.24976979558568 111.22182372390057 l -15.382388694996115 9.724857221560914 a39.19864637668664,39.19864637668664 0 0,0 -0.35565372437668397,-0.5734270463063729 l 15.547507059040756 -9.458633843889277" fill="#ffbd11" stroke="none" /><path d="M 82.05923443525364 110.91462005526583 l -33.722836485456156 20.515955470031447 a60.47320774238048,60.47320774238048 0 0,0 -0.5333711705601246,-0.8939607613111814 l 34.07098853171451 -19.932432614834156" fill="#3dff2e" stroke="none" /><line stroke="#e1ed5e" stroke-width="0.3" x1="26.63291911575756" x2="22.317208475507996" y1="142.92168965132927" y2="145.44649492493687" /><path d="M 25.769776987707644 143.4266507060508 a86.0,86.0 0 0,1 -11.730757126820373,-40.83630448921669" fill="none" id="id69" stroke="none" /><text fill="#e1ed5e" style="font-size:6.75px; font-family:Arial;" text-anchor="middle"><textPath startOffset="21.46611528233685" xlink:href="#id69">September</textPath></text><line stroke="#e1ed5e" stroke-width="0.3" x1="15.007084014347285" x2="10.007500721073583" y1="101.09737516637583" y2="101.16192664675087" /><path d="M 14.007167355692545 101.11028546245083 a86.0,86.0 0 0,1 10.666146001902534,-42.60595125391555" fill="none" id="id70" stroke="none" /><text fill="#e1ed5e" style="font-size:6.75px; font-family:Arial;" text-anchor="middle"><textPath startOffset="22.20632615414155" xlink:href="#id70">October</textPath></text><line stroke="#e1ed5e" stroke-width="0.3" x1="26.266209847984243" x2="21.928928074336255" y1="57.711370442889674" y2="55.22380399835377" /><path d="M 25.398753493254645 57.213857153982495 a86.0,86.0 0 0,1 29.58750427330803,-30.492523968695096" fill="none" id="id71" stroke="none" /><text fill="#e1ed5e" style="font-size:6.75px; font-family:Arial;" text-anchor="middle"><textPath startOffset="21.46611528233685" xlink:href="#id71">November</textPath></text><line stroke="#e1ed5e" stroke-width="0.3" x1="56.762969772571076" x2="54.21961505331055" y1="26.818313649435495" y2="22.513508569990535" /><path d="M 56.25429882871897 25.957352633546506 a86.0,86.0 0 0,1 42.265352541879196,-11.944610805530505" fill="none" id="id72" stroke="none" /><text fill="#e1ed5e" style="font-size:6.75px; font-family:Arial;" text-anchor="middle"><textPath startOffset="22.20632615414155" xlink:href="#id72">December</textPath></text></svg>