<?xml version="1.0" encoding="utf-8" ?>
<svg baseProfile="full" height="200mm" version="1.1" viewBox="0,0,200,200" width="200mm" xmlns="http://www.w3.org/2000/svg" xmlns:ev="http://www.w3.org/2001/xml-events" xmlns:xlink="http://www.w3.org/1999/xlink"><defs /><rect fill="#1a1a1a" height="200" width="200" x="0" y="0" /><text alignment-baseline="middle" fill="#e1ed5e" style="dominant-baseline: central; font-size:9.0px; font-family:Arial;" text-anchor="middle" x="100.0" y="100.0">2021</text><line stroke="#e1ed5e" stroke-width="0.3" x1="100.0" x2="100.0" y1="15.0" y2="10.0" /><path d="M 100.0 14.0 a86.0,86.0 0 0,1 42.46469731375804,11.215312516191453" fill="none" id="id49" stroke="none" /><text fill="#e1ed5e" style="font-size:6.75px; font-family:Arial;" text-anchor="middle"><textPath startOffset="22.20632615414155" xlink:href="#id49">January</textPath></text><path d="M 100.0 79.0 l 0.0 -42.20995042347861 a63.20995042347861,63.20995042347861 0 0,0 1.0880553892319909,0.009365236246465578 l -0.7265749099594624 42.2036965638407" fill="#31ff3f" stroke="none" /><path d="M 102.16513564639614 79.11191278185805 l 1.372625462620563 -13.242366790637112 a34.313315848367864,34.313315848367864 0 0,0 0.5869755031295798,0.06595353702292812 l -1.600367669259868 13.216777300143582" fill="#ff700a" stroke="none" /><path d="M 102.88285421437855 79.19881850522331 l 3.45495418323533 -24.92915828458151 a46.16743215320098,46.16743215320098 0 0,0 0.7862336110447679,0.11587039650466312 l -3.883556774708753 24.86599340391588" fill="#e9ff1a" stroke="none" /><path d="M 103.95276090670814 79.375362276772 l 4.1792419217471215 -21.806365886558357 a43.20323526468484,43.20323526468484 0 0,0 0.7291751332142266,0.14626567199927312 l -4.553983464428473 21.731196258481877" fill="#ffee16" stroke="none" /><path d="M 104.66035177308747 79.52364482259891 l 4.834021400946751 -21.2394136667 a42.78257229553052,42.78257229553052 0 0,0 0.716661692589572,0.1696106682253208 l -5.198906780498847 21.15305708633381" fill="#ffe815" stroke="none" /><path d="M 105.36241919743992 79.69619591428918 l 5.8990210114319455 -22.335547166992573 a44.10140939731309,44.10140939731309 0 0,0 0.7322978354786833,0.20016466114731962 l -6.282616736134339 22.23069596501896" fill="#fffa17" stroke="none" /><path d="M 105.71112130821622 79.79150937346287 l 5.993084774783717 -21.20620294319862 a43.036789883870796,43.036789883870796 0 0,0 0.7111517660706961,0.2076047015814642 l -6.35722675857784 21.099899912698454" fill="#ffeb16" stroke="none" /><path d="M 106.40334571778207 80.00007090966166 l 6.52326768016178 -20.374488086475 a42.393288340340646,42.393288340340646 0 0,0 0.6930640051842467,0.2284923058879763 l -6.873014507588444 20.259182056327788" fill="#ffe315" stroke="none" /><path d="M 107.4271985657038 80.35727306442388 l 7.650327765521972 -20.23283717762894 a42.630885677113646,42.630885677113646 0 0,0 0.6841583887696128,0.2654428258043141 l -7.997469319291252 20.09815164793408" fill="#ffe615" stroke="none" /><path d="M 107.76421540070413 80.48803036053334 l 6.888257496046026 -17.310631428320455 a39.63078237162868,39.63078237162868 0 0,0 0.6316696247912524,0.25767390023207654 l -7.185210990425666 17.1894966419048" fill="#ffbd11" stroke="none" /><path d="M 108.09893153111575 80.62456947434976 l 8.888047599783699 -21.263267644214416 a44.04612637832042,44.04612637832042 0 0,0 0.6970115810445864,0.2984239834532381 l -9.2527429386186 21.107124132798386" fill="#fff917" stroke="none" /><path d="M 109.08828744355905 81.06846463323043 l 9.35920338136318 -19.495872123261044 a42.62599634190913,42.62599634190913 0 0,0 0.6587314564408446,0.323236664836217 l -9.693406104814457 19.331880298289995" fill="#ffe615" stroke="none" /><path d="M 109.73455568895987 81.39251694778311 l 10.453624621824058 -19.981974442391046 a43.55122103901195,43.55122103901195 0 0,0 0.6612629789537805,0.3532237823699102 l -10.79603264730615 19.799071933519382" fill="#fff216" stroke="none" /><path d="M 110.05341064243156 81.56283822128135 l 10.759283183585376 -19.731676317046563 a43.474457165975764,43.474457165975764 0 0,0 0.6539301790191137,0.36391143662895414 l -11.097337451676525 19.54354948285743" fill="#fff116" stroke="none" /><path d="M 110.36928655335952 81.73862282372117 l 10.979948620337202 -19.33681571054448 a43.236719936375614,43.236719936375614 0 0,0 0.6440279654085607,0.3730625666934297 l -11.311173318211091 19.144948986461003" fill="#ffee16" stroke="none" /><line stroke="#e1ed5e" stroke-width="0.3" x1="143.23703022742887" x2="145.7803849466894" y1="26.81831364943548" y2="22.513508569990506" /><path d="M 143.74570117128098 25.957352633546492 a86.0,86.0 0 0,1 28.547481713284135,27.462654790039103" fill="none" id="id50" stroke="none" /><text fill="#e1ed5e" style="font-size:6.75px; font-family:Arial;" text-anchor="middle"><textPath startOffset="19.985693538727396" xlink:href="#id50">February</textPath></text><path d="M 110.68208982089419 81.91981866633111 l 10.971439490192905 -18.569925810402733 a42.56883467160027,42.56883467160027 0 0,0 0.6276631433922524,0.3781600209229864 l -11.289464699802794 18.378319180021133" fill="#ffe515" stroke="none" /><path d="M 111.2981086023043 82.29822771554956 l 11.909049309899897 -18.658988546555825 a43.135566607749816,43.135566607749816 0 0,0 0.622452335410796,0.4048603135893251 l -12.228468671094973 18.451229308806973" fill="#ffed16" stroke="none" /><path d="M 115.9244219780498 86.31012108654704 l 5.399882326294431 -4.642161285085373 a28.120982413583988,28.120982413583988 0 0,0 0.31239651120974166,0.369778934340405 l -5.47898945099129 4.548523401115862" fill="#ff1202" stroke="none" /><path d="M 116.15771136456269 86.58626213691792 l 33.50564582526978 -27.815569909185765 a64.54691988581074,64.54691988581074 0 0,0 0.7023365964633802,0.8609816220501554 l -33.97948091380957 27.23470411752751" fill="#33ff50" stroke="none" /><path d="M 116.38621287248628 86.86637796730983 l 35.73428724740862 -28.641189148901567 a66.79581859671762,66.79581859671762 0 0,0 0.7113624886924622,0.9033581206476615 l -36.22200381669505 28.021838634300867" fill="#36ff6c" stroke="none" /><line stroke="#e1ed5e" stroke-width="0.3" x1="172.23445277983987" x2="176.4835382374775" y1="55.19839476539836" y2="52.563006222186495" /><path d="M 173.08426987136738 54.67131705675599 a86.0,86.0 0 0,1 12.851231095245387,41.99856678651699" fill="none" id="id51" stroke="none" /><text fill="#e1ed5e" style="font-size:6.75px; font-family:Arial;" text-anchor="middle"><textPath startOffset="22.20632615414155" xlink:href="#id51">March</textPath></text><path d="M 118.89224826269711 90.83032412892265 l 56.676744788091334 -27.509027613232025 a84.0,84.0 0 0,0 0.6201672246329752,1.3062303374378386 l -57.14187020656606 26.529354860153646" fill="#4dd2ff" stroke="none" /><path d="M 119.196687751892 91.48605970444005 l 30.05657259976849 -13.330417617402285 a53.88004851425106,53.88004851425106 0 0,0 0.36871731074404496,0.8510503896139247 l -30.281580620355214 12.811068083201757" fill="#8aff24" stroke="none" /><path d="M 119.34039704204932 91.81776055985345 l 20.111354449911083 -8.508404311300154 a42.83711340206185,42.83711340206185 0 0,0 0.2814567926610076,0.6815699483811658 l -20.25483292945829 8.160959792465684" fill="#ffe915" stroke="none" /><path d="M 119.61058180528143 92.48833698450437 l 16.64501151045 -6.375727074138792 a38.82431776834444,38.82431776834444 0 0,0 0.23367693430826467,0.626138007083772 l -16.752293033259892 6.088265930025687" fill="#ffb110" stroke="none" /><path d="M 119.7369772167798 92.82701384747503 l 20.87443672850488 -7.586371709849584 a43.21024863553669,43.21024863553669 0 0,0 0.24804106430743234,0.7012454903660498 l -21.00193087362212 7.22592859305692" fill="#ffee16" stroke="none" /><path d="M 119.85752413597 93.16781622104841 l 40.847011442820026 -14.053831035902832 a64.19708914493633,64.19708914493633 0 0,0 0.3505243796825392,1.0480232796656248 l -41.082873116274335 13.348634653314893" fill="#32ff4b" stroke="none" /><path d="M 119.97218684219823 93.5106431181261 l 20.491374880990765 -6.658051301726127 a42.54590661006671,42.54590661006671 0 0,0 0.2203159062835611,0.6984616296694101 l -20.602946271042534 6.304339505630298" fill="#ffe515" stroke="none" /><path d="M 120.18372546131832 94.20196356495316 l 20.749620492950587 -5.960597108897866 a42.588781079442086,42.588781079442086 0 0,0 0.19634083018776005,0.7063424310064041 l -20.84914809370471 5.60254337447251" fill="#ffe515" stroke="none" /><path d="M 120.37134235888165 94.90015583598534 l 21.781729413241255 -5.452926158390031 a43.45391146149181,43.45391146149181 0 0,0 0.1754031615383307,0.7271593442729916 l -21.872365375040406 5.077181582457633" fill="#fff116" stroke="none" /><path d="M 120.45610955862082 95.25157060432595 l 42.03447263133296 -9.757364903736612 a64.15209217707701,64.15209217707701 0 0,0 0.24043474951898264,1.0778218375769406 l -42.19620176785398 9.032364896609707" fill="#32ff4b" stroke="none" /><path d="M 120.53481517161879 95.60439243477599 l 21.34674358228559 -4.569405996547612 a42.830321406913285,42.830321406913285 0 0,0 0.1481127665122392,0.722250450692064 l -21.422235644712828 4.201279889692136" fill="#ffe915" stroke="none" /><path d="M 120.6074358757038 95.95851677861258 l 21.20228969479628 -4.158144592726449 a42.606185567010314,42.606185567010314 0 0,0 0.13494855190247107,0.720900560364615 l -21.27072397060861 3.7925659548992714" fill="#ffe615" stroke="none" /><path d="M 120.67395015179393 96.31383870115 l 21.70827452263869 -3.870581133389182 a43.05063674954518,43.05063674954518 0 0,0 0.12379751493686238,0.7306599409328745 l -21.771683899095773 3.4963354041404697" fill="#ffeb16" stroke="none" /><path d="M 120.87857604477298 97.74499172005257 l 56.89844568530655 -6.145364792185013 a78.22935112189205,78.22935112189205 0 0,0 0.13307510848038823,1.3400481816980492 l -56.99579791946917 5.1650410797825295" fill="#45fff1" stroke="none" /><path d="M 120.91429891909075 98.10471618934814 l 23.165534854893437 -2.0992940449700614 a44.260460885385086,44.260460885385086 0 0,0 0.06222918828705034,0.7593537178559125 l -23.198238526999983 1.70022640990638" fill="#fffc17" stroke="none" /><path d="M 120.96714384426684 98.82574320788733 l 42.961665021836765 -2.406051454936497 a64.02898726500909,64.02898726500909 0 0,0 0.05215737812227193,1.1009598169320083 l -42.996716008192536 1.6661805313814892" fill="#32ff49" stroke="none" /><line stroke="#e1ed5e" stroke-width="0.3" x1="184.98032266829074" x2="189.97916517819016" y1="98.17113171792111" y2="98.06355123074" /><path d="M 185.9800911702706 98.14961562048488 a86.0,86.0 0 0,1 -9.607161424134198,41.387399972396054" fill="none" id="id52" stroke="none" /><text fill="#e1ed5e" style="font-size:6.75px; font-family:Arial;" text-anchor="middle"><textPath startOffset="21.466115282336823" xlink:href="#id52">April</textPath></text><path d="M 120.99513854157772 99.54816195383933 l 21.610096207774312 -0.46507259899848424 a42.61510006064281,42.61510006064281 0 0,0 0.009470684221945695,0.733514930049893 l -21.614899899113972 0.09302141088812858" fill="#ffe615" stroke="none" /><path d="M 120.99824983174949 100.27111621757518 l 21.748702746698616 0.28080559442323305 a42.75051546391752,42.75051546391752 0 0,0 -0.015833849021998567,0.7357367461372369 l -21.740646834991608 -0.6551321563505849" fill="#ffe715" stroke="none" /><path d="M 120.9764740272857 100.99374915477107 l 43.43788058021433 2.057846187852383 a64.48659793814434,64.48659793814434 0 0,0 -0.0620718791989822,1.1083351006277176 l -43.39602235012782 -2.805253004815524" fill="#33ff4f" stroke="none" /><path d="M 120.92983693683757 101.71520430193887 l 21.515381596643174 1.763189803331298 a42.587507580351726,42.587507580351726 0 0,0 -0.06616355373152807,0.7301093021074025 l -21.48184344663457 -2.133280493987271" fill="#ffe515" stroke="none" /><path d="M 120.81339534386255 102.79330883721812 l 52.141615357905266 6.997783521611387 a73.60909642207399,73.60909642207399 0 0,0 -0.17934663201171003,1.2543499265747537 l -52.013434674876954 -7.89427892016655" fill="#3fffbe" stroke="none" /><path d="M 120.76222939487914 103.15116336523771 l 22.228637915309868 3.3737258232555036 a43.48320194057004,43.48320194057004 0 0,0 -0.1186848023803473,0.7390503777159135 l -22.167271358568232 -3.755855430664622" fill="#fff116" stroke="none" /><path d="M 120.70491114924044 103.5080841355445 l 21.37540372375192 3.621687345270439 a42.680048514251055,42.680048514251055 0 0,0 -0.1289619485412025,0.7232870944770721 l -21.309895332871527 -3.98909319048073" fill="#ffe715" stroke="none" /><path d="M 120.49622156327973 104.57218783832717 l 21.63724833072004 4.82672200664641 a43.169072164948446,43.169072164948446 0 0,0 -0.16802931086028622,0.7238658734504757 l -21.5509584539292 -5.19845653744545" fill="#ffed16" stroke="none" /><path d="M 120.41448212921028 104.9243191809786 l 5.823100006575425 1.4046304419403484 a26.99011522134627,26.99011522134627 0 0,0 -0.1128298448717553,0.4506991437896537 l -5.798058847408609 -1.504657425127398" fill="#ff0000" stroke="none" /><path d="M 120.32669344350535 105.2749913415812 l 34.386503353549124 8.923660307140649 a56.52553062462098,56.52553062462098 0 0,0 -0.2525127982713084,0.9396940594342095 l -34.22780247893604 -9.514245299750407" fill="#6cff28" stroke="none" /><path d="M 120.23288151984713 105.62410040840565 l 40.4191378427413 11.235240488398981 a62.95160703456641,62.95160703456641 0 0,0 -0.299192090566788,1.0415269175777746 l -40.21975311528841 -11.929324881481339" fill="#31ff3b" stroke="none" /><path d="M 120.02730092923936 106.31721596034902 l 20.54751685190102 6.4813077838591955 a42.54548211036992,42.54548211036992 0 0,0 -0.22631714457037894,0.696532550024772 l -20.432907456314393 -6.834039233861763" fill="#ffe515" stroke="none" /><path d="M 119.54520255179757 107.68017299344265 l 40.01808118185713 15.724870874465715 a63.99672528805336,63.99672528805336 0 0,0 -0.41170429916684914,1.0218163069082902 l -39.74147426843288 -16.411386549216818" fill="#32ff49" stroke="none" /><path d="M 119.41010516605496 108.01547362559984 l 19.976674639670957 8.249440553341216 a42.61297756215888,42.61297756215888 0 0,0 -0.2858093370525826,0.6755688460789941 l -19.831714321426066 -8.592083925086374" fill="#ffe615" stroke="none" /><path d="M 119.12269723197855 108.67885076344098 l 19.49494621993883 8.847796251316336 a42.40879320800485,42.40879320800485 0 0,0 -0.3074140378785189,0.6621424887536483 l -19.339757565220477 -9.182058807348815" fill="#ffe315" stroke="none" /><path d="M 118.64920377521936 109.65438752849418 l 19.596177696451434 10.14462042664614 a43.066343238326255,43.066343238326255 0 0,0 -0.3464738414305265,0.6553979359102788 l -19.418651346796015 -10.480433377642553" fill="#ffec16" stroke="none" /><line stroke="#e1ed5e" stroke-width="0.3" x1="174.80103733775053" x2="179.2010983576182" y1="140.37084112569926" y2="142.7455964860345" /><path d="M 175.68104954172406 140.8457921977663 a86.0,86.0 0 0,1 -30.038265399797805,32.042727171017184" fill="none" id="id53" stroke="none" /><text fill="#e1ed5e" style="font-size:6.75px; font-family:Arial;" text-anchor="middle"><textPath startOffset="22.206326154141568" xlink:href="#id53">May</textPath></text><path d="M 118.12598468904814 110.60418214915192 l 48.25864801717893 28.232589987520747 a76.91043056397817,76.91043056397817 0 0,0 -0.6783467904158256,1.1369482391714076 l -47.76552035106487 -29.05910032057826" fill="#43ffe3" stroke="none" /><path d="M 117.94076556474637 110.91462005526583 l 28.88002678356604 17.569736274126512 a54.804608853850816,54.804608853850816 0 0,0 -0.49724837599165794,0.8017227094282944 l -28.57331376790642 -18.064255314920082" fill="#7fff26" stroke="none" /><path d="M 117.75023020441432 111.22182372390056 l 18.38639673266229 11.624012797328401 a42.75263796240146,42.75263796240146 0 0,0 -0.39860755194475705,0.6186477725310433 l -18.183584317340486 -11.938782169780897" fill="#ffe715" stroke="none" /><path d="M 117.14729908036423 112.12312394758627 l 17.565322987599316 12.418666447703295 a42.511946634323834,42.511946634323834 0 0,0 -0.42758962831519876,0.5938845956840715 l -17.348953566908513 -12.719184648838496" fill="#ffe415" stroke="none" /><path d="M 116.93607887273984 112.41649034213515 l 17.388323873566392 12.748048533806065 a42.56076409945422,42.56076409945422 0 0,0 -0.43825170082642767,0.5871097713263912 l -17.16631090604487 -13.045471184641771" fill="#ffe515" stroke="none" /><path d="M 116.27256486870786 113.27417163493432 l 16.668935207636352 13.59750652112991 a42.51152213462704,42.51152213462704 0 0,0 -0.46743240530950264,0.5630524440335851 l -16.432406802433306 -13.882420222277267" fill="#ffe415" stroke="none" /><line stroke="#e1ed5e" stroke-width="0.3" x1="143.8653032363475" x2="146.44561519142675" y1="172.8068346515853" y2="177.08958963109032" /><path d="M 144.38136562736335 173.6633856474863 a86.0,86.0 0 0,1 -40.68145358897372,12.25698825130547" fill="none" id="id54" stroke="none" /><text fill="#e1ed5e" style="font-size:6.75px; font-family:Arial;" text-anchor="middle"><textPath startOffset="21.466115282336833" xlink:href="#id54">June</textPath></text><line stroke="#e1ed5e" stroke-width="0.3" x1="102.19456741930631" x2="102.32365962044197" y1="184.97166512339345" y2="189.96999836594603" /><path d="M 102.22038585953345 185.97133177190398 a86.0,86.0 0 0,1 -42.740103519485714,-10.115201625700543" fill="none" id="id55" stroke="none" /><text fill="#e1ed5e" style="font-size:6.75px; font-family:Arial;" text-anchor="middle"><textPath startOffset="22.20632615414155" xlink:href="#id55">July</textPath></text><line stroke="#e1ed5e" stroke-width="0.3" x1="58.666819895761336" x2="56.23545636021788" y1="174.27360380694188" y2="178.64263932499728" /><path d="M 58.180547188652646 175.14741091055294 a86.0,86.0 0 0,1 -31.652253787137756,-30.449443065178592" fill="none" id="id56" stroke="none" /><text fill="#e1ed5e" style="font-size:6.75px; font-family:Arial;" text-anchor="middle"><textPath startOffset="22.20632615414155" xlink:href="#id56">August</textPath></text><line stroke="#e1ed5e" stroke-width="0.3" x1="26.63291911575756" x2="22.317208475507996" y1="142.92168965132927" y2="145.44649492493687" /><path d="M 25.769776987707644 143.4266507060508 a86.0,86.0 0 0,1 -11.730757126820373,-40.83630448921669" fill="none" id="id57" stroke="none" /><text fill="#e1ed5e" style="font-size:6.75px; font-family:Arial;" text-anchor="middle"><textPath startOffset="21.46611528233685" xlink:href="#id57">September</textPath></text><line stroke="#e1ed5e" stroke-width="0.3" x1="15.007084014347285" x2="10.007500721073583" y1="101.09737516637583" y2="101.16192664675087" /><path d="M 14.007167355692545 101.11028546245083 a86.0,86.0 0 0,1 10.666146001902534,-42.60595125391555" fill="none" id="id58" stroke="none" /><text fill="#e1ed5e" style="font-size:6.75px; font-family:Arial;" text-anchor="middle"><textPath startOffset="22.20632615414155" xlink:href="#id58">October</textPath></text><line stroke="#e1ed5e" stroke-width="0.3" x1="26.266209847984243" x2="21.928928074336255" y1="57.711370442889674" y2="55.22380399835377" /><path d="M 25.398753493254645 57.213857153982495 a86.0,86.0 0 0,1 29.58750427330803,-30.492523968695096" fill="none" id="id59" stroke="none" /><text fill="#e1ed5e" style="font-size:6.75px; font-family:Arial;" text-anchor="middle"><textPath startOffset="21.46611528233685" xlink:href="#id59">November</textPath></text><line stroke="#e1ed5e" stroke-width="0.3" x1="56.762969772571076" x2="54.21961505331055" y1="26.818313649435495" y2="22.513508569990535" /><path d="M 56.25429882871897 25.957352633546506 a86.0,86.0 0 0,1 42.265352541879196,-11.944610805530505" fill="none" id="id60" stroke="none" /><text fill="#e1ed5e" style="font-size:6.75px; font-family:Arial;" text-anchor="middle"><textPath startOffset="22.20632615414155" xlink:href="#id60">December</textPath></text></svg>