<?xml version="1.0" encoding="utf-8" ?>
<svg baseProfile="full" height="200mm" version="1.1" viewBox="0,0,200,200" width="200mm" xmlns="http://www.w3.org/2000/svg" xmlns:ev="http://www.w3.org/2001/xml-events" xmlns:xlink="http://www.w3.org/1999/xlink"><defs /><rect fill="#1a1a1a" height="200" width="200" x="0" y="0" /><text alignment-baseline="middle" fill="#e1ed5e" style="dominant-baseline: central; font-size:9.0px; font-family:Arial;" text-anchor="middle" x="100.0" y="100.0">2025</text><line stroke="#e1ed5e" stroke-width="0.3" x1="100.0" x2="100.0" y1="15.0" y2="10.0" /><path d="M 100.0 14.0 a86.0,86.0 0 0,1 42.46469731375804,11.215312516191453" fill="none" id="id97" stroke="none" /><text fill="#e1ed5e" style="font-size:6.75px; font-family:Arial;" text-anchor="middle"><textPath startOffset="22.20632615414155" xlink:href="#id97">January</textPath></text><path d="M 101.44485096284872 79.0497635885617 l 0.38304579849049786 -5.554136891020179 a26.56732976281561,26.56732976281561 0 0,0 0.4559583947126006,0.03539114687939856 l -0.47859438256543957 5.546720481952316" fill="#ff0c01" stroke="none" /><path d="M 101.80526077348638 79.07773832637324 l 1.6013309049023958 -18.558794779399392 a39.62775145665353,39.62775145665353 0 0,0 0.6790967628172656,0.06448842038661846 l -1.9205527948099057 18.528480814497595" fill="#ffca12" stroke="none" /><path d="M 103.95276090670814 79.375362276772 l 2.7602559094869017 -14.402408721446669 a35.66452827967748,35.66452827967748 0 0,0 0.6019384196584445,0.1207431842408379 l -3.0077607386124714 14.352761581128624" fill="#ff930d" stroke="none" /><path d="M 104.307194497241 79.44645832069477 l 5.070415369030089 -24.195562490968346 a45.72113177564593,45.72113177564593 0 0,0 0.7688928736430803,0.1680502011838023 l -5.486150966826697 24.104698791688673" fill="#e5ff1a" stroke="none" /><path d="M 104.66035177308747 79.52364482259891 l 4.144081563865305 -18.20800019342939 a39.673636042610795,39.673636042610795 0 0,0 0.6645831148504936,0.1572853514658438 l -4.456888365678322 18.133968929822675" fill="#ffca12" stroke="none" /><path d="M 105.01212808612495 79.60689891045804 l 4.447817508245073 -18.097061869702415 a39.63563062797952,39.63563062797952 0 0,0 0.6611432904926098,0.16854014571600126 l -4.758669687422708 18.017818727817545" fill="#ffca12" stroke="none" /><path d="M 105.36241919743992 79.69619591428918 l 4.752160365078691 -17.99317238803367 a39.61013919133659,39.61013919133659 0 0,0 0.657720911626747,0.17977997069896606 l -5.061179165929148 17.908705876508414" fill="#ffc912" stroke="none" /><path d="M 105.71112130821622 79.79150937346287 l 2.0751174908149217 -7.342689832514581 a28.630282208227886,28.630282208227886 0 0,0 0.473094666456857,0.13810930624869508 l -2.201202374995206 7.305882197347183" fill="#ff2c04" stroke="none" /><path d="M 106.0581310904928 79.89281104454417 l 8.387646685792339 -27.838948065600647 a50.07506915425814,50.07506915425814 0 0,0 0.8231736349796301,0.2557640553921039 l -8.865605693482687 27.69044387532602" fill="#afff20" stroke="none" /><path d="M 106.40334571778207 80.00007090966166 l 9.016540892115593 -28.161868252977747 a50.570066505797186,50.570066505797186 0 0,0 0.8267415481801687,0.27256369008352016 l -9.49996526253818 28.00249083863499" fill="#a9ff21" stroke="none" /><path d="M 106.74666289553966 80.11325718540242 l 7.842682921283479 -23.117416809888795 a45.41152669060091,45.41152669060091 0 0,0 0.7380843467839553,0.2575031359268707 l -8.239449272130708 22.978992820789717" fill="#e9ff1a" stroke="none" /><path d="M 107.08798089147638 80.2323363322302 l 6.29151643870425 -17.546404656664535 a39.640265434641876,39.640265434641876 0 0,0 0.6403180307855688,0.23583453460447884 l -6.592616795262396 17.43550685425373" fill="#ffca12" stroke="none" /><path d="M 107.4271985657038 80.35727306442388 l 6.884234112850833 -18.206747758667607 a40.464797539874056,40.464797539874056 0 0,0 0.649396095038934,0.2519555959014469 l -7.196613372889434 18.085549458875615" fill="#ffd513" stroke="none" /><path d="M 107.76421540070413 80.48803036053334 l 3.0176527251132925 -7.58355420555753 a29.161894532399508,29.161894532399508 0 0,0 0.46480745206458685,0.18960663031722633 l -3.1477440467662667 7.530486689056724" fill="#ff3404" stroke="none" /><line stroke="#e1ed5e" stroke-width="0.3" x1="143.23703022742887" x2="145.7803849466894" y1="26.81831364943548" y2="22.513508569990506" /><path d="M 143.74570117128098 25.957352633546492 a86.0,86.0 0 0,1 28.547481713284135,27.462654790039103" fill="none" id="id98" stroke="none" /><text fill="#e1ed5e" style="font-size:6.75px; font-family:Arial;" text-anchor="middle"><textPath startOffset="19.985693538727396" xlink:href="#id98">February</textPath></text><path d="M 111.90073688211348 82.69761687909136 l 9.579039066800327 -13.926885831165132 a37.903139897592844,37.903139897592844 0 0,0 0.5343780683657984,0.374365986742846 l -9.817348274749776 13.75993500165835" fill="#ffb210" stroke="none" /><path d="M 113.06298171725822 83.55741782278167 l 12.623794600197202 -15.889770390464397 a41.29396445176859,41.29396445176859 0 0,0 0.5527425270090889,0.44694601617517987 l -12.895440525770782 15.670118277025088" fill="#ffe015" stroke="none" /><path d="M 113.6212207817346 84.01681056812373 l 13.367691791550184 -15.685697603388784 a41.60913130480843,41.60913130480843 0 0,0 0.5411291329649638,0.46926185173219365 l -13.635714723161913 15.453270758236918" fill="#ffe415" stroke="none" /><path d="M 114.16331599549186 84.49514656593476 l 18.27785473681066 -20.00911784172494 a48.10064151609676,48.10064151609676 0 0,0 0.6065081265653671,0.5636832039990077 l -18.619570747170872 19.69153005165129" fill="#c7ff1e" stroke="none" /><path d="M 114.42810811169701 84.74124197986012 l 10.61664538087763 -11.227863112636031 a36.452445412277086,36.452445412277086 0 0,0 0.4522129924381815,0.43502854043764627 l -10.80834161692823 11.043451485436083" fill="#ff9e0e" stroke="none" /><path d="M 114.68862486808459 84.99185889309783 l 13.077639496907166 -13.362112565161718 a39.69681007592255,39.69681007592255 0 0,0 0.48423340900040324,0.4821539568532849 l -13.305708706074892 13.135022757658314" fill="#ffcb12" stroke="none" /><path d="M 114.94478906791727 85.2469230424477 l 13.752640666826787 -13.576221464565279 a40.32482637867106,40.32482637867106 0 0,0 0.4833904694990024,0.4981763700405951 l -13.984295400028898 13.33748089897457" fill="#ffd313" stroke="none" /><path d="M 115.19652480421416 85.50635884689758 l 11.246130448695741 -10.725964072994755 a36.540970219527985,36.540970219527985 0 0,0 0.4301962821510221,0.458903399230369 l -11.429094052817227 10.53079125688633" fill="#ff9f0e" stroke="none" /><path d="M 115.4437574822437 85.77008943001954 l 11.413074028944322 -10.516030373254061 a36.51918662821494,36.51918662821494 0 0,0 0.4219815654698185,0.46596258420063563 l -11.592399235030177 10.318015001783877" fill="#ff9f0e" stroke="none" /><path d="M 116.38621287248628 86.86637796730983 l 15.053042898994251 -12.065080407274364 a40.29145577070214,40.29145577070214 0 0,0 0.42909617476411016,0.5449085665516263 l -15.258493154352326 11.804179446769698" fill="#ffd313" stroke="none" /><path d="M 116.60985879189232 87.15038557335679 l 15.957209920375801 -12.344716314019601 a41.174849920546166,41.174849920546166 0 0,0 0.4288538254897474,0.5643213646641334 l -16.16733968608966 12.068210173474434" fill="#ffde14" stroke="none" /><path d="M 116.82858285166822 87.43820079747576 l 11.767553200725471 -8.783962483084625 a35.68445794832559,35.68445794832559 0 0,0 0.3631953721782129,0.4953980794839136 l -11.91701118541731 8.58010195992922" fill="#ff930d" stroke="none" /><path d="M 117.04232023915458 87.72973835380427 l 34.45074293768716 -24.804112575003533 a63.45112118180214,63.45112118180214 0 0,0 0.6305451547588877,0.8918614046240012 l -34.87260071224993 24.20742467004774" fill="#32ff47" stroke="none" /><path d="M 117.45458315368197 88.32363383020206 l 23.420920457765934 -15.667589474395387 a49.17823406509329,49.17823406509329 0 0,0 0.4646251002700011,0.707655903807095 l -23.68714219339386 15.262115506610618" fill="#baff1f" stroke="none" /><path d="M 117.65298651832404 88.62581576622439 l 15.75467488320587 -10.151062794888126 a39.74176770054735,39.74176770054735 0 0,0 0.3655720379118843,0.5782471716618012 l -15.927074517363712 9.878367975512118" fill="#ffcb12" stroke="none" /><line stroke="#e1ed5e" stroke-width="0.3" x1="172.23445277983987" x2="176.4835382374775" y1="55.19839476539836" y2="52.563006222186495" /><path d="M 173.08426987136738 54.67131705675599 a86.0,86.0 0 0,1 12.851231095245387,41.99856678651699" fill="none" id="id99" stroke="none" /><text fill="#e1ed5e" style="font-size:6.75px; font-family:Arial;" text-anchor="middle"><textPath startOffset="22.20632615414155" xlink:href="#id99">March</textPath></text><path d="M 117.84615892207809 88.93136811851018 l 16.245718414896846 -10.07599885050753 a40.11672355953152,40.11672355953152 0 0,0 0.3589189800645149,0.5899684318345741 l -16.416753193247587 9.794862645465873" fill="#ffd013" stroke="none" /><path d="M 118.03404312379186 89.2402003453031 l 16.82472419705592 -10.03827374500528 a40.59179124242246,40.59179124242246 0 0,0 0.3528399422487768,0.6031178360508886 l -16.995023813775024 9.747176496600497" fill="#ffd714" stroke="none" /><path d="M 118.3937258080291 89.86733742301442 l 26.74132275380701 -14.731153609363664 a51.53039844623625,51.53039844623625 0 0,0 0.42130247891734135,0.7806095086763463 l -26.990933331942816 14.26866311735486" fill="#9eff22" stroke="none" /><path d="M 119.04729006885535 91.15688171328212 l 7.9666851736554145 -3.698706697330731 a29.783422105820726,29.783422105820726 0 0,0 0.21188448835772616,0.46685938374299846 l -8.029171978976487 3.5610253047456695" fill="#ff3d05" stroke="none" /><path d="M 119.196687751892 91.48605970444005 l 29.38945557836854 -13.034543945664765 a53.1502633747278,53.1502633747278 0 0,0 0.36372317244079505,0.8395232298497414 l -29.609469460652015 12.526721571228421" fill="#8bff24" stroke="none" /><path d="M 120.08093135843002 93.85539295169968 l 10.270632319321788 -3.142732705637798 a31.740700959331413,31.740700959331413 0 0,0 0.15536937524572395,0.5238282950747855 l -10.323207591679214 2.9654750238164826" fill="#ff5a08" stroke="none" /><path d="M 120.18372546131832 94.20196356495316 l 17.89255010474615 -5.139866652568086 a39.61616443999765,39.61616443999765 0 0,0 0.1826366103433419,0.6570410607784404 l -17.978373485655855 4.831114288370694" fill="#ffc912" stroke="none" /><path d="M 120.6074358757038 95.95851677861258 l 12.850842372462129 -2.5202778328299207 a34.09564622447178,34.09564622447178 0 0,0 0.10799272506887046,0.5769014555540773 l -12.892320821440858 2.2986982998132803" fill="#ff7d0b" stroke="none" /><path d="M 120.67395015179393 96.31383870115 l 10.650138392965882 -1.8989176080673074 a31.818102230592665,31.818102230592665 0 0,0 0.09149695065070146,0.5400201820858459 l -10.681247205136808 1.7153116376656237" fill="#ff5b08" stroke="none" /><path d="M 120.73433829027371 96.67025291283417 l 18.411319943630062 -2.956691363617714 a39.6472176446354,39.6472176446354 0 0,0 0.1024108523214701,0.6747595608274759 l -18.459486689390832 2.6393326903981555" fill="#ffca12" stroke="none" /><path d="M 120.78858239683441 97.02765380044208 l 18.450769212516164 -2.638086267781955 a39.638411511976926,39.638411511976926 0 0,0 0.09076063888037025,0.6762721806873423 l -18.493445850454368 2.3200957450299486" fill="#ffca12" stroke="none" /><path d="M 120.83666639777658 97.38593545837742 l 7.811450520112844 -0.9799857344476727 a28.872682596668824,28.872682596668824 0 0,0 0.0576211397840863,0.4936627370329996 l -7.82716201290052 0.8453792590898204" fill="#ff3004" stroke="none" /><path d="M 120.87857604477298 97.74499172005257 l 22.88659223447134 -2.471885768351237 a44.01969424989701,44.01969424989701 0 0,0 0.07488142881884723,0.754045769171297 l -22.92575078897242 2.0775644684755052" fill="#faff18" stroke="none" /><path d="M 120.98425023603335 99.18683210126433 l 4.8930007888814435 -0.1896103565889809 a25.896673238773467,25.896673238773467 0 0,0 0.013427185276480251,0.4455829106451899 l -4.895539668613569 0.1053572985187919" fill="#ff0200" stroke="none" /><line stroke="#e1ed5e" stroke-width="0.3" x1="184.98032266829074" x2="189.97916517819016" y1="98.17113171792111" y2="98.06355123074" /><path d="M 185.9800911702706 98.14961562048488 a86.0,86.0 0 0,1 -9.607161424134198,41.387399972396054" fill="none" id="id100" stroke="none" /><text fill="#e1ed5e" style="font-size:6.75px; font-family:Arial;" text-anchor="middle"><textPath startOffset="21.466115282336823" xlink:href="#id100">April</textPath></text><path d="M 120.99513854157772 99.54816195383933 l 4.7653317512562205 -0.10255508357475215 a25.766435171561415,25.766435171561415 0 0,0 0.005726274740358133,0.44350628921690916 l -4.766391033114294 0.020512536297380268" fill="#ff0000" stroke="none" /><path d="M 120.99980553446 99.90962569577887 l 15.302135973288753 -0.06585393800022432 a36.30227767641693,36.30227767641693 0 0,0 -0.002689311989448384,0.6249013952210801 l -15.3010023640098 -0.19755693542454056" fill="#ff9c0e" stroke="none" /><path d="M 120.92983693683757 101.71520430193887 l 22.435119776977384 1.8385625302343978 a43.51032899770467,43.51032899770467 0 0,0 -0.06759724046035194,0.7459299156927858 l -22.400147940239957 -2.224473834475754" fill="#fffd17" stroke="none" /><path d="M 120.89721153311464 102.0752229133903 l 22.20966735427144 2.2055579290722274 a43.31891148254959,43.31891148254959 0 0,0 -0.08007335453486816,0.741379815179784 l -22.16841169823552 -2.587534066136803" fill="#fffa17" stroke="none" /><path d="M 120.8583938346157 102.4346265915055 l 10.871291501481295 1.2689153145430505 a31.945095933141076,31.945095933141076 0 0,0 -0.06845148114076183,0.5456256547049356 l -10.847838511093684 -1.455858723535381" fill="#ff5d08" stroke="none" /><path d="M 120.81339534386255 102.79330883721812 l 36.588199763227266 4.910402173601232 a57.91623506562298,57.91623506562298 0 0,0 -0.1411113870799138,0.9869327125752465 l -36.49825432513075 -5.539480358156888" fill="#56ff2b" stroke="none" /><path d="M 120.5718875245553 104.21870165774334 l 59.376943708406685 12.176501089430442 a81.61261108822319,81.61261108822319 0 0,0 -0.2940617461999325,1.3737585800499823 l -59.15854792348231 -13.196773488896595" fill="#4ae9ff" stroke="none" /><path d="M 120.49622156327973 104.57218783832717 l 59.920777927619625 13.366807694672765 a82.39357601082926,82.39357601082926 0 0,0 -0.3207049654325316,1.3815885974545896 l -59.68181239625654 -14.39626494947592" fill="#4be2ff" stroke="none" /><path d="M 120.41448212921028 104.9243191809786 l 60.214371939766195 14.524727339974936 a82.94141015831912,82.94141015831912 0 0,0 -0.3467293994434821,1.3850115954116446 l -59.955431226027656 -15.559066774783977" fill="#4cdcff" stroke="none" /><path d="M 120.32669344350535 105.2749913415812 l 60.980080330516046 15.82497402474362 a84.0,84.0 0 0,0 -0.3752476946328911,1.396436267297807 l -60.69864455954138 -16.872301225216972" fill="#4dd2ff" stroke="none" /><line stroke="#e1ed5e" stroke-width="0.3" x1="174.80103733775053" x2="179.2010983576182" y1="140.37084112569926" y2="142.7455964860345" /><path d="M 175.68104954172406 140.8457921977663 a86.0,86.0 0 0,1 -30.038265399797805,32.042727171017184" fill="none" id="id101" stroke="none" /><text fill="#e1ed5e" style="font-size:6.75px; font-family:Arial;" text-anchor="middle"><textPath startOffset="22.206326154141568" xlink:href="#id101">May</textPath></text><line stroke="#e1ed5e" stroke-width="0.3" x1="143.8653032363475" x2="146.44561519142675" y1="172.8068346515853" y2="177.08958963109032" /><path d="M 144.38136562736335 173.6633856474863 a86.0,86.0 0 0,1 -40.68145358897372,12.25698825130547" fill="none" id="id102" stroke="none" /><text fill="#e1ed5e" style="font-size:6.75px; font-family:Arial;" text-anchor="middle"><textPath startOffset="21.466115282336833" xlink:href="#id102">June</textPath></text><line stroke="#e1ed5e" stroke-width="0.3" x1="102.19456741930631" x2="102.32365962044197" y1="184.97166512339345" y2="189.96999836594603" /><path d="M 102.22038585953345 185.97133177190398 a86.0,86.0 0 0,1 -42.740103519485714,-10.115201625700543" fill="none" id="id103" stroke="none" /><text fill="#e1ed5e" style="font-size:6.75px; font-family:Arial;" text-anchor="middle"><textPath startOffset="22.20632615414155" xlink:href="#id103">July</textPath></text><line stroke="#e1ed5e" stroke-width="0.3" x1="58.666819895761336" x2="56.23545636021788" y1="174.27360380694188" y2="178.64263932499728" /><path d="M 58.180547188652646 175.14741091055294 a86.0,86.0 0 0,1 -31.652253787137756,-30.449443065178592" fill="none" id="id104" stroke="none" /><text fill="#e1ed5e" style="font-size:6.75px; font-family:Arial;" text-anchor="middle"><textPath startOffset="22.20632615414155" xlink:href="#id104">August</textPath></text><line stroke="#e1ed5e" stroke-width="0.3" x1="26.63291911575756" x2="22.317208475507996" y1="142.92168965132927" y2="145.44649492493687" /><path d="M 25.769776987707644 143.4266507060508 a86.0,86.0 0 0,1 -11.730757126820373,-40.83630448921669" fill="none" id="id105" stroke="none" /><text fill="#e1ed5e" style="font-size:6.75px; font-family:Arial;" text-anchor="middle"><textPath startOffset="21.46611528233685" xlink:href="#id105">September</textPath></text><line stroke="#e1ed5e" stroke-width="0.3" x1="15.007084014347285" x2="10.007500721073583" y1="101.09737516637583" y2="101.16192664675087" /><path d="M 14.007167355692545 101.11028546245083 a86.0,86.0 0 0,1 10.666146001902534,-42.60595125391555" fill="none" id="id106" stroke="none" /><text fill="#e1ed5e" style="font-size:6.75px; font-family:Arial;" text-anchor="middle"><textPath startOffset="22.20632615414155" xlink:href="#id106">October</textPath></text><line stroke="#e1ed5e" stroke-width="0.3" x1="26.266209847984243" x2="21.928928074336255" y1="57.711370442889674" y2="55.22380399835377" /><path d="M 25.398753493254645 57.213857153982495 a86.0,86.0 0 0,1 29.58750427330803,-30.492523968695096" fill="none" id="id107" stroke="none" /><text fill="#e1ed5e" style="font-size:6.75px; font-family:Arial;" text-anchor="middle"><textPath startOffset="21.46611528233685" xlink:href="#id107">November</textPath></text><line stroke="#e1ed5e" stroke-width="0.3" x1="56.762969772571076" x2="54.21961505331055" y1="26.818313649435495" y2="22.513508569990535" /><path d="M 56.25429882871897 25.957352633546506 a86.0,86.0 0 0,1 42.265352541879196,-11.944610805530505" fill="none" id="id108" stroke="none" /><text fill="#e1ed5e" style="font-size:6.75px; font-family:Arial;" text-anchor="middle"><textPath startOffset="22.20632615414155" xlink:href="#id108">December</textPath></text></svg>