<?xml version="1.0" encoding="utf-8" ?>
<svg baseProfile="full" height="200mm" version="1.1" viewBox="0,0,200,200" width="200mm" xmlns="http://www.w3.org/2000/svg" xmlns:ev="http://www.w3.org/2001/xml-events" xmlns:xlink="http://www.w3.org/1999/xlink"><defs /><rect fill="#1a1a1a" height="200" width="200" x="0" y="0" /><text alignment-baseline="middle" fill="#e1ed5e" style="dominant-baseline: central; font-size:9.0px; font-family:Arial;" text-anchor="middle" x="100.0" y="100.0">2019</text><line stroke="#e1ed5e" stroke-width="0.3" x1="100.0" x2="100.0" y1="15.0" y2="10.0" /><path d="M 100.0 14.0 a86.0,86.0 0 0,1 42.46469731375804,11.215312516191453" fill="none" id="id25" stroke="none" /><text fill="#e1ed5e" style="font-size:6.75px; font-family:Arial;" text-anchor="middle"><textPath startOffset="22.20632615414155" xlink:href="#id25">January</textPath></text><path d="M 101.08401301168833 79.027996857942 l 1.0223586722640174 -19.779199193963013 a40.805603702215706,40.805603702215706 0 0,0 0.701152877893822,0.042295456360009316 l -1.3626735989974514 19.7586704682227" fill="#ffeb16" stroke="none" /><path d="M 101.80526077348638 79.07773832637324 l 2.6609820430529165 -30.83973430944061 a51.954321793738885,51.954321793738885 0 0,0 0.8903359501254446,0.08454812654210647 l -3.1914431202686053 30.78936063838332" fill="#8dff24" stroke="none" /><path d="M 102.88285421437855 79.19881850522331 l 2.4183646973658486 -17.44966593855722 a38.61645052718366,38.61645052718366 0 0,0 0.6576400273458602,0.09691904499560176 l -2.718373705140365 17.40545240940065" fill="#ffcf13" stroke="none" /><path d="M 103.59715602781102 79.31037775812273 l 2.9383535990471197 -16.900413967958997 a38.153947480431924,38.153947480431924 0 0,0 0.6460823749154893,0.11806742436119386 l -3.22883109506551 16.847331062247065" fill="#ffc912" stroke="none" /><path d="M 103.95276090670814 79.375362276772 l 9.2250065706763 -48.134056930108585 a70.01008246044843,70.01008246044843 0 0,0 1.1816154714266367,0.2370209475069671 l -10.05218845157006 47.96813202652441" fill="#3bff9c" stroke="none" /><path d="M 105.36241919743992 79.69619591428918 l 4.66732013944511 -17.67194063489619 a39.27789274198109,39.27789274198109 0 0,0 0.6522040050463569,0.17827199172819203 l -4.970822033715177 17.588982102341703" fill="#ffd814" stroke="none" /><path d="M 106.0581310904928 79.89281104454417 l 5.281261974810992 -17.528728062262918 a39.307048793493394,39.307048793493394 0 0,0 0.646160390432735,0.20076517865506113 l -5.582207737954445 17.435222748725334" fill="#ffd814" stroke="none" /><path d="M 106.40334571778207 80.00007090966166 l 7.205889374829544 -22.506558739941244 a44.6319704636898,44.6319704636898 0 0,0 0.7296629589216077,0.24055840551222943 l -7.59223515599357 22.37918661016978" fill="#e3ff1b" stroke="none" /><path d="M 106.74666289553966 80.11325718540242 l 11.750382804024357 -34.635914735148624 a57.5748285789776,57.5748285789776 0 0,0 0.935777386046533,0.3264743555210028 l -12.344842194134163 34.42851952645541" fill="#51ff2b" stroke="none" /><path d="M 108.09893153111575 80.62456947434976 l 11.673665041540742 -27.92742291042984 a51.269050297624005,51.269050297624005 0 0,0 0.8113113398364633,0.34736117510692205 l -12.152660139167521 27.722342207360125" fill="#95ff23" stroke="none" /><path d="M 108.76106565485865 80.91482961587045 l 7.172296803458672 -15.624184537830063 a38.19177081946684,38.19177081946684 0 0,0 0.5951037886277027,0.27940920823132465 l -7.440178803385973 15.498410346958735" fill="#ffca12" stroke="none" /><path d="M 109.08828744355905 81.06846463323043 l 13.13345678905455 -27.35790469150894 a51.347036697833445,51.347036697833445 0 0,0 0.7935042267769881,0.38936907792844727 l -13.60243228284197 27.12778045344566" fill="#94ff23" stroke="none" /><path d="M 109.73455568895987 81.39251694778311 l 8.365810427094226 -15.991143377684876 a39.04725604150818,39.04725604150818 0 0,0 0.5928767146815339,0.316694208361988 l -8.639832188304071 15.844770442821135" fill="#ffd513" stroke="none" /><line stroke="#e1ed5e" stroke-width="0.3" x1="143.23703022742887" x2="145.7803849466894" y1="26.81831364943548" y2="22.513508569990506" /><path d="M 143.74570117128098 25.957352633546492 a86.0,86.0 0 0,1 28.547481713284135,27.462654790039103" fill="none" id="id26" stroke="none" /><text fill="#e1ed5e" style="font-size:6.75px; font-family:Arial;" text-anchor="middle"><textPath startOffset="19.985693538727396" xlink:href="#id26">February</textPath></text><path d="M 113.89432698308785 84.25364557470407 l 10.557644203235695 -11.964912566306584 a36.956910222266636,36.956910222266636 0 0,0 0.47338108486624586,0.4250062119762608 l -10.76203627569793 11.781407345561025" fill="#ffb911" stroke="none" /><path d="M 114.42810811169701 84.74124197986012 l 12.332665318036518 -13.04267713926612 a38.950099186518045,38.950099186518045 0 0,0 0.483197785764108,0.46483588706796797 l -12.555346347413044 12.82845816543585" fill="#ffd313" stroke="none" /><path d="M 114.94478906791727 85.2469230424477 l 21.408377044623023 -21.133749873636418 a51.082453214559635,51.082453214559635 0 0,0 0.6123466177056501,0.6310770163329965 l -21.768987926031784 20.76210866175331" fill="#97ff23" stroke="none" /><path d="M 116.60985879189232 87.15038557335679 l 25.418520571472083 -19.66411591641858 a53.13687356941705,53.13687356941705 0 0,0 0.5534434624238522,0.728266722636331 l -25.753239974120046 19.223664417901215" fill="#80ff25" stroke="none" /><path d="M 116.82858285166822 87.43820079747576 l 24.94014614127606 -18.616725524054637 a52.12223254823141,52.12223254823141 0 0,0 0.5304985626102958,0.7235994432141676 l -25.25690731639998 18.184663637168974" fill="#8bff24" stroke="none" /><path d="M 117.45458315368197 88.32363383020206 l 14.810666329651127 -9.907699414020323 a38.81904444146319,38.81904444146319 0 0,0 0.36675376330364473,0.55859114304086 l -14.979016728312697 9.65129020700179" fill="#ffd213" stroke="none" /><line stroke="#e1ed5e" stroke-width="0.3" x1="172.23445277983987" x2="176.4835382374775" y1="55.19839476539836" y2="52.563006222186495" /><path d="M 173.08426987136738 54.67131705675599 a86.0,86.0 0 0,1 12.851231095245387,41.99856678651699" fill="none" id="id27" stroke="none" /><text fill="#e1ed5e" style="font-size:6.75px; font-family:Arial;" text-anchor="middle"><textPath startOffset="22.20632615414155" xlink:href="#id27">March</textPath></text><path d="M 118.03404312379186 89.2402003453031 l 27.09096117393238 -16.163503252364134 a52.54645803757845,52.54645803757845 0 0,0 0.45675464550527883,0.7807417483622194 l -27.36517549390799 15.694782091648017" fill="#87ff25" stroke="none" /><path d="M 118.21658344932153 89.55222093294921 l 17.717763600644556 -10.161690317876982 a41.424962597879095,41.424962597879095 0 0,0 0.34943407542671645,0.6216042292821953 l -17.890055317363704 9.855202578659991" fill="#fff316" stroke="none" /><path d="M 119.47837535516314 92.15188598940014 l 17.07634460448485 -6.880301713908845 a39.410325818016794,39.410325818016794 0 0,0 0.24810948925740814,0.6314115875644338 l -17.192247643623958 6.585341121448627" fill="#ffd914" stroke="none" /><path d="M 119.61058180528143 92.48833698450437 l 16.621587663408672 -6.366754772998109 a38.79923433161869,38.79923433161869 0 0,0 0.23352596138889586,0.6257334747188767 l -16.728718213299192 6.079698161249899" fill="#ffd213" stroke="none" /><path d="M 120.08093135843002 93.85539295169968 l 19.24015195986933 -5.887335165525172 a41.120739618366244,41.120739618366244 0 0,0 0.20128426377015426,0.6786304736654025 l -19.33864212075119 5.55527530511324" fill="#ffef16" stroke="none" /><path d="M 120.37134235888165 94.90015583598534 l 13.955508953998 -3.493678503904346 a35.38617460111484,35.38617460111484 0 0,0 0.14283747287705809,0.5921535404719322 l -14.013579227135878 3.2529397317730075" fill="#ffa40f" stroke="none" /><path d="M 120.45610955862082 95.25157060432595 l 18.03126458624746 -4.185555741044173 a39.51068284641735,39.51068284641735 0 0,0 0.1480815482569217,0.6638205449620864 l -18.10064052150642 3.8745570265321225" fill="#ffdb14" stroke="none" /><path d="M 120.6074358757038 95.95851677861258 l 35.905693443232956 -7.041742528200427 a57.58968378481684,57.58968378481684 0 0,0 0.18240648224796224,0.9744227219401997 l -36.02158564939077 6.4226417287976645" fill="#50ff2b" stroke="none" /><path d="M 120.67395015179393 96.31383870115 l 21.095263537449107 -3.7612813937272063 a42.42795793903909,42.42795793903909 0 0,0 0.12200692378270693,0.7200917705814954 l -21.15688232275204 3.397603834829873" fill="#feff18" stroke="none" /><path d="M 120.83666639777658 97.38593545837742 l 18.39943987711247 -2.3083022231237766 a39.54366864848363,39.54366864848363 0 0,0 0.07891719971433321,0.6761143732307264 l -18.436447429830395 1.9912441115681976" fill="#ffdb14" stroke="none" /><path d="M 120.94382443527127 98.46500227214037 l 23.617711312900095 -1.730970067792055 a44.68105878196921,44.68105878196921 0 0,0 0.049615994480594866,0.7675374740558434 l -23.644007898385105 1.3241735294831765" fill="#e2ff1b" stroke="none" /><path d="M 120.96714384426684 98.82574320788733 l 36.672034354522474 -2.0538031188812536 a57.72950055405604,57.72950055405604 0 0,0 0.047025878712488804,0.9926419747748103 l -36.70195384146846 1.4222500374834435" fill="#4fff2b" stroke="none" /><path d="M 120.98425023603335 99.18683210126433 l 35.45220590853087 -1.373820625465137 a56.47881462072577,56.47881462072577 0 0,0 0.029283742398735386,0.9717848457389356 l -35.470601345385255 0.7633656323012024" fill="#5cff2a" stroke="none" /><line stroke="#e1ed5e" stroke-width="0.3" x1="184.98032266829074" x2="189.97916517819016" y1="98.17113171792111" y2="98.06355123074" /><path d="M 185.9800911702706 98.14961562048488 a86.0,86.0 0 0,1 -9.607161424134198,41.387399972396054" fill="none" id="id28" stroke="none" /><text fill="#e1ed5e" style="font-size:6.75px; font-family:Arial;" text-anchor="middle"><textPath startOffset="21.466115282336823" xlink:href="#id28">April</textPath></text><path d="M 120.99980553446 99.90962569577887 l 14.620998724404648 -0.06292261061978824 a35.6211341199638,35.6211341199638 0 0,0 -0.0026388521381621134,0.6131763028572497 l -14.619915574976982 -0.18876317044114618" fill="#ffa70f" stroke="none" /><path d="M 120.9904718944345 100.63252640178507 l 18.232067077872433 0.5494046938948716 a39.24034307379424,39.24034307379424 0 0,0 -0.026156243296199082,0.6749764168205158 l -18.219908701725032 -0.8631583577293935" fill="#ffd714" stroke="none" /><path d="M 120.9764740272857 100.99374915477107 l 3.6175818163622795 0.17138098937166157 a24.621639082182682,24.621639082182682 0 0,0 -0.023699674903863613,0.4231736159495647 l -3.614095790570887 -0.2336263216566496" fill="#ff0b01" stroke="none" /><path d="M 120.92983693683757 101.71520430193887 l 3.1729381920415967 0.2600229162415153 a24.18357482831595,24.18357482831595 0 0,0 -0.03757137582082697,0.4145970014105738 l -3.1679922199436943 -0.3146013062006596" fill="#ff0500" stroke="none" /><path d="M 120.8583938346157 102.4346265915055 l 17.64266452288175 2.0592812914067853 a38.762439328653265,38.762439328653265 0 0,0 -0.08305958417619116,0.6620666089380932 l -17.60460342945871 -2.3626656546322735" fill="#ffd113" stroke="none" /><path d="M 120.81339534386255 102.79330883721812 l 15.482301634547804 2.0778373380108524 a36.62110981673049,36.62110981673049 0 0,0 -0.08922637317134628,0.6240490461437946 l -15.444241210359857 -2.3440318561350564" fill="#ffb510" stroke="none" /><path d="M 120.70491114924044 103.5080841355445 l 17.593808792358704 2.980962394061813 a38.84455784313215,38.84455784313215 0 0,0 -0.1173726376622812,0.6582880844014111 l -17.539889712357233 -3.2833692291964423" fill="#ffd213" stroke="none" /><path d="M 120.64145759157962 103.86396538481128 l 17.75965604172416 3.3245082565957107 a39.068141516728346,39.068141516728346 0 0,0 -0.1294272963730967,0.6599469958107761 l -17.6997988123754 -3.629718979474432" fill="#ffd513" stroke="none" /><path d="M 120.5718875245553 104.21870165774334 l 15.423950913322901 3.163008120150306 a36.74493195109878,36.74493195109878 0 0,0 -0.1323971713373721,0.6185155072003182 l -15.367219703261087 -3.4280374467667936" fill="#ffb610" stroke="none" /><path d="M 120.41448212921028 104.9243191809786 l 15.019390203332936 3.6229315442221095 a36.45016877105532,36.45016877105532 0 0,0 -0.15237678143496014,0.6086694970131207 l -14.954802107602914 -3.880928880632626" fill="#ffb310" stroke="none" /><path d="M 120.32669344350535 105.2749913415812 l 36.606233969891825 9.499703814383665 a58.818788161699175,58.818788161699175 0 0,0 -0.2627573173664048,0.9778177260417099 l -36.43728857618364 -10.128412473600923" fill="#44ff2d" stroke="none" /><path d="M 120.23288151984713 105.62410040840565 l 36.82149362269733 10.235209311060261 a59.217560129442525,59.217560129442525 0 0,0 -0.2814451679313577,0.9797475517063202 l -36.63985581787988 -10.867514338271164" fill="#40ff2d" stroke="none" /><path d="M 119.9155931802556 106.66101706037122 l 21.31208328966646 7.128090491688724 a43.47252919017758,43.47252919017758 0 0,0 -0.24346514451680618,0.7076236734738043 l -21.186227314206423 -7.4938868682518285" fill="#f1ff19" stroke="none" /><path d="M 119.67450827220406 107.3425965602758 l 34.84034320061941 13.002540170476024 a58.18757272560001,58.18757272560001 0 0,0 -0.3582850480947108,0.9353692026354807 l -34.61136387293119 -13.60033293994465" fill="#4aff2c" stroke="none" /><path d="M 119.26925614724726 108.34839909993367 l 14.336818055197444 6.211421864617308 a36.62453562599802,36.62453562599802 0 0,0 -0.2556024863603391,0.576316129656851 l -14.227774484105833 -6.457286330766847" fill="#ffb510" stroke="none" /><path d="M 118.81262510543309 109.33194174019688 l 56.00143907380341 27.77933243633239 a83.51281859703003,83.51281859703003 0 0,0 -0.6498940907154598,1.2823026964499638 l -55.514966313301684 -28.739189344485048" fill="#4cd7ff" stroke="none" /><path d="M 118.64920377521936 109.65438752849418 l 17.007080090199327 8.804286976428344 a40.15088098124366,40.15088098124366 0 0,0 -0.32301860163533147,0.6110294615556748 l -16.8530089803391 -9.095731453070155" fill="#ffe315" stroke="none" /><line stroke="#e1ed5e" stroke-width="0.3" x1="174.80103733775053" x2="179.2010983576182" y1="140.37084112569926" y2="142.7455964860345" /><path d="M 175.68104954172406 140.8457921977663 a86.0,86.0 0 0,1 -30.038265399797805,32.042727171017184" fill="none" id="id29" stroke="none" /><text fill="#e1ed5e" style="font-size:6.75px; font-family:Arial;" text-anchor="middle"><textPath startOffset="22.206326154141568" xlink:href="#id29">May</textPath></text><path d="M 118.48025628344425 109.97397251340804 l 24.76771173147976 13.367372845965349 a49.144736652111916,49.144736652111916 0 0,0 -0.4081905439724457,0.7409844042683136 l -24.533944778055805 -13.791727768631468" fill="#adff20" stroke="none" /><path d="M 118.12598468904814 110.60418214915192 l 51.3635402736207 30.049034368646886 a80.50762754410545,80.50762754410545 0 0,0 -0.7100739177777378,1.1901247295709287 l -50.83868548014473 -30.928721192103918" fill="#49f3ff" stroke="none" /><path d="M 117.35343817320211 111.8261652097733 l 2.4702824559749073 1.6834686099425065 a23.98937484651209,23.98937484651209 0 0,0 -0.23548323660035572,0.3392311654925091 l -2.440938312212415 -1.725741037622035" fill="#ff0200" stroke="none" /><path d="M 116.93607887273984 112.41649034213515 l 3.222012962777905 2.3621815377206072 a24.995155710289268,24.995155710289268 0 0,0 -0.25737718140723276,0.34479879447285716 l -3.18087451467558 -2.417293211702779" fill="#ff1101" stroke="none" /><path d="M 116.498646956653 112.99209946851258 l 22.197123454125702 17.479447653406737 a49.253201232884805,49.253201232884805 0 0,0 -0.5302507891768113,0.6615693892841052 l -21.892954752894035 -17.858944876269092" fill="#acff20" stroke="none" /><path d="M 116.27256486870786 113.27417163493432 l 21.940449149317043 17.897687924762263 a49.314493495839685,49.314493495839685 0 0,0 -0.5422339910196772,0.6531557727144758 l -21.62911915840382 -18.27270495459051" fill="#abff21" stroke="none" /><path d="M 115.80600337817218 113.82643327865902 l 11.450142840369756 10.016107944916524 a36.2127640298892,36.2127640298892 0 0,0 -0.4144484459217546,0.4656372225309008 l -11.276035544799663 -10.211719337188292" fill="#ffaf10" stroke="none" /><path d="M 115.07121518719521 114.62390073753431 l 10.162793383816188 9.861161148257548 a35.160680370449796,35.160680370449796 0 0,0 -0.42520878140483476,0.4307342506383645 l -9.991543977355818 -10.034635892876576" fill="#ffa10e" stroke="none" /><path d="M 113.48314897796784 116.09983520530334 l 9.054567781081133 10.811795476625125 a35.102486274787296,35.102486274787296 0 0,0 -0.46657868960205345,0.38396249702702584 l -8.867118962934388 -10.96605309250933" fill="#ffa00e" stroke="none" /><path d="M 112.92097659922987 116.55440617244103 l 8.679431095262782 11.12012134634302 a35.10636816812918,35.10636816812918 0 0,0 -0.4795718321127026,0.3677152308720148 l -8.486730534656585 -11.267875919042407" fill="#ffa10e" stroke="none" /><path d="M 112.63410532772338 116.77436683061366 l 10.17674241747883 13.511713415659573 a37.91545109237787,37.91545109237787 0 0,0 -0.5247047590859464,0.38816403685262374 l -9.94265268797432 -13.684887401251965" fill="#ffc612" stroke="none" /><path d="M 111.45004920935366 117.60387380957326 l 12.442637265751788 19.129927940017335 a43.820459353775746,43.820459353775746 0 0,0 -0.6358519717980131,0.40583081269629256 l -12.111503491906845 -19.341273181537435" fill="#edff1a" stroke="none" /><line stroke="#e1ed5e" stroke-width="0.3" x1="143.8653032363475" x2="146.44561519142675" y1="172.8068346515853" y2="177.08958963109032" /><path d="M 144.38136562736335 173.6633856474863 a86.0,86.0 0 0,1 -40.68145358897372,12.25698825130547" fill="none" id="id30" stroke="none" /><text fill="#e1ed5e" style="font-size:6.75px; font-family:Arial;" text-anchor="middle"><textPath startOffset="21.466115282336833" xlink:href="#id30">June</textPath></text><path d="M 110.5260780823613 118.17145234162733 l 8.872479339098605 15.316800255612012 a38.700996008503246,38.700996008503246 0 0,0 -0.5793193246024165,0.3289526318148833 l -8.60751124757499 -15.467256053221524" fill="#ffd013" stroke="none" /><path d="M 109.89434966115114 118.52300852407294 l 7.99917397513499 14.975089096429743 a37.97763463296598,37.97763463296598 0 0,0 -0.5792658034982779,0.3030444905976837 l -7.740217269110216 -15.110563005972143" fill="#ffc712" stroke="none" /><path d="M 109.2508944713604 118.85261126421891 l 6.710736132938028 13.675963984099322 a36.23371164031609,36.23371164031609 0 0,0 -0.5622908388053105,0.2699337729845506 l -6.474332626132485 -13.789452033583434" fill="#ffb010" stroke="none" /><path d="M 108.92500713936063 119.00905698771935 l 6.86259262098234 14.616393262078768 a37.147263838598256,37.147263838598256 0 0,0 -0.5811459543167213,0.2667756042177191 l -6.609978670898199 -14.732355936630562" fill="#ffbc11" stroke="none" /><path d="M 108.2653958097858 119.30500536409082 l 11.147452838612603 26.036458724768888 a49.322480253602194,49.322480253602194 0 0,0 -0.7833549929975826,0.3274424506049606 l -10.69762638611756 -26.22448621839382" fill="#abff21" stroke="none" /><path d="M 107.2578585660854 119.70592522655815 l 5.629846637193331 15.285684594066 a37.2894851566151,37.2894851566151 0 0,0 -0.6042324949039986,0.2166562751101198 l -5.365894581659597 -15.380328410216078" fill="#ffbe11" stroke="none" /><path d="M 106.57524785965236 119.94407469862006 l 4.476690116802896 13.578718855597874 a35.297634775068566,35.297634775068566 0 0,0 -0.5786772486586597,0.18527418099529316 l -4.242291523053296 -13.653765883252873" fill="#ffa30f" stroke="none" /><path d="M 106.2309692047433 120.05430185196036 l 4.247482596170741 13.670473291653094 a35.3151300525903,35.3151300525903 0 0,0 -0.5820690615285171,0.17537263345322274 l -4.011538560201978 -13.741561294212042" fill="#ffa30f" stroke="none" /><path d="M 105.18746579009965 120.34920634021253 l 3.6237164476503216 14.214986025043599 a35.66959946914558,35.66959946914558 0 0,0 -0.5962712251508979,0.14654895993525838 l -3.3784919377562126 -14.275256243292887" fill="#ffa80f" stroke="none" /><path d="M 104.48393922423573 120.51570834832081 l 3.615870166346314 16.54396593004655 a37.934501048286435,37.934501048286435 0 0,0 -0.6391214465380929,0.1339341131834854 l -3.3305572583788434 -16.603756023956578" fill="#ffc612" stroke="none" /><path d="M 103.7750983002368 120.6578951692458 l 2.5379523268182123 13.8880497783767 a35.11804266390604,35.11804266390604 0 0,0 -0.5955870006970746,0.10355043434804823 l -2.2985163546490877 -13.929678791245756" fill="#ffa10e" stroke="none" /><path d="M 103.41894727170886 120.7198165907248 l 4.641739578100816 28.13029423296326 a49.510685715078715,49.510685715078715 0 0,0 -0.8420686335988674,0.13151380255202674 l -4.156835080893432 -28.206026342862394" fill="#a9ff21" stroke="none" /><path d="M 102.34483914955558 120.86867818915974 l 1.8861432447041555 16.786360974844968 a37.891993698712454,37.891993698712454 0 0,0 -0.6487964658896621,0.06725040645816363 l -1.5969141822088908 -16.81634074975889" fill="#ffc612" stroke="none" /><path d="M 101.62511606390274 120.93702456842531 l 1.1495370727653391 14.809948944203011 a35.854495050709794,35.854495050709794 0 0,0 -0.6157364813692137,0.042464792783038705 l -0.8944378306171951 -14.827542081502335" fill="#ffab0f" stroke="none" /><path d="M 101.26447882468166 120.96189622390904 l 2.3746271194496305 39.36537827030409 a60.43693522981413,60.43693522981413 0 0,0 -1.038974034594506,0.05370309000421999 l -1.6966650164416448 -39.40042116707051" fill="#33ff2f" stroke="none" /><line stroke="#e1ed5e" stroke-width="0.3" x1="102.19456741930631" x2="102.32365962044197" y1="184.97166512339345" y2="189.96999836594603" /><path d="M 102.22038585953345 185.97133177190398 a86.0,86.0 0 0,1 -42.740103519485714,-10.115201625700543" fill="none" id="id31" stroke="none" /><text fill="#e1ed5e" style="font-size:6.75px; font-family:Arial;" text-anchor="middle"><textPath startOffset="22.20632615414155" xlink:href="#id31">July</textPath></text><path d="M 99.45781275523022 120.99299961872073 l -0.378930329257057 14.671839543169018 a35.67673205365993,35.67673205365993 0 0,0 -0.6137751052259167,-0.02113965564009198 l 0.6314257861576167 -14.663143089102832" fill="#ffa80f" stroke="none" /><path d="M 98.37488393609728 120.93702456842531 l -1.1444136564268117 14.74394190868322 a35.7882894759212,35.7882894759212 0 0,0 -0.6137788482411239,-0.05295942167294725 l 1.3980368224094772 -14.72205823473161" fill="#ffaa0f" stroke="none" /><path d="M 96.93821686468263 120.77559828337769 l -2.066437116630514 14.021720518924633 a35.173172145565026,35.173172145565026 0 0,0 -0.5982188406437949,-0.09342947991672612 l 2.3074918208828263 -13.984072731660802" fill="#ffa10e" stroke="none" /><path d="M 96.22490169976321 120.6578951692458 l -11.325294900710388 61.97368550773742 a84.0,84.0 0 0,0 -1.4201295417132198,-0.2721712066061275 l 12.390392056995301 -61.76955710278283" fill="#4dd2ff" stroke="none" /><path d="M 95.86986931433489 120.58985236759428 l -3.4383272784804935 17.14101960528764 a38.482466862053485,38.482466862053485 0 0,0 -0.648353588621676,-0.1358687983195397 l 3.732872328531556 -17.079294826241558" fill="#ffcd13" stroke="none" /><path d="M 95.16358092515715 120.4354850818985 l -3.4450417507621793 14.556451418864182 a35.958562450123594,35.958562450123594 0 0,0 -0.6011016777843818,-0.1477361676682398 l 3.6950967132897716 -14.494993992881913" fill="#ffac0f" stroke="none" /><path d="M 94.81253420990036 120.34920634021253 l -3.5159632171780792 13.79229548414621 a35.23339074383013,35.23339074383013 0 0,0 -0.586400323672659,-0.15487365519155405 l 3.7528539836622277 -13.729730479651074" fill="#ffa20f" stroke="none" /><path d="M 94.11515582081647 120.15858648285463 l -3.95087642171428 13.53376259509532 a35.09865789641195,35.09865789641195 0 0,0 -0.5785011362623168,-0.17429764683865384 l 4.183252532416843 -13.46374957915094" fill="#ffa00e" stroke="none" /><path d="M 93.76903079525671 120.05430185196036 l -4.181373160376834 13.457700842117578 a35.09232391985977,35.09232391985977 0 0,0 -0.5753113369886829,-0.1841965223705538 l 4.412405842456457 -13.383731473087318" fill="#ffa00e" stroke="none" /><path d="M 93.42475214034765 119.94407469862007 l -10.088406298866289 30.600204449974388 a53.220311203202826,53.220311203202826 0 0,0 -0.8675677784455418,-0.29432609426153983 l 10.613643810249055 -30.422015368814726" fill="#7fff26" stroke="none" /><path d="M 92.40401165467489 119.57807347666478 l -10.21325862459037 26.323885543014512 a49.235750420601505,49.235750420601505 0 0,0 -0.7874881367401555,-0.3133577815118441 l 10.664867837372384 -26.1441809170966" fill="#acff20" stroke="none" /><path d="M 91.40352486487194 119.15986991738527 l -19.025631773551183 42.40443020508809 a67.47698748198884,67.47698748198884 0 0,0 -1.0556357112873591,-0.484590579389987 l 19.75273548060596 -42.070652555364035" fill="#38ff7f" stroke="none" /><path d="M 91.07499286063937 119.00905698771935 l -6.251990947181201 13.315894356829238 a35.7105551671537,35.7105551671537 0 0,0 -0.5541722641739948,-0.2660363637965548 l 6.480275879355438 -13.206303716533121" fill="#ffa90f" stroke="none" /><path d="M 90.42595943632237 118.69057910512821 l -5.001800676147493 9.764586914357919 a31.971106034122514,31.971106034122514 0 0,0 -0.4876493390009282,-0.25511508643418956 l 5.169140917674917 -9.677042408979013" fill="#ff750a" stroke="none" /><path d="M 90.10565033884886 118.52300852407294 l -6.632230239916411 12.416061840823742 a35.07640115904705,35.07640115904705 0 0,0 -0.5301166461726624,-0.2890618630094132 l 6.844969697957714 -12.300059326054564" fill="#ffa00e" stroke="none" /><line stroke="#e1ed5e" stroke-width="0.3" x1="58.666819895761336" x2="56.23545636021788" y1="174.27360380694188" y2="178.64263932499728" /><path d="M 58.180547188652646 175.14741091055294 a86.0,86.0 0 0,1 -31.652253787137756,-30.449443065178592" fill="none" id="id32" stroke="none" /><text fill="#e1ed5e" style="font-size:6.75px; font-family:Arial;" text-anchor="middle"><textPath startOffset="22.20632615414155" xlink:href="#id32">August</textPath></text><path d="M 89.7882731507175 118.34994917583269 l -3.0665026955913572 5.5103479991348445 a27.306137792154438,27.306137792154438 0 0,0 -0.4087484802658653,-0.23209805477500445 l 3.1608999427784297 -5.456746778565207" fill="#ff3304" stroke="none" /><path d="M 88.8546689885994 117.79835938074946 l -7.569734398257054 12.088367146672063 a35.26287134951783,35.26287134951783 0 0,0 -0.5116780291560117,-0.3265771274154136 l 7.77669422945999 -11.956275590432845" fill="#ffa30f" stroke="none" /><path d="M 88.54995079064634 117.60387380957326 l -7.667361908111167 11.788182654486327 a35.06235004988449,35.06235004988449 0 0,0 -0.5031034853174458,-0.3334295566738497 l 7.869140092168575 -11.654455076721158" fill="#ffa00e" stroke="none" /><path d="M 88.24862548938628 117.40417183066458 l -6.464835115688451 9.574633257474154 a32.552821953452266,32.552821953452266 0 0,0 -0.4616968526158378,-0.3175593052058399 l 6.628688852927178 -9.461933162903215" fill="#ff7e0b" stroke="none" /><path d="M 87.95078237400918 117.19931262002967 l -8.09277289049903 11.551798235128006 a35.104503377372154,35.104503377372154 0 0,0 -0.49191885778081323,-0.3509710437708699 l 8.29041907612873 -11.410782929512918" fill="#ffa10e" stroke="none" /><path d="M 87.65650970185807 116.9893568818739 l -9.915797113767837 13.6479238744503 a37.86976166056287,37.86976166056287 0 0,0 -0.5240724716774475,-0.3876962857436776 l 10.149254555863848 -13.475217639966855" fill="#ffc512" stroke="none" /><path d="M 87.36589467227662 116.77436683061367 l -17.52511194648025 23.268181554000286 a50.12967252762351,50.12967252762351 0 0,0 -0.6847982332478325,-0.5250740839597446 l 17.92303890822157 -22.963068128213173" fill="#a2ff22" stroke="none" /><path d="M 86.51685102203217 116.09983520530335 l -3.6158496102990356 4.317580629576995 a26.631684552351825,26.631684552351825 0 0,0 -0.348918849393404,-0.2973562130858427 l 3.6896339362694963 -4.2547000262682015" fill="#ff2904" stroke="none" /><path d="M 86.24171649860922 115.8653595955263 l -8.264853662631621 9.530612982992992 a33.61508580614139,33.61508580614139 0 0,0 -0.43388695549789735,-0.3828547910556107 l 8.427682971036106 -9.386935050165093" fill="#ff8c0c" stroke="none" /><path d="M 85.97065885151581 115.62618273729859 l -3.76232494407582 4.190558663517676 a26.631684552351825,26.631684552351825 0 0,0 -0.3384766002609195,-0.30919034913561527 l 3.8339010938035947 -4.125175547795484" fill="#ff2904" stroke="none" /><path d="M 85.70375840098266 115.38237550388516 l -1.9609524057628154 2.1099326030391063 a23.88047737832366,23.88047737832366 0 0,0 -0.29869265071077883,-0.2824325447022828 l 1.9969808908644113 -2.0758654215908927" fill="#ff0000" stroke="none" /><path d="M 85.44109423537348 115.13401014063109 l -8.248992284799924 8.574843117088628 a32.89847923885111,32.89847923885111 0 0,0 -0.404729698958149,-0.3961131947403563 l 8.395371936133866 -8.431579819425702" fill="#ff820c" stroke="none" /><path d="M 85.18274418774928 114.88116024355367 l -8.540119728136174 8.57695188527787 a33.103625432624405,33.103625432624405 0 0,0 -0.4003321915840498,-0.4055343964879076 l 8.686492544775758 -8.428676994809297" fill="#ff850c" stroke="none" /><path d="M 84.67929136418377 114.36230785411682 l -11.909719653188237 11.164696371513621 a37.324578625055764,37.324578625055764 0 0,0 -0.4353709335358688,-0.472509161549507 l 12.100136994719835 -10.95803595516277" fill="#ffbe11" stroke="none" /><path d="M 84.43433777217949 114.09645910891817 l -13.358267954404937 12.097415145542922 a39.02195261189234,39.02195261189234 0 0,0 -0.4465990942719159,-0.5017588167789945 l 13.564525898325192 -11.865682159023063" fill="#ffd413" stroke="none" /><path d="M 84.19399662182784 113.82643327865904 l -6.565458972150536 5.7431899924540115 a29.7229285681138,29.7229285681138 0 0,0 -0.3335443216461288,-0.38798740002409415 l 6.663345803367443 -5.629325493268388" fill="#ff5607" stroke="none" /><path d="M 83.95833913139862 113.55231037782056 l -5.07908381790186 4.290909831531252 a27.648984855720766,27.648984855720766 0 0,0 -0.30401243819375995,-0.3662025661833729 l 5.152192255989156 -4.202846008234118" fill="#ff3805" stroke="none" /><path d="M 83.72743513129214 113.27417163493432 l -2.5173010346253037 2.0534615323409313 a24.24861643838259,24.24861643838259 0 0,0 -0.2610560873414456,-0.3257076081668764 l 2.5522750340216103 -2.0098260905957956" fill="#ff0600" stroke="none" /><path d="M 83.50135304334701 112.99209946851258 l -23.537892852685445 18.53525601370395 a50.959774956398604,50.959774956398604 0 0,0 -0.5367597531646083,-0.6938343369081296 l 23.85345942306812 -18.127343682682568" fill="#99ff23" stroke="none" /><path d="M 83.28015986056508 112.70617746262583 l -11.428902628317934 8.685350086330814 a35.35462021126645,35.35462021126645 0 0,0 -0.3640494424266953,-0.4877037202401809 l 11.576713337439713 -8.487333486581326" fill="#ffa40f" stroke="none" /><path d="M 83.06392112726016 112.41649034213515 l -12.725766108036145 9.32974823535051 a36.77939558954865,36.77939558954865 0 0,0 -0.36993102727257776,-0.5138018417996284 l 12.88447692768433 -9.109312788099743" fill="#ffb711" stroke="none" /><path d="M 82.85270091963577 112.12312394758628 l -4.0523573026341095 2.865012713051495 a25.96285175621423,25.96285175621423 0 0,0 -0.25485517659571433,-0.36713788988338486 l 4.101073386391958 -2.7948335609810973" fill="#ff1f03" stroke="none" /><path d="M 82.6465618267979 111.8261652097733 l -12.893068766278683 8.786475611872625 a36.60235161410046,36.60235161410046 0 0,0 -0.35033138138565395,-0.5236978815855323 l 13.042403253075067 -8.563240816081272" fill="#ffb510" stroke="none" /><path d="M 82.44556493220864 111.52570212397912 l -4.7123668814244555 3.0939951507671157 a26.637304996016844,26.637304996016844 0 0,0 -0.24835498909344866,-0.38545245831400055 l 4.764926733894949 -3.012421092531667" fill="#ff2904" stroke="none" /><path d="M 82.24976979558568 111.22182372390057 l -13.054854102436016 8.25337304314758 a36.44497919147985,36.44497919147985 0 0,0 -0.33066939250202204,-0.5331443481399628 l 13.194988134605994 -8.027432363642353" fill="#ffb310" stroke="none" /><line stroke="#e1ed5e" stroke-width="0.3" x1="26.63291911575756" x2="22.317208475507996" y1="142.92168965132927" y2="145.44649492493687" /><path d="M 25.769776987707644 143.4266507060508 a86.0,86.0 0 0,1 -11.730757126820373,-40.83630448921669" fill="none" id="id33" stroke="none" /><text fill="#e1ed5e" style="font-size:6.75px; font-family:Arial;" text-anchor="middle"><textPath startOffset="21.46611528233685" xlink:href="#id33">September</textPath></text><path d="M 81.87401531095188 110.60418214915194 l -15.45067852907843 9.039057036682438 a38.90050332033498,38.90050332033498 0 0,0 -0.33315132718238416,-0.5808774203514325 l 15.603981852413192 -8.771759770472698" fill="#ffd313" stroke="none" /><path d="M 81.69416730710424 110.29060199501025 l -6.856677071320596 3.8544728302174347 a28.865810909197982,28.865810909197982 0 0,0 -0.23975611347028072,-0.4352269878193255 l 6.922009594242393 -3.7358753240002867" fill="#ff4906" stroke="none" /><path d="M 81.51974371655577 109.97397251340807 l -5.950108997408787 3.211331200266055 a27.7613937290212,27.7613937290212 0 0,0 -0.2233437066047385,-0.422482123622731 l 6.004505212238411 -3.1084340615571975" fill="#ff3905" stroke="none" /><path d="M 81.35079622478065 109.6543875284942 l -13.603723155407973 7.042424800311008 a36.31851920901686,36.31851920901686 0 0,0 -0.2826295581205029,-0.5576549312448866 l 13.722931383314743 -6.807215657363437" fill="#ffb110" stroke="none" /><path d="M 81.18737489456691 109.33194174019688 l -5.065224352087555 2.5125881310980067 a26.65416632701191,26.65416632701191 0 0,0 -0.20034635011278323,-0.41277282186107117 l 5.107723958815058 -2.4250263532716505" fill="#ff2904" stroke="none" /><path d="M 81.02952815118164 109.00673069616217 l -6.186641793057802 2.937270985548218 a27.84851060582904,27.84851060582904 0 0,0 -0.20186905701964172,-0.43480798970590934 l 6.236285466917271 -2.8303429285634816" fill="#ff3b05" stroke="none" /><path d="M 80.58989483394504 108.01547362559985 l -3.226047763131104 1.3322081739940603 a24.490295515978524,24.490295515978524 0 0,0 -0.15755118572727222,-0.3910291222963861 l 3.248501563115764 -1.2764796838548689" fill="#ff0901" stroke="none" /><path d="M 80.45479744820244 107.68017299344265 l -5.233696962797625 2.0565506017661797 a26.623253886854293,26.623253886854293 0 0,0 -0.1639304296859335,-0.4279706231628352 l 5.268321672077067 -1.9661564117701864" fill="#ff2904" stroke="none" /><path d="M 80.32549172779594 107.34259656027581 l -6.621603700786515 2.471206084758629 a28.067707908764888,28.067707908764888 0 0,0 -0.16503242742496438,-0.45409836166627143 l 6.663160389216704 -2.3568599260862406" fill="#ff3e05" stroke="none" /><path d="M 80.20201598880116 107.00284435728193 l -13.338278236878052 4.717949384853644 a35.148099261823674,35.148099261823674 0 0,0 -0.19684470229085752,-0.5721228458199175 l 13.417513770112139 -4.48765383594443" fill="#ffa10e" stroke="none" /><path d="M 79.97269907076064 106.31721596034903 l -13.577986602801767 4.282907316352108 a35.23745115062126,35.23745115062126 0 0,0 -0.17748471127898957,-0.5800303056564085 l 13.649698086586888 -4.048550038143651" fill="#ffa20f" stroke="none" /><path d="M 79.29508885075956 103.50808413554451 l -17.750879016843864 3.0075751893890317 a39.00386665109627,39.00386665109627 0 0,0 -0.10645872426509502,-0.6629185776215454 l 17.800019495470252 -2.7015773820742726" fill="#ffd413" stroke="none" /><path d="M 79.04373962182676 101.35467743843564 l -4.784252818807058 0.30926888845876244 a25.794238446263577,25.794238446263577 0 0,0 -0.02482836595600539,-0.44332715289735153 l 4.788867535650595 -0.22687001922597333" fill="#ff1d02" stroke="none" /><path d="M 79.0235259727143 100.99374915477108 l -7.371375233656781 0.3492149299457246 a28.379642532173598,28.379642532173598 0 0,0 -0.018916879328370266,-0.4881606002014483 l 7.376294245836352 -0.22227708273027952" fill="#ff4206" stroke="none" /><path d="M 79.0095281055655 100.63252640178507 l -28.12849661630947 0.8476234761094318 a49.14126485165486,49.14126485165486 0 0,0 -0.01820084179026752,-0.8457215991591739 l 28.138919520784746 -0.36331206116012904" fill="#adff20" stroke="none" /><line stroke="#e1ed5e" stroke-width="0.3" x1="15.007084014347285" x2="10.007500721073583" y1="101.09737516637583" y2="101.16192664675087" /><path d="M 14.007167355692545 101.11028546245083 a86.0,86.0 0 0,1 10.666146001902534,-42.60595125391555" fill="none" id="id34" stroke="none" /><text fill="#e1ed5e" style="font-size:6.75px; font-family:Arial;" text-anchor="middle"><textPath startOffset="22.20632615414155" xlink:href="#id34">October</textPath></text><path d="M 79.03285615573316 98.82574320788736 l -14.983488957987692 -0.8391445114863749 a36.00696854348995,36.00696854348995 0 0,0 0.03998386791223196,-0.6185327393233777 l 14.966824499071047 1.0969363150627645" fill="#ffad10" stroke="none" /><path d="M 79.12142395522702 97.74499172005258 l -14.200574323461655 -1.5337450509433437 a35.283160889573836,35.283160889573836 0 0,0 0.0704145151333151,-0.6032685642425155 l 14.17206945532475 1.777957353510721" fill="#ffa30f" stroke="none" /><path d="M 79.21141760316559 97.0276538004421 l -8.740823778497093 -1.2497607505443666 a29.829716997749216,29.829716997749216 0 0,0 0.07705173083339839,-0.5076746348613461 l 8.718016154224392 1.400034497797805" fill="#ff5708" stroke="none" /><path d="M 79.26566170972629 96.67025291283419 l -14.33516503254958 -2.3020977734102086 a35.51883640891282,35.51883640891282 0 0,0 0.10213887674771294,-0.6028294323153205 l 14.293414294281645 2.5485129940413573" fill="#ffa60f" stroke="none" /><path d="M 79.3925641242962 95.95851677861259 l -14.598871303708751 -2.8630972713444396 a35.876974468198526,35.876974468198526 0 0,0 0.12406719744382572,-0.6049957163044365 l 14.54742481034993 3.113968643812279" fill="#ffab0f" stroke="none" /><path d="M 79.62865764111835 94.90015583598534 l -14.013324661359396 -3.508152321710805 a35.44577449557442,35.44577449557442 0 0,0 0.1532669687569554,-0.5906001521519242 l 13.950861360732134 3.748848899411593" fill="#ffa50f" stroke="none" /><path d="M 79.91906864156998 93.8553929516997 l -32.366450634603964 -9.903879314559855 a54.847805721488385,54.847805721488385 0 0,0 0.2840189571218474,-0.9004177092552129 l 32.191176193713915 10.459547190241484" fill="#6eff28" stroke="none" /><path d="M 80.52162464483688 92.15188598940014 l -13.493002481109908 -5.43652229132076 a35.54705779803138,35.54705779803138 0 0,0 0.23355824148243473,-0.565579807423248 l 13.397422552741274 5.667976669197318" fill="#ffa60f" stroke="none" /><path d="M 80.803312248108 91.48605970444005 l -18.711733714070355 -8.298857892935704 a41.46949000130239,41.46949000130239 0 0,0 0.29502122490028726,-0.6500401625225022 l 18.566110172206717 8.619720064300276" fill="#fff417" stroke="none" /><path d="M 80.95270993114464 91.15688171328213 l -19.654344330741036 -9.124956418279117 a42.669288883275,42.669288883275 0 0,0 0.31502493409290616,-0.663522852574218 l 19.494361202806378 9.461921686493868" fill="#fbff18" stroke="none" /><path d="M 81.26839172434947 90.50648371742162 l -12.779585119682865 -6.4769237981564745 a35.32718875838332,35.32718875838332 0 0,0 0.2795735964102558,-0.5400472017761465 l 12.666202090112495 6.695943722192957" fill="#ffa40f" stroke="none" /><path d="M 81.6062741919709 89.86733742301443 l -12.778456858727003 -7.039345533112601 a35.58908308376162,35.58908308376162 0 0,0 0.3002063867474852,-0.5340336640949664 l 12.655392830687086 7.258262707142352" fill="#ffa70f" stroke="none" /><line stroke="#e1ed5e" stroke-width="0.3" x1="26.266209847984243" x2="21.928928074336255" y1="57.711370442889674" y2="55.22380399835377" /><path d="M 25.398753493254645 57.213857153982495 a86.0,86.0 0 0,1 29.58750427330803,-30.492523968695096" fill="none" id="id35" stroke="none" /><text fill="#e1ed5e" style="font-size:6.75px; font-family:Arial;" text-anchor="middle"><textPath startOffset="21.46611528233685" xlink:href="#id35">November</textPath></text><path d="M 81.96595687620814 89.24020034530311 l -24.379634366583126 -14.545822012210085 a49.38921467492851,49.38921467492851 0 0,0 0.44187872249855253,-0.7263324356005718 l 24.125639845798354 14.96332222101773" fill="#aaff21" stroke="none" /><path d="M 82.15384107792192 88.93136811851018 l -17.539676110691808 -10.878543614762464 a41.63935438055808,41.63935438055808 0 0,0 0.38302734173612424,-0.6058572704114717 l 17.34982117270972 11.178848532888152" fill="#fff617" stroke="none" /><path d="M 82.54541684631803 88.32363383020206 l -11.972326960910168 -8.008972329461931 a35.404174764040576,35.404174764040576 0 0,0 0.3432106569117552,-0.5036192890473268 l 11.832691838329673 8.213869641779674" fill="#ffa50f" stroke="none" /><path d="M 82.95767976084542 87.72973835380427 l -11.682627390300002 -8.411348500813348 a35.39564400583464,35.39564400583464 0 0,0 0.36025583229545566,-0.49138855038735835 l 11.536108945490913 8.611199494872208" fill="#ffa40f" stroke="none" /><path d="M 83.17141714833178 87.43820079747576 l -11.613857044763005 -8.669235041896128 a35.49266406385765,35.49266406385765 0 0,0 0.3696714083956583,-0.48644424105326783 l 11.462909696143239 8.867864058830422" fill="#ffa60f" stroke="none" /><path d="M 83.39014120810768 87.1503855733568 l -23.699805056227955 -18.33449403602326 a50.96388544999097,50.96388544999097 0 0,0 0.5427554770460368,-0.6892443381668114 l 23.380695498587947 18.73973076814312" fill="#98ff23" stroke="none" /><path d="M 83.6137871275137 86.86637796730984 l -12.638036945784359 -10.129442463170008 a37.19646820938695,37.19646820938695 0 0,0 0.4047356702513069,-0.49615807524376176 l 12.461802783456658 10.345484708021853" fill="#ffbc11" stroke="none" /><path d="M 84.07557802195018 86.31012108654704 l -11.042642783971266 -9.493119612470549 a35.56225530716536,35.56225530716536 0 0,0 0.40305267202987477,-0.4607588788294772 l 10.877598248363547 9.681794047502969" fill="#ffa70f" stroke="none" /><path d="M 84.31358615837235 86.03803664274999 l -11.019816088224731 -9.808377490279401 a35.752647749136976,35.752647749136976 0 0,0 0.4131241591020254,-0.4561820148626016 l 10.849348288506661 9.996612292411559" fill="#ffa90f" stroke="none" /><path d="M 84.5562425177563 85.77008943001954 l -10.382570194333567 -9.566521976389318 a35.11793563397296,35.11793563397296 0 0,0 0.4134429177931567,-0.44103207822794244 l 10.216359954569954 9.743823471495311" fill="#ffa10e" stroke="none" /><path d="M 84.80347519578584 85.50635884689758 l -10.536083026772378 -10.048758417910449 a35.559759314238924,35.559759314238924 0 0,0 0.42626962826237286,-0.43930832208255044 l 10.361549134806886 10.228630935543123" fill="#ffa70f" stroke="none" /><path d="M 85.31137513191541 84.99185889309783 l -20.299011552056797 -20.740568463004973 a50.02104495291532,50.02104495291532 0 0,0 0.62053906582145,-0.596958089667771 l 19.938989242622917 21.086909639435056" fill="#a3ff21" stroke="none" /><path d="M 85.83668400450813 84.49514656593479 l -9.721774348673387 -10.64261267934811 a35.4145100898069,35.4145100898069 0 0,0 0.4536244806585555,-0.407268537649464 l 9.53713888041886 10.808380225766852" fill="#ffa50f" stroke="none" /><path d="M 86.65592168130627 83.78471172551755 l -9.241319222522655 -11.229749380277166 a35.54335766308462,35.54335766308462 0 0,0 0.47576747822378596,-0.38470421331329724 l 9.04664834573437 11.387159690854597" fill="#ffa60f" stroke="none" /><path d="M 86.93701828274178 83.55741782278169 l -9.711394711209994 -12.223886479417713 a36.61200140592514,36.61200140592514 0 0,0 0.49682040434028585,-0.3877762060222638 l 9.499541751710284 12.389241074663198" fill="#ffb510" stroke="none" /><path d="M 87.22198572758235 83.33499621200491 l -17.184364950538903 -22.41173791871474 a49.24160751958829,49.24160751958829 0 0,0 0.677081122209567,-0.5099634638844871 l 16.796037674570947 22.70421797210508" fill="#acff20" stroke="none" /><path d="M 88.09926311788651 82.69761687909137 l -8.375606714136962 -12.177225467093592 a35.779567243540285,35.779567243540285 0 0,0 0.5104471610633439,-0.3446562017370035 l 8.164754858667079 12.319593581129261" fill="#ffaa0f" stroke="none" /><path d="M 88.70189139769569 82.29822771554957 l -7.997889043648716 -12.531018738667033 a35.865821867066096,35.865821867066096 0 0,0 0.5232667097379943,-0.32766956563335325 l 7.781003181538479 12.666832645623316" fill="#ffab0f" stroke="none" /><line stroke="#e1ed5e" stroke-width="0.3" x1="56.762969772571076" x2="54.21961505331055" y1="26.818313649435495" y2="22.513508569990535" /><path d="M 56.25429882871897 25.957352633546506 a86.0,86.0 0 0,1 42.265352541879196,-11.944610805530505" fill="none" id="id36" stroke="none" /><text fill="#e1ed5e" style="font-size:6.75px; font-family:Arial;" text-anchor="middle"><textPath startOffset="22.20632615414155" xlink:href="#id36">December</textPath></text><path d="M 89.94658935756843 81.56283822128135 l -6.972694421030267 -12.78737133560582 a35.56486639704395,35.56486639704395 0 0,0 0.5400016104884041,-0.2884501588828411 l 6.751547764013558 12.905500220990412" fill="#ffa70f" stroke="none" /><path d="M 90.58718382345135 81.22770947309562 l -6.581735876752735 -13.126173477984064 a35.68385771265393,35.68385771265393 0 0,0 0.5514493872222771,-0.2705938193915762 l 6.354815222520032 13.23752245751047" fill="#ffa80f" stroke="none" /><path d="M 91.56875222667455 80.76684994638697 l -20.692454335261296 -47.203105626516816 a72.53941062143588,72.53941062143588 0 0,0 1.1479059214200653,-0.4914734087866276 l 19.876864656050923 47.55229856326623" fill="#3effb8" stroke="none" /><path d="M 92.23578459929587 80.48803036053334 l -5.361470532310367 -13.4737181866242 a35.50125677454889,35.50125677454889 0 0,0 0.5697391046043936,-0.22104992115844072 l 5.1287482627062975 13.564010811673192" fill="#ffa60f" stroke="none" /><path d="M 92.57280143429618 80.3572730644239 l -5.192722718882844 -13.73320418416906 a35.68214106999659,35.68214106999659 0 0,0 0.5763815669152058,-0.21228619537900903 l 4.955558826195069 13.82055364735439" fill="#ffa80f" stroke="none" /><path d="M 93.59665428221793 80.00007090966166 l -4.502534396902309 -14.063018402205868 a35.76622167570531,35.76622167570531 0 0,0 0.5879534707297174,-0.18268000536656445 l 4.259795553461863 14.138438542454958" fill="#ffa90f" stroke="none" /><path d="M 95.33964822691252 79.52364482259891 l -3.3594946478009278 -14.76073244560598 a36.13821081301777,36.13821081301777 0 0,0 0.6077367659376728,-0.1328277179871863 l 3.1049151577097343 14.816373661689035" fill="#ffae10" stroke="none" /><path d="M 96.04723909329186 79.375362276772 l -5.318026278475757 -27.74829239229459 a49.25330306684216,49.25330306684216 0 0,0 0.8340340415412809,-0.1524143900802403 l 4.839597115831583 27.835722263725565" fill="#acff20" stroke="none" /><path d="M 96.40284397218896 79.31037775812273 l -4.830872801224144 -27.78554296314709 a49.20237099568935,49.20237099568935 0 0,0 0.8356689868038851,-0.1378925431108202 l 4.351874608281373 27.864581769197535" fill="#adff20" stroke="none" /><path d="M 97.11714578562143 79.19881850522333 l -2.0201603756570248 -14.576429988380893 a35.71575207556666,35.71575207556666 0 0,0 0.6096938609216932,-0.07915576147861131 l 1.7689517862274737 14.609044073023641" fill="#ffa90f" stroke="none" /><path d="M 97.47563105711357 79.15227682838746 l -2.0365147760426985 -16.818736581860595 a37.9415847146321,37.9415847146321 0 0,0 0.649041931004885,-0.07292742337241138 l 1.7467061415280958 16.851299958703603" fill="#ffc612" stroke="none" /><path d="M 98.55514903715128 79.0497635885617 l -1.170181520468066 -16.96754899188121 a38.00785240948233,38.00785240948233 0 0,0 0.6530797900687431,-0.039395556420489225 l 0.8779396815596998 16.985177817682004" fill="#ffc712" stroke="none" /><path d="M 99.27714615592234 79.0124445844662 l -0.6827686147583276 -19.823708839110918 a40.83546332000196,40.83546332000196 0 0,0 0.7027070849202479,-0.0181488508156489 l 0.3414348946432007 19.832524482068926" fill="#ffec16" stroke="none" /></svg>