<?xml version="1.0" encoding="utf-8" ?>
<svg baseProfile="full" height="200mm" version="1.1" viewBox="0,0,200,200" width="200mm" xmlns="http://www.w3.org/2000/svg" xmlns:ev="http://www.w3.org/2001/xml-events" xmlns:xlink="http://www.w3.org/1999/xlink"><defs /><rect fill="#1a1a1a" height="200" width="200" x="0" y="0" /><text alignment-baseline="middle" fill="#e1ed5e" style="dominant-baseline: central; font-size:9.0px; font-family:Arial;" text-anchor="middle" x="100.0" y="100.0">2022</text><line stroke="#e1ed5e" stroke-width="0.3" x1="100.0" x2="100.0" y1="15.0" y2="10.0" /><path d="M 100.0 14.0 a86.0,86.0 0 0,1 42.46469731375804,11.215312516191453" fill="none" id="id61" stroke="none" /><text fill="#e1ed5e" style="font-size:6.75px; font-family:Arial;" text-anchor="middle"><textPath startOffset="22.20632615414155" xlink:href="#id61">January</textPath></text><path d="M 100.0 79.0 l 0.0 -39.19424925636936 a60.19424925636936,60.19424925636936 0 0,0 1.0361450509829728,0.008918427576477607 l -0.6746645717104446 39.188442205401444" fill="#56ff2a" stroke="none" /><path d="M 100.36148047927253 79.00311137660856 l 0.4433227639274113 -25.750764514672724 a46.75458033366384,46.75458033366384 0 0,0 0.804564762629903,0.020779534121468032 l -0.8865141617521821 25.739318188408895" fill="#fff817" stroke="none" /><path d="M 100.72285384407766 79.0124445844662 l 0.6787647409809229 -19.70745916641632 a40.71914471698926,40.71914471698926 0 0,0 0.7002901148479138,0.030155965444738426 l -1.0178956882181682 19.692855474447388" fill="#ff9e0e" stroke="none" /><path d="M 101.80526077348638 79.07773832637324 l 1.6914168015411093 -19.60285485662495 a40.67569082208907,40.67569082208907 0 0,0 0.697055193576944,0.06619378977685032 l -2.0285971222082977 19.57083552233292" fill="#ff9e0e" stroke="none" /><path d="M 102.16513564639614 79.11191278185805 l 1.0255189876768112 -9.893666521129672 a30.946674138897272,30.946674138897272 0 0,0 0.5293845603012572,0.05948252356536208 l -1.1956702514877935 9.874548044093709" fill="#ff0000" stroke="none" /><path d="M 102.88285421437855 79.19881850522331 l 5.411483391743215 -39.046458758194724 a60.41966633616416,60.41966633616416 0 0,0 1.0289498511410864,0.15164046100331768 l -6.0828022233129575 38.947523813030436" fill="#54ff2b" stroke="none" /><path d="M 104.307194497241 79.44645832069477 l 4.040267750397285 -19.279791441165756 a40.698581713152564,40.698581713152564 0 0,0 0.6844285832681907,0.14958957880464852 l -4.371539057819003 19.207388364265235" fill="#ff9e0e" stroke="none" /><path d="M 104.66035177308747 79.52364482259891 l 4.369903131676669 -19.200200536743747 a40.69121007026771,40.69121007026771 0 0,0 0.6816287548358194,0.16131950372783038 l -4.699755573475013 19.122135120875047" fill="#ff9e0e" stroke="none" /><path d="M 105.01212808612495 79.60689891045804 l 4.925515707617469 -20.040696889138864 a41.63710824675605,41.63710824675605 0 0,0 0.6945289961760993,0.17705090545846852 l -5.269753592478594 19.952942987511527" fill="#ffac10" stroke="none" /><path d="M 106.40334571778207 80.00007090966166 l 6.094533615749474 -19.035398918909536 a40.987239729275345,40.987239729275345 0 0,0 0.6700773079965844,0.22091395323097845 l -6.421293745988476 18.927671241419322" fill="#ffa30f" stroke="none" /><path d="M 107.76421540070413 80.48803036053334 l 7.540248108524123 -18.949125516819876 a41.39423201276027,41.39423201276027 0 0,0 0.6597770076510292,0.2691396074349333 l -7.86530898576354 18.816525023201365" fill="#ffa90f" stroke="none" /><line stroke="#e1ed5e" stroke-width="0.3" x1="143.23703022742887" x2="145.7803849466894" y1="26.81831364943548" y2="22.513508569990506" /><path d="M 143.74570117128098 25.957352633546492 a86.0,86.0 0 0,1 28.547481713284135,27.462654790039103" fill="none" id="id62" stroke="none" /><text fill="#e1ed5e" style="font-size:6.75px; font-family:Arial;" text-anchor="middle"><textPath startOffset="19.985693538727396" xlink:href="#id62">February</textPath></text><path d="M 112.77801427241765 83.33499621200491 l 11.87611919007216 -15.488758039380984 a40.51778247187137,40.51778247187137 0 0,0 0.5498213781721527,0.42914430678555465 l -12.140973123403743 15.282035343372206" fill="#ff9b0e" stroke="none" /><path d="M 113.34407831869373 83.78471172551755 l 12.420473072794943 -15.092953336362939 a40.546493081001856,40.546493081001856 0 0,0 0.5351026171494743,0.4481330531352401 l -12.678433226903534 14.87691912583388" fill="#ff9c0e" stroke="none" /><path d="M 113.89432698308785 84.25364557470407 l 12.974992283980843 -14.70447812389379 a40.61050997973876,40.61050997973876 0 0,0 0.5201800463177676,0.46702278164244043 l -13.2261833178946 14.478956333482051" fill="#ff9d0e" stroke="none" /><path d="M 114.68862486808459 84.99185889309783 l 14.26627228856946 -14.576601247510716 a41.3961719187826,41.3961719187826 0 0,0 0.5049627264624237,0.502794256038368 l -14.515070815199206 14.32887114082223" fill="#ffa90f" stroke="none" /><path d="M 115.4437574822437 85.77008943001954 l 17.25948965261988 -15.902930004091388 a44.46898305815407,44.46898305815407 0 0,0 0.513841977828517,0.5673971458757157 l -17.530675271064432 15.603480070946125" fill="#ffd714" stroke="none" /><path d="M 115.9244219780498 86.31012108654704 l 47.773265934149435 -41.069636740358895 a84.0,84.0 0 0,0 0.9331575460515311,1.1045642014835737 l -48.47313409368808 40.241213589246215" fill="#4dd2ff" stroke="none" /><path d="M 117.2510076193507 88.02491185347247 l 49.11627329003736 -34.09491868853925 a80.790231495452,80.790231495452 0 0,0 0.7831864069253984,1.149229412036328 l -49.69588416263149 33.24441125323252" fill="#48f5ff" stroke="none" /><path d="M 117.45458315368197 88.32363383020206 l 24.714435948891765 -16.532895760298018 a50.73449152907703,50.73449152907703 0 0,0 0.47932827727494,0.7300498511126093 l -24.99536086152463 16.105027845207736" fill="#cfff1d" stroke="none" /><line stroke="#e1ed5e" stroke-width="0.3" x1="172.23445277983987" x2="176.4835382374775" y1="55.19839476539836" y2="52.563006222186495" /><path d="M 173.08426987136738 54.67131705675599 a86.0,86.0 0 0,1 12.851231095245387,41.99856678651699" fill="none" id="id63" stroke="none" /><text fill="#e1ed5e" style="font-size:6.75px; font-family:Arial;" text-anchor="middle"><textPath startOffset="22.20632615414155" xlink:href="#id63">March</textPath></text><path d="M 117.84615892207809 88.93136811851018 l 16.856250415367498 -10.454665990847682 a40.83515109712462,40.83515109712462 0 0,0 0.36534665551165174,0.6005338402262042 l -17.033712869165374 10.162964377414397" fill="#ffa00e" stroke="none" /><path d="M 118.3937258080291 89.86733742301442 l 17.147797515808353 -9.446310550650503 a40.57753157735914,40.57753157735914 0 0,0 0.33175397740664553,0.6146897354374092 l -17.307859592433466 9.149739831880636" fill="#ff9c0e" stroke="none" /><path d="M 118.56541770881063 90.18545643968196 l 20.850379883171737 -11.02248087396671 a44.58460145708497,44.58460145708497 0 0,0 0.35283524707063113,0.6815653921369262 l -21.037024563402483 10.66194275956944" fill="#ffd814" stroke="none" /><path d="M 119.196687751892 91.48605970444005 l 18.110941563571 -8.032400024500124 a40.812260206061126,40.812260206061126 0 0,0 0.27929052113946917,0.6446410296049823 l -18.24652279455315 7.719459850308538" fill="#ffa00e" stroke="none" /><path d="M 119.47837535516314 92.15188598940014 l 18.14854040614055 -7.312304626864826 a40.56628012242963,40.56628012242963 0 0,0 0.2553868518805219,0.649931681660372 l -18.271720807902774 6.99882394030867" fill="#ff9c0e" stroke="none" /><line stroke="#e1ed5e" stroke-width="0.3" x1="184.98032266829074" x2="189.97916517819016" y1="98.17113171792111" y2="98.06355123074" /><path d="M 185.9800911702706 98.14961562048488 a86.0,86.0 0 0,1 -9.607161424134198,41.387399972396054" fill="none" id="id64" stroke="none" /><text fill="#e1ed5e" style="font-size:6.75px; font-family:Arial;" text-anchor="middle"><textPath startOffset="21.466115282336823" xlink:href="#id64">April</textPath></text><line stroke="#e1ed5e" stroke-width="0.3" x1="174.80103733775053" x2="179.2010983576182" y1="140.37084112569926" y2="142.7455964860345" /><path d="M 175.68104954172406 140.8457921977663 a86.0,86.0 0 0,1 -30.038265399797805,32.042727171017184" fill="none" id="id65" stroke="none" /><text fill="#e1ed5e" style="font-size:6.75px; font-family:Arial;" text-anchor="middle"><textPath startOffset="22.206326154141568" xlink:href="#id65">May</textPath></text><line stroke="#e1ed5e" stroke-width="0.3" x1="143.8653032363475" x2="146.44561519142675" y1="172.8068346515853" y2="177.08958963109032" /><path d="M 144.38136562736335 173.6633856474863 a86.0,86.0 0 0,1 -40.68145358897372,12.25698825130547" fill="none" id="id66" stroke="none" /><text fill="#e1ed5e" style="font-size:6.75px; font-family:Arial;" text-anchor="middle"><textPath startOffset="21.466115282336833" xlink:href="#id66">June</textPath></text><line stroke="#e1ed5e" stroke-width="0.3" x1="102.19456741930631" x2="102.32365962044197" y1="184.97166512339345" y2="189.96999836594603" /><path d="M 102.22038585953345 185.97133177190398 a86.0,86.0 0 0,1 -42.740103519485714,-10.115201625700543" fill="none" id="id67" stroke="none" /><text fill="#e1ed5e" style="font-size:6.75px; font-family:Arial;" text-anchor="middle"><textPath startOffset="22.20632615414155" xlink:href="#id67">July</textPath></text><line stroke="#e1ed5e" stroke-width="0.3" x1="58.666819895761336" x2="56.23545636021788" y1="174.27360380694188" y2="178.64263932499728" /><path d="M 58.180547188652646 175.14741091055294 a86.0,86.0 0 0,1 -31.652253787137756,-30.449443065178592" fill="none" id="id68" stroke="none" /><text fill="#e1ed5e" style="font-size:6.75px; font-family:Arial;" text-anchor="middle"><textPath startOffset="22.20632615414155" xlink:href="#id68">August</textPath></text><line stroke="#e1ed5e" stroke-width="0.3" x1="26.63291911575756" x2="22.317208475507996" y1="142.92168965132927" y2="145.44649492493687" /><path d="M 25.769776987707644 143.4266507060508 a86.0,86.0 0 0,1 -11.730757126820373,-40.83630448921669" fill="none" id="id69" stroke="none" /><text fill="#e1ed5e" style="font-size:6.75px; font-family:Arial;" text-anchor="middle"><textPath startOffset="21.46611528233685" xlink:href="#id69">September</textPath></text><line stroke="#e1ed5e" stroke-width="0.3" x1="15.007084014347285" x2="10.007500721073583" y1="101.09737516637583" y2="101.16192664675087" /><path d="M 14.007167355692545 101.11028546245083 a86.0,86.0 0 0,1 10.666146001902534,-42.60595125391555" fill="none" id="id70" stroke="none" /><text fill="#e1ed5e" style="font-size:6.75px; font-family:Arial;" text-anchor="middle"><textPath startOffset="22.20632615414155" xlink:href="#id70">October</textPath></text><line stroke="#e1ed5e" stroke-width="0.3" x1="26.266209847984243" x2="21.928928074336255" y1="57.711370442889674" y2="55.22380399835377" /><path d="M 25.398753493254645 57.213857153982495 a86.0,86.0 0 0,1 29.58750427330803,-30.492523968695096" fill="none" id="id71" stroke="none" /><text fill="#e1ed5e" style="font-size:6.75px; font-family:Arial;" text-anchor="middle"><textPath startOffset="21.46611528233685" xlink:href="#id71">November</textPath></text><line stroke="#e1ed5e" stroke-width="0.3" x1="56.762969772571076" x2="54.21961505331055" y1="26.818313649435495" y2="22.513508569990535" /><path d="M 56.25429882871897 25.957352633546506 a86.0,86.0 0 0,1 42.265352541879196,-11.944610805530505" fill="none" id="id72" stroke="none" /><text fill="#e1ed5e" style="font-size:6.75px; font-family:Arial;" text-anchor="middle"><textPath startOffset="22.20632615414155" xlink:href="#id72">December</textPath></text></svg>