<?xml version="1.0" encoding="utf-8" ?>
<svg baseProfile="full" height="200mm" version="1.1" viewBox="0,0,200,200" width="200mm" xmlns="http://www.w3.org/2000/svg" xmlns:ev="http://www.w3.org/2001/xml-events" xmlns:xlink="http://www.w3.org/1999/xlink"><defs /><rect fill="#1a1a1a" height="200" width="200" x="0" y="0" /><text alignment-baseline="middle" fill="#e1ed5e" style="dominant-baseline: central; font-size:9.0px; font-family:Arial;" text-anchor="middle" x="100.0" y="100.0">2020</text><line stroke="#e1ed5e" stroke-width="0.3" x1="100.0" x2="100.0" y1="15.0" y2="10.0" /><path d="M 100.0 14.0 a86.0,86.0 0 0,1 42.35913384403234,11.155469271406648" fill="none" id="id37" stroke="none" /><text fill="#e1ed5e" style="font-size:6.75px; font-family:Arial;" text-anchor="middle"><textPath startOffset="22.145653131862478" xlink:href="#id37">January</textPath></text><path d="M 100.0 79.0 l 0.0 -23.76250257511216 a44.76250257511216,44.76250257511216 0 0,0 0.7684078798503131,0.006595857483181672 l -0.40791495500145836 23.759001115823413" fill="#e7ff1a" stroke="none" /><path d="M 100.72087961077811 79.0123766808444 l 0.26953050637094683 -7.847086609411494 a28.851714140840187,28.851714140840187 0 0,0 0.494840199811391,0.021250567346234855 l -0.4041964667831741 7.841303473639428" fill="#ff4006" stroke="none" /><path d="M 101.08105385017728 79.02784411241856 l 0.5716541129838133 -11.089937073262016 a32.10466085541574,32.10466085541574 0 0,0 0.5501449300806288,0.03309535286327575 l -0.7619433951969045 11.078489742574048" fill="#ff6f0a" stroke="none" /><path d="M 103.94208987418118 79.37332000966035 l 1.8128251952385739 -9.485467448501035 a30.657143879277378,30.657143879277378 0 0,0 0.5160670526146508,0.10322786382367802 l -1.9753887333841815 9.4529501880145" fill="#ff5b08" stroke="none" /><path d="M 104.64783097203109 79.52079915486377 l 1.7280316566343041 -7.614026322369182 a28.80765587382417,28.80765587382417 0 0,0 0.48131810344053516,0.11358976185071656 l -1.8584819138147244 7.583240416872238" fill="#ff4006" stroke="none" /><path d="M 105.3480935250658 79.69241777938227 l 1.9729140584977942 -7.491476031482379 a28.746909255470417,28.746909255470417 0 0,0 0.4761290335569159,0.12977108534770404 l -2.101224492989403 7.456504451990533" fill="#ff3f05" stroke="none" /><path d="M 106.04205211174951 79.88797359093562 l 4.281397177563244 -14.251378755141657 a35.880596702234406,35.880596702234406 0 0,0 0.5883723605985578,0.18227926132037842 l -4.525410171033433 14.175782906014632" fill="#ffa40f" stroke="none" /><line stroke="#e1ed5e" stroke-width="0.3" x1="143.13028292997686" x2="145.6673583964461" y1="26.7553504044142" y2="22.446841604673864" /><path d="M 143.63769802327073 25.89364864446614 a86.0,86.0 0 0,1 29.32050498858742,28.57503671076993" fill="none" id="id38" stroke="none" /><text fill="#e1ed5e" style="font-size:6.75px; font-family:Arial;" text-anchor="middle"><textPath startOffset="20.669276256404974" xlink:href="#id38">February</textPath></text><path d="M 117.21940702142032 87.97951657250589 l 6.2333954750581615 -4.3513941514795 a28.601963575945728,28.601963575945728 0 0,0 0.27758922495295174,0.40501097506085326 l -6.307174436826438 4.243748441348598" fill="#ff3d05" stroke="none" /><path d="M 117.81537515405839 88.88188828441811 l 7.692033443825883 -4.800397769281127 a30.067039056067593,30.067039056067593 0 0,0 0.269503807824882,0.4402142160844852 l -7.773305216106167 4.667646437072087" fill="#ff5207" stroke="none" /><line stroke="#e1ed5e" stroke-width="0.3" x1="172.87174338648825" x2="177.1583165268699" y1="56.24261187166439" y2="53.66864786411523" /><path d="M 173.72905801456457 55.72781907015455 a86.0,86.0 0 0,1 12.242430191666344,42.057860355516425" fill="none" id="id39" stroke="none" /><text fill="#e1ed5e" style="font-size:6.75px; font-family:Arial;" text-anchor="middle"><textPath startOffset="22.145653131862474" xlink:href="#id39">March</textPath></text><path d="M 119.0197475246899 91.09779779509293 l 9.599947191456543 -4.493260015351822 a31.599451478464054,31.599451478464054 0 0,0 0.22573374399183913,0.49326896907680967 l -9.675665400303433 4.327802064060329" fill="#ff6809" stroke="none" /><path d="M 119.16976305983485 91.42560881287824 l 6.793016968107994 -3.0384300861471143 a28.441581613972065,28.441581613972065 0 0,0 0.1955238441384123,0.44739681917432333 l -6.844174694263377 2.9213711971969416" fill="#ff3a05" stroke="none" /><path d="M 119.94978838288452 93.4421083053983 l 14.103310729769069 -4.636038364220819 a35.845747716263624,35.845747716263624 0 0,0 0.1871408923356808,0.5862161798214844 l -14.180816337882007 4.393253150707948" fill="#ffa30f" stroke="none" /><path d="M 120.592083275326 95.88100663000786 l 8.950131630904252 -1.7902769892361894 a30.127428329420145,30.127428329420145 0 0,0 0.09708737043121164,0.5080021473138251 l -8.97954529361762 1.6363722768890498" fill="#ff5307" stroke="none" /><path d="M 120.65975698304385 96.23510406497455 l 10.25949143650842 -1.8696211013730974 a31.428453749165747,31.428453749165747 0 0,0 0.09216795524186881,0.5316002731541235 l -10.290074209242523 1.6932277952983814" fill="#ff6609" stroke="none" /><path d="M 120.96210409425399 98.7389718711861 l 9.67391526449076 -0.5819587198610016 a30.691404051847677,30.691404051847677 0 0,0 0.027123032216590386,0.5261795790255649 l -9.682479886163922 0.41580734745870607" fill="#ff5b08" stroke="none" /><line stroke="#e1ed5e" stroke-width="0.3" x1="184.99686870605535" x2="189.99668451229388" y1="99.2704041080226" y2="99.22748670261217" /><path d="M 185.99683186730306 99.26182062694052 a86.0,86.0 0 0,1 -10.086455211305974,41.156179273409016" fill="none" id="id40" stroke="none" /><text fill="#e1ed5e" style="font-size:6.75px; font-family:Arial;" text-anchor="middle"><textPath startOffset="21.40746469413373" xlink:href="#id40">April</textPath></text><path d="M 120.99922638620191 100.18025310272382 l 7.573170904522674 0.06500656395108818 a28.573449900967557,28.573449900967557 0 0,0 -0.008420416627340976,0.49044705420033324 l -7.570939056296664 -0.19500053412049245" fill="#ff3c05" stroke="none" /><path d="M 120.98066250479742 100.90099992219065 l 9.39867856718814 0.4036196976999679 a30.4073411583557,30.4073411583557 0 0,0 -0.02687199622622953,0.521309547877368 l -9.39036498150534 -0.5649010389540666" fill="#ff5708" stroke="none" /><path d="M 120.9064616781168 101.97986365728391 l 8.410105648963828 0.7964457489107494 a29.44773359296393,29.44773359296393 0 0,0 -0.05197890624421165,0.5028487664501843 l -8.39519435023795 -0.940699037643865" fill="#ff4906" stroke="none" /><path d="M 120.86939407059847 102.33845913500097 l 7.799768070820382 0.8739802810947569 a28.848580985778995,28.848580985778995 0 0,0 -0.05937026117021447,0.49167093079035373 l -7.783615723390504 -1.0077448888085192" fill="#ff4006" stroke="none" /><path d="M 120.7213421655516 103.40968896794604 l 9.674983371946917 1.5920148320909009 a30.805091252662912,30.805091252662912 0 0,0 -0.09033986509350579,0.5210563349744246 l -9.646228689361177 -1.7578641999859135" fill="#ff5d08" stroke="none" /><path d="M 120.65975698304385 103.76489593502545 l 9.08181372881323 1.6550089925225082 a30.23138101099672,30.23138101099672 0 0,0 -0.09742236392594635,0.5097549748330715 l -9.052065072605124 -1.8106665323888942" fill="#ff5407" stroke="none" /><path d="M 120.16314734710363 105.8691983318838 l 8.89664671249321 2.5896841968883035 a30.265893748933735,30.265893748933735 0 0,0 -0.14948999419135942,0.49760357167740016 l -8.850880398298221 -2.7420253721564274" fill="#ff5507" stroke="none" /><path d="M 120.05942366710727 106.21446072829308 l 7.3487439837846935 2.276659671154736 a28.69332290999631,28.69332290999631 0 0,0 -0.14980002916821195,0.46924645778977125 l -7.3085792388392266 -2.4024751626358913" fill="#ff3e05" stroke="none" /><path d="M 119.83427380445688 106.89939002012753 l 7.387071733075972 2.5696070093424894 a28.821234491566667,28.821234491566667 0 0,0 -0.1665590531914366,0.46589531542073187 l -7.341872509840592 -2.6960372811441426" fill="#ff4006" stroke="none" /><path d="M 119.31412917781788 108.2440532568976 l 7.102472405099319 3.0316231306215062 a28.722425336079116,28.722425336079116 0 0,0 -0.19745452594415677,0.4518145969780102 l -7.049383997138197 -3.1530997973753614" fill="#ff3e05" stroke="none" /><path d="M 119.0197475246899 108.90220220490707 l 7.1176158275748636 3.3314035967967714 a28.85867068871668,28.85867068871668 0 0,0 -0.21385751175564893,0.4468799483329006 l -7.059379057859302 -3.4530960471947756" fill="#ff4006" stroke="none" /><path d="M 118.70294669586154 109.54985784667822 l 6.87343125785399 3.509622975396958 a28.717610425894694,28.717610425894694 0 0,0 -0.22795209220559604,0.43712819341421605 l -6.812171096673445 -3.6270974119156767" fill="#ff3e05" stroke="none" /><line stroke="#e1ed5e" stroke-width="0.3" x1="174.33088141563837" x2="178.70328620479359" y1="141.23008692659167" y2="143.65538615756765" /><path d="M 175.20536237346943 141.71514677278685 a86.0,86.0 0 0,1 -30.301960400862466,31.631185727798858" fill="none" id="id41" stroke="none" /><text fill="#e1ed5e" style="font-size:6.75px; font-family:Arial;" text-anchor="middle"><textPath startOffset="22.145653131862474" xlink:href="#id41">May</textPath></text><path d="M 117.81537515405839 111.11811171558189 l 6.562831662494849 4.095692342327905 a28.735984435949206,28.735984435949206 0 0,0 -0.26475736200333105,0.4162425480982031 l -6.491556608865628 -4.20774856510478" fill="#ff3f05" stroke="none" /><path d="M 117.21940702142032 112.02048342749411 l 6.50531197640851 4.541212987521767 a28.933580484777373,28.933580484777373 0 0,0 -0.2877994337494369,0.4048259456790982 l -6.426397444129113 -4.6522161599103695" fill="#ff4206" stroke="none" /><path d="M 116.79662413953412 112.60449989151573 l 5.955175564028427 4.468874764785648 a28.445465577231506,28.445465577231506 0 0,0 -0.2964397092768245,0.3880490952858766 l -5.877583877397298 -4.570444773312399" fill="#ff3a05" stroke="none" /><path d="M 115.89218393027572 113.72728997021213 l 5.778604931747976 4.991421309332032 a28.635873338687325,28.635873338687325 0 0,0 -0.3245248108805192,0.3692496625841648 l -5.692069056908871 -5.08988324972749" fill="#ff3d05" stroke="none" /><path d="M 115.41159269507618 114.26474011684316 l 5.570717436008254 5.156172892786911 a28.590718783630237,28.590718783630237 0 0,0 -0.33647758841244507,0.3573275386232873 l -5.481384013859548 -5.251041891354695" fill="#ff3d05" stroke="none" /><path d="M 115.16444852881244 114.52719865689866 l 5.718971474058148 5.478645303779173 a28.919734154989825,28.919734154989825 0 0,0 -0.3465041343145357,0.3555437671548563 l -5.624080538592805 -5.576011763001766" fill="#ff4106" stroke="none" /><path d="M 114.91283532996324 114.78537596483092 l 10.760200190969982 10.668233220592313 a36.152330124396705,36.152330124396705 0 0,0 -0.4407280294273538,0.4369611458278293 l -10.575480241412663 -10.851374376648804" fill="#ffa70f" stroke="none" /><path d="M 114.39649973595853 115.28858382429668 l 5.262157085938719 5.588228470844644 a28.675844881148507,28.675844881148507 0 0,0 -0.36127499228431725,0.3343907393359006 l -5.165452322340434 -5.677736956312924" fill="#ff3e05" stroke="none" /><path d="M 113.03279911837588 116.46651593811092 l 9.211434113696843 11.638346088844639 a35.842561036246515,35.842561036246515 0 0,0 -0.4857350680819295,0.37771052688280415 l -9.010289100979682 -11.794757667348236" fill="#ffa30f" stroke="none" /><path d="M 112.45986205192187 116.90419585922612 l 4.422715688083088 6.000263238026521 a28.454097730995265,28.454097730995265 0 0,0 -0.39567318429169573,0.28643687198130846 l -4.319061493417424 -6.0753008813809055" fill="#ff3b05" stroke="none" /><path d="M 111.8722381534696 117.32195027204791 l 2.0024333890768946 2.921610158110038 a24.54196914069868,24.54196914069868 0 0,0 -0.3495520984472273,0.23519425184979445 l -1.951985002532664 -2.955554084016954" fill="#ff0000" stroke="none" /><path d="M 111.27062007382361 117.71928675628689 l 4.900837777483629 7.704930993722649 a30.13149344517306,30.13149344517306 0 0,0 -0.4388234070795951,0.27385826125652785 l -4.767850241614319 -7.787925051820724" fill="#ff5307" stroke="none" /><path d="M 110.96478420261333 117.91015095944535 l 7.772876197808968 12.696409114796657 a35.88678638245195,35.88678638245195 0 0,0 -0.5281633401541213,0.3171469103971981 l -7.553780101097411 -12.82797002572978" fill="#ffa40f" stroke="none" /><line stroke="#e1ed5e" stroke-width="0.3" x1="143.1302829299769" x2="145.66735839644613" y1="173.24464959558577" y2="177.55315839532614" /><path d="M 143.63769802327073 174.10635135553383 a86.0,86.0 0 0,1 -40.68552437913181,11.842963189579606" fill="none" id="id42" stroke="none" /><text fill="#e1ed5e" style="font-size:6.75px; font-family:Arial;" text-anchor="middle"><textPath startOffset="21.407464694133747" xlink:href="#id42">June</textPath></text><path d="M 110.34350942703117 118.27599006163325 l 3.6833161271382466 6.508066668118607 a28.478084610989175,28.478084610989175 0 0,0 -0.4275181754188965,0.2371371252367587 l -3.5710537635632558 -6.57033670878851" fill="#ff3b05" stroke="none" /><path d="M 109.71004243097381 118.62028667847754 l 3.470419435259045 6.654986859063897 a28.505508720329146,28.505508720329146 0 0,0 -0.43582585149065645,0.2225357851532661 l -3.3556663620548064 -6.71358059589" fill="#ff3b05" stroke="none" /><path d="M 108.07796709384702 119.3841803445677 l 2.9802738054923514 7.151572202597637 a28.747710431131967,28.747710431131967 0 0,0 -0.45715093568883564,0.18591930574838844 l -2.857068408613075 -7.201678764925317" fill="#ff3f05" stroke="none" /><path d="M 107.407793817531 119.65005319985036 l 2.631830748262502 6.981243740069007 a28.460850973297394,28.460850973297394 0 0,0 -0.45864098678662074,0.16841932318766467 l -2.511600609821754 -7.025393912265394" fill="#ff3b05" stroke="none" /><path d="M 106.72888874123015 119.89276391827305 l 2.398320383082159 7.090208058977892 a28.48485076534612,28.48485076534612 0 0,0 -0.4645435099346944,0.15270467872207874 l -2.2762541354997303 -7.13033365910199" fill="#ff3b05" stroke="none" /><path d="M 106.38641147887787 120.00534299687104 l 2.99655635026688 9.3866700877022 a30.853371265495277,30.853371265495277 0 0,0 -0.5059355906077507,0.15674013925102226 l -2.8349801267875048 -9.436726814759867" fill="#ff5d08" stroke="none" /><path d="M 105.69591212413111 120.21278271476187 l 2.0866900589477915 7.404926873059758 a28.69332290999631,28.69332290999631 0 0,0 -0.4752414941468254,0.1295291825347723 l -1.9592671638662709 -7.439656549738673" fill="#ff3e05" stroke="none" /><path d="M 104.9986988182912 120.39639698878246 l 2.711550074135935 11.064049621206278 a32.39147478709677,32.39147478709677 0 0,0 -0.5411965236065548,0.12772090596941338 l -2.5212213967895014 -11.108966670821916" fill="#ff730a" stroke="none" /><path d="M 104.29559338865022 120.5559693870025 l 4.021761270381959 19.245583572746224 a40.66130847048343,40.66130847048343 0 0,0 -0.6844721641536045,0.13691360259168497 l -3.690792620697396 -19.31178657200077" fill="#ffe315" stroke="none" /><path d="M 103.94208987418118 120.62667999033965 l 4.7039979907705884 24.613305208060382 a46.05877870851463,46.05877870851463 0 0,0 -0.7778785249032494,0.1417553797344062 l -4.280784732316282 -24.690428761726153" fill="#d7ff1c" stroke="none" /><path d="M 103.2317021107853 120.74984581791261 l 2.505672042259081 16.08821195914496 a37.282166822193346,37.282166822193346 0 0,0 -0.6332196625724983,0.09306148428149481 l -2.229127274078897 -16.12885451672534" fill="#ffb710" stroke="none" /><path d="M 102.875027216393 120.80226474461374 l 2.163421748673177 15.653442066060418 a36.80223535383972,36.80223535383972 0 0,0 -0.6265531115710994,0.08111984432317348 l -1.894390815211302 -15.688273506583986" fill="#ffb010" stroke="none" /><path d="M 102.51750503828377 120.84855314841334 l 3.5908242565032276 29.737175981723283 a50.953191052191286,50.953191052191286 0 0,0 -0.8692713834702634,0.09740367164443983 l -3.0798169714321646 -29.794435413874695" fill="#9dff22" stroke="none" /><path d="M 101.80034050326958 120.92268563240118 l 1.2875122604555354 14.962844097797712 a36.01813541408597,36.01813541408597 0 0,0 -0.616477838962219,0.0477192836140195 l -1.0304654267180806 -14.982741148406785" fill="#ffa60f" stroke="none" /><path d="M 101.08105385017728 120.97215588758144 l 0.7731154654757137 14.99823349077185 a36.01814620273315,36.01814620273315 0 0,0 -0.6177527815779776,0.02652896246758061 l -0.5155369232969066 -15.009295021665263" fill="#ffa60f" stroke="none" /><line stroke="#e1ed5e" stroke-width="0.3" x1="101.45913802915013" x2="101.54496967792366" y1="184.9874750549273" y2="189.98673829345242" /><path d="M 101.47630435890484 185.9873277026323 a86.0,86.0 0 0,1 -42.54439059252881,-10.42667462771756" fill="none" id="id43" stroke="none" /><text fill="#e1ed5e" style="font-size:6.75px; font-family:Arial;" text-anchor="middle"><textPath startOffset="22.145653131862474" xlink:href="#id43">July</textPath></text><path d="M 100.36049292484886 120.99690560180557 l 0.12798631215978856 7.4545610454602445 a28.455659654020803,28.455659654020803 0 0,0 -0.4884792370086399,0.004193006754993157 l -9.130549730828639e-16 -7.455659654020803" fill="#ff3b05" stroke="none" /><path d="M 99.63950707515114 120.99690560180557 l -0.1277856881310232 7.442875701579591 a28.443972588024153,28.443972588024153 0 0,0 -0.48813471503145855,-0.012572618726168714 l 0.25553371723322565 -7.439585365503374" fill="#ff3a05" stroke="none" /><path d="M 99.27912038922189 120.98762331915562 l -0.2558547080568709 7.448930663102095 a28.453323396669266,28.453323396669266 0 0,0 -0.4880073387035101,-0.020957134890273916 l 0.38368780736121977 -7.443440959785993" fill="#ff3b05" stroke="none" /><path d="M 98.91894614982273 120.97215588758144 l -0.3830527021039325 7.431120087464353 a28.440986166289072,28.440986166289072 0 0,0 -0.48736426204105165,-0.02931862377216482 l 0.5105613162774305 -7.423449485867496" fill="#ff3a05" stroke="none" /><path d="M 97.84075906011543 120.88869738790638 l -0.8347507132103973 8.075455925508324 a29.11848490532764,29.11848490532764 0 0,0 -0.4967670353027592,-0.05566378246255366 l 0.9732536501139558 -8.0599363825388" fill="#ff4406" stroke="none" /><path d="M 97.12497278360702 120.80226474461374 l -1.0237148668131726 7.407090813269644 a28.477498675664066,28.477498675664066 0 0,0 -0.4836766110809416,-0.07108380551003847 l 1.150716583501799 -7.388425934460723" fill="#ff3b05" stroke="none" /><path d="M 96.76829788921471 120.74984581791261 l -1.2060254180350651 7.743548328045086 a28.83690232283882,28.83690232283882 0 0,0 -0.48847309040453035,-0.08037806114025295 l 1.338776011492659 -7.721704268409165" fill="#ff4006" stroke="none" /><path d="M 96.41257539226777 120.69131181640829 l -1.2746762914908172 7.351994117276263 a28.461676564188075,28.461676564188075 0 0,0 -0.48068419534387596,-0.08759667282468198 l 1.4006952203857501 -7.3290292705202145" fill="#ff3b05" stroke="none" /><path d="M 93.95794788825049 120.11202640906438 l -4.284879512189528 14.262970314544598 a35.89270004490663,35.89270004490663 0 0,0 -0.588570831999635,-0.18234074826776578 l 4.529090977060798 -14.187312978470183" fill="#ffa40f" stroke="none" /><path d="M 93.61358852112213 120.00534299687104 l -2.2797858835084592 7.141396809437175 a28.496463970732062,28.496463970732062 0 0,0 -0.46473290321028704,-0.1527669360535955 l 2.40204152436649 -7.101208951981559" fill="#ff3b05" stroke="none" /><path d="M 92.93061703081489 119.77432235084164 l -2.6048883752265084 7.286336395158784 a28.737967530999708,28.737967530999708 0 0,0 -0.46310666532866657,-0.17005918220439606 l 2.729584192209294 -7.240546363945668" fill="#ff3f05" stroke="none" /><path d="M 92.25597844496254 119.51999308798841 l -2.7578825309807815 6.951665560281154 a28.478741212041506,28.478741212041506 0 0,0 -0.45287374184158086,-0.18417980824646457 l 2.876810734012803 -6.903298495455398" fill="#ff3b05" stroke="none" /><path d="M 91.92203290615298 119.3841803445677 l -3.438191039141184 8.250406864439187 a29.938141364423366,29.938141364423366 0 0,0 -0.472687504334859,-0.20176218786410993 l 3.579313618646474 -8.190170026915673" fill="#ff5007" stroke="none" /><path d="M 91.59046798132341 119.24265499422711 l -5.927944813852477 13.564297825901155 a35.80306404856195,35.80306404856195 0 0,0 -0.5610623102420477,-0.2509560349467877 l 6.15992052695016 -13.460538040044513" fill="#ffa30f" stroke="none" /><path d="M 90.93487009805054 118.94263497670748 l -3.249544286180415 6.790297758504668 a28.527793947565335,28.527793947565335 0 0,0 -0.4399254133848859,-0.21518956463014363 l 3.3656299488273707 -6.733514443777303" fill="#ff3c05" stroke="none" /><path d="M 90.6110303473126 118.78422872680471 l -4.124245011033508 8.251252744273408 a30.224563337140367,30.224563337140367 0 0,0 -0.4621087868166408,-0.23595603920404226 l 4.265281019563731 -8.179238753396529" fill="#ff5407" stroke="none" /><path d="M 90.28995756902619 118.62028667847754 l -4.128920552784492 7.917749578545847 a29.929655274408365,29.929655274408365 0 0,0 -0.45352147847473623,-0.2414746425889348 l 4.2642308470457895 -7.845704468234339" fill="#ff5007" stroke="none" /><line stroke="#e1ed5e" stroke-width="0.3" x1="58.13341422392154" x2="55.67067388415222" y1="173.97424548756322" y2="178.32567169271397" /><path d="M 57.64086615596768 174.84453072859336 a86.0,86.0 0 0,1 -31.369924170532247,-30.572349798747897" fill="none" id="id44" stroke="none" /><text fill="#e1ed5e" style="font-size:6.75px; font-family:Arial;" text-anchor="middle"><textPath startOffset="22.145653131862474" xlink:href="#id44">August</textPath></text><path d="M 89.34428304082925 118.09573695890944 l -7.557027453478531 12.833484740011984 a35.893186177065964,35.893186177065964 0 0,0 -0.5282575290531826,-0.31720346812481587 l 7.776217739089141 -12.701867271351249" fill="#ffa40f" stroke="none" /><path d="M 88.72937992617639 117.7192867562869 l -4.09710991708297 6.441337301523539 a28.633946286466664,28.633946286466664 0 0,0 -0.41248476937320044,-0.26736764400810853 l 4.20708031871318 -6.3700558158115355" fill="#ff3d05" stroke="none" /><path d="M 87.54013794807813 116.9041958592261 l -8.815673097238856 11.960153655445179 a35.858040504024736,35.858040504024736 0 0,0 -0.4923599429929624,-0.36947608022224887 l 9.019686029142584 -11.807058547958915" fill="#ffa30f" stroke="none" /><path d="M 87.2517909369889 116.68781488649013 l -4.545523932382118 5.9502367407666785 a28.48779707864925,28.48779707864925 0 0,0 -0.38606398799205577,-0.3002056921497771 l 4.646997865009402 -5.871329996996108" fill="#ff3b05" stroke="none" /><path d="M 85.60350026404147 115.28858382429668 l -10.142575205348496 10.771063387990907 a35.79485174999291,35.79485174999291 0 0,0 -0.44373260832834543,-0.4250858011408678 l 10.325980299542156 -10.595365456544457" fill="#ffa30f" stroke="none" /><path d="M 85.34317274990678 115.03919595460226 l -7.343411756310396 7.534987381241031 a31.521489013356394,31.521489013356394 0 0,0 -0.3842740893787549,-0.3809897151879783 l 7.471677765819114 -7.4078176558243936" fill="#ff6709" stroke="none" /><path d="M 84.83555147118756 114.52719865689866 l -5.438000465299898 5.209481433210124 a28.53064046835081,28.53064046835081 0 0,0 -0.3357705405486325,-0.3565766782939048 l 5.526626839584783 -5.115363294971729" fill="#ff3c05" stroke="none" /><path d="M 83.64595745247003 113.17365903436017 l -5.861502145850863 4.721611214731264 a28.526673891493527,28.526673891493527 0 0,0 -0.3039225986508581,-0.3839962750273813 l 5.941691175143282 -4.6202949957892026" fill="#ff3c05" stroke="none" /><path d="M 83.20337586046588 112.60449989151573 l -5.967393373373779 4.478043236693378 a28.460740908400492,28.460740908400492 0 0,0 -0.2898902381645107,-0.39329178310242463 l 6.043385631122121 -4.374945144322074" fill="#ff3b05" stroke="none" /><path d="M 82.37810715431573 111.42229804090323 l -12.461432069821804 8.077349712907477 a35.85028173521936,35.85028173521936 0 0,0 -0.3303045364758304,-0.5192935934652715 l 12.598254297923523 -7.862242444763533" fill="#ffa30f" stroke="none" /><path d="M 81.99639281039703 110.81064883170644 l -6.406765701205346 3.847078722243546 a28.47306238735368,28.47306238735368 0 0,0 -0.24802246017915242,-0.42119636027314444 l 6.471861871514268 -3.7365311936768424" fill="#ff3b05" stroke="none" /><line stroke="#e1ed5e" stroke-width="0.3" x1="26.387840678322732" x2="22.057713659400548" y1="142.50000000000003" y2="145.00000000000006" /><path d="M 25.521815274538298 143.00000000000003 a86.0,86.0 0 0,1 -11.493303480769221,-40.785679425670985" fill="none" id="id45" stroke="none" /><text fill="#e1ed5e" style="font-size:6.75px; font-family:Arial;" text-anchor="middle"><textPath startOffset="21.40746469413373" xlink:href="#id45">September</textPath></text><path d="M 81.63589988554817 110.18625677009913 l -6.535062125551618 3.6248887995896037 a28.473075390641352,28.473075390641352 0 0,0 -0.2334177304405821,-0.42946233362377784 l 6.59632520560753 -3.512171632491239" fill="#ff3b05" stroke="none" /><path d="M 81.1358732173502 109.22738970284198 l -17.32945292946017 8.476703817759423 a40.29156412653968,40.29156412653968 0 0,0 -0.29858110034894747,-0.6239196631520393 l 17.47241328776903 -8.17797165254228" fill="#ffdf14" stroke="none" /><path d="M 80.9802524753101 108.90220220490708 l -6.761871170399484 3.164897134637928 a28.46588746217883,28.46588746217883 0 0,0 -0.20334882576259558,-0.4443538829113795 l 6.815204461017136 -3.04835426951186" fill="#ff3b05" stroke="none" /><path d="M 80.68587082218212 108.24405325689762 l -5.75681819976305 2.457243367908656 a27.259313121601615,27.259313121601615 0 0,0 -0.18000772503112392,-0.4319530105633201 l 5.798151769330659 -2.3580578479040546" fill="#ff2904" stroke="none" /><path d="M 80.41425534168474 107.57618678355246 l -5.715280248288117 2.2107931782412744 a27.12797150723063,27.12797150723063 0 0,0 -0.16427836124171352,-0.43576787063706396 l 5.752389293344266 -2.1123570274100656" fill="#ff2703" stroke="none" /><path d="M 80.05021161711548 106.5578916946017 l -14.362681347044859 4.721298637874445 a36.11877231473328,36.11877231473328 0 0,0 -0.18856627945249532,-0.5906811846633075 l 14.44161234227461 -4.474048419519746" fill="#ffa70f" stroke="none" /><path d="M 79.56144815229197 104.8234425847677 l -7.300855374998293 1.7229819893010654 a28.501410276881096,28.501410276881096 0 0,0 -0.10829061763732453,-0.4771484422699421 l 7.329356854193284 -1.5973992130920969" fill="#ff3b05" stroke="none" /><path d="M 79.407916724674 104.11899336999214 l -14.642119920261809 2.928834060536958 a35.932171466785704,35.932171466785704 0 0,0 -0.11579348902431795,-0.605880464246283 l 14.690239701568284 -2.6770510312573603" fill="#ffa40f" stroke="none" /><path d="M 79.22317932658666 103.0534771498775 l -7.625601557630612 1.1207008269600658 a28.70751383127448,28.70751383127448 0 0,0 -0.06747015350668926,-0.48818042055504146 l 7.643716227692514 -0.9896320982049387" fill="#ff3e05" stroke="none" /><path d="M 79.0935383218832 101.97986365728391 l -7.4058668754721255 0.7013432929579693 a28.43900172010952,28.43900172010952 0 0,0 -0.04185459606006206,-0.4864138500719373 l 7.4168150942299285 -0.5741083955103699" fill="#ff3a05" stroke="none" /><path d="M 79.03789590574601 101.26102812881392 l -7.446056097726927 0.4479362446508362 a28.459517296029833,28.459517296029833 0 0,0 -0.025150638373690117,-0.48791566540254916 l 7.452648325557189 -0.3200487858715563" fill="#ff3b05" stroke="none" /><line stroke="#e1ed5e" stroke-width="0.3" x1="15.003131293944662" x2="10.003315487706104" y1="100.72959589197737" y2="100.7725132973878" /><path d="M 14.003168132696942 100.73817937305945 a86.0,86.0 0 0,1 10.791469493833604,-42.45332614584628" fill="none" id="id46" stroke="none" /><text fill="#e1ed5e" style="font-size:6.75px; font-family:Arial;" text-anchor="middle"><textPath startOffset="22.145653131862435" xlink:href="#id46">October</textPath></text><path d="M 79.00077361379809 99.81974689727619 l -8.300880691883624 -0.07125307725790209 a29.30118649723671,29.30118649723671 0 0,0 0.008634876041828226,-0.5029382399378539 l 8.29843438424313 0.21373823316480836" fill="#ff4706" stroke="none" /><path d="M 79.01933749520258 99.09900007780938 l -14.868107056201474 -0.6385004905205552 a35.881810720173235,35.881810720173235 0 0,0 0.031709970208886204,-0.6151649506657257 l 14.854955496536016 0.8936372345629929" fill="#ffa40f" stroke="none" /><path d="M 79.0935383218832 98.0201363427161 l -7.710836739844767 -0.730224256190028 a28.745336060679882,28.745336060679882 0 0,0 0.05073908738476001,-0.49085464365798653 l 7.697165259978344 0.8624834221309272" fill="#ff3f05" stroke="none" /><path d="M 79.13060592940154 97.66154086499901 l -7.428162917037067 -0.8323411485191635 a28.47465023325927,28.47465023325927 0 0,0 0.05860071321748164,-0.4852979698036687 l 7.412780117559917 0.9597327952462685" fill="#ff3b05" stroke="none" /><path d="M 79.22317932658666 96.9465228501225 l -16.68031852791059 -2.4514324052875183 a37.85949426970605,37.85949426970605 0 0,0 0.10001848811824297,-0.6421904421413258 l 16.635778547654077 2.737411029360294" fill="#ffbe11" stroke="none" /><path d="M 79.2786578344484 96.59031103205396 l -31.855261472562077 -5.241771152961414 a53.28364676280108,53.28364676280108 0 0,0 0.15626110050316297,-0.9012725029307167 l 31.76058555456668 5.787836688812723" fill="#82ff25" stroke="none" /><path d="M 79.407916724674 95.88100663000787 l -18.34913043786984 -3.6703399849430802 a39.71261562238249,39.71261562238249 0 0,0 0.13945234214983324,-0.6673299395030875 l 18.28342038489564 3.9847863757315767" fill="#ffd714" stroke="none" /><path d="M 79.56144815229197 95.17655741523228 l -8.207602209794706 -1.9369717733693967 a29.433065497495956,29.433065497495956 0 0,0 0.12027257869275858,-0.4907531641845707 l 8.173142104585649 2.077580762162085" fill="#ff4906" stroke="none" /><path d="M 79.73907114497095 94.47779374421319 l -14.349019980310624 -3.910889202891269 a35.872438561064726,35.872438561064726 0 0,0 0.16703148264108664,-0.5927358062364503 l 14.279770005594955 4.156632933030733" fill="#ffa40f" stroke="none" /><path d="M 79.83685265289637 94.1308016681162 l -8.88440419641904 -2.5861205788834547 a30.253143118631243,30.253143118631243 0 0,0 0.14942701598672858,-0.49739393771673507 l 8.83870086042868 2.7382521201909134" fill="#ff5507" stroke="none" /><path d="M 80.05021161711548 93.44210830539832 l -7.074698663955715 -2.325593972213182 a28.447130219713568,28.447130219713568 0 0,0 0.1564789645145833,-0.4626022540975075 l 7.033734277868766 2.446697900784851" fill="#ff3a05" stroke="none" /><path d="M 80.28708602549916 92.7611449362534 l -7.011986754719351 -2.5748986624697925 a28.46980999559884,28.46980999559884 0 0,0 0.1724041080511067,-0.45732237944577525 l 6.966751962853809 2.6948893221097125" fill="#ff3b05" stroke="none" /><path d="M 80.41425534168474 92.42381321644754 l -14.353674944847409 -5.552309820724229 a36.39013088858087,36.39013088858087 0 0,0 0.23036915326113572,-0.580680754487049 l 14.256247116620141 5.797891592424861" fill="#ffab0f" stroke="none" /><path d="M 80.5471966667186 92.08871423366112 l -13.838301265313094 -5.627916653188786 a35.9389433282547,35.9389433282547 0 0,0 0.23732393401414667,-0.5694910468893309 l 13.739651486762469 5.86464020951938" fill="#ffa50f" stroke="none" /><path d="M 80.68587082218212 91.75594674310238 l -13.634007005648566 -5.8195468625410145 a35.82407746591285,35.82407746591285 0 0,0 0.24627538067032947,-0.5635262667751743 l 13.532097742961259 6.052735199092055" fill="#ffa30f" stroke="none" /><path d="M 80.9802524753101 91.09779779509293 l -13.909469260395502 -6.510333944140975 a36.357662034636704,36.357662034636704 0 0,0 0.2694288735558645,-0.5630027213241277 l 13.795661128879733 6.74814916753019" fill="#ffaa0f" stroke="none" /><line stroke="#e1ed5e" stroke-width="0.3" x1="26.387840678322718" x2="22.05771365940052" y1="57.49999999999999" y2="54.99999999999999" /><path d="M 25.521815274538284 56.99999999999999 a86.0,86.0 0 0,1 29.574782752854787,-30.34633250058573" fill="none" id="id47" stroke="none" /><text fill="#e1ed5e" style="font-size:6.75px; font-family:Arial;" text-anchor="middle"><textPath startOffset="21.40746469413373" xlink:href="#id47">November</textPath></text><path d="M 82.18462484594161 88.88188828441811 l -12.721417302450023 -7.939105268684493 a35.99546100159407,35.99546100159407 0 0,0 0.33164213740850845,-0.521396524301051 l 12.583257473415625 8.156315467664216" fill="#ffa50f" stroke="none" /><path d="M 82.576782715395 88.27688183743585 l -12.882533428498881 -8.667943419893986 a36.52716685898862,36.52716685898862 0 0,0 0.3545053090914969,-0.5172338404840096 l 12.731838382592072 8.88781199544803" fill="#ffad10" stroke="none" /><path d="M 82.78059297857968 87.97951657250589 l -12.151142753991968 -8.48244134758991 a35.81897707141739,35.81897707141739 0 0,0 0.3562877855390573,-0.5011633895024744 l 12.003739869922939 8.689781963801904" fill="#ffa30f" stroke="none" /><path d="M 82.98947788004972 87.6856937992154 l -14.383519521044722 -10.412558907840566 a38.75688646192019,38.75688646192019 0 0,0 0.3947628448297126,-0.5355716154110592 l 14.202654656631191 10.657936832520488" fill="#ffca12" stroke="none" /><path d="M 83.2033758604659 87.39550010848427 l -11.836583116499495 -8.882392638451522 a35.79870260723617,35.79870260723617 0 0,0 0.37307025137499333,-0.4883609347658187 l 11.682360887770196 9.084274486458225" fill="#ffa30f" stroke="none" /><path d="M 83.64595745247003 86.82634096563983 l -11.714107668564415 -9.436055939622012 a36.041923752179954,36.041923752179954 0 0,0 0.3922617292533097,-0.4784955288240317 l 11.550399120072475 9.635753750144536" fill="#ffa60f" stroke="none" /><path d="M 83.8745106332314 86.54754324733833 l -11.54960849279198 -9.635094180747515 a36.04089412929455,36.04089412929455 0 0,0 0.4004065017347114,-0.4716778522356621 l 11.382507427550156 9.831938815432734" fill="#ffa60f" stroke="none" /><path d="M 84.34580500576568 86.00192230759919 l -11.002397373016635 -9.838411575100395 a35.75964397520593,35.75964397520593 0 0,0 0.41311294502196566,-0.4540834933154005 l 10.831886727152803 10.025832643973454" fill="#ffa20f" stroke="none" /><path d="M 84.83555147118756 85.47280134310135 l -10.69726691447159 -10.247739722096426 a35.813766869074236,35.813766869074236 0 0,0 0.42910554498891323,-0.4403000912938808 l 10.519774568331874 10.429862505458038" fill="#ffa30f" stroke="none" /><path d="M 85.34317274990677 84.96080404539775 l -10.287679834799787 -10.556065805631974 a35.73997563350017,35.73997563350017 0 0,0 0.44305233390018256,-0.42443411362711897 l 10.104955015034303 10.731112049564661" fill="#ffa20f" stroke="none" /><path d="M 85.86807049272753 84.46653392183569 l -10.329120691851926 -11.353513035964323 a36.34903881435758,36.34903881435758 0 0,0 0.46515514146532716,-0.41594459578723286 l 10.132700523563209 11.529153161634957" fill="#ffaa0f" stroke="none" /><path d="M 86.13680546590413 84.22622945171909 l -9.757028648288287 -11.10170752870707 a35.779970165615005,35.779970165615005 0 0,0 0.4648338130787068,-0.4015123766554654 l 9.56501535544673 11.267564037827247" fill="#ffa20f" stroke="none" /><path d="M 86.40962598614128 83.9905735841838 l -19.642305127539995 -23.13858605036841 a51.35151256747656,51.35151256747656 0 0,0 0.6769246027754665,-0.5647145792930757 l 19.24220619060262 23.47236281357337" fill="#98ff23" stroke="none" /><path d="M 87.25179093698888 83.31218511350988 l -13.572366314703556 -17.766663184758706 a43.357626173213475,43.357626173213475 0 0,0 0.5953353292843353,-0.44675072985160696 l 13.26537799650847 17.997032941874316" fill="#f8ff18" stroke="none" /><path d="M 87.83215693770416 82.88440491214696 l -8.609060082822484 -12.109721148621237 a35.858036943251015,35.858036943251015 0 0,0 0.5047529400617842,-0.3523567532519588 l 8.399912051586934 12.255722717678323" fill="#ffa30f" stroke="none" /><path d="M 88.4268655584334 82.4767994020092 l -24.224348902412107 -36.67875175182228 a64.95622720181522,64.95622720181522 0 0,0 0.9357234287107669,-0.6065246214005793 l 23.591139841444317 37.08919021492677" fill="#34ff5f" stroke="none" /><path d="M 88.72937992617638 82.28071324371311 l -7.912698262171283 -12.440075932381221 a35.74334707559918,35.74334707559918 0 0,0 0.5205522710875264,-0.32486311703812626 l 7.697981862294058 12.574074846260885" fill="#ffa20f" stroke="none" /><line stroke="#e1ed5e" stroke-width="0.3" x1="56.869717070023135" x2="54.33264160355391" y1="26.7553504044142" y2="22.446841604673864" /><path d="M 56.362301976729285 25.89364864446614 a86.0,86.0 0 0,1 42.16139366436587,-11.88097634709845" fill="none" id="id48" stroke="none" /><text fill="#e1ed5e" style="font-size:6.75px; font-family:Arial;" text-anchor="middle"><textPath startOffset="22.145653131862474" xlink:href="#id48">December</textPath></text><path d="M 89.65649057296885 81.72400993836675 l -7.26348478230922 -12.833881636670922 a35.74675316966134,35.74675316966134 0 0,0 0.5366367472040475,-0.2976633575956964 l 7.04210384694907 12.956677909699765" fill="#ffa20f" stroke="none" /><path d="M 90.28995756902619 81.37971332152246 l -6.82274794869751 -13.08351880466512 a35.75562109446708,35.75562109446708 0 0,0 0.5466741240074756,-0.27913570292556955 l 6.597146602976451 13.198712459263524" fill="#ffa20f" stroke="none" /><path d="M 90.61103034731259 81.2157712731953 l -13.267839915105242 -26.544567603819022 a50.67574169732878,50.67574169732878 0 0,0 0.7814675980820731,-0.38225496206267084 l 12.810212067761114 26.768416315978907" fill="#a0ff22" stroke="none" /><path d="M 90.93487009805054 81.0573650232925 l -12.930373157807763 -27.01950677930116 a50.954103167961094,50.954103167961094 0 0,0 0.7922423694711478,-0.37080943157481683 l 12.464642074465091 27.23749244244652" fill="#9dff22" stroke="none" /><path d="M 91.5904679813234 80.7573450057729 l -6.12829643354817 -14.022741540340501 a36.30337536246923,36.30337536246923 0 0,0 0.5731869487198444,-0.24465942460569634 l 5.8866744096578945 14.1258756146056" fill="#ffaa0f" stroke="none" /><path d="M 91.92203290615298 80.6158196554323 l -5.693971323397208 -13.66345835867531 a35.802412092322115,35.802412092322115 0 0,0 0.569335990326304,-0.23154399082557248 l 5.458580871880463 13.759189606080174" fill="#ffa30f" stroke="none" /><path d="M 92.93061703081487 80.22567764915836 l -21.208148907555373 -59.32296705252492 a84.0,84.0 0 0,0 1.3619769118199827,-0.47376626972565683 l 20.186666223690388 59.67829175481917" fill="#4dd2ff" stroke="none" /><path d="M 93.27111125876988 80.10723608172694 l -5.684151028497976 -16.804182508306404 a38.7395073969726,38.7395073969726 0 0,0 0.6317809732471185,-0.20767895467097497 l 5.394847317603097 16.899282384379408" fill="#ffca12" stroke="none" /><path d="M 93.95794788825049 79.88797359093562 l -4.220374349980459 -14.048253608717623 a35.66850330159218,35.66850330159218 0 0,0 0.5879188233894815,-0.17113460106794168 l 3.9785955142093536 14.118631904088085" fill="#ffa10e" stroke="none" /><path d="M 94.30408787586887 79.78721728523814 l -3.9675003217232754 -14.079258980136286 a35.62759693977868,35.62759693977868 0 0,0 0.5900924216979898,-0.16083231355822755 l 3.725226499090608 14.145291787838653" fill="#ffa00e" stroke="none" /><path d="M 94.6519064749342 79.69241777938228 l -3.728038808990924 -14.155970586603644 a35.63863984836467,35.63863984836467 0 0,0 0.5929501009364633,-0.1507255969447174 l 3.4844834148290826 14.217881415383623" fill="#ffa00e" stroke="none" /><path d="M 95.35216902796891 79.52079915486377 l -6.443923543747575 -28.39311611743909 a50.11517119125429,50.11517119125429 0 0,0 0.8405927043393614,-0.18320326751104238 l 5.955568422789096 28.499550843083846" fill="#a6ff21" stroke="none" /><path d="M 95.70440661134978 79.44403061299748 l -3.1601127732818326 -15.122283593854974 a36.4489408644358,36.4489408644358 0 0,0 0.6135632711548407,-0.12272983807256041 l 2.900053016596015 15.1743028285904" fill="#ffab0f" stroke="none" /><path d="M 96.41257539226777 79.30868818359171 l -2.4956359710286935 -14.394165091442103 a35.608907816109415,35.608907816109415 0 0,0 0.6031852191380662,-0.09925389827027405 l 2.2481732488375545 14.434884988208045" fill="#ffa00e" stroke="none" /><path d="M 96.76829788921471 79.25015418208739 l -2.246556795472757 -14.424506198040643 a35.59840390222841,35.59840390222841 0 0,0 0.6046217596362998,-0.08885857737274316 l 1.9986099302287723 14.46094584871227" fill="#ffa00e" stroke="none" /><path d="M 97.48249496171623 79.15144685158666 l -1.782251466653744 -14.75959883349388 a35.86681465600696,35.86681465600696 0 0,0 0.6118948578659796,-0.06856409511442052 l 1.528620707186965 14.78801868911527" fill="#ffa40f" stroke="none" /><path d="M 97.84075906011542 79.11130261209362 l -1.5895300702218225 -15.37726152395763 a36.459197191973686,36.459197191973686 0 0,0 0.6231057995633891,-0.059008767059310546 l 1.3253247072734178 15.402282046522124" fill="#ffac0f" stroke="none" /><path d="M 98.1996594967304 79.07731436759882 l -2.0120744736087666 -23.38335531741983 a44.46976245274021,44.46976245274021 0 0,0 0.7611338771664627,-0.05891657583975013 l 1.6103716016670866 23.414449660254636" fill="#eaff1a" stroke="none" /></svg>