<?xml version="1.0" encoding="utf-8" ?>
<svg baseProfile="full" height="200mm" version="1.1" viewBox="0,0,200,200" width="200mm" xmlns="http://www.w3.org/2000/svg" xmlns:ev="http://www.w3.org/2001/xml-events" xmlns:xlink="http://www.w3.org/1999/xlink"><defs /><rect fill="#1a1a1a" height="200" width="200" x="0" y="0" /><text alignment-baseline="middle" fill="#e1ed5e" style="dominant-baseline: central; font-size:9.0px; font-family:Arial;" text-anchor="middle" x="100.0" y="100.0">2024</text><line stroke="#e1ed5e" stroke-width="0.3" x1="100.0" x2="100.0" y1="15.0" y2="10.0" /><path d="M 100.0 14.0 a86.0,86.0 0 0,1 42.35913384403234,11.155469271406648" fill="none" id="id85" stroke="none" /><text fill="#e1ed5e" style="font-size:6.75px; font-family:Arial;" text-anchor="middle"><textPath startOffset="22.145653131862478" xlink:href="#id85">January</textPath></text><path d="M 100.72087961077811 79.0123766808444 l 0.4806817908173206 -13.994525869807509 a35.00277862799862,35.00277862799862 0 0,0 0.6003380556760337,0.02578109920639793 l -0.7208456070941905 13.98421220217528" fill="#ff8e0d" stroke="none" /><path d="M 101.80034050326958 79.07731436759882 l 1.0436491998044561 -12.128785681575035 a33.173604468760765,33.173604468760765 0 0,0 0.5669533870443393,0.05369107521231293 l -1.2517021502338084 12.109082850857538" fill="#ff740a" stroke="none" /><path d="M 102.15924093988457 79.11130261209362 l 1.259911759921264 -12.188503377426125 a33.253448176913956,33.253448176913956 0 0,0 0.5673103157031767,0.06356830417062224 l -1.4689579772252372 12.165079312748531" fill="#ff760a" stroke="none" /><path d="M 102.51750503828377 79.15144685158666 l 1.4594584579842862 -12.086409666107285 a33.17420706278456,33.17420706278456 0 0,0 0.5647864174348866,0.07312290915494346 l -1.6667226973099645 12.059575160751944" fill="#ff740a" stroke="none" /><path d="M 102.87502721639298 79.19773525538626 l 1.6617727709703813 -12.023759959561769 a33.1380514213567,33.1380514213567 0 0,0 0.5628338567180764,0.0827171946892363 l -1.8679317332961396 11.99346169157365" fill="#ff740a" stroke="none" /><path d="M 103.58742460773223 79.30868818359171 l 2.077040200966441 -11.97981592722013 a33.15853961816582,33.15853961816582 0 0,0 0.5600086804159392,0.1020522364424383 l -2.282383614933434 11.942395516846325" fill="#ff740a" stroke="none" /><path d="M 104.29559338865022 79.4440306129975 l 3.095290011643167 -14.81208321331007 a36.13203982859548,36.13203982859548 0 0,0 0.606050590087889,0.13208590534741302 l -3.34910301835019 14.756765849828938" fill="#ff9e0e" stroke="none" /><path d="M 104.64783097203109 79.52079915486377 l 5.389919950305454 -23.74898180801871 a45.3529335807476,45.3529335807476 0 0,0 0.7577564822407122,0.1788284665448767 l -5.796808586286051 23.652957197827604" fill="#e6ff1a" stroke="none" /><path d="M 106.72888874123014 80.10723608172694 l 4.86294603604808 -14.376435866692795 a36.17663178635651,36.17663178635651 0 0,0 0.5865683004812909,0.2040389034840485 l -5.10902010857439 14.290838530640157" fill="#ff9f0e" stroke="none" /><path d="M 107.06938296918511 80.22567764915836 l 5.117844327856238 -14.315521442477637 a36.20284462639171,36.20284462639171 0 0,0 0.5834016839310062,0.2142331792948025 l -5.3628351634413685 14.225557414174112" fill="#ff9f0e" stroke="none" /><path d="M 108.4095320186766 80.7573450057729 l 4.873278277456494 -11.151014393630188 a33.16938631059418,33.16938631059418 0 0,0 0.5197904985866874,0.2324956785495974 l -5.063982178898813 11.065714964170738" fill="#ff740a" stroke="none" /><path d="M 109.06512990194946 81.05736502329252 l 6.54262579754274 -13.671571572889393 a36.156444886559285,36.156444886559285 0 0,0 0.5575663856968175,0.27273365925220766 l -6.776352432501625 13.557244163539963" fill="#ff9f0e" stroke="none" /><path d="M 109.3889696526874 81.21577127319529 l 6.7771606806448155 -13.558861201250311 a36.15825266863068,36.15825266863068 0 0,0 0.5528300305856979,0.2822789526869778 l -7.008917932944092 13.4405242968905" fill="#ff9f0e" stroke="none" /><path d="M 109.71004243097381 81.37971332152246 l 5.685847099925405 -10.903361521148714 a33.296834946627385,33.296834946627385 0 0,0 0.504544060901227,0.2686412938726552 l -5.872179976613191 10.804149759553486" fill="#ff760a" stroke="none" /><path d="M 110.02825361518725 81.54914285379988 l 5.799520508105862 -10.670464521306494 a33.14467995561847,33.14467995561847 0 0,0 0.4975739517959396,0.2759958834638307 l -5.981838648057902 10.569335722409516" fill="#ff740a" stroke="none" /><line stroke="#e1ed5e" stroke-width="0.3" x1="143.13028292997686" x2="145.6673583964461" y1="26.7553504044142" y2="22.446841604673864" /><path d="M 143.63769802327073 25.89364864446614 a86.0,86.0 0 0,1 29.32050498858742,28.57503671076993" fill="none" id="id86" stroke="none" /><text fill="#e1ed5e" style="font-size:6.75px; font-family:Arial;" text-anchor="middle"><textPath startOffset="20.669276256404974" xlink:href="#id86">February</textPath></text><path d="M 110.65571695917076 81.90426304109057 l 6.615843856761802 -11.235149230399148 a34.03832689291043,34.03832689291043 0 0,0 0.5009586601994658,0.30081128173837235 l -6.807735273518702 11.119923948124855" fill="#ff810b" stroke="none" /><path d="M 111.27062007382361 82.28071324371311 l 8.115001689914164 -12.758130522499261 a36.120289245131424,36.120289245131424 0 0,0 0.5203288792230929,0.33727089307723573 l -8.332816201394264 12.61694578771813" fill="#ff9e0e" stroke="none" /><path d="M 116.7966241395341 87.39550010848427 l 10.919942461377204 -8.194528402039053 a34.652671500172175,34.652671500172175 0 0,0 0.3529588785672356,0.47885650649182065 l -11.059003359528266 8.005865586278357" fill="#ff890c" stroke="none" /><path d="M 117.01052211995028 87.68569379921539 l 12.268311100054435 -8.88131113126565 a36.145598194130926,36.145598194130926 0 0,0 0.35953665320746053,0.5057333287449283 l -12.418962851791857 8.669400575811217" fill="#ff9e0e" stroke="none" /><line stroke="#e1ed5e" stroke-width="0.3" x1="172.87174338648825" x2="177.1583165268699" y1="56.24261187166439" y2="53.66864786411523" /><path d="M 173.72905801456457 55.72781907015455 a86.0,86.0 0 0,1 12.242430191666344,42.057860355516425" fill="none" id="id87" stroke="none" /><text fill="#e1ed5e" style="font-size:6.75px; font-family:Arial;" text-anchor="middle"><textPath startOffset="22.145653131862474" xlink:href="#id87">March</textPath></text><path d="M 118.00360718960297 89.18935116829356 l 12.9863510271448 -7.797930663628786 a36.147707273214216,36.147707273214216 0 0,0 0.3148745704192518,0.5347258587281194 l -13.11829930769382 7.57385363660711" fill="#ff9e0e" stroke="none" /><path d="M 118.53625476483649 90.13048839642627 l 10.73793600621301 -5.717346106657605 a33.1651681524276,33.1651681524276 0 0,0 0.2632555200999441,0.5048271713330729 l -10.834499595287898 5.532172692220033" fill="#ff740a" stroke="none" /><path d="M 118.8641267826498 90.77261029715802 l 13.624652918830465 -6.664500482664398 a36.167291578987644,36.167291578987644 0 0,0 0.26801813110010875,0.5600548121739449 l -13.737050307890486 6.429633168425349" fill="#ff9f0e" stroke="none" /><path d="M 119.16976305983485 91.42560881287824 l 22.123209883172354 -9.895430384873642 a45.23542774610705,45.23542774610705 0 0,0 0.3109744332860621,0.7115703606882438 l -22.289818198475388 9.514197954409548" fill="#e7ff1a" stroke="none" /><path d="M 119.4528033332814 92.08871423366111 l 12.098088907789947 -4.920187437064676 a34.06032157477905,34.06032157477905 0 0,0 0.21562020386814412,0.5435037672898722 l -12.180767786624214 4.711782652561239" fill="#ff810b" stroke="none" /><path d="M 119.58574465831526 92.42381321644754 l 9.331085775777876 -3.609464432623906 a31.004868577112905,31.004868577112905 0 0,0 0.18775561597021836,0.49804407807007683 l -9.391672075562534 3.448752074359671" fill="#ff5507" stroke="none" /><path d="M 119.71291397450082 92.76114493625339 l 9.59842122593404 -3.5246732261502185 a31.225116692810957,31.225116692810957 0 0,0 0.1804511834379794,0.504754076196954 l -9.657512579415961 3.359384193572348" fill="#ff5808" stroke="none" /><path d="M 119.94978838288452 93.4421083053983 l 10.599350732772459 -3.484217115719026 a32.15732964762597,32.15732964762597 0 0,0 0.1678846655124718,0.5258963235613713 l -10.65760011406219 3.3017517584662675" fill="#ff6609" stroke="none" /><path d="M 120.592083275326 95.88100663000786 l 11.954863665294285 -2.391307548542705 a33.19168228947469,33.19168228947469 0 0,0 0.10696210504387711,0.5596709314729595 l -11.99415206262032 2.1857340520364312" fill="#ff750a" stroke="none" /><path d="M 120.7213421655516 96.59031103205396 l 11.997797438970625 -1.9742330028852373 a33.159142212189614,33.159142212189614 0 0,0 0.08760093961463543,0.5624608729999026 l -12.029919870723525 1.7679839479538935" fill="#ff740a" stroke="none" /><line stroke="#e1ed5e" stroke-width="0.3" x1="184.99686870605535" x2="189.99668451229388" y1="99.2704041080226" y2="99.22748670261217" /><path d="M 185.99683186730306 99.26182062694052 a86.0,86.0 0 0,1 -10.086455211305974,41.156179273409016" fill="none" id="id88" stroke="none" /><text fill="#e1ed5e" style="font-size:6.75px; font-family:Arial;" text-anchor="middle"><textPath startOffset="21.40746469413373" xlink:href="#id88">April</textPath></text><path d="M 120.86939407059847 102.33845913500097 l 12.02094105701185 1.3469715187217983 a33.09617113670276,33.09617113670276 0 0,0 -0.06811178425340139,0.5640632818786141 l -11.996047186498785 -1.553128477523821" fill="#ff730a" stroke="none" /><path d="M 120.82617615685814 102.69636545807757 l 9.040585938543533 1.1704848485804848 a30.116042392011323,30.116042392011323 0 0,0 -0.07078056341435726,0.5121328975680534 l -9.019160858573965 -1.3255060543486232" fill="#ff4806" stroke="none" /><path d="M 120.65975698304385 103.76489593502545 l 4.278163224589736 0.7796238526354733 a25.34861977273597,25.34861977273597 0 0,0 -0.08168738502622919,0.42742291626055295 l -4.264149547281348 -0.8529493339293408" fill="#ff0000" stroke="none" /><path d="M 120.51834098615036 104.47187691870673 l 15.070524019168172 3.2845505667160553 a36.42429793013736,36.42429793013736 0 0,0 -0.1383934928672676,0.609787264886306 l -15.011919664743239 -3.542772165541378" fill="#ffa20f" stroke="none" /><path d="M 120.43855184770803 104.8234425847677 l 11.77306566718324 2.778411441059427 a33.09647243371466,33.09647243371466 0 0,0 -0.13524238872010877,0.5518350975563706 l -11.723635751946833 -2.980102363223897" fill="#ff730a" stroke="none" /><path d="M 120.26092885502905 105.52220625578681 l 10.486176013708487 2.858053902489729 a31.868687110226883,31.868687110226883 0 0,0 -0.1483889657733995,0.5265800906125266 l -10.435568555860508 -3.037641917005264" fill="#ff6209" stroke="none" /><path d="M 120.16314734710363 105.8691983318838 l 10.421104041464892 3.033431507672792 a31.85362225963194,31.85362225963194 0 0,0 -0.15733213914206295,0.5237075216988761 l -10.3674955823192 -3.2118766329623916" fill="#ff6109" stroke="none" /><path d="M 119.83427380445688 106.89939002012753 l 59.50282141337066 20.698170060382587 a84.0,84.0 0 0,0 -0.48543931982422706,1.3578601744763141 l -59.13874192350249 -21.716565191239823" fill="#4dd2ff" stroke="none" /><path d="M 119.58574465831526 107.57618678355244 l 9.472712807970613 3.664248811171228 a31.15672227110992,31.15672227110992 0 0,0 -0.19723885440161018,0.49717075904802027 l -9.408415278602877 -3.8263205874328126" fill="#ff5708" stroke="none" /><path d="M 119.4528033332814 107.91128576633889 l 4.481486921641245 1.822581716772728 a25.837926120059684,25.837926120059684 0 0,0 -0.17062155160133133,0.40942961124828203 l -4.449539525503429 -1.8992438374622878" fill="#ff0801" stroke="none" /><path d="M 119.16976305983485 108.57439118712176 l 4.197625834342115 1.877544644056114 a25.59839499560011,25.59839499560011 0 0,0 -0.18286461543412405,0.39959218653228984 l -4.164776754052935 -1.9493258128030928" fill="#ff0400" stroke="none" /><line stroke="#e1ed5e" stroke-width="0.3" x1="174.33088141563837" x2="178.70328620479359" y1="141.23008692659167" y2="143.65538615756765" /><path d="M 175.20536237346943 141.71514677278685 a86.0,86.0 0 0,1 -30.301960400862466,31.631185727798858" fill="none" id="id89" stroke="none" /><text fill="#e1ed5e" style="font-size:6.75px; font-family:Arial;" text-anchor="middle"><textPath startOffset="22.145653131862474" xlink:href="#id89">May</textPath></text><path d="M 117.62189284568427 111.42229804090321 l 10.148078419100443 6.577861825655776 a33.09345946359567,33.09345946359567 0 0,0 -0.31308864890400273,0.4740561191438191 l -10.033665331275715 -6.7510978231386565" fill="#ff730a" stroke="none" /><path d="M 117.423217284605 111.72311816256416 l 8.247313932170218 5.549160879490519 a30.94039101656655,30.94039101656655 0 0,0 -0.30028424933920606,0.4381236938894163 l -8.150839946015692 -5.68991930844998" fill="#ff5407" stroke="none" /><path d="M 117.21940702142032 112.02048342749411 l 17.286194234443872 12.067106089140907 a42.08145062554999,42.08145062554999 0 0,0 -0.4185799841730636,0.5887851679469608 l -17.076499151740848 -12.36206848379737" fill="#ffee16" stroke="none" /><path d="M 117.01052211995028 112.31430620078461 l 9.799663714499996 7.0942008007820005 a33.09797891877415,33.09797891877415 0 0,0 -0.33712337364680117,0.4573726027704745 l -9.676438321269366 -7.261379712821353" fill="#ff730a" stroke="none" /><path d="M 116.79662413953412 112.60449989151573 l 9.688487779991345 7.270421851282767 a33.1130437693691,33.1130437693691 0 0,0 -0.3450821025098475,0.45172354946970084 l -9.562253700127194 -7.435666313993345" fill="#ff740a" stroke="none" /><path d="M 116.57777611688842 112.89097897827486 l 16.738403648801103 13.015883918637103 a42.20347591536902,42.20347591536902 0 0,0 -0.44963496694659033,0.5680990923215163 l -16.512502251212954 -13.301302954873302" fill="#fff016" stroke="none" /><path d="M 116.35404254752997 113.17365903436017 l 3.5486839464481883 2.858568589102565 a25.55681600795807,25.55681600795807 0 0,0 -0.2781472185119989,0.33929438047953053 l -3.4990899086975618 -2.9190652512805886" fill="#ff0300" stroke="none" /><path d="M 116.1254893667686 113.45245675266167 l 8.357420310227585 6.97205726474535 a31.883751960821826,31.883751960821826 0 0,0 -0.35422155563097285,0.4172721018558533 l -8.236504191089498 -7.114496149050759" fill="#ff6209" stroke="none" /><path d="M 115.89218393027572 113.72728997021213 l 10.621289434137001 9.174416842872475 a35.0350174082718,35.0350174082718 0 0,0 -0.39704507224700186,0.4517644076584577 l -10.462233297931414 -9.355393528342226" fill="#ff8f0d" stroke="none" /><line stroke="#e1ed5e" stroke-width="0.3" x1="143.1302829299769" x2="145.66735839644613" y1="173.24464959558577" y2="177.55315839532614" /><path d="M 143.63769802327073 174.10635135553383 a86.0,86.0 0 0,1 -40.68552437913181,11.842963189579606" fill="none" id="id90" stroke="none" /><text fill="#e1ed5e" style="font-size:6.75px; font-family:Arial;" text-anchor="middle"><textPath startOffset="21.407464694133747" xlink:href="#id90">June</textPath></text><line stroke="#e1ed5e" stroke-width="0.3" x1="101.45913802915013" x2="101.54496967792366" y1="184.9874750549273" y2="189.98673829345242" /><path d="M 101.47630435890484 185.9873277026323 a86.0,86.0 0 0,1 -42.54439059252881,-10.42667462771756" fill="none" id="id91" stroke="none" /><text fill="#e1ed5e" style="font-size:6.75px; font-family:Arial;" text-anchor="middle"><textPath startOffset="22.145653131862474" xlink:href="#id91">July</textPath></text><line stroke="#e1ed5e" stroke-width="0.3" x1="58.13341422392154" x2="55.67067388415222" y1="173.97424548756322" y2="178.32567169271397" /><path d="M 57.64086615596768 174.84453072859336 a86.0,86.0 0 0,1 -31.369924170532247,-30.572349798747897" fill="none" id="id92" stroke="none" /><text fill="#e1ed5e" style="font-size:6.75px; font-family:Arial;" text-anchor="middle"><textPath startOffset="22.145653131862474" xlink:href="#id92">August</textPath></text><line stroke="#e1ed5e" stroke-width="0.3" x1="26.387840678322732" x2="22.057713659400548" y1="142.50000000000003" y2="145.00000000000006" /><path d="M 25.521815274538298 143.00000000000003 a86.0,86.0 0 0,1 -11.493303480769221,-40.785679425670985" fill="none" id="id93" stroke="none" /><text fill="#e1ed5e" style="font-size:6.75px; font-family:Arial;" text-anchor="middle"><textPath startOffset="21.40746469413373" xlink:href="#id93">September</textPath></text><line stroke="#e1ed5e" stroke-width="0.3" x1="15.003131293944662" x2="10.003315487706104" y1="100.72959589197737" y2="100.7725132973878" /><path d="M 14.003168132696942 100.73817937305945 a86.0,86.0 0 0,1 10.791469493833604,-42.45332614584628" fill="none" id="id94" stroke="none" /><text fill="#e1ed5e" style="font-size:6.75px; font-family:Arial;" text-anchor="middle"><textPath startOffset="22.145653131862435" xlink:href="#id94">October</textPath></text><line stroke="#e1ed5e" stroke-width="0.3" x1="26.387840678322718" x2="22.05771365940052" y1="57.49999999999999" y2="54.99999999999999" /><path d="M 25.521815274538284 56.99999999999999 a86.0,86.0 0 0,1 29.574782752854787,-30.34633250058573" fill="none" id="id95" stroke="none" /><text fill="#e1ed5e" style="font-size:6.75px; font-family:Arial;" text-anchor="middle"><textPath startOffset="21.40746469413373" xlink:href="#id95">November</textPath></text><line stroke="#e1ed5e" stroke-width="0.3" x1="56.869717070023135" x2="54.33264160355391" y1="26.7553504044142" y2="22.446841604673864" /><path d="M 56.362301976729285 25.89364864446614 a86.0,86.0 0 0,1 42.16139366436587,-11.88097634709845" fill="none" id="id96" stroke="none" /><text fill="#e1ed5e" style="font-size:6.75px; font-family:Arial;" text-anchor="middle"><textPath startOffset="22.145653131862474" xlink:href="#id96">December</textPath></text></svg>